<svg width="4471" height="2389" xmlns="http://www.w3.org/2000/svg" xmlns:xlink="http://www.w3.org/1999/xlink" xml:space="preserve" overflow="hidden"><g transform="translate(-61 -16)"><rect x="2218.5" y="464.5" width="2030" height="777" stroke="#000000" stroke-width="9.16667" stroke-linejoin="round" stroke-miterlimit="10" fill="#FFDBCC"/><text font-family="Arial,Arial_MSFontService,sans-serif" font-weight="400" font-size="55" transform="matrix(1 0 0 1 2754.2 534)">#0: Metadata node (header in plaintext)</text><rect x="104.5" y="505.5" width="741" height="124" stroke="#000000" stroke-width="9.16667" stroke-linejoin="round" stroke-miterlimit="10" fill="none"/><text font-family="Consolas,Consolas_MSFontService,sans-serif" font-weight="400" font-size="55" transform="matrix(1 0 0 1 231.639 586)">host_file_handle</text><rect x="104.5" y="629.5" width="741" height="125" stroke="#000000" stroke-width="9.16667" stroke-linejoin="round" stroke-miterlimit="10" fill="none"/><text font-family="Consolas,Consolas_MSFontService,sans-serif" font-weight="400" font-size="55" transform="matrix(1 0 0 1 429.009 710)">kdk</text><rect x="104.5" y="754.5" width="741" height="125" stroke="#000000" stroke-width="9.16667" stroke-linejoin="round" stroke-miterlimit="10" fill="none"/><text font-family="Consolas,Consolas_MSFontService,sans-serif" font-weight="400" font-size="55" transform="matrix(1 0 0 1 216.457 835)">mode = READ|WRITE</text><rect x="104.5" y="877.5" width="741" height="125" stroke="#000000" stroke-width="9.16667" stroke-linejoin="round" stroke-miterlimit="10" fill="none"/><text font-family="Consolas,Consolas_MSFontService,sans-serif" font-weight="400" font-size="55" transform="matrix(1 0 0 1 277.186 959)">metadata_node</text><rect x="104.5" y="1002.5" width="741" height="124" stroke="#000000" stroke-width="9.16667" stroke-linejoin="round" stroke-miterlimit="10" fill="none"/><text font-family="Consolas,Consolas_MSFontService,sans-serif" font-weight="400" font-size="55" transform="matrix(1 0 0 1 201.274 1083)">metadata_decrypted</text><rect x="104.5" y="1126.5" width="741" height="125" stroke="#000000" stroke-width="9.16667" stroke-linejoin="round" stroke-miterlimit="10" fill="none"/><text font-family="Consolas,Consolas_MSFontService,sans-serif" font-weight="400" font-size="55" transform="matrix(1 0 0 1 277.186 1208)">root_mht_node</text><text font-family="Arial,Arial_MSFontService,sans-serif" font-weight="400" font-size="46" transform="matrix(1 0 0 1 3615.54 113)">Glossary:</text><text font-family="Arial,Arial_MSFontService,sans-serif" font-weight="400" font-size="46" transform="matrix(1 0 0 1 3615.54 168)">•</text><text font-family="Arial,Arial_MSFontService,sans-serif" font-weight="400" font-size="46" transform="matrix(1 0 0 1 3677.41 168)">KDK = Key Derivation Key</text><text font-family="Arial,Arial_MSFontService,sans-serif" font-weight="400" font-size="46" transform="matrix(1 0 0 1 3615.54 223)">•</text><text font-family="Arial,Arial_MSFontService,sans-serif" font-weight="400" font-size="46" transform="matrix(1 0 0 1 3677.41 223)">MHT = Merkle Hash Tree</text><text font-family="Arial,Arial_MSFontService,sans-serif" font-weight="400" font-size="46" transform="matrix(1 0 0 1 3615.54 278)">•</text><text font-family="Arial,Arial_MSFontService,sans-serif" font-weight="400" font-size="46" transform="matrix(1 0 0 1 3677.41 278)">KDF = Key Derivation Function</text><path d="M34.375-6.875 110.641-6.875C114.438-6.875 117.516-3.79696 117.516 0L117.516 33.7337 103.766 33.7337 103.766 0 110.641 6.875 34.375 6.875ZM117.516 74.9837 117.516 184.984 103.766 184.984 103.766 74.9837ZM117.516 226.234 117.516 336.234 103.766 336.234 103.766 226.234ZM117.516 377.484 117.516 487.484 103.766 487.484 103.766 377.484ZM117.516 528.734 117.516 638.734 103.766 638.734 103.766 528.734ZM117.516 679.984 117.516 789.984 103.766 789.984 103.766 679.984ZM117.516 831.234 117.516 941.234 103.766 941.234 103.766 831.234ZM117.516 982.484 117.516 1092.48 103.766 1092.48 103.766 982.484ZM117.516 1133.73 117.516 1243.73 103.766 1243.73 103.766 1133.73ZM117.516 1284.98 117.516 1394.98 103.766 1394.98 103.766 1284.98ZM41.25 20.625 0 0 41.25-20.625ZM131.266 1391.9 110.641 1433.15 90.0163 1391.9Z" transform="matrix(-1.83697e-16 -1 -1 1.83697e-16 3232.15 464.642)"/><rect x="2258.5" y="658.5" width="444" height="124" stroke="#000000" stroke-width="9.16667" stroke-linejoin="round" stroke-miterlimit="10" fill="none"/><text font-family="Consolas,Consolas_MSFontService,sans-serif" font-weight="400" font-size="55" transform="matrix(1 0 0 1 2328.09 739)">“GRAFS_PF”</text><rect x="2702.5" y="659.5" width="217" height="124" stroke="#000000" stroke-width="9.16667" stroke-linejoin="round" stroke-miterlimit="10" fill="none"/><text font-family="Consolas,Consolas_MSFontService,sans-serif" font-weight="400" font-size="55" transform="matrix(1 0 0 1 2749.56 740)">0x01</text><rect x="2919.5" y="659.5" width="216" height="124" stroke="#000000" stroke-width="9.16667" stroke-linejoin="round" stroke-miterlimit="10" fill="none"/><text font-family="Consolas,Consolas_MSFontService,sans-serif" font-weight="400" font-size="55" transform="matrix(1 0 0 1 2966.12 740)">0x00</text><rect x="3136.5" y="659.5" width="383" height="124" stroke="#000000" stroke-width="9.16667" stroke-linejoin="round" stroke-miterlimit="10" fill="none"/><text font-family="Consolas,Consolas_MSFontService,sans-serif" font-weight="400" font-size="55" transform="matrix(1 0 0 1 3206.13 740)">KDF salt</text><rect x="3519.5" y="659.5" width="307" height="124" stroke="#000000" stroke-width="9.16667" stroke-linejoin="round" stroke-miterlimit="10" fill="none"/><text font-family="Consolas,Consolas_MSFontService,sans-serif" font-weight="400" font-size="55" transform="matrix(1 0 0 1 3627.13 740)">MAC</text><text fill="#7F7F7F" font-family="Arial,Arial_MSFontService,sans-serif" font-weight="700" font-size="46" transform="matrix(1 0 0 1 2244.83 653)">0</text><text fill="#7F7F7F" font-family="Arial,Arial_MSFontService,sans-serif" font-weight="700" font-size="46" transform="matrix(1 0 0 1 2689.41 654)">7</text><text fill="#7F7F7F" font-family="Arial,Arial_MSFontService,sans-serif" font-weight="700" font-size="46" transform="matrix(1 0 0 1 2905.97 652)">8</text><text fill="#7F7F7F" font-family="Arial,Arial_MSFontService,sans-serif" font-weight="700" font-size="46" transform="matrix(1 0 0 1 3121.84 653)">9</text><text fill="#7F7F7F" font-family="Arial,Arial_MSFontService,sans-serif" font-weight="700" font-size="46" transform="matrix(1 0 0 1 3494.08 647)">41</text><text fill="#7F7F7F" font-family="Arial,Arial_MSFontService,sans-serif" font-weight="700" font-size="46" transform="matrix(1 0 0 1 3800.86 647)">57</text><rect x="2265.5" y="859.5" width="747" height="125" stroke="#000000" stroke-width="9.16667" stroke-linejoin="round" stroke-miterlimit="10" fill="none"/><text font-family="Consolas,Consolas_MSFontService,sans-serif" font-weight="400" font-size="55" transform="matrix(1 0 0 1 2365.4 941)">encrypted metadata</text><path d="M3883.64 922.646 3904.27 922.646 3904.27 929.521 3883.64 929.521ZM3911.14 922.646 3931.77 922.646 3931.77 929.521 3911.14 929.521ZM3938.64 922.646 3959.27 922.646 3959.27 929.521 3938.64 929.521ZM3966.14 922.646 3986.77 922.646 3986.77 929.521 3966.14 929.521ZM3993.64 922.646 4014.27 922.646 4014.27 929.521 3993.64 929.521ZM4021.14 922.646 4041.77 922.646 4041.77 929.521 4021.14 929.521ZM4048.64 922.646 4065.75 922.646 4062.31 926.083 4062.31 922.562 4069.18 922.562 4069.18 926.083C4069.18 927.982 4067.64 929.521 4065.75 929.521L4048.64 929.521ZM4062.31 915.687 4062.31 895.062 4069.18 895.062 4069.18 915.687ZM4062.31 888.187 4062.31 867.562 4069.18 867.562 4069.18 888.187ZM4062.31 860.687 4062.31 840.062 4069.18 840.062 4069.18 860.687ZM4062.31 833.187 4062.31 812.562 4069.18 812.562 4069.18 833.187ZM4062.31 805.687 4062.31 785.062 4069.18 785.062 4069.18 805.687ZM4062.31 778.187 4062.31 757.562 4069.18 757.562 4069.18 778.187ZM4062.31 750.687 4062.31 730.062 4069.18 730.062 4069.18 750.687ZM4062.31 723.187 4062.31 702.562 4069.18 702.562 4069.18 723.187ZM4062.31 695.687 4062.31 675.062 4069.18 675.062 4069.18 695.687ZM4062.31 668.187 4062.31 647.562 4069.18 647.562 4069.18 668.187ZM4062.31 640.687 4062.31 620.062 4069.18 620.062 4069.18 640.687ZM4062.31 613.187 4062.31 592.562 4069.18 592.562 4069.18 613.187ZM4062.31 585.687 4062.31 577.001 4065.75 580.438 4053.81 580.438 4053.81 573.563 4065.75 573.563C4067.64 573.563 4069.18 575.102 4069.18 577.001L4069.18 585.687ZM4046.93 580.438 4026.31 580.438 4026.31 573.563 4046.93 573.563ZM4019.43 580.438 3998.81 580.438 3998.81 573.563 4019.43 573.563ZM3991.93 580.438 3971.31 580.438 3971.31 573.563 3991.93 573.563ZM3964.43 580.438 3943.81 580.438 3943.81 573.563 3964.43 573.563ZM3936.93 580.438 3916.31 580.438 3916.31 573.563 3936.93 573.563ZM3909.43 580.438 3888.81 580.438 3888.81 573.563 3909.43 573.563ZM3881.93 580.438 3861.31 580.438 3861.31 573.563 3881.93 573.563ZM3854.43 580.438 3833.81 580.438 3833.81 573.563 3854.43 573.563ZM3826.93 580.438 3806.31 580.438 3806.31 573.563 3826.93 573.563ZM3799.43 580.438 3778.81 580.438 3778.81 573.563 3799.43 573.563ZM3771.93 580.438 3751.31 580.438 3751.31 573.563 3771.93 573.563ZM3744.43 580.438 3723.81 580.438 3723.81 573.563 3744.43 573.563ZM3716.93 580.438 3696.31 580.438 3696.31 573.563 3716.93 573.563ZM3689.43 580.438 3673.5 580.438 3676.94 577.001 3676.94 581.693 3670.06 581.693 3670.06 577.001C3670.06 575.102 3671.6 573.563 3673.5 573.563L3689.43 573.563ZM3676.94 588.568 3676.94 609.193 3670.06 609.193 3670.06 588.568ZM3676.94 616.068 3676.94 636.693 3670.06 636.693 3670.06 616.068ZM3676.94 643.568 3676.94 659.5 3670.06 659.5 3670.06 643.568ZM3888.23 939.833 3860.73 926.083 3888.23 912.333Z"/><text font-family="Arial,Arial_MSFontService,sans-serif" font-weight="400" font-size="50" transform="matrix(1 0 0 1 3953.02 617)">over</text><text fill="#7F7F7F" font-family="Arial,Arial_MSFontService,sans-serif" font-weight="700" font-size="46" transform="matrix(1 0 0 1 2240.01 846)">58</text><text fill="#7F7F7F" font-family="Arial,Arial_MSFontService,sans-serif" font-weight="700" font-size="46" transform="matrix(1 0 0 1 3738.24 850)">3941</text><rect x="2265.5" y="1062.5" width="1561" height="125" stroke="#000000" stroke-width="9.16667" stroke-linejoin="round" stroke-miterlimit="10" fill="none"/><text font-family="Consolas,Consolas_MSFontService,sans-serif" font-weight="400" font-size="55" transform="matrix(1 0 0 1 2802.57 1144)">Constant padding</text><text fill="#7F7F7F" font-family="Arial,Arial_MSFontService,sans-serif" font-weight="700" font-size="46" transform="matrix(1 0 0 1 2235.61 1049)">3942</text><text fill="#7F7F7F" font-family="Arial,Arial_MSFontService,sans-serif" font-weight="700" font-size="46" transform="matrix(1 0 0 1 3736.81 1053)">4095</text><path d="M1007.48 728 1007.48 1063.68 845 1063.68" stroke="#000000" stroke-width="13.75" stroke-linejoin="round" stroke-miterlimit="10" fill="none" fill-rule="evenodd"/><rect x="1112.5" y="532.5" width="741" height="124" stroke="#000000" stroke-width="9.16667" stroke-linejoin="round" stroke-miterlimit="10" fill="#FFFFFF"/><text font-family="Consolas,Consolas_MSFontService,sans-serif" font-weight="400" font-size="55" transform="matrix(1 0 0 1 1269.92 613)">file_path</text><text font-family="Consolas,Consolas_MSFontService,sans-serif" font-weight="400" font-size="55" transform="matrix(1 0 0 1 1543.2 613)">[772]</text><rect x="1112.5" y="654.5" width="741" height="124" stroke="#000000" stroke-width="9.16667" stroke-linejoin="round" stroke-miterlimit="10" fill="#FFFFFF"/><text font-family="Consolas,Consolas_MSFontService,sans-serif" font-weight="400" font-size="55" transform="matrix(1 0 0 1 1345.83 735)">file_size</text><rect x="1112.5" y="778.5" width="741" height="125" stroke="#000000" stroke-width="9.16667" stroke-linejoin="round" stroke-miterlimit="10" fill="#FFFFFF"/><text font-family="Consolas,Consolas_MSFontService,sans-serif" font-weight="400" font-size="55" transform="matrix(1 0 0 1 1224.37 860)">root_mht_node_key</text><rect x="1112.5" y="901.5" width="741" height="124" stroke="#000000" stroke-width="9.16667" stroke-linejoin="round" stroke-miterlimit="10" fill="#FFFFFF"/><text font-family="Consolas,Consolas_MSFontService,sans-serif" font-weight="400" font-size="55" transform="matrix(1 0 0 1 1224.37 982)">root_mht_node</text><text font-family="Consolas,Consolas_MSFontService,sans-serif" font-weight="400" font-size="55" transform="matrix(1 0 0 1 1619.11 982)">_</text><text font-family="Consolas,Consolas_MSFontService,sans-serif" font-weight="400" font-size="55" transform="matrix(1 0 0 1 1649.47 982)">ma</text><text font-family="Consolas,Consolas_MSFontService,sans-serif" font-weight="400" font-size="55" transform="matrix(1 0 0 1 1710.2 982)">c</text><rect x="1112.5" y="1025.5" width="741" height="125" stroke="#000000" stroke-width="9.16667" stroke-linejoin="round" stroke-miterlimit="10" fill="#FFFFFF"/><text font-family="Consolas,Consolas_MSFontService,sans-serif" font-weight="400" font-size="55" transform="matrix(1 0 0 1 1254.73 1106)">file_data</text><text font-family="Consolas,Consolas_MSFontService,sans-serif" font-weight="400" font-size="55" transform="matrix(1 0 0 1 1528.02 1106)">[3072]</text><path d="M2242.76 925.786 2222.14 925.786 2222.14 918.911 2242.76 918.911ZM2215.26 925.786 2194.64 925.786 2194.64 918.911 2215.26 918.911ZM2187.76 925.786 2167.14 925.786 2167.14 918.911 2187.76 918.911ZM2160.26 925.786 2139.64 925.786 2139.64 918.911 2160.26 918.911ZM2132.76 925.786 2112.14 925.786 2112.14 918.911 2132.76 918.911ZM2105.26 925.786 2094.59 925.786C2092.69 925.786 2091.15 924.247 2091.15 922.348L2091.15 912.395 2098.03 912.395 2098.03 922.348 2094.59 918.911 2105.26 918.911ZM2091.15 905.52 2091.15 884.895 2098.03 884.895 2098.03 905.52ZM2091.15 878.02 2091.15 857.395 2098.03 857.395 2098.03 878.02ZM2091.15 850.52 2091.15 829.895 2098.03 829.895 2098.03 850.52ZM2091.15 823.02 2091.15 802.395 2098.03 802.395 2098.03 823.02ZM2091.15 795.52 2091.15 786.5 2094.59 789.938 2082.98 789.938 2082.98 783.062 2094.59 783.062C2096.49 783.062 2098.03 784.602 2098.03 786.5L2098.03 795.52ZM2076.11 789.938 2055.48 789.938 2055.48 783.062 2076.11 783.062ZM2048.61 789.938 2027.98 789.938 2027.98 783.062 2048.61 783.062ZM2021.11 789.938 2000.48 789.938 2000.48 783.062 2021.11 783.062ZM1993.61 789.938 1972.98 789.938 1972.98 783.062 1993.61 783.062ZM1966.11 789.938 1946.42 789.938 1946.42 783.062 1966.11 783.062ZM2238.18 908.598 2265.68 922.348 2238.18 936.098ZM1951 800.25 1923.5 786.5 1951 772.75Z"/><path d="M1872.5 528.5C1896.25 528.5 1915.5 530.104 1915.5 532.083L1915.5 1146.92C1915.5 1148.9 1896.25 1150.5 1872.5 1150.5" stroke="#000000" stroke-width="6.875" stroke-linecap="square" stroke-linejoin="round" stroke-miterlimit="10" stroke-dasharray="20.625 6.875" fill="none" fill-rule="evenodd"/><rect x="1112.5" y="1371.5" width="741" height="125" stroke="#000000" stroke-width="9.16667" stroke-linejoin="round" stroke-miterlimit="10" fill="#FFFFFF"/><text font-family="Consolas,Consolas_MSFontService,sans-serif" font-weight="400" font-size="55" transform="matrix(1 0 0 1 1255.18 1453)">type = MHT_NODE</text><rect x="1112.5" y="1496.5" width="741" height="124" stroke="#000000" stroke-width="9.16667" stroke-linejoin="round" stroke-miterlimit="10" fill="#FFFFFF"/><text font-family="Consolas,Consolas_MSFontService,sans-serif" font-weight="400" font-size="55" transform="matrix(1 0 0 1 1239.99 1577)">logical_node</text><text font-family="Consolas,Consolas_MSFontService,sans-serif" font-weight="400" font-size="55" transform="matrix(1 0 0 1 1634.73 1577)">= 0</text><rect x="1112.5" y="1618.5" width="741" height="125" stroke="#000000" stroke-width="9.16667" stroke-linejoin="round" stroke-miterlimit="10" fill="#FFFFFF"/><text font-family="Consolas,Consolas_MSFontService,sans-serif" font-weight="400" font-size="55" transform="matrix(1 0 0 1 1224.81 1699)">physical_node</text><text font-family="Consolas,Consolas_MSFontService,sans-serif" font-weight="400" font-size="55" transform="matrix(1 0 0 1 1649.92 1699)">= 1</text><rect x="1112.5" y="1867.5" width="741" height="125" stroke="#000000" stroke-width="9.16667" stroke-linejoin="round" stroke-miterlimit="10" fill="#FFFFFF"/><text font-family="Consolas,Consolas_MSFontService,sans-serif" font-weight="400" font-size="55" transform="matrix(1 0 0 1 1345.83 1949)">encrypted</text><rect x="1112.5" y="1743.5" width="741" height="125" stroke="#000000" stroke-width="9.16667" stroke-linejoin="round" stroke-miterlimit="10" fill="#FFFFFF"/><text font-family="Consolas,Consolas_MSFontService,sans-serif" font-weight="400" font-size="55" transform="matrix(1 0 0 1 1345.83 1824)">decrypted</text><rect x="2218.5" y="1476.5" width="2030" height="642" stroke="#000000" stroke-width="9.16667" stroke-linejoin="round" stroke-miterlimit="10" fill="#FAFFC4"/><text font-family="Arial,Arial_MSFontService,sans-serif" font-weight="400" font-size="55" transform="matrix(1 0 0 1 2740.65 1545)">#1: Root MHT node (all fields encrypted)</text><rect x="105.5" y="2150.5" width="452" height="124" stroke="#000000" stroke-width="9.16667" stroke-linejoin="round" stroke-miterlimit="10" fill="#FFFFFF"/><text font-family="Consolas,Consolas_MSFontService,sans-serif" font-weight="400" font-size="55" transform="matrix(1 0 0 1 199.767 2231)">data_key</text><text font-family="Consolas,Consolas_MSFontService,sans-serif" font-weight="400" font-size="37" transform="matrix(1 0 0 1 442.684 2244)">1</text><path d="M1077.59 1378.61 978.484 1378.61C974.687 1378.61 971.609 1375.53 971.609 1371.74L971.609 1189 978.484 1195.88 845 1195.88 845 1182.12 978.484 1182.12C982.281 1182.12 985.359 1185.2 985.359 1189L985.359 1371.74 978.484 1364.86 1077.59 1364.86ZM1070.72 1351.11 1111.97 1371.74 1070.72 1392.36Z"/><rect x="557.5" y="2149.5" width="452" height="124" stroke="#000000" stroke-width="9.16667" stroke-linejoin="round" stroke-miterlimit="10" fill="#FFFFFF"/><text font-family="Consolas,Consolas_MSFontService,sans-serif" font-weight="400" font-size="55" transform="matrix(1 0 0 1 651.089 2230)">data</text><text font-family="Consolas,Consolas_MSFontService,sans-serif" font-weight="400" font-size="55" transform="matrix(1 0 0 1 772.548 2230)">_</text><text font-family="Consolas,Consolas_MSFontService,sans-serif" font-weight="400" font-size="55" transform="matrix(1 0 0 1 802.912 2230)">ma</text><text font-family="Consolas,Consolas_MSFontService,sans-serif" font-weight="400" font-size="55" transform="matrix(1 0 0 1 863.641 2230)">c</text><text font-family="Consolas,Consolas_MSFontService,sans-serif" font-weight="400" font-size="37" transform="matrix(1 0 0 1 894.006 2243)">1</text><rect x="1009.5" y="2149.5" width="144" height="125" stroke="#000000" stroke-width="9.16667" stroke-linejoin="round" stroke-miterlimit="10" fill="#FFFFFF"/><text font-family="Consolas,Consolas_MSFontService,sans-serif" font-weight="400" font-size="55" transform="matrix(1 0 0 1 1065.59 2230)">…</text><rect x="106.5" y="2274.5" width="452" height="124" stroke="#000000" stroke-width="9.16667" stroke-linejoin="round" stroke-miterlimit="10" fill="#FFFFFF"/><text font-family="Consolas,Consolas_MSFontService,sans-serif" font-weight="400" font-size="55" transform="matrix(1 0 0 1 215.784 2355)">mht_key</text><text font-family="Consolas,Consolas_MSFontService,sans-serif" font-weight="400" font-size="37" transform="matrix(1 0 0 1 428.336 2368)">1</text><rect x="557.5" y="2273.5" width="452" height="125" stroke="#000000" stroke-width="9.16667" stroke-linejoin="round" stroke-miterlimit="10" fill="#FFFFFF"/><text font-family="Consolas,Consolas_MSFontService,sans-serif" font-weight="400" font-size="55" transform="matrix(1 0 0 1 667.106 2354)">mht</text><text font-family="Consolas,Consolas_MSFontService,sans-serif" font-weight="400" font-size="55" transform="matrix(1 0 0 1 758.2 2354)">_</text><text font-family="Consolas,Consolas_MSFontService,sans-serif" font-weight="400" font-size="55" transform="matrix(1 0 0 1 788.564 2354)">ma</text><text font-family="Consolas,Consolas_MSFontService,sans-serif" font-weight="400" font-size="55" transform="matrix(1 0 0 1 849.293 2354)">c</text><text font-family="Consolas,Consolas_MSFontService,sans-serif" font-weight="400" font-size="37" transform="matrix(1 0 0 1 879.658 2367)">1</text><rect x="1010.5" y="2273.5" width="143" height="125" stroke="#000000" stroke-width="9.16667" stroke-linejoin="round" stroke-miterlimit="10" fill="#FFFFFF"/><text font-family="Consolas,Consolas_MSFontService,sans-serif" font-weight="400" font-size="55" transform="matrix(1 0 0 1 1066.42 2355)">…</text><rect x="2271.5" y="1735.5" width="452" height="124" stroke="#000000" stroke-width="9.16667" stroke-linejoin="round" stroke-miterlimit="10" fill="none"/><text font-family="Consolas,Consolas_MSFontService,sans-serif" font-weight="400" font-size="55" transform="matrix(1 0 0 1 2365.79 1816)">data_key</text><text font-family="Consolas,Consolas_MSFontService,sans-serif" font-weight="400" font-size="37" transform="matrix(1 0 0 1 2608.71 1829)">1</text><rect x="2723.5" y="1734.5" width="452" height="125" stroke="#000000" stroke-width="9.16667" stroke-linejoin="round" stroke-miterlimit="10" fill="none"/><text font-family="Consolas,Consolas_MSFontService,sans-serif" font-weight="400" font-size="55" transform="matrix(1 0 0 1 2817.11 1816)">data</text><text font-family="Consolas,Consolas_MSFontService,sans-serif" font-weight="400" font-size="55" transform="matrix(1 0 0 1 2938.57 1816)">_</text><text font-family="Consolas,Consolas_MSFontService,sans-serif" font-weight="400" font-size="55" transform="matrix(1 0 0 1 2968.94 1816)">ma</text><text font-family="Consolas,Consolas_MSFontService,sans-serif" font-weight="400" font-size="55" transform="matrix(1 0 0 1 3029.67 1816)">c</text><text font-family="Consolas,Consolas_MSFontService,sans-serif" font-weight="400" font-size="37" transform="matrix(1 0 0 1 3060.03 1829)">1</text><rect x="3320.5" y="1734.5" width="451" height="125" stroke="#000000" stroke-width="9.16667" stroke-linejoin="round" stroke-miterlimit="10" fill="none"/><text font-family="Consolas,Consolas_MSFontService,sans-serif" font-weight="400" font-size="55" transform="matrix(1 0 0 1 3404.12 1816)">data_key</text><text font-family="Consolas,Consolas_MSFontService,sans-serif" font-weight="400" font-size="37" transform="matrix(1 0 0 1 3647.04 1829)">96</text><rect x="3771.5" y="1734.5" width="451" height="125" stroke="#000000" stroke-width="9.16667" stroke-linejoin="round" stroke-miterlimit="10" fill="none"/><text font-family="Consolas,Consolas_MSFontService,sans-serif" font-weight="400" font-size="55" transform="matrix(1 0 0 1 3855.28 1816)">data</text><text font-family="Consolas,Consolas_MSFontService,sans-serif" font-weight="400" font-size="55" transform="matrix(1 0 0 1 3976.74 1816)">_</text><text font-family="Consolas,Consolas_MSFontService,sans-serif" font-weight="400" font-size="55" transform="matrix(1 0 0 1 4007.1 1816)">ma</text><text font-family="Consolas,Consolas_MSFontService,sans-serif" font-weight="400" font-size="55" transform="matrix(1 0 0 1 4067.83 1816)">c</text><text font-family="Consolas,Consolas_MSFontService,sans-serif" font-weight="400" font-size="37" transform="matrix(1 0 0 1 4098.2 1829)">96</text><rect x="3175.5" y="1734.5" width="144" height="125" stroke="#000000" stroke-width="9.16667" stroke-linejoin="round" stroke-miterlimit="10" fill="none"/><text font-family="Consolas,Consolas_MSFontService,sans-serif" font-weight="400" font-size="55" transform="matrix(1 0 0 1 3231.61 1816)">…</text><rect x="2270.5" y="1859.5" width="452" height="125" stroke="#000000" stroke-width="9.16667" stroke-linejoin="round" stroke-miterlimit="10" fill="none"/><text font-family="Consolas,Consolas_MSFontService,sans-serif" font-weight="400" font-size="55" transform="matrix(1 0 0 1 2379.86 1940)">mht_key</text><text font-family="Consolas,Consolas_MSFontService,sans-serif" font-weight="400" font-size="37" transform="matrix(1 0 0 1 2592.41 1953)">1</text><rect x="2721.5" y="1859.5" width="453" height="124" stroke="#000000" stroke-width="9.16667" stroke-linejoin="round" stroke-miterlimit="10" fill="none"/><text font-family="Consolas,Consolas_MSFontService,sans-serif" font-weight="400" font-size="55" transform="matrix(1 0 0 1 2831.18 1940)">mht</text><text font-family="Consolas,Consolas_MSFontService,sans-serif" font-weight="400" font-size="55" transform="matrix(1 0 0 1 2922.27 1940)">_</text><text font-family="Consolas,Consolas_MSFontService,sans-serif" font-weight="400" font-size="55" transform="matrix(1 0 0 1 2952.64 1940)">ma</text><text font-family="Consolas,Consolas_MSFontService,sans-serif" font-weight="400" font-size="55" transform="matrix(1 0 0 1 3013.36 1940)">c</text><text font-family="Consolas,Consolas_MSFontService,sans-serif" font-weight="400" font-size="37" transform="matrix(1 0 0 1 3043.73 1953)">1</text><rect x="3319.5" y="1859.5" width="452" height="124" stroke="#000000" stroke-width="9.16667" stroke-linejoin="round" stroke-miterlimit="10" fill="none"/><text font-family="Consolas,Consolas_MSFontService,sans-serif" font-weight="400" font-size="55" transform="matrix(1 0 0 1 3418.74 1940)">mht_key</text><text font-family="Consolas,Consolas_MSFontService,sans-serif" font-weight="400" font-size="37" transform="matrix(1 0 0 1 3631.29 1953)">32</text><rect x="3770.5" y="1859.5" width="452" height="124" stroke="#000000" stroke-width="9.16667" stroke-linejoin="round" stroke-miterlimit="10" fill="none"/><text font-family="Consolas,Consolas_MSFontService,sans-serif" font-weight="400" font-size="55" transform="matrix(1 0 0 1 3869.77 1940)">mht</text><text font-family="Consolas,Consolas_MSFontService,sans-serif" font-weight="400" font-size="55" transform="matrix(1 0 0 1 3960.86 1940)">_</text><text font-family="Consolas,Consolas_MSFontService,sans-serif" font-weight="400" font-size="55" transform="matrix(1 0 0 1 3991.22 1940)">ma</text><text font-family="Consolas,Consolas_MSFontService,sans-serif" font-weight="400" font-size="55" transform="matrix(1 0 0 1 4051.95 1940)">c</text><text font-family="Consolas,Consolas_MSFontService,sans-serif" font-weight="400" font-size="37" transform="matrix(1 0 0 1 4082.32 1953)">32</text><rect x="3174.5" y="1859.5" width="143" height="124" stroke="#000000" stroke-width="9.16667" stroke-linejoin="round" stroke-miterlimit="10" fill="none"/><text font-family="Consolas,Consolas_MSFontService,sans-serif" font-weight="400" font-size="55" transform="matrix(1 0 0 1 3230.49 1940)">…</text><text fill="#7F7F7F" font-family="Arial,Arial_MSFontService,sans-serif" font-weight="700" font-size="46" transform="matrix(1 0 0 1 2257.85 1728)">0</text><text fill="#7F7F7F" font-family="Arial,Arial_MSFontService,sans-serif" font-weight="700" font-size="46" transform="matrix(1 0 0 1 2695.8 1725)">15</text><text fill="#7F7F7F" font-family="Arial,Arial_MSFontService,sans-serif" font-weight="700" font-size="46" transform="matrix(1 0 0 1 3144.17 1724)">31</text><text fill="#7F7F7F" font-family="Arial,Arial_MSFontService,sans-serif" font-weight="700" font-size="46" transform="matrix(1 0 0 1 2263.2 2030)">3072</text><text fill="#7F7F7F" font-family="Arial,Arial_MSFontService,sans-serif" font-weight="700" font-size="46" transform="matrix(1 0 0 1 4122.29 2028)">4095</text><path d="M104 1805 1111.91 1805" stroke="#000000" stroke-width="13.75" stroke-linejoin="round" stroke-miterlimit="10" fill="none" fill-rule="evenodd"/><path d="M1169.5 2149.5C1187.17 2149.5 1201.5 2150.69 1201.5 2152.17L1201.5 2395.83C1201.5 2397.31 1187.17 2398.5 1169.5 2398.5" stroke="#000000" stroke-width="6.875" stroke-linecap="square" stroke-linejoin="round" stroke-miterlimit="10" stroke-dasharray="20.625 6.875" fill="none" fill-rule="evenodd"/><path d="M3249.56 2006.42 3249.56 2027.04 3242.69 2027.04 3242.69 2006.42ZM3249.56 2033.92 3249.56 2054.54 3242.69 2054.54 3242.69 2033.92ZM3249.56 2061.42 3249.56 2066.43 3246.13 2062.99 3248.64 2062.99C3250.54 2062.99 3252.08 2064.53 3252.08 2066.43L3252.08 2079.53 3245.21 2079.53 3245.21 2066.43 3248.64 2069.87 3246.13 2069.87C3244.23 2069.87 3242.69 2068.33 3242.69 2066.43L3242.69 2061.42ZM3252.08 2086.4 3252.08 2107.03 3245.21 2107.03 3245.21 2086.4ZM3252.08 2113.9 3252.08 2134.53 3245.21 2134.53 3245.21 2113.9ZM3252.08 2141.4 3252.08 2162.03 3245.21 2162.03 3245.21 2141.4ZM3252.08 2168.9 3252.08 2189.53 3245.21 2189.53 3245.21 2168.9ZM3252.08 2196.4 3252.08 2217.03 3245.21 2217.03 3245.21 2196.4ZM3252.08 2223.9 3252.08 2244.53 3245.21 2244.53 3245.21 2223.9ZM3252.08 2251.4 3252.08 2272.03 3245.21 2272.03 3245.21 2251.4ZM3243.5 2277.19 3222.87 2277.19 3222.87 2270.32 3243.5 2270.32ZM3216 2277.19 3195.37 2277.19 3195.37 2270.32 3216 2270.32ZM3188.5 2277.19 3167.87 2277.19 3167.87 2270.32 3188.5 2270.32ZM3161 2277.19 3140.37 2277.19 3140.37 2270.32 3161 2270.32ZM3133.5 2277.19 3112.87 2277.19 3112.87 2270.32 3133.5 2270.32ZM3106 2277.19 3085.37 2277.19 3085.37 2270.32 3106 2270.32ZM3078.5 2277.19 3057.87 2277.19 3057.87 2270.32 3078.5 2270.32ZM3051 2277.19 3030.37 2277.19 3030.37 2270.32 3051 2270.32ZM3023.5 2277.19 3002.87 2277.19 3002.87 2270.32 3023.5 2270.32ZM2996 2277.19 2975.37 2277.19 2975.37 2270.32 2996 2270.32ZM2968.5 2277.19 2947.87 2277.19 2947.87 2270.32 2968.5 2270.32ZM2941 2277.19 2920.37 2277.19 2920.37 2270.32 2941 2270.32ZM2913.5 2277.19 2892.87 2277.19 2892.87 2270.32 2913.5 2270.32ZM2886 2277.19 2865.37 2277.19 2865.37 2270.32 2886 2270.32ZM2858.5 2277.19 2837.87 2277.19 2837.87 2270.32 2858.5 2270.32ZM2831 2277.19 2810.37 2277.19 2810.37 2270.32 2831 2270.32ZM2803.5 2277.19 2782.87 2277.19 2782.87 2270.32 2803.5 2270.32ZM2776 2277.19 2755.37 2277.19 2755.37 2270.32 2776 2270.32ZM2748.5 2277.19 2727.87 2277.19 2727.87 2270.32 2748.5 2270.32ZM2721 2277.19 2700.37 2277.19 2700.37 2270.32 2721 2270.32ZM2693.5 2277.19 2672.87 2277.19 2672.87 2270.32 2693.5 2270.32ZM2666 2277.19 2645.37 2277.19 2645.37 2270.32 2666 2270.32ZM2638.5 2277.19 2617.87 2277.19 2617.87 2270.32 2638.5 2270.32ZM2611 2277.19 2590.37 2277.19 2590.37 2270.32 2611 2270.32ZM2583.5 2277.19 2562.87 2277.19 2562.87 2270.32 2583.5 2270.32ZM2556 2277.19 2535.37 2277.19 2535.37 2270.32 2556 2270.32ZM2528.5 2277.19 2507.87 2277.19 2507.87 2270.32 2528.5 2270.32ZM2501 2277.19 2480.37 2277.19 2480.37 2270.32 2501 2270.32ZM2473.5 2277.19 2452.87 2277.19 2452.87 2270.32 2473.5 2270.32ZM2446 2277.19 2425.37 2277.19 2425.37 2270.32 2446 2270.32ZM2418.5 2277.19 2397.87 2277.19 2397.87 2270.32 2418.5 2270.32ZM2391 2277.19 2370.37 2277.19 2370.37 2270.32 2391 2270.32ZM2363.5 2277.19 2342.87 2277.19 2342.87 2270.32 2363.5 2270.32ZM2336 2277.19 2315.37 2277.19 2315.37 2270.32 2336 2270.32ZM2308.5 2277.19 2287.87 2277.19 2287.87 2270.32 2308.5 2270.32ZM2281 2277.19 2260.37 2277.19 2260.37 2270.32 2281 2270.32ZM2253.5 2277.19 2232.87 2277.19 2232.87 2270.32 2253.5 2270.32ZM2226 2277.19 2205.37 2277.19 2205.37 2270.32 2226 2270.32ZM2198.5 2277.19 2177.87 2277.19 2177.87 2270.32 2198.5 2270.32ZM2171 2277.19 2150.37 2277.19 2150.37 2270.32 2171 2270.32ZM2143.5 2277.19 2122.87 2277.19 2122.87 2270.32 2143.5 2270.32ZM2116 2277.19 2095.37 2277.19 2095.37 2270.32 2116 2270.32ZM2088.5 2277.19 2067.87 2277.19 2067.87 2270.32 2088.5 2270.32ZM2061 2277.19 2040.37 2277.19 2040.37 2270.32 2061 2270.32ZM2033.5 2277.19 2012.87 2277.19 2012.87 2270.32 2033.5 2270.32ZM2006 2277.19 1985.37 2277.19 1985.37 2270.32 2006 2270.32ZM1978.5 2277.19 1957.87 2277.19 1957.87 2270.32 1978.5 2270.32ZM1951 2277.19 1930.37 2277.19 1930.37 2270.32 1951 2270.32ZM1923.5 2277.19 1902.87 2277.19 1902.87 2270.32 1923.5 2270.32ZM1896 2277.19 1875.37 2277.19 1875.37 2270.32 1896 2270.32ZM1868.5 2277.19 1847.87 2277.19 1847.87 2270.32 1868.5 2270.32ZM1841 2277.19 1820.37 2277.19 1820.37 2270.32 1841 2270.32ZM1813.5 2277.19 1792.87 2277.19 1792.87 2270.32 1813.5 2270.32ZM1786 2277.19 1765.37 2277.19 1765.37 2270.32 1786 2270.32ZM1758.5 2277.19 1737.87 2277.19 1737.87 2270.32 1758.5 2270.32ZM1731 2277.19 1710.37 2277.19 1710.37 2270.32 1731 2270.32ZM1703.5 2277.19 1682.87 2277.19 1682.87 2270.32 1703.5 2270.32ZM1676 2277.19 1655.37 2277.19 1655.37 2270.32 1676 2270.32ZM1648.5 2277.19 1627.87 2277.19 1627.87 2270.32 1648.5 2270.32ZM1621 2277.19 1600.37 2277.19 1600.37 2270.32 1621 2270.32ZM1593.5 2277.19 1572.87 2277.19 1572.87 2270.32 1593.5 2270.32ZM1566 2277.19 1545.37 2277.19 1545.37 2270.32 1566 2270.32ZM1538.5 2277.19 1517.87 2277.19 1517.87 2270.32 1538.5 2270.32ZM1511 2277.19 1490.37 2277.19 1490.37 2270.32 1511 2270.32ZM1483.5 2277.19 1462.87 2277.19 1462.87 2270.32 1483.5 2270.32ZM1456 2277.19 1435.37 2277.19 1435.37 2270.32 1456 2270.32ZM1428.5 2277.19 1407.87 2277.19 1407.87 2270.32 1428.5 2270.32ZM1401 2277.19 1380.37 2277.19 1380.37 2270.32 1401 2270.32ZM1373.5 2277.19 1352.87 2277.19 1352.87 2270.32 1373.5 2270.32ZM1346 2277.19 1325.37 2277.19 1325.37 2270.32 1346 2270.32ZM1318.5 2277.19 1297.87 2277.19 1297.87 2270.32 1318.5 2270.32ZM1291 2277.19 1270.37 2277.19 1270.37 2270.32 1291 2270.32ZM1263.5 2277.19 1242.87 2277.19 1242.87 2270.32 1263.5 2270.32ZM1236 2277.19 1224.41 2277.19 1224.41 2270.32 1236 2270.32ZM3232.38 2011 3246.13 1983.5 3259.88 2011ZM1229 2287.5 1201.5 2273.75 1229 2260Z"/><path d="M3225.86 1441.63 3225.86 1393.5 3232.73 1400.37 3170.86 1400.37 3170.86 1386.62 3232.73 1386.62C3236.53 1386.62 3239.61 1389.7 3239.61 1393.5L3239.61 1441.63ZM3129.61 1400.37 3019.61 1400.37 3019.61 1386.62 3129.61 1386.62ZM2978.36 1400.37 2868.36 1400.37 2868.36 1386.62 2978.36 1386.62ZM2827.11 1400.37 2717.11 1400.37 2717.11 1386.62 2827.11 1386.62ZM2675.86 1400.37 2565.86 1400.37 2565.86 1386.62 2675.86 1386.62ZM2524.61 1400.37 2414.61 1400.37 2414.61 1386.62 2524.61 1386.62ZM2373.36 1400.37 2263.36 1400.37 2263.36 1386.62 2373.36 1386.62ZM2222.11 1400.37 2112.11 1400.37 2112.11 1386.62 2222.11 1386.62ZM2070.86 1400.37 1975.41 1400.37 1982.28 1393.5 1982.28 1408.04 1968.53 1408.04 1968.53 1393.5C1968.53 1389.7 1971.61 1386.62 1975.41 1386.62L2070.86 1386.62ZM1982.28 1449.29 1982.28 1559.29 1968.53 1559.29 1968.53 1449.29ZM1982.28 1600.54 1982.28 1710.54 1968.53 1710.54 1968.53 1600.54ZM1982.28 1751.79 1982.28 1861.79 1968.53 1861.79 1968.53 1751.79ZM1982.28 1903.04 1982.28 2013.04 1968.53 2013.04 1968.53 1903.04ZM1982.28 2054.29 1982.28 2109.71C1982.28 2113.51 1979.2 2116.59 1975.41 2116.59L1920.83 2116.59 1920.83 2102.84 1975.41 2102.84 1968.53 2109.71 1968.53 2054.29ZM3253.36 1434.75 3232.73 1476 3212.11 1434.75ZM1911.25 2130.34 1870 2109.71 1911.25 2089.09Z"/><text font-family="Arial,Arial_MSFontService,sans-serif" font-weight="700" font-size="55" transform="matrix(1 0 0 1 1390.01 372)">Bounce</text><text font-family="Arial,Arial_MSFontService,sans-serif" font-weight="700" font-size="55" transform="matrix(1 0 0 1 1604.28 372)">buffer</text><path d="M34.375-6.875 445.854-6.875C449.651-6.875 452.729-3.79696 452.729 0L452.729 585.982 445.854 579.107 505.67 579.107 505.67 592.857 445.854 592.857C442.057 592.857 438.979 589.779 438.979 585.982L438.979 0 445.854 6.875 34.375 6.875ZM41.25 20.625 0 0 41.25-20.625Z" transform="matrix(-1 1.22465e-16 1.22465e-16 1 1350.67 354)"/><text font-family="Arial,Arial_MSFontService,sans-serif" font-weight="700" font-size="55" transform="matrix(1 0 0 1 1458.96 2129)">Bounce buffer</text><path d="M1386.67 2116.73 1029.5 2116.73C1025.7 2116.73 1022.62 2113.65 1022.62 2109.85L1022.62 1930C1022.62 1926.2 1025.7 1923.13 1029.5 1923.13L1112 1923.13 1112 1936.88 1029.5 1936.88 1036.37 1930 1036.37 2109.85 1029.5 2102.98 1386.67 2102.98ZM1379.8 2089.23 1421.05 2109.85 1379.8 2130.48Z"/><path d="M2047 22 2047 2397.54" stroke="#7F7F7F" stroke-width="13.75" stroke-linecap="square" stroke-linejoin="round" stroke-miterlimit="10" stroke-dasharray="41.25 13.75" fill="none" fill-rule="evenodd"/><text font-family="Arial,Arial_MSFontService,sans-serif" font-weight="400" font-size="55" text-decoration="underline" transform="matrix(1 0 0 1 1445.11 86)">SGX enclave (trusted)</text><text font-family="Arial,Arial_MSFontService,sans-serif" font-weight="400" font-size="55" text-decoration="underline" transform="matrix(1 0 0 1 2095.12 88)">Host storage (untrusted)</text><text fill="#7F7F7F" font-family="Arial,Arial_MSFontService,sans-serif" font-weight="700" font-size="46" transform="matrix(1 0 0 1 4126.34 1728)">3071</text><rect x="3012.5" y="859.5" width="814" height="125" stroke="#000000" stroke-width="9.16667" stroke-linejoin="round" stroke-miterlimit="10" fill="none"/><text font-family="Consolas,Consolas_MSFontService,sans-serif" font-weight="400" font-size="55" transform="matrix(1 0 0 1 3130.48 940)">encrypted file data</text><path d="M3842.5 867.5C3852.44 867.5 3860.5 868.172 3860.5 869L3860.5 982C3860.5 982.828 3852.44 983.5 3842.5 983.5" stroke="#000000" stroke-width="6.875" stroke-linecap="square" stroke-linejoin="round" stroke-miterlimit="10" stroke-dasharray="20.625 6.875" fill="none" fill-rule="evenodd"/><text font-family="Arial,Arial_MSFontService,sans-serif" font-weight="400" font-size="46" transform="matrix(1 0 0 1 2874.35 115)">Arrows legend:</text><text font-family="Arial,Arial_MSFontService,sans-serif" font-weight="400" font-size="46" transform="matrix(1 0 0 1 3063.41 170)">Encrypted on storage</text><text font-family="Arial,Arial_MSFontService,sans-serif" font-weight="400" font-size="46" transform="matrix(1 0 0 1 3063.41 225)">Copied in/out of enclave</text><path d="M22.9167-3.43745 43.5417-3.4374 43.5417 3.4376 22.9167 3.43755ZM50.4167-3.43738 71.0417-3.43734 71.0417 3.43766 50.4167 3.43762ZM77.9167-3.43732 98.5417-3.43727 98.5417 3.43773 77.9167 3.43768ZM105.417-3.43726 126.042-3.43721 126.042 3.43779 105.417 3.43774ZM132.917-3.43719 153.542-3.43714 153.542 3.43786 132.917 3.43781ZM27.5 13.7501 0 0 27.5-13.7499Z" transform="matrix(-1 0 0 1 3046.37 153.5)"/><path d="M3023.45 212.073 2968.45 212.017 2968.45 205.142 3023.45 205.198ZM2947.82 211.996 2892.82 211.94 2892.83 205.065 2947.83 205.121ZM3018.88 194.881 3046.37 208.659 3018.85 222.381Z"/><path d="M1078.24 541.141 1008.04 541.594 1014.88 534.719 1014.88 754.158 1001.12 754.158 1001.12 534.719C1001.12 530.939 1004.18 527.869 1007.96 527.844L1078.15 527.391ZM1069.97 514.139 1112.49 532 1072.69 555.299Z"/><path d="M6.87504 34.375 6.87536 337.562-6.87464 337.562-6.87496 34.375ZM-20.625 41.25 0 0 20.625 41.25Z" transform="matrix(1 0 0 -1 104 2142.56)"/><text fill="#7F7F7F" font-family="Arial,Arial_MSFontService,sans-serif" font-weight="700" font-size="46" transform="matrix(1 0 0 1 2972.09 849)">869</text></g></svg>