<?xml version="1.0" encoding="UTF-8" standalone="no"?>
<svg
   width="4471"
   height="2389"
   xml:space="preserve"
   overflow="hidden"
   version="1.1"
   id="svg98"
   sodipodi:docname="02_encfiles_representation.svg"
   inkscape:version="1.4 (86a8ad7, 2024-10-11)"
   xmlns:inkscape="http://www.inkscape.org/namespaces/inkscape"
   xmlns:sodipodi="http://sodipodi.sourceforge.net/DTD/sodipodi-0.dtd"
   xmlns="http://www.w3.org/2000/svg"
   xmlns:svg="http://www.w3.org/2000/svg"><defs
     id="defs98" /><sodipodi:namedview
     id="namedview98"
     pagecolor="#ffffff"
     bordercolor="#000000"
     borderopacity="0.25"
     inkscape:showpageshadow="2"
     inkscape:pageopacity="0.0"
     inkscape:pagecheckerboard="0"
     inkscape:deskcolor="#d1d1d1"
     inkscape:zoom="0.6806195"
     inkscape:cx="2165.6741"
     inkscape:cy="673.65099"
     inkscape:window-width="3840"
     inkscape:window-height="2054"
     inkscape:window-x="2869"
     inkscape:window-y="-11"
     inkscape:window-maximized="1"
     inkscape:current-layer="g99" /><g
     transform="translate(-61 -16)"
     id="g98"><rect
       x="104.5"
       y="505.5"
       width="741"
       height="124"
       stroke="#000000"
       stroke-width="9.16667"
       stroke-linejoin="round"
       stroke-miterlimit="10"
       fill="none"
       id="rect4" /><text
       font-family="Consolas,Consolas_MSFontService,sans-serif"
       font-weight="400"
       font-size="55"
       transform="matrix(1 0 0 1 231.639 586)"
       id="text5">host_file_handle</text><rect
       x="104.5"
       y="629.5"
       width="741"
       height="125"
       stroke="#000000"
       stroke-width="9.16667"
       stroke-linejoin="round"
       stroke-miterlimit="10"
       fill="none"
       id="rect5" /><text
       font-family="Consolas,Consolas_MSFontService,sans-serif"
       font-weight="400"
       font-size="55"
       transform="matrix(1 0 0 1 429.009 710)"
       id="text6">kdk</text><rect
       x="104.5"
       y="754.5"
       width="741"
       height="125"
       stroke="#000000"
       stroke-width="9.16667"
       stroke-linejoin="round"
       stroke-miterlimit="10"
       fill="none"
       id="rect6" /><text
       font-family="Consolas,Consolas_MSFontService,sans-serif"
       font-weight="400"
       font-size="55"
       transform="matrix(1 0 0 1 216.457 835)"
       id="text7">mode = READ|WRITE</text><rect
       x="104.5"
       y="877.5"
       width="741"
       height="125"
       stroke="#000000"
       stroke-width="9.16667"
       stroke-linejoin="round"
       stroke-miterlimit="10"
       fill="none"
       id="rect7" /><text
       font-family="Consolas,Consolas_MSFontService,sans-serif"
       font-weight="400"
       font-size="55"
       transform="matrix(1 0 0 1 277.186 959)"
       id="text8">metadata_node</text><rect
       x="104.5"
       y="1002.5"
       width="741"
       height="124"
       stroke="#000000"
       stroke-width="9.16667"
       stroke-linejoin="round"
       stroke-miterlimit="10"
       fill="none"
       id="rect8" /><text
       font-family="Consolas,Consolas_MSFontService,sans-serif"
       font-weight="400"
       font-size="55"
       transform="matrix(1 0 0 1 201.274 1083)"
       id="text9">metadata_decrypted</text><rect
       x="104.5"
       y="1126.5"
       width="741"
       height="125"
       stroke="#000000"
       stroke-width="9.16667"
       stroke-linejoin="round"
       stroke-miterlimit="10"
       fill="none"
       id="rect9" /><text
       font-family="Consolas,Consolas_MSFontService,sans-serif"
       font-weight="400"
       font-size="55"
       transform="matrix(1 0 0 1 277.186 1208)"
       id="text10">root_mht_node</text><text
       font-family="Arial,Arial_MSFontService,sans-serif"
       font-weight="400"
       font-size="46"
       transform="matrix(1 0 0 1 3615.54 113)"
       id="text11">Glossary:</text><text
       font-family="Arial,Arial_MSFontService,sans-serif"
       font-weight="400"
       font-size="46"
       transform="matrix(1 0 0 1 3615.54 168)"
       id="text12">•</text><text
       font-family="Arial,Arial_MSFontService,sans-serif"
       font-weight="400"
       font-size="46"
       transform="matrix(1 0 0 1 3677.41 168)"
       id="text13">KDK = Key Derivation Key</text><text
       font-family="Arial,Arial_MSFontService,sans-serif"
       font-weight="400"
       font-size="46"
       transform="matrix(1 0 0 1 3615.54 223)"
       id="text14">•</text><text
       font-family="Arial,Arial_MSFontService,sans-serif"
       font-weight="400"
       font-size="46"
       transform="matrix(1 0 0 1 3677.41 223)"
       id="text15">MHT = Merkle Hash Tree</text><text
       font-family="Arial,Arial_MSFontService,sans-serif"
       font-weight="400"
       font-size="46"
       transform="matrix(1 0 0 1 3615.54 278)"
       id="text16">•</text><text
       font-family="Arial,Arial_MSFontService,sans-serif"
       font-weight="400"
       font-size="46"
       transform="matrix(1 0 0 1 3677.41 278)"
       id="text17">KDF = Key Derivation Function</text><path
       d="M34.375-6.875 110.641-6.875C114.438-6.875 117.516-3.79696 117.516 0L117.516 33.7337 103.766 33.7337 103.766 0 110.641 6.875 34.375 6.875ZM117.516 74.9837 117.516 184.984 103.766 184.984 103.766 74.9837ZM117.516 226.234 117.516 336.234 103.766 336.234 103.766 226.234ZM117.516 377.484 117.516 487.484 103.766 487.484 103.766 377.484ZM117.516 528.734 117.516 638.734 103.766 638.734 103.766 528.734ZM117.516 679.984 117.516 789.984 103.766 789.984 103.766 679.984ZM117.516 831.234 117.516 941.234 103.766 941.234 103.766 831.234ZM117.516 982.484 117.516 1092.48 103.766 1092.48 103.766 982.484ZM117.516 1133.73 117.516 1243.73 103.766 1243.73 103.766 1133.73ZM117.516 1284.98 117.516 1394.98 103.766 1394.98 103.766 1284.98ZM41.25 20.625 0 0 41.25-20.625ZM131.266 1391.9 110.641 1433.15 90.0163 1391.9Z"
       transform="matrix(-1.83697e-16 -1 -1 1.83697e-16 3232.15 464.642)"
       id="path17" /><path
       d="M1007.48 728 1007.48 1063.68 845 1063.68"
       stroke="#000000"
       stroke-width="13.75"
       stroke-linejoin="round"
       stroke-miterlimit="10"
       fill="none"
       fill-rule="evenodd"
       id="path35" /><rect
       x="1112.5"
       y="532.5"
       width="741"
       height="124"
       stroke="#000000"
       stroke-width="9.16667"
       stroke-linejoin="round"
       stroke-miterlimit="10"
       fill="#FFFFFF"
       id="rect35" /><text
       font-family="Consolas,Consolas_MSFontService,sans-serif"
       font-weight="400"
       font-size="55"
       transform="matrix(1 0 0 1 1269.92 613)"
       id="text36">file_path</text><text
       font-family="Consolas,Consolas_MSFontService,sans-serif"
       font-weight="400"
       font-size="55"
       transform="matrix(1 0 0 1 1543.2 613)"
       id="text37">[772]</text><rect
       x="1112.5"
       y="654.5"
       width="741"
       height="124"
       stroke="#000000"
       stroke-width="9.16667"
       stroke-linejoin="round"
       stroke-miterlimit="10"
       fill="#FFFFFF"
       id="rect37" /><text
       font-family="Consolas,Consolas_MSFontService,sans-serif"
       font-weight="400"
       font-size="55"
       transform="matrix(1 0 0 1 1345.83 735)"
       id="text38">file_size</text><rect
       x="1112.5"
       y="778.5"
       width="741"
       height="125"
       stroke="#000000"
       stroke-width="9.16667"
       stroke-linejoin="round"
       stroke-miterlimit="10"
       fill="#FFFFFF"
       id="rect38" /><text
       font-family="Consolas,Consolas_MSFontService,sans-serif"
       font-weight="400"
       font-size="55"
       transform="matrix(1 0 0 1 1224.37 860)"
       id="text39">root_mht_node_key</text><rect
       x="1112.5"
       y="901.5"
       width="741"
       height="124"
       stroke="#000000"
       stroke-width="9.16667"
       stroke-linejoin="round"
       stroke-miterlimit="10"
       fill="#FFFFFF"
       id="rect39" /><text
       font-family="Consolas,Consolas_MSFontService,sans-serif"
       font-weight="400"
       font-size="55"
       transform="matrix(1 0 0 1 1224.37 982)"
       id="text40">root_mht_node_mac</text><rect
       x="1112.5"
       y="1025.5"
       width="741"
       height="125"
       stroke="#000000"
       stroke-width="9.16667"
       stroke-linejoin="round"
       stroke-miterlimit="10"
       fill="#FFFFFF"
       id="rect40" /><text
       font-family="Consolas,Consolas_MSFontService,sans-serif"
       font-weight="400"
       font-size="55"
       transform="matrix(1 0 0 1 1254.73 1106)"
       id="text41">file_data</text><text
       font-family="Consolas,Consolas_MSFontService,sans-serif"
       font-weight="400"
       font-size="55"
       transform="matrix(1 0 0 1 1528.02 1106)"
       id="text42">[3072]</text><path
       d="M1872.5 528.5C1896.25 528.5 1915.5 530.104 1915.5 532.083L1915.5 1146.92C1915.5 1148.9 1896.25 1150.5 1872.5 1150.5"
       stroke="#000000"
       stroke-width="6.875"
       stroke-linecap="square"
       stroke-linejoin="round"
       stroke-miterlimit="10"
       stroke-dasharray="20.625 6.875"
       fill="none"
       fill-rule="evenodd"
       id="path43" /><rect
       x="1112.5"
       y="1371.5"
       width="741"
       height="125"
       stroke="#000000"
       stroke-width="9.16667"
       stroke-linejoin="round"
       stroke-miterlimit="10"
       fill="#FFFFFF"
       id="rect43" /><text
       font-family="Consolas,Consolas_MSFontService,sans-serif"
       font-weight="400"
       font-size="55"
       transform="matrix(1 0 0 1 1255.18 1453)"
       id="text43">type = MHT_NODE</text><rect
       x="1112.5"
       y="1496.5"
       width="741"
       height="124"
       stroke="#000000"
       stroke-width="9.16667"
       stroke-linejoin="round"
       stroke-miterlimit="10"
       fill="#FFFFFF"
       id="rect44" /><text
       font-family="Consolas,Consolas_MSFontService,sans-serif"
       font-weight="400"
       font-size="55"
       transform="matrix(1 0 0 1 1239.99 1577)"
       id="text44">logical_node</text><text
       font-family="Consolas,Consolas_MSFontService,sans-serif"
       font-weight="400"
       font-size="55"
       transform="matrix(1 0 0 1 1634.73 1577)"
       id="text45">= 0</text><rect
       x="1112.5"
       y="1618.5"
       width="741"
       height="125"
       stroke="#000000"
       stroke-width="9.16667"
       stroke-linejoin="round"
       stroke-miterlimit="10"
       fill="#FFFFFF"
       id="rect45" /><text
       font-family="Consolas,Consolas_MSFontService,sans-serif"
       font-weight="400"
       font-size="55"
       transform="matrix(1 0 0 1 1224.81 1699)"
       id="text46">physical_node</text><text
       font-family="Consolas,Consolas_MSFontService,sans-serif"
       font-weight="400"
       font-size="55"
       transform="matrix(1 0 0 1 1649.92 1699)"
       id="text47">= 1</text><rect
       x="1112.5"
       y="1867.5"
       width="741"
       height="125"
       stroke="#000000"
       stroke-width="9.16667"
       stroke-linejoin="round"
       stroke-miterlimit="10"
       fill="#FFFFFF"
       id="rect47" /><text
       font-family="Consolas,Consolas_MSFontService,sans-serif"
       font-weight="400"
       font-size="55"
       transform="matrix(1 0 0 1 1345.83 1949)"
       id="text48">encrypted</text><rect
       x="1112.5"
       y="1743.5"
       width="741"
       height="125"
       stroke="#000000"
       stroke-width="9.16667"
       stroke-linejoin="round"
       stroke-miterlimit="10"
       fill="#FFFFFF"
       id="rect48" /><text
       font-family="Consolas,Consolas_MSFontService,sans-serif"
       font-weight="400"
       font-size="55"
       transform="matrix(1 0 0 1 1345.83 1824)"
       id="text49">decrypted</text><rect
       x="2218.5"
       y="1476.5"
       width="2030"
       height="642"
       stroke="#000000"
       stroke-width="9.16667"
       stroke-linejoin="round"
       stroke-miterlimit="10"
       fill="#FAFFC4"
       id="rect49" /><text
       font-family="Arial,Arial_MSFontService,sans-serif"
       font-weight="400"
       font-size="55"
       transform="matrix(1 0 0 1 2740.65 1545)"
       id="text50">#1: Root MHT node (all fields encrypted)</text><rect
       x="105.5"
       y="2150.5"
       width="452"
       height="124"
       stroke="#000000"
       stroke-width="9.16667"
       stroke-linejoin="round"
       stroke-miterlimit="10"
       fill="#FFFFFF"
       id="rect50" /><text
       font-family="Consolas,Consolas_MSFontService,sans-serif"
       font-weight="400"
       font-size="55"
       transform="matrix(1 0 0 1 199.767 2231)"
       id="text51">data_key</text><text
       font-family="Consolas,Consolas_MSFontService,sans-serif"
       font-weight="400"
       font-size="37"
       transform="matrix(1 0 0 1 442.684 2244)"
       id="text52">1</text><path
       d="M1077.59 1378.61 978.484 1378.61C974.687 1378.61 971.609 1375.53 971.609 1371.74L971.609 1189 978.484 1195.88 845 1195.88 845 1182.12 978.484 1182.12C982.281 1182.12 985.359 1185.2 985.359 1189L985.359 1371.74 978.484 1364.86 1077.59 1364.86ZM1070.72 1351.11 1111.97 1371.74 1070.72 1392.36Z"
       id="path52" /><rect
       x="557.5"
       y="2149.5"
       width="452"
       height="124"
       stroke="#000000"
       stroke-width="9.16667"
       stroke-linejoin="round"
       stroke-miterlimit="10"
       fill="#FFFFFF"
       id="rect52" /><text
       font-family="Consolas,Consolas_MSFontService,sans-serif"
       font-weight="400"
       font-size="55"
       transform="matrix(1 0 0 1 651.089 2230)"
       id="text53">data_mac</text><text
       font-family="Consolas,Consolas_MSFontService,sans-serif"
       font-weight="400"
       font-size="37"
       transform="matrix(1 0 0 1 894.006 2243)"
       id="text54">1</text><rect
       x="1009.5"
       y="2149.5"
       width="144"
       height="125"
       stroke="#000000"
       stroke-width="9.16667"
       stroke-linejoin="round"
       stroke-miterlimit="10"
       fill="#FFFFFF"
       id="rect54" /><text
       font-family="Consolas,Consolas_MSFontService,sans-serif"
       font-weight="400"
       font-size="55"
       transform="matrix(1 0 0 1 1065.59 2230)"
       id="text55">…</text><rect
       x="106.5"
       y="2274.5"
       width="452"
       height="124"
       stroke="#000000"
       stroke-width="9.16667"
       stroke-linejoin="round"
       stroke-miterlimit="10"
       fill="#FFFFFF"
       id="rect55" /><text
       font-family="Consolas,Consolas_MSFontService,sans-serif"
       font-weight="400"
       font-size="55"
       transform="matrix(1 0 0 1 215.784 2355)"
       id="text56">mht_key</text><text
       font-family="Consolas,Consolas_MSFontService,sans-serif"
       font-weight="400"
       font-size="37"
       transform="matrix(1 0 0 1 428.336 2368)"
       id="text57">1</text><rect
       x="557.5"
       y="2273.5"
       width="452"
       height="125"
       stroke="#000000"
       stroke-width="9.16667"
       stroke-linejoin="round"
       stroke-miterlimit="10"
       fill="#FFFFFF"
       id="rect57" /><text
       font-family="Consolas,Consolas_MSFontService,sans-serif"
       font-weight="400"
       font-size="55"
       transform="matrix(1 0 0 1 667.106 2354)"
       id="text58">mht_mac</text><text
       font-family="Consolas,Consolas_MSFontService,sans-serif"
       font-weight="400"
       font-size="37"
       transform="matrix(1 0 0 1 879.658 2367)"
       id="text59">1</text><rect
       x="1010.5"
       y="2273.5"
       width="143"
       height="125"
       stroke="#000000"
       stroke-width="9.16667"
       stroke-linejoin="round"
       stroke-miterlimit="10"
       fill="#FFFFFF"
       id="rect59" /><text
       font-family="Consolas,Consolas_MSFontService,sans-serif"
       font-weight="400"
       font-size="55"
       transform="matrix(1 0 0 1 1066.42 2355)"
       id="text60">…</text><rect
       x="2271.5"
       y="1735.5"
       width="452"
       height="124"
       stroke="#000000"
       stroke-width="9.16667"
       stroke-linejoin="round"
       stroke-miterlimit="10"
       fill="none"
       id="rect60" /><text
       font-family="Consolas,Consolas_MSFontService,sans-serif"
       font-weight="400"
       font-size="55"
       transform="matrix(1 0 0 1 2365.79 1816)"
       id="text61">data_key</text><text
       font-family="Consolas,Consolas_MSFontService,sans-serif"
       font-weight="400"
       font-size="37"
       transform="matrix(1 0 0 1 2608.71 1829)"
       id="text62">1</text><rect
       x="2723.5"
       y="1734.5"
       width="452"
       height="125"
       stroke="#000000"
       stroke-width="9.16667"
       stroke-linejoin="round"
       stroke-miterlimit="10"
       fill="none"
       id="rect62" /><text
       font-family="Consolas,Consolas_MSFontService,sans-serif"
       font-weight="400"
       font-size="55"
       transform="matrix(1 0 0 1 2817.11 1816)"
       id="text63">data_mac</text><text
       font-family="Consolas,Consolas_MSFontService,sans-serif"
       font-weight="400"
       font-size="37"
       transform="matrix(1 0 0 1 3060.03 1829)"
       id="text64">1</text><rect
       x="3320.5"
       y="1734.5"
       width="451"
       height="125"
       stroke="#000000"
       stroke-width="9.16667"
       stroke-linejoin="round"
       stroke-miterlimit="10"
       fill="none"
       id="rect64" /><text
       font-family="Consolas,Consolas_MSFontService,sans-serif"
       font-weight="400"
       font-size="55"
       transform="matrix(1 0 0 1 3404.12 1816)"
       id="text65">data_key</text><text
       font-family="Consolas,Consolas_MSFontService,sans-serif"
       font-weight="400"
       font-size="37"
       transform="matrix(1 0 0 1 3647.04 1829)"
       id="text66">96</text><rect
       x="3771.5"
       y="1734.5"
       width="451"
       height="125"
       stroke="#000000"
       stroke-width="9.16667"
       stroke-linejoin="round"
       stroke-miterlimit="10"
       fill="none"
       id="rect66" /><text
       font-family="Consolas,Consolas_MSFontService,sans-serif"
       font-weight="400"
       font-size="55"
       transform="matrix(1 0 0 1 3855.28 1816)"
       id="text67">data_mac</text><text
       font-family="Consolas,Consolas_MSFontService,sans-serif"
       font-weight="400"
       font-size="37"
       transform="matrix(1 0 0 1 4098.2 1829)"
       id="text68">96</text><rect
       x="3175.5"
       y="1734.5"
       width="144"
       height="125"
       stroke="#000000"
       stroke-width="9.16667"
       stroke-linejoin="round"
       stroke-miterlimit="10"
       fill="none"
       id="rect68" /><text
       font-family="Consolas,Consolas_MSFontService,sans-serif"
       font-weight="400"
       font-size="55"
       transform="matrix(1 0 0 1 3231.61 1816)"
       id="text69">…</text><rect
       x="2270.5"
       y="1859.5"
       width="452"
       height="125"
       stroke="#000000"
       stroke-width="9.16667"
       stroke-linejoin="round"
       stroke-miterlimit="10"
       fill="none"
       id="rect69" /><text
       font-family="Consolas,Consolas_MSFontService,sans-serif"
       font-weight="400"
       font-size="55"
       transform="matrix(1 0 0 1 2379.86 1940)"
       id="text70">mht_key</text><text
       font-family="Consolas,Consolas_MSFontService,sans-serif"
       font-weight="400"
       font-size="37"
       transform="matrix(1 0 0 1 2592.41 1953)"
       id="text71">1</text><rect
       x="2721.5"
       y="1859.5"
       width="453"
       height="124"
       stroke="#000000"
       stroke-width="9.16667"
       stroke-linejoin="round"
       stroke-miterlimit="10"
       fill="none"
       id="rect71" /><text
       font-family="Consolas,Consolas_MSFontService,sans-serif"
       font-weight="400"
       font-size="55"
       transform="matrix(1 0 0 1 2831.18 1940)"
       id="text72">mht_mac</text><text
       font-family="Consolas,Consolas_MSFontService,sans-serif"
       font-weight="400"
       font-size="37"
       transform="matrix(1 0 0 1 3043.73 1953)"
       id="text73">1</text><rect
       x="3319.5"
       y="1859.5"
       width="452"
       height="124"
       stroke="#000000"
       stroke-width="9.16667"
       stroke-linejoin="round"
       stroke-miterlimit="10"
       fill="none"
       id="rect73" /><text
       font-family="Consolas,Consolas_MSFontService,sans-serif"
       font-weight="400"
       font-size="55"
       transform="matrix(1 0 0 1 3418.74 1940)"
       id="text74">mht_key</text><text
       font-family="Consolas,Consolas_MSFontService,sans-serif"
       font-weight="400"
       font-size="37"
       transform="matrix(1 0 0 1 3631.29 1953)"
       id="text75">32</text><rect
       x="3770.5"
       y="1859.5"
       width="452"
       height="124"
       stroke="#000000"
       stroke-width="9.16667"
       stroke-linejoin="round"
       stroke-miterlimit="10"
       fill="none"
       id="rect75" /><text
       font-family="Consolas,Consolas_MSFontService,sans-serif"
       font-weight="400"
       font-size="55"
       transform="matrix(1 0 0 1 3869.77 1940)"
       id="text76">mht_mac</text><text
       font-family="Consolas,Consolas_MSFontService,sans-serif"
       font-weight="400"
       font-size="37"
       transform="matrix(1 0 0 1 4082.32 1953)"
       id="text77">32</text><rect
       x="3174.5"
       y="1859.5"
       width="143"
       height="124"
       stroke="#000000"
       stroke-width="9.16667"
       stroke-linejoin="round"
       stroke-miterlimit="10"
       fill="none"
       id="rect77" /><text
       font-family="Consolas,Consolas_MSFontService,sans-serif"
       font-weight="400"
       font-size="55"
       transform="matrix(1 0 0 1 3230.49 1940)"
       id="text78">…</text><text
       fill="#7F7F7F"
       font-family="Arial,Arial_MSFontService,sans-serif"
       font-weight="700"
       font-size="46"
       transform="matrix(1 0 0 1 2257.85 1728)"
       id="text79">0</text><text
       fill="#7F7F7F"
       font-family="Arial,Arial_MSFontService,sans-serif"
       font-weight="700"
       font-size="46"
       transform="matrix(1 0 0 1 2695.8 1725)"
       id="text80">15</text><text
       fill="#7F7F7F"
       font-family="Arial,Arial_MSFontService,sans-serif"
       font-weight="700"
       font-size="46"
       transform="matrix(1 0 0 1 3144.17 1724)"
       id="text81">31</text><text
       fill="#7F7F7F"
       font-family="Arial,Arial_MSFontService,sans-serif"
       font-weight="700"
       font-size="46"
       transform="matrix(1 0 0 1 2263.2 2030)"
       id="text82">3072</text><text
       fill="#7F7F7F"
       font-family="Arial,Arial_MSFontService,sans-serif"
       font-weight="700"
       font-size="46"
       transform="matrix(1 0 0 1 4122.29 2028)"
       id="text83">4095</text><path
       d="M104 1805 1111.91 1805"
       stroke="#000000"
       stroke-width="13.75"
       stroke-linejoin="round"
       stroke-miterlimit="10"
       fill="none"
       fill-rule="evenodd"
       id="path83" /><path
       d="M1169.5 2149.5C1187.17 2149.5 1201.5 2150.69 1201.5 2152.17L1201.5 2395.83C1201.5 2397.31 1187.17 2398.5 1169.5 2398.5"
       stroke="#000000"
       stroke-width="6.875"
       stroke-linecap="square"
       stroke-linejoin="round"
       stroke-miterlimit="10"
       stroke-dasharray="20.625 6.875"
       fill="none"
       fill-rule="evenodd"
       id="path84" /><path
       d="M3249.56 2006.42 3249.56 2027.04 3242.69 2027.04 3242.69 2006.42ZM3249.56 2033.92 3249.56 2054.54 3242.69 2054.54 3242.69 2033.92ZM3249.56 2061.42 3249.56 2066.43 3246.13 2062.99 3248.64 2062.99C3250.54 2062.99 3252.08 2064.53 3252.08 2066.43L3252.08 2079.53 3245.21 2079.53 3245.21 2066.43 3248.64 2069.87 3246.13 2069.87C3244.23 2069.87 3242.69 2068.33 3242.69 2066.43L3242.69 2061.42ZM3252.08 2086.4 3252.08 2107.03 3245.21 2107.03 3245.21 2086.4ZM3252.08 2113.9 3252.08 2134.53 3245.21 2134.53 3245.21 2113.9ZM3252.08 2141.4 3252.08 2162.03 3245.21 2162.03 3245.21 2141.4ZM3252.08 2168.9 3252.08 2189.53 3245.21 2189.53 3245.21 2168.9ZM3252.08 2196.4 3252.08 2217.03 3245.21 2217.03 3245.21 2196.4ZM3252.08 2223.9 3252.08 2244.53 3245.21 2244.53 3245.21 2223.9ZM3252.08 2251.4 3252.08 2272.03 3245.21 2272.03 3245.21 2251.4ZM3243.5 2277.19 3222.87 2277.19 3222.87 2270.32 3243.5 2270.32ZM3216 2277.19 3195.37 2277.19 3195.37 2270.32 3216 2270.32ZM3188.5 2277.19 3167.87 2277.19 3167.87 2270.32 3188.5 2270.32ZM3161 2277.19 3140.37 2277.19 3140.37 2270.32 3161 2270.32ZM3133.5 2277.19 3112.87 2277.19 3112.87 2270.32 3133.5 2270.32ZM3106 2277.19 3085.37 2277.19 3085.37 2270.32 3106 2270.32ZM3078.5 2277.19 3057.87 2277.19 3057.87 2270.32 3078.5 2270.32ZM3051 2277.19 3030.37 2277.19 3030.37 2270.32 3051 2270.32ZM3023.5 2277.19 3002.87 2277.19 3002.87 2270.32 3023.5 2270.32ZM2996 2277.19 2975.37 2277.19 2975.37 2270.32 2996 2270.32ZM2968.5 2277.19 2947.87 2277.19 2947.87 2270.32 2968.5 2270.32ZM2941 2277.19 2920.37 2277.19 2920.37 2270.32 2941 2270.32ZM2913.5 2277.19 2892.87 2277.19 2892.87 2270.32 2913.5 2270.32ZM2886 2277.19 2865.37 2277.19 2865.37 2270.32 2886 2270.32ZM2858.5 2277.19 2837.87 2277.19 2837.87 2270.32 2858.5 2270.32ZM2831 2277.19 2810.37 2277.19 2810.37 2270.32 2831 2270.32ZM2803.5 2277.19 2782.87 2277.19 2782.87 2270.32 2803.5 2270.32ZM2776 2277.19 2755.37 2277.19 2755.37 2270.32 2776 2270.32ZM2748.5 2277.19 2727.87 2277.19 2727.87 2270.32 2748.5 2270.32ZM2721 2277.19 2700.37 2277.19 2700.37 2270.32 2721 2270.32ZM2693.5 2277.19 2672.87 2277.19 2672.87 2270.32 2693.5 2270.32ZM2666 2277.19 2645.37 2277.19 2645.37 2270.32 2666 2270.32ZM2638.5 2277.19 2617.87 2277.19 2617.87 2270.32 2638.5 2270.32ZM2611 2277.19 2590.37 2277.19 2590.37 2270.32 2611 2270.32ZM2583.5 2277.19 2562.87 2277.19 2562.87 2270.32 2583.5 2270.32ZM2556 2277.19 2535.37 2277.19 2535.37 2270.32 2556 2270.32ZM2528.5 2277.19 2507.87 2277.19 2507.87 2270.32 2528.5 2270.32ZM2501 2277.19 2480.37 2277.19 2480.37 2270.32 2501 2270.32ZM2473.5 2277.19 2452.87 2277.19 2452.87 2270.32 2473.5 2270.32ZM2446 2277.19 2425.37 2277.19 2425.37 2270.32 2446 2270.32ZM2418.5 2277.19 2397.87 2277.19 2397.87 2270.32 2418.5 2270.32ZM2391 2277.19 2370.37 2277.19 2370.37 2270.32 2391 2270.32ZM2363.5 2277.19 2342.87 2277.19 2342.87 2270.32 2363.5 2270.32ZM2336 2277.19 2315.37 2277.19 2315.37 2270.32 2336 2270.32ZM2308.5 2277.19 2287.87 2277.19 2287.87 2270.32 2308.5 2270.32ZM2281 2277.19 2260.37 2277.19 2260.37 2270.32 2281 2270.32ZM2253.5 2277.19 2232.87 2277.19 2232.87 2270.32 2253.5 2270.32ZM2226 2277.19 2205.37 2277.19 2205.37 2270.32 2226 2270.32ZM2198.5 2277.19 2177.87 2277.19 2177.87 2270.32 2198.5 2270.32ZM2171 2277.19 2150.37 2277.19 2150.37 2270.32 2171 2270.32ZM2143.5 2277.19 2122.87 2277.19 2122.87 2270.32 2143.5 2270.32ZM2116 2277.19 2095.37 2277.19 2095.37 2270.32 2116 2270.32ZM2088.5 2277.19 2067.87 2277.19 2067.87 2270.32 2088.5 2270.32ZM2061 2277.19 2040.37 2277.19 2040.37 2270.32 2061 2270.32ZM2033.5 2277.19 2012.87 2277.19 2012.87 2270.32 2033.5 2270.32ZM2006 2277.19 1985.37 2277.19 1985.37 2270.32 2006 2270.32ZM1978.5 2277.19 1957.87 2277.19 1957.87 2270.32 1978.5 2270.32ZM1951 2277.19 1930.37 2277.19 1930.37 2270.32 1951 2270.32ZM1923.5 2277.19 1902.87 2277.19 1902.87 2270.32 1923.5 2270.32ZM1896 2277.19 1875.37 2277.19 1875.37 2270.32 1896 2270.32ZM1868.5 2277.19 1847.87 2277.19 1847.87 2270.32 1868.5 2270.32ZM1841 2277.19 1820.37 2277.19 1820.37 2270.32 1841 2270.32ZM1813.5 2277.19 1792.87 2277.19 1792.87 2270.32 1813.5 2270.32ZM1786 2277.19 1765.37 2277.19 1765.37 2270.32 1786 2270.32ZM1758.5 2277.19 1737.87 2277.19 1737.87 2270.32 1758.5 2270.32ZM1731 2277.19 1710.37 2277.19 1710.37 2270.32 1731 2270.32ZM1703.5 2277.19 1682.87 2277.19 1682.87 2270.32 1703.5 2270.32ZM1676 2277.19 1655.37 2277.19 1655.37 2270.32 1676 2270.32ZM1648.5 2277.19 1627.87 2277.19 1627.87 2270.32 1648.5 2270.32ZM1621 2277.19 1600.37 2277.19 1600.37 2270.32 1621 2270.32ZM1593.5 2277.19 1572.87 2277.19 1572.87 2270.32 1593.5 2270.32ZM1566 2277.19 1545.37 2277.19 1545.37 2270.32 1566 2270.32ZM1538.5 2277.19 1517.87 2277.19 1517.87 2270.32 1538.5 2270.32ZM1511 2277.19 1490.37 2277.19 1490.37 2270.32 1511 2270.32ZM1483.5 2277.19 1462.87 2277.19 1462.87 2270.32 1483.5 2270.32ZM1456 2277.19 1435.37 2277.19 1435.37 2270.32 1456 2270.32ZM1428.5 2277.19 1407.87 2277.19 1407.87 2270.32 1428.5 2270.32ZM1401 2277.19 1380.37 2277.19 1380.37 2270.32 1401 2270.32ZM1373.5 2277.19 1352.87 2277.19 1352.87 2270.32 1373.5 2270.32ZM1346 2277.19 1325.37 2277.19 1325.37 2270.32 1346 2270.32ZM1318.5 2277.19 1297.87 2277.19 1297.87 2270.32 1318.5 2270.32ZM1291 2277.19 1270.37 2277.19 1270.37 2270.32 1291 2270.32ZM1263.5 2277.19 1242.87 2277.19 1242.87 2270.32 1263.5 2270.32ZM1236 2277.19 1224.41 2277.19 1224.41 2270.32 1236 2270.32ZM3232.38 2011 3246.13 1983.5 3259.88 2011ZM1229 2287.5 1201.5 2273.75 1229 2260Z"
       id="path85" /><path
       d="M3225.86 1441.63 3225.86 1393.5 3232.73 1400.37 3170.86 1400.37 3170.86 1386.62 3232.73 1386.62C3236.53 1386.62 3239.61 1389.7 3239.61 1393.5L3239.61 1441.63ZM3129.61 1400.37 3019.61 1400.37 3019.61 1386.62 3129.61 1386.62ZM2978.36 1400.37 2868.36 1400.37 2868.36 1386.62 2978.36 1386.62ZM2827.11 1400.37 2717.11 1400.37 2717.11 1386.62 2827.11 1386.62ZM2675.86 1400.37 2565.86 1400.37 2565.86 1386.62 2675.86 1386.62ZM2524.61 1400.37 2414.61 1400.37 2414.61 1386.62 2524.61 1386.62ZM2373.36 1400.37 2263.36 1400.37 2263.36 1386.62 2373.36 1386.62ZM2222.11 1400.37 2112.11 1400.37 2112.11 1386.62 2222.11 1386.62ZM2070.86 1400.37 1975.41 1400.37 1982.28 1393.5 1982.28 1408.04 1968.53 1408.04 1968.53 1393.5C1968.53 1389.7 1971.61 1386.62 1975.41 1386.62L2070.86 1386.62ZM1982.28 1449.29 1982.28 1559.29 1968.53 1559.29 1968.53 1449.29ZM1982.28 1600.54 1982.28 1710.54 1968.53 1710.54 1968.53 1600.54ZM1982.28 1751.79 1982.28 1861.79 1968.53 1861.79 1968.53 1751.79ZM1982.28 1903.04 1982.28 2013.04 1968.53 2013.04 1968.53 1903.04ZM1982.28 2054.29 1982.28 2109.71C1982.28 2113.51 1979.2 2116.59 1975.41 2116.59L1920.83 2116.59 1920.83 2102.84 1975.41 2102.84 1968.53 2109.71 1968.53 2054.29ZM3253.36 1434.75 3232.73 1476 3212.11 1434.75ZM1911.25 2130.34 1870 2109.71 1911.25 2089.09Z"
       id="path86" /><text
       font-family="Arial,Arial_MSFontService,sans-serif"
       font-weight="700"
       font-size="55"
       transform="matrix(1 0 0 1 1390.01 372)"
       id="text86">Bounce</text><text
       font-family="Arial,Arial_MSFontService,sans-serif"
       font-weight="700"
       font-size="55"
       transform="matrix(1 0 0 1 1604.28 372)"
       id="text87">buffer</text><path
       d="M34.375-6.875 445.854-6.875C449.651-6.875 452.729-3.79696 452.729 0L452.729 585.982 445.854 579.107 505.67 579.107 505.67 592.857 445.854 592.857C442.057 592.857 438.979 589.779 438.979 585.982L438.979 0 445.854 6.875 34.375 6.875ZM41.25 20.625 0 0 41.25-20.625Z"
       transform="matrix(-1 1.22465e-16 1.22465e-16 1 1350.67 354)"
       id="path87" /><text
       font-family="Arial,Arial_MSFontService,sans-serif"
       font-weight="700"
       font-size="55"
       transform="matrix(1 0 0 1 1458.96 2129)"
       id="text88">Bounce buffer</text><path
       d="M1386.67 2116.73 1029.5 2116.73C1025.7 2116.73 1022.62 2113.65 1022.62 2109.85L1022.62 1930C1022.62 1926.2 1025.7 1923.13 1029.5 1923.13L1112 1923.13 1112 1936.88 1029.5 1936.88 1036.37 1930 1036.37 2109.85 1029.5 2102.98 1386.67 2102.98ZM1379.8 2089.23 1421.05 2109.85 1379.8 2130.48Z"
       id="path88" /><path
       d="M2047 22 2047 2397.54"
       stroke="#7F7F7F"
       stroke-width="13.75"
       stroke-linecap="square"
       stroke-linejoin="round"
       stroke-miterlimit="10"
       stroke-dasharray="41.25 13.75"
       fill="none"
       fill-rule="evenodd"
       id="path89" /><text
       font-family="Arial,Arial_MSFontService,sans-serif"
       font-weight="400"
       font-size="55"
       text-decoration="underline"
       transform="matrix(1 0 0 1 1445.11 86)"
       id="text89">SGX enclave (trusted)</text><text
       font-family="Arial,Arial_MSFontService,sans-serif"
       font-weight="400"
       font-size="55"
       text-decoration="underline"
       transform="matrix(1 0 0 1 2095.12 88)"
       id="text90">Host storage (untrusted)</text><text
       fill="#7F7F7F"
       font-family="Arial,Arial_MSFontService,sans-serif"
       font-weight="700"
       font-size="46"
       transform="matrix(1 0 0 1 4126.34 1728)"
       id="text91">3071</text><text
       font-family="Arial,Arial_MSFontService,sans-serif"
       font-weight="400"
       font-size="46"
       transform="matrix(1 0 0 1 2874.35 115)"
       id="text93">Arrows legend:</text><text
       font-family="Arial,Arial_MSFontService,sans-serif"
       font-weight="400"
       font-size="46"
       transform="matrix(1 0 0 1 3063.41 170)"
       id="text94">Encrypted on storage</text><text
       font-family="Arial,Arial_MSFontService,sans-serif"
       font-weight="400"
       font-size="46"
       transform="matrix(1 0 0 1 3063.41 225)"
       id="text95">Copied in/out of enclave</text><path
       d="M22.9167-3.43745 43.5417-3.4374 43.5417 3.4376 22.9167 3.43755ZM50.4167-3.43738 71.0417-3.43734 71.0417 3.43766 50.4167 3.43762ZM77.9167-3.43732 98.5417-3.43727 98.5417 3.43773 77.9167 3.43768ZM105.417-3.43726 126.042-3.43721 126.042 3.43779 105.417 3.43774ZM132.917-3.43719 153.542-3.43714 153.542 3.43786 132.917 3.43781ZM27.5 13.7501 0 0 27.5-13.7499Z"
       transform="matrix(-1 0 0 1 3046.37 153.5)"
       id="path95" /><path
       d="M3023.45 212.073 2968.45 212.017 2968.45 205.142 3023.45 205.198ZM2947.82 211.996 2892.82 211.94 2892.83 205.065 2947.83 205.121ZM3018.88 194.881 3046.37 208.659 3018.85 222.381Z"
       id="path96" /><path
       d="M1078.24 541.141 1008.04 541.594 1014.88 534.719 1014.88 754.158 1001.12 754.158 1001.12 534.719C1001.12 530.939 1004.18 527.869 1007.96 527.844L1078.15 527.391ZM1069.97 514.139 1112.49 532 1072.69 555.299Z"
       id="path97" /><path
       d="M6.87504 34.375 6.87536 337.562-6.87464 337.562-6.87496 34.375ZM-20.625 41.25 0 0 20.625 41.25Z"
       transform="matrix(1 0 0 -1 104 2142.56)"
       id="path98" /><g
       id="g101"
       transform="matrix(1.0035909,0,0,0.99997901,-16.297795,7.2902912)"><rect
         x="2226.3311"
         y="463.12817"
         width="2020.6708"
         height="777.021"
         stroke="#000000"
         stroke-width="9.14571"
         stroke-linejoin="round"
         stroke-miterlimit="10"
         fill="#ffdbcc"
         id="rect1" /><text
         font-family="Arial, Arial_MSFontService, sans-serif"
         font-weight="400"
         font-size="55px"
         id="text1"
         x="2683.4399"
         y="534">#0: Metadata node </text><text
         font-family="Arial, Arial_MSFontService, sans-serif"
         font-weight="400"
         font-size="55px"
         id="text2"
         x="3156.1001"
         y="534">(</text><text
         font-family="Arial, Arial_MSFontService, sans-serif"
         font-weight="400"
         font-size="55px"
         id="text3"
         x="3174.4299"
         y="534">first 59 bytes</text><text
         font-family="Arial, Arial_MSFontService, sans-serif"
         font-weight="400"
         font-size="55px"
         id="text4"
         x="3501.5601"
         y="534">in plaintext)</text><g
         id="g99"
         transform="translate(-0.77918732,-1.2986455)"><rect
           x="2257.9207"
           y="657.92078"
           width="335.73364"
           height="125.15844"
           stroke="#000000"
           stroke-width="8.00823"
           stroke-linejoin="round"
           stroke-miterlimit="10"
           fill="none"
           id="rect17" /><text
           font-family="Consolas, Consolas_MSFontService, sans-serif"
           font-weight="400"
           font-size="55px"
           id="text18"
           x="2269.3201"
           y="736.79614">“GRAFS_PF”</text><rect
           x="2592.75"
           y="657.61786"
           width="148.74138"
           height="125.53075"
           stroke="#000000"
           stroke-width="7.63593"
           stroke-linejoin="round"
           stroke-miterlimit="10"
           fill="none"
           id="rect18" /><text
           font-family="Consolas, Consolas_MSFontService, sans-serif"
           font-weight="400"
           font-size="55px"
           id="text19"
           x="2609.5469"
           y="737.414">0x01</text><rect
           x="2739.9561"
           y="657.82404"
           width="158.504"
           height="125.27399"
           stroke="#000000"
           stroke-width="7.89268"
           stroke-linejoin="round"
           stroke-miterlimit="10"
           fill="none"
           id="rect19" /><text
           font-family="Consolas, Consolas_MSFontService, sans-serif"
           font-weight="400"
           font-size="55px"
           id="text20"
           x="2760.8147"
           y="739.39142">0x00</text><rect
           x="2898.6907"
           y="657.8634"
           width="321.54251"
           height="124.74249"
           stroke="#000000"
           stroke-width="8.42418"
           stroke-linejoin="round"
           stroke-miterlimit="10"
           fill="none"
           id="rect20" /><text
           font-family="Consolas, Consolas_MSFontService, sans-serif"
           font-weight="400"
           font-size="55px"
           id="text21"
           x="2930.6672"
           y="739.56567">KDF nonce</text><rect
           x="3221.6348"
           y="657.68402"
           width="187.00835"
           height="125.95605"
           stroke="#000000"
           stroke-width="7.21061"
           stroke-linejoin="round"
           stroke-miterlimit="10"
           fill="none"
           id="rect21" /><text
           font-family="Consolas, Consolas_MSFontService, sans-serif"
           font-weight="400"
           font-size="55px"
           id="text22"
           x="3275.5481"
           y="739.79614">MAC</text><text
           font-family="Consolas, Consolas_MSFontService, sans-serif"
           font-weight="400"
           font-size="55px"
           id="text22-9"
           x="3422.804"
           y="736.30658">pending_write</text><text
           fill="#7f7f7f"
           font-family="Arial, Arial_MSFontService, sans-serif"
           font-weight="700"
           font-size="46px"
           id="text23"
           x="2244.8301"
           y="649">0</text><text
           fill="#7f7f7f"
           font-family="Arial, Arial_MSFontService, sans-serif"
           font-weight="700"
           font-size="46px"
           id="text24"
           x="2583.4099"
           y="650">7</text><text
           fill="#7f7f7f"
           font-family="Arial, Arial_MSFontService, sans-serif"
           font-weight="700"
           font-size="46px"
           id="text25"
           x="2730.7502"
           y="649.26538">8</text><text
           fill="#7f7f7f"
           font-family="Arial, Arial_MSFontService, sans-serif"
           font-weight="700"
           font-size="46px"
           id="text26"
           x="2887.1509"
           y="648.06152">9</text><text
           fill="#7f7f7f"
           font-family="Arial, Arial_MSFontService, sans-serif"
           font-weight="700"
           font-size="46px"
           id="text27"
           x="3193.7212"
           y="648.26538">41</text><text
           fill="#7f7f7f"
           font-family="Arial, Arial_MSFontService, sans-serif"
           font-weight="700"
           font-size="46px"
           id="text28"
           x="3380.9998"
           y="648.79614">57</text><text
           fill="#7f7f7f"
           font-family="Arial, Arial_MSFontService, sans-serif"
           font-weight="700"
           font-size="46px"
           id="text28-5"
           x="3785.592"
           y="649.33612">58</text><rect
           x="2265.5"
           y="859.5"
           width="747"
           height="125"
           stroke="#000000"
           stroke-width="9.16667"
           stroke-linejoin="round"
           stroke-miterlimit="10"
           fill="none"
           id="rect28" /><text
           font-family="Consolas, Consolas_MSFontService, sans-serif"
           font-weight="400"
           font-size="55px"
           transform="translate(2365.4,941)"
           id="text29">encrypted metadata</text><path
           d="m 3903.6605,922.646 h 36.7605 v 6.875 h -36.7605 z m 48.755,0 h 36.7606 v 6.875 h -36.7606 z m 49.002,0 h 36.7606 v 6.875 h -36.7606 z m 49.0022,0 h 30.4883 l -6.1297,3.437 v -3.521 h 12.2415 v 3.521 c 0,1.899 -2.7441,3.438 -6.1118,3.438 h -30.4883 z m 24.3586,-6.959 v -20.625 h 12.2415 v 20.625 z m 0,-27.5 v -20.625 h 12.2415 v 20.625 z m 0,-27.5 v -20.625 h 12.2415 v 20.625 z m 0,-27.5 v -20.625 h 12.2415 v 20.625 z m 0,-27.5 v -20.625 h 12.2415 v 20.625 z m 0,-27.5 v -20.625 h 12.2415 v 20.625 z m 0,-27.5 v -20.625 h 12.2415 v 20.625 z m 0,-27.5 v -20.625 h 12.2415 v 20.625 z m 0,-27.5 v -20.625 h 12.2415 v 20.625 z m 0,-27.5 v -20.625 h 12.2415 v 20.625 z m 0,-27.5 v -20.625 h 12.2415 v 20.625 z m 0,-27.5 v -20.625 h 12.2415 v 20.625 z m 0,-27.5 v -8.686 l 6.1297,3.437 h -21.2759 v -6.875 h 21.2759 c 3.3677,0 6.1118,1.539 6.1118,3.438 v 8.686 z m -27.4056,-5.249 H 4010.63 v -6.875 h 36.7427 z m -49.0022,0 h -36.7427 v -6.875 h 36.7427 z m -49.0019,0 h -36.7429 v -6.875 h 36.7429 z m -49.0023,0 h -36.7428 v -6.875 h 36.7428 z m -49.0022,0 h -36.7425 v -6.875 h 36.7425 z m -49.002,0 h -36.7427 v -6.875 h 36.7427 z m -49.0021,0 h -36.743 v -6.875 h 36.743 z m -49.0021,0 h -36.7429 v -6.875 h 36.7429 z m -49.0023,0 h -36.7426 v -6.875 h 36.7426 z m -49.002,0 h -36.7427 v -6.875 h 36.7427 z m -49.0021,0 h -36.7428 v -6.875 h 36.7428 z m -49.0022,0 h -36.7427 v -6.875 h 36.7427 z m -49.002,0 h -36.7427 v -6.875 h 36.7427 z m -135.3909,0 h -18.5686 l 6.1297,-3.437 v 4.692 h -12.2595 v -4.692 c 0,-1.899 2.7441,-3.438 6.1298,-3.438 h 18.5686 z m -12.4389,8.13 v 20.625 h -12.2595 v -20.625 z m 0,27.5 v 20.625 h -12.2595 v -20.625 z m 0,27.5 V 659.5 h -12.2595 v -15.932 z m 600.322,296.265 -49.002,-13.75 49.002,-13.75 z M 3368.0501,580.438 h -36.7427 v -6.875 h 36.7427 z m 44.176,0 h -36.7427 v -6.875 h 36.7427 z"
           id="path29"
           style="stroke-width:1.33488"
           sodipodi:nodetypes="ccccccccccccccccccccsscccccccccccccccccccccccccccccccccccccccccccccccccccccccccccccccccccssccccccccccccccccccccccccccccccccccccccccccccccccccccccccccccccccccccccccssccccccccccccccccccccccccccccccc" /><text
           font-family="Arial, Arial_MSFontService, sans-serif"
           font-weight="400"
           font-size="50px"
           id="text30"
           x="3969.6426"
           y="620.11676">over</text><text
           fill="#7f7f7f"
           font-family="Arial, Arial_MSFontService, sans-serif"
           font-weight="700"
           font-size="46px"
           transform="translate(2240.01,846)"
           id="text31">59</text><text
           fill="#7f7f7f"
           font-family="Arial, Arial_MSFontService, sans-serif"
           font-weight="700"
           font-size="46px"
           transform="translate(3738.24,850)"
           id="text32">3942</text><rect
           x="2265.5"
           y="1062.5"
           width="1561"
           height="125"
           stroke="#000000"
           stroke-width="9.16667"
           stroke-linejoin="round"
           stroke-miterlimit="10"
           fill="none"
           id="rect32" /><text
           font-family="Consolas, Consolas_MSFontService, sans-serif"
           font-weight="400"
           font-size="55px"
           transform="translate(2802.57,1144)"
           id="text33">Constant padding</text><text
           fill="#7f7f7f"
           font-family="Arial, Arial_MSFontService, sans-serif"
           font-weight="700"
           font-size="46px"
           transform="translate(2235.61,1049)"
           id="text34">3943</text><text
           fill="#7f7f7f"
           font-family="Arial, Arial_MSFontService, sans-serif"
           font-weight="700"
           font-size="46px"
           transform="translate(3736.81,1053)"
           id="text35">4095</text><rect
           x="3012.5"
           y="859.5"
           width="814"
           height="125"
           stroke="#000000"
           stroke-width="9.16667"
           stroke-linejoin="round"
           stroke-miterlimit="10"
           fill="none"
           id="rect91" /><text
           font-family="Consolas, Consolas_MSFontService, sans-serif"
           font-weight="400"
           font-size="55px"
           id="text92"
           transform="translate(3130.48,940)">encrypted file data</text><path
           d="m 3842.5,867.5 c 9.94,0 18,0.672 18,1.5 v 113 c 0,0.828 -8.06,1.5 -18,1.5"
           stroke="#000000"
           stroke-width="6.875"
           stroke-linecap="square"
           stroke-linejoin="round"
           stroke-miterlimit="10"
           stroke-dasharray="20.625, 6.875"
           fill="none"
           fill-rule="evenodd"
           id="path92" /><text
           fill="#7f7f7f"
           font-family="Arial, Arial_MSFontService, sans-serif"
           font-weight="700"
           font-size="46px"
           transform="translate(2972.09,849)"
           id="text98">870</text><rect
           x="3408.6912"
           y="658.98279"
           width="414.94379"
           height="124.2945"
           stroke="#000000"
           stroke-width="8.87217"
           stroke-linejoin="round"
           stroke-miterlimit="10"
           fill="none"
           id="rect17-7" /></g></g><path
       d="m 2233.0667,925.786 h -19.9939 v -6.875 h 19.9939 z m -26.665,0 h -19.9939 v -6.875 h 19.9939 z m -26.6651,0 h -19.9939 v -6.875 h 19.9939 z m -26.6651,0 h -19.9939 v -6.875 h 19.9939 z m -26.6649,0 h -19.994 v -6.875 h 19.994 z m -26.6651,0 h -10.3461 c -1.8423,0 -3.3356,-1.539 -3.3356,-3.438 v -9.953 h 6.6712 v 9.953 l -3.3356,-3.437 h 10.3461 z m -13.6817,-20.266 v -20.625 h 6.6712 v 20.625 z m 0,-27.5 v -20.625 h 6.6712 v 20.625 z m 0,-27.5 v -20.625 h 6.6712 v 20.625 z m 0,-27.5 v -20.625 h 6.6712 v 20.625 z m 0,-27.5 v -9.02 l 3.3356,3.438 h -11.2575 v -6.876 h 11.2575 c 1.8424,0 3.3356,1.54 3.3356,3.438 v 9.02 z m -14.5833,-5.582 h -20.0037 v -6.876 h 20.0037 z m -26.6651,0 h -20.0035 v -6.876 h 20.0035 z m -26.665,0 h -20.0036 v -6.876 h 20.0036 z m -26.6651,0 h -20.0036 v -6.876 h 20.0036 z m -26.6651,0 h -19.0921 v -6.876 h 19.0921 z m 263.8096,118.66 26.6651,13.75 -26.6651,13.75 z M 1950.1651,800.25 1923.5,786.5 l 26.6651,-13.75 z"
       id="path42"
       style="stroke-width:0.984702" /></g></svg>
