<svg width="4408" height="2338" xmlns="http://www.w3.org/2000/svg" xmlns:xlink="http://www.w3.org/1999/xlink" xml:space="preserve" overflow="hidden"><g transform="translate(-14 -12)"><rect x="1832.5" y="138.5" width="529" height="171" stroke="#000000" stroke-width="9.16667" stroke-linejoin="round" stroke-miterlimit="10" fill="#FFDBCC"/><text font-family="Arial,Arial_MSFontService,sans-serif" font-weight="400" font-size="55" transform="matrix(1 0 0 1 1936.16 244)">#0: Metadata</text><rect x="1832.5" y="413.5" width="529" height="171" stroke="#000000" stroke-width="9.16667" stroke-linejoin="round" stroke-miterlimit="10" fill="#FAFFC4"/><text font-family="Arial,Arial_MSFontService,sans-serif" font-weight="400" font-size="55" transform="matrix(1 0 0 1 1914.96 519)">#1: Root MHT</text><text font-family="Arial,Arial_MSFontService,sans-serif" font-weight="400" font-size="37" transform="matrix(1 0 0 1 2256.99 532)">0</text><path d="M3.4375-1.20018e-05 3.43757 20.625-3.43743 20.625-3.4375 1.20018e-05ZM3.4376 27.5 3.43767 48.125-3.43733 48.125-3.4374 27.5ZM3.43769 55 3.43776 75.625-3.43724 75.625-3.43731 55ZM13.7503 75.8653 0.000360892 103.365-13.7497 75.8654Z" transform="matrix(1 0 0 -1 2096.5 412.865)"/><rect x="995.5" y="633.5" width="529" height="171" stroke="#000000" stroke-width="9.16667" stroke-linejoin="round" stroke-miterlimit="10" fill="#C9F0FF"/><text font-family="Arial,Arial_MSFontService,sans-serif" font-weight="400" font-size="55" transform="matrix(1 0 0 1 1145.33 739)">#2: Data</text><text font-family="Arial,Arial_MSFontService,sans-serif" font-weight="400" font-size="37" transform="matrix(1 0 0 1 1352.72 752)">0</text><rect x="1569.5" y="633.5" width="148" height="171" stroke="#000000" stroke-width="9.16667" stroke-linejoin="round" stroke-miterlimit="10" fill="#C9F0FF"/><text font-family="Arial,Arial_MSFontService,sans-serif" font-weight="400" font-size="55" transform="matrix(1 0 0 1 1615.15 739)">…</text><path d="M1640.06 633.683 1640.06 613.058 1646.94 613.058 1646.94 633.683ZM1640.06 606.183 1640.06 585.558 1646.94 585.558 1646.94 606.183ZM1640.06 578.683 1640.06 558.058 1646.94 558.058 1646.94 578.683ZM1640.06 551.183 1640.06 530.558 1646.94 530.558 1646.94 551.183ZM1640.06 523.683 1640.06 503.058 1646.94 503.058 1646.94 523.683ZM1646.82 496.063 1667.44 496.063 1667.44 502.938 1646.82 502.938ZM1674.32 496.063 1694.94 496.063 1694.94 502.938 1674.32 502.938ZM1701.82 496.063 1722.44 496.063 1722.44 502.938 1701.82 502.938ZM1729.32 496.063 1749.94 496.063 1749.94 502.938 1729.32 502.938ZM1756.82 496.063 1777.44 496.063 1777.44 502.938 1756.82 502.938ZM1784.32 496.063 1804.94 496.063 1804.94 502.938 1784.32 502.938ZM1805.01 485.75 1832.51 499.5 1805.01 513.25Z"/><rect x="2476.5" y="633.5" width="148" height="171" stroke="#000000" stroke-width="9.16667" stroke-linejoin="round" stroke-miterlimit="10" fill="#C9F0FF"/><text font-family="Arial,Arial_MSFontService,sans-serif" font-weight="400" font-size="55" transform="matrix(1 0 0 1 2522.42 739)">…</text><path d="M0-3.4375 20.625-3.4375 20.625 3.4375 0 3.4375ZM27.5-3.4375 48.125-3.4375 48.125 3.4375 27.5 3.4375ZM55-3.4375 75.625-3.4375 75.625 3.4375 55 3.4375ZM82.5-3.4375 103.125-3.4375 103.125 3.4375 82.5 3.4375ZM110-3.4375 130.625-3.4375 130.625 3.4375 110 3.4375ZM137.62 3.31753 137.62 23.9425 130.745 23.9425 130.745 3.31753ZM137.62 30.8175 137.62 51.4425 130.745 51.4425 130.745 30.8175ZM137.62 58.3175 137.62 78.9425 130.745 78.9425 130.745 58.3175ZM137.62 85.8175 137.62 106.443 130.745 106.443 130.745 85.8175ZM137.62 113.318 137.62 133.943 130.745 133.943 130.745 113.318ZM137.62 140.818 137.62 161.443 130.745 161.443 130.745 140.818ZM147.932 161.506 134.182 189.006 120.432 161.506Z" transform="matrix(-1.83697e-16 -1 -1 1.83697e-16 2550.51 633.683)"/><rect x="2669.5" y="633.5" width="529" height="171" stroke="#000000" stroke-width="9.16667" stroke-linejoin="round" stroke-miterlimit="10" fill="#C9F0FF"/><text font-family="Arial,Arial_MSFontService,sans-serif" font-weight="400" font-size="55" transform="matrix(1 0 0 1 2793.73 739)">#97: Data</text><text font-family="Arial,Arial_MSFontService,sans-serif" font-weight="400" font-size="37" transform="matrix(1 0 0 1 3031.49 752)">95</text><rect x="790.5" y="929.5" width="529" height="171" stroke="#000000" stroke-width="9.16667" stroke-linejoin="round" stroke-miterlimit="10" fill="#FAFFC4"/><text font-family="Arial,Arial_MSFontService,sans-serif" font-weight="400" font-size="55" transform="matrix(1 0 0 1 923.811 1034)">#98: MHT</text><text font-family="Arial,Arial_MSFontService,sans-serif" font-weight="400" font-size="37" transform="matrix(1 0 0 1 1165.01 1047)">1</text><rect x="18.5001" y="1203.5" width="530" height="172" stroke="#000000" stroke-width="9.16667" stroke-linejoin="round" stroke-miterlimit="10" fill="#C9F0FF"/><text font-family="Arial,Arial_MSFontService,sans-serif" font-weight="400" font-size="55" transform="matrix(1 0 0 1 143.583 1309)">#99: Data</text><text font-family="Arial,Arial_MSFontService,sans-serif" font-weight="400" font-size="37" transform="matrix(1 0 0 1 381.343 1322)">96</text><rect x="593.5" y="1203.5" width="147" height="172" stroke="#000000" stroke-width="9.16667" stroke-linejoin="round" stroke-miterlimit="10" fill="#C9F0FF"/><text font-family="Arial,Arial_MSFontService,sans-serif" font-weight="400" font-size="55" transform="matrix(1 0 0 1 638.898 1309)">…</text><path d="M663.063 1203.44 663.063 1182.82 669.938 1182.82 669.938 1203.44ZM663.063 1175.94 663.063 1155.32 669.938 1155.32 669.938 1175.94ZM663.063 1148.44 663.063 1127.82 669.938 1127.82 669.938 1148.44ZM663.063 1120.94 663.063 1100.32 669.938 1100.32 669.938 1120.94ZM663.063 1093.44 663.063 1072.82 669.938 1072.82 669.938 1093.44ZM663.063 1065.94 663.063 1045.32 669.938 1045.32 669.938 1065.94ZM663.063 1038.44 663.063 1017.82 669.938 1017.82 669.938 1038.44ZM670.058 1011.06 690.683 1011.06 690.683 1017.94 670.058 1017.94ZM697.558 1011.06 718.183 1011.06 718.183 1017.94 697.558 1017.94ZM725.058 1011.06 745.683 1011.06 745.683 1017.94 725.058 1017.94ZM752.558 1011.06 767.277 1011.06 767.277 1017.94 752.558 1017.94ZM762.694 1000.75 790.194 1014.5 762.694 1028.25Z"/><rect x="1342.5" y="1203.5" width="147" height="172" stroke="#000000" stroke-width="9.16667" stroke-linejoin="round" stroke-miterlimit="10" fill="#C9F0FF"/><text font-family="Arial,Arial_MSFontService,sans-serif" font-weight="400" font-size="55" transform="matrix(1 0 0 1 1388.05 1309)">…</text><path d="M0-3.4375 20.625-3.4375 20.625 3.4375 0 3.4375ZM27.5-3.4375 48.125-3.4375 48.125 3.4375 27.5 3.4375ZM55-3.4375 75.625-3.4375 75.625 3.4375 55 3.4375ZM82.5-3.4375 103.125-3.4375 103.125 3.4375 82.5 3.4375ZM110-3.4375 130.625-3.4375 130.625 3.4375 110 3.4375ZM137.5-3.4375 158.125-3.4375 158.125 3.4375 137.5 3.4375ZM165-3.4375 185.625-3.4375 185.625 3.4375 165 3.4375ZM192.38 3.55768 192.38 24.1827 185.505 24.1827 185.505 3.55768ZM192.38 31.0577 192.38 51.6827 185.505 51.6827 185.505 31.0577ZM192.38 58.5577 192.38 73.277 185.505 73.277 185.505 58.5577ZM202.692 68.6937 188.942 96.1937 175.192 68.6937Z" transform="matrix(-1.83697e-16 -1 -1 1.83697e-16 1415.69 1203.44)"/><rect x="1828.5" y="929.5" width="529" height="171" stroke="#000000" stroke-width="9.16667" stroke-linejoin="round" stroke-miterlimit="10" fill="#FAFFC4"/><text font-family="Arial,Arial_MSFontService,sans-serif" font-weight="400" font-size="55" transform="matrix(1 0 0 1 2065.18 1034)">…</text><path d="M1256.06 633.683 1256.06 613.058 1262.94 613.058 1262.94 633.683ZM1256.06 606.183 1256.06 585.558 1262.94 585.558 1262.94 606.183ZM1256.06 578.683 1256.06 558.058 1262.94 558.058 1262.94 578.683ZM1256.06 551.183 1256.06 530.558 1262.94 530.558 1262.94 551.183ZM1256.06 523.683 1256.06 503.058 1262.94 503.058 1262.94 523.683ZM1262.82 496.063 1283.44 496.063 1283.44 502.938 1262.82 502.938ZM1290.32 496.063 1310.94 496.063 1310.94 502.938 1290.32 502.938ZM1317.82 496.063 1338.44 496.063 1338.44 502.938 1317.82 502.938ZM1345.32 496.063 1365.94 496.063 1365.94 502.938 1345.32 502.938ZM1372.82 496.063 1393.44 496.063 1393.44 502.938 1372.82 502.938ZM1400.32 496.063 1420.94 496.063 1420.94 502.938 1400.32 502.938ZM1427.82 496.063 1448.44 496.063 1448.44 502.938 1427.82 502.938ZM1455.32 496.063 1475.94 496.063 1475.94 502.938 1455.32 502.938ZM1482.82 496.063 1503.44 496.063 1503.44 502.938 1482.82 502.938ZM1510.32 496.063 1530.94 496.063 1530.94 502.938 1510.32 502.938ZM1537.82 496.063 1558.44 496.063 1558.44 502.938 1537.82 502.938ZM1565.32 496.063 1585.94 496.063 1585.94 502.938 1565.32 502.938ZM1592.82 496.063 1613.44 496.063 1613.44 502.938 1592.82 502.938ZM1620.32 496.063 1640.94 496.063 1640.94 502.938 1620.32 502.938ZM1647.82 496.063 1668.44 496.063 1668.44 502.938 1647.82 502.938ZM1675.32 496.063 1695.94 496.063 1695.94 502.938 1675.32 502.938ZM1702.82 496.063 1723.44 496.063 1723.44 502.938 1702.82 502.938ZM1730.32 496.063 1750.94 496.063 1750.94 502.938 1730.32 502.938ZM1757.82 496.063 1778.44 496.063 1778.44 502.938 1757.82 502.938ZM1785.32 496.063 1805.94 496.063 1805.94 502.938 1785.32 502.938ZM1804.32 485.75 1831.82 499.5 1804.32 513.25Z"/><path d="M0-3.4375 20.625-3.4375 20.625 3.4375 0 3.4375ZM27.5-3.4375 48.125-3.4375 48.125 3.4375 27.5 3.4375ZM55-3.4375 75.625-3.4375 75.625 3.4375 55 3.4375ZM82.5-3.4375 103.125-3.4375 103.125 3.4375 82.5 3.4375ZM110-3.4375 130.625-3.4375 130.625 3.4375 110 3.4375ZM137.62 3.31732 137.62 23.9423 130.745 23.9423 130.745 3.31732ZM137.62 30.8173 137.62 51.4423 130.745 51.4423 130.745 30.8173ZM137.62 58.3173 137.62 78.9423 130.745 78.9423 130.745 58.3173ZM137.62 85.8173 137.62 106.442 130.745 106.442 130.745 85.8173ZM137.62 113.317 137.62 133.942 130.745 133.942 130.745 113.317ZM137.62 140.817 137.62 161.442 130.745 161.442 130.745 140.817ZM137.62 168.317 137.62 188.942 130.745 188.942 130.745 168.317ZM137.62 195.817 137.62 216.442 130.745 216.442 130.745 195.817ZM137.62 223.317 137.62 243.942 130.745 243.942 130.745 223.317ZM137.62 250.817 137.62 271.442 130.745 271.442 130.745 250.817ZM137.62 278.317 137.62 298.942 130.745 298.942 130.745 278.317ZM137.62 305.817 137.62 326.442 130.745 326.442 130.745 305.817ZM137.62 333.317 137.62 353.942 130.745 353.942 130.745 333.317ZM137.62 360.817 137.62 381.442 130.745 381.442 130.745 360.817ZM137.62 388.317 137.62 408.942 130.745 408.942 130.745 388.317ZM137.62 415.817 137.62 436.442 130.745 436.442 130.745 415.817ZM137.62 443.317 137.62 463.942 130.745 463.942 130.745 443.317ZM137.62 470.817 137.62 491.442 130.745 491.442 130.745 470.817ZM137.62 498.317 137.62 518.942 130.745 518.942 130.745 498.317ZM137.62 525.817 137.62 546.442 130.745 546.442 130.745 525.817ZM147.933 544.817 134.183 572.317 120.433 544.817Z" transform="matrix(-1.83697e-16 -1 -1 1.83697e-16 2933.82 633.683)"/><path d="M1052.06 928.731 1052.06 908.106 1058.94 908.106 1058.94 928.731ZM1052.06 901.231 1052.06 880.606 1058.94 880.606 1058.94 901.231ZM1052.06 873.731 1052.06 873.492C1052.06 871.593 1053.6 870.054 1055.5 870.054L1075.89 870.054 1075.89 876.929 1055.5 876.929 1058.94 873.492 1058.94 873.731ZM1082.76 870.054 1103.39 870.054 1103.39 876.929 1082.76 876.929ZM1110.26 870.054 1130.89 870.054 1130.89 876.929 1110.26 876.929ZM1137.76 870.054 1158.39 870.054 1158.39 876.929 1137.76 876.929ZM1165.26 870.054 1185.89 870.054 1185.89 876.929 1165.26 876.929ZM1192.76 870.054 1213.39 870.054 1213.39 876.929 1192.76 876.929ZM1220.26 870.054 1240.89 870.054 1240.89 876.929 1220.26 876.929ZM1247.76 870.054 1268.39 870.054 1268.39 876.929 1247.76 876.929ZM1275.26 870.054 1295.89 870.054 1295.89 876.929 1275.26 876.929ZM1302.76 870.054 1323.39 870.054 1323.39 876.929 1302.76 876.929ZM1330.26 870.054 1350.89 870.054 1350.89 876.929 1330.26 876.929ZM1357.76 870.054 1378.39 870.054 1378.39 876.929 1357.76 876.929ZM1385.26 870.054 1405.89 870.054 1405.89 876.929 1385.26 876.929ZM1412.76 870.054 1433.39 870.054 1433.39 876.929 1412.76 876.929ZM1440.26 870.054 1460.89 870.054 1460.89 876.929 1440.26 876.929ZM1467.76 870.054 1488.39 870.054 1488.39 876.929 1467.76 876.929ZM1495.26 870.054 1515.89 870.054 1515.89 876.929 1495.26 876.929ZM1522.76 870.054 1543.39 870.054 1543.39 876.929 1522.76 876.929ZM1550.26 870.054 1570.89 870.054 1570.89 876.929 1550.26 876.929ZM1577.76 870.054 1598.39 870.054 1598.39 876.929 1577.76 876.929ZM1605.26 870.054 1625.89 870.054 1625.89 876.929 1605.26 876.929ZM1632.76 870.054 1653.39 870.054 1653.39 876.929 1632.76 876.929ZM1660.26 870.054 1680.89 870.054 1680.89 876.929 1660.26 876.929ZM1687.76 870.054 1708.39 870.054 1708.39 876.929 1687.76 876.929ZM1715.26 870.054 1735.89 870.054 1735.89 876.929 1715.26 876.929ZM1742.76 870.054 1763.39 870.054 1763.39 876.929 1742.76 876.929ZM1770.26 870.054 1790.89 870.054 1790.89 876.929 1770.26 876.929ZM1797.76 870.054 1818.39 870.054 1818.39 876.929 1797.76 876.929ZM1825.26 870.054 1845.89 870.054 1845.89 876.929 1825.26 876.929ZM1852.76 870.054 1873.39 870.054 1873.39 876.929 1852.76 876.929ZM1880.26 870.054 1900.89 870.054 1900.89 876.929 1880.26 876.929ZM1907.76 870.054 1928.39 870.054 1928.39 876.929 1907.76 876.929ZM1935.26 870.054 1955.89 870.054 1955.89 876.929 1935.26 876.929ZM1962.76 870.054 1983.39 870.054 1983.39 876.929 1962.76 876.929ZM1990.26 870.054 2010.89 870.054 2010.89 876.929 1990.26 876.929ZM2017.76 870.054 2038.39 870.054 2038.39 876.929 2017.76 876.929ZM2045.26 870.054 2065.89 870.054 2065.89 876.929 2045.26 876.929ZM2072.76 870.054 2093.39 870.054 2093.39 876.929 2072.76 876.929ZM2093.62 870.293 2093.62 849.668 2100.5 849.668 2100.5 870.293ZM2093.62 842.793 2093.62 822.168 2100.5 822.168 2100.5 842.793ZM2093.62 815.293 2093.62 794.668 2100.5 794.668 2100.5 815.293ZM2093.62 787.793 2093.62 767.168 2100.5 767.168 2100.5 787.793ZM2093.62 760.293 2093.62 739.668 2100.5 739.668 2100.5 760.293ZM2093.62 732.793 2093.62 712.168 2100.5 712.168 2100.5 732.793ZM2093.62 705.293 2093.62 684.668 2100.5 684.668 2100.5 705.293ZM2093.62 677.793 2093.62 657.168 2100.5 657.168 2100.5 677.793ZM2093.62 650.293 2093.62 629.668 2100.5 629.668 2100.5 650.293ZM2093.62 622.793 2093.62 607.417 2100.5 607.417 2100.5 622.793ZM2083.31 612 2097.06 584.5 2110.81 612Z"/><rect x="2866.5" y="929.5" width="529" height="171" stroke="#000000" stroke-width="9.16667" stroke-linejoin="round" stroke-miterlimit="10" fill="#FAFFC4"/><text font-family="Arial,Arial_MSFontService,sans-serif" font-weight="400" font-size="55" transform="matrix(1 0 0 1 2959.05 1034)">#</text><text fill="#1F1F1F" font-family="Arial,Arial_MSFontService,sans-serif" font-weight="400" font-size="55" transform="matrix(1 0 0 1 2989.41 1034)">3106</text><text font-family="Arial,Arial_MSFontService,sans-serif" font-weight="400" font-size="55" transform="matrix(1 0 0 1 3110.87 1034)">: MHT</text><text font-family="Arial,Arial_MSFontService,sans-serif" font-weight="400" font-size="37" transform="matrix(1 0 0 1 3260.97 1047)">32</text><path d="M3.43731-0.036008 3.65336 20.5879-3.22126 20.6599-3.43731 0.036008ZM3.72538 27.4625 3.94142 48.0863-2.9332 48.1584-3.14925 27.5345ZM4.01344 54.961 4.22949 75.5848-2.64513 75.6569-2.86118 55.033ZM4.3015 82.4595 4.51755 103.083-2.35707 103.155-2.57312 82.5315ZM4.58957 109.958 4.80562 130.582-2.06901 130.654-2.28505 110.03ZM4.87763 137.456 5.09368 158.08-1.78094 158.152-1.99699 137.528ZM5.1657 164.955 5.38174 185.579-1.49288 185.651-1.70893 165.027ZM5.45376 192.453 5.66981 213.077-1.20481 213.149-1.42086 192.525ZM5.74183 219.952 5.95787 240.576-0.916749 240.648-1.1328 220.024ZM6.02989 247.45 6.24594 268.074-0.628685 268.146-0.844733 247.522ZM6.31795 274.949 6.534 295.573-0.340621 295.645-0.556669 275.021ZM6.60602 302.447 6.80329 321.279-0.0713326 321.351-0.268605 302.519ZM17.0672 316.588 3.60604 344.231-10.4313 316.876Z" transform="matrix(1 0 0 -1 2093.5 928.731)"/><path d="M280.063 1203.44 280.063 1182.82 286.938 1182.82 286.938 1203.44ZM280.063 1175.94 280.063 1155.32 286.938 1155.32 286.938 1175.94ZM280.063 1148.44 280.063 1127.82 286.938 1127.82 286.938 1148.44ZM280.063 1120.94 280.063 1100.32 286.938 1100.32 286.938 1120.94ZM280.063 1093.44 280.063 1072.82 286.938 1072.82 286.938 1093.44ZM280.063 1065.94 280.063 1045.32 286.938 1045.32 286.938 1065.94ZM280.063 1038.44 280.063 1017.82 286.938 1017.82 286.938 1038.44ZM287.058 1011.06 307.683 1011.06 307.683 1017.94 287.058 1017.94ZM314.558 1011.06 335.183 1011.06 335.183 1017.94 314.558 1017.94ZM342.058 1011.06 362.683 1011.06 362.683 1017.94 342.058 1017.94ZM369.558 1011.06 390.183 1011.06 390.183 1017.94 369.558 1017.94ZM397.058 1011.06 417.683 1011.06 417.683 1017.94 397.058 1017.94ZM424.558 1011.06 445.183 1011.06 445.183 1017.94 424.558 1017.94ZM452.058 1011.06 472.683 1011.06 472.683 1017.94 452.058 1017.94ZM479.558 1011.06 500.183 1011.06 500.183 1017.94 479.558 1017.94ZM507.058 1011.06 527.683 1011.06 527.683 1017.94 507.058 1017.94ZM534.558 1011.06 555.183 1011.06 555.183 1017.94 534.558 1017.94ZM562.058 1011.06 582.683 1011.06 582.683 1017.94 562.058 1017.94ZM589.558 1011.06 610.183 1011.06 610.183 1017.94 589.558 1017.94ZM617.058 1011.06 637.683 1011.06 637.683 1017.94 617.058 1017.94ZM644.558 1011.06 665.183 1011.06 665.183 1017.94 644.558 1017.94ZM672.058 1011.06 692.683 1011.06 692.683 1017.94 672.058 1017.94ZM699.558 1011.06 720.183 1011.06 720.183 1017.94 699.558 1017.94ZM727.058 1011.06 747.683 1011.06 747.683 1017.94 727.058 1017.94ZM754.558 1011.06 767.587 1011.06 767.587 1017.94 754.558 1017.94ZM763.003 1000.75 790.503 1014.5 763.003 1028.25Z"/><rect x="1639.5" y="1203.5" width="148" height="172" stroke="#000000" stroke-width="9.16667" stroke-linejoin="round" stroke-miterlimit="10" fill="#C9F0FF"/><text font-family="Arial,Arial_MSFontService,sans-serif" font-weight="400" font-size="55" transform="matrix(1 0 0 1 1685.42 1309)">…</text><path d="M1710.06 1203.44 1710.06 1182.82 1716.94 1182.82 1716.94 1203.44ZM1710.06 1175.94 1710.06 1155.32 1716.94 1155.32 1716.94 1175.94ZM1710.06 1148.44 1710.06 1127.82 1716.94 1127.82 1716.94 1148.44ZM1710.06 1120.94 1710.06 1100.32 1716.94 1100.32 1716.94 1120.94ZM1710.06 1093.44 1710.06 1072.82 1716.94 1072.82 1716.94 1093.44ZM1710.06 1065.94 1710.06 1045.32 1716.94 1045.32 1716.94 1065.94ZM1710.06 1038.44 1710.06 1017.82 1716.94 1017.82 1716.94 1038.44ZM1717.06 1011.06 1737.68 1011.06 1737.68 1017.94 1717.06 1017.94ZM1744.56 1011.06 1765.18 1011.06 1765.18 1017.94 1744.56 1017.94ZM1772.06 1011.06 1792.68 1011.06 1792.68 1017.94 1772.06 1017.94ZM1799.56 1011.06 1805.71 1011.06 1805.71 1017.94 1799.56 1017.94ZM1801.13 1000.75 1828.63 1014.5 1801.13 1028.25Z"/><rect x="2399.5" y="1203.5" width="147" height="172" stroke="#000000" stroke-width="9.16667" stroke-linejoin="round" stroke-miterlimit="10" fill="#C9F0FF"/><text font-family="Arial,Arial_MSFontService,sans-serif" font-weight="400" font-size="55" transform="matrix(1 0 0 1 2444.94 1309)">…</text><path d="M0-3.4375 20.625-3.4375 20.625 3.4375 0 3.4375ZM27.5-3.4375 48.125-3.4375 48.125 3.4375 27.5 3.4375ZM55-3.4375 75.625-3.4375 75.625 3.4375 55 3.4375ZM82.5-3.4375 103.125-3.4375 103.125 3.4375 82.5 3.4375ZM110-3.4375 130.625-3.4375 130.625 3.4375 110 3.4375ZM137.5-3.4375 158.125-3.4375 158.125 3.4375 137.5 3.4375ZM165-3.4375 185.625-3.4375 185.625 3.4375 165 3.4375ZM192.38 3.55768 192.38 24.1827 185.505 24.1827 185.505 3.55768ZM192.38 31.0577 192.38 51.6827 185.505 51.6827 185.505 31.0577ZM192.38 58.5577 192.38 79.1827 185.505 79.1827 185.505 58.5577ZM192.38 86.0577 192.38 92.2119 185.505 92.2119 185.505 86.0577ZM202.692 87.6286 188.942 115.129 175.192 87.6286Z" transform="matrix(-1.83697e-16 -1 -1 1.83697e-16 2472.63 1203.44)"/><rect x="2674.5" y="1203.5" width="148" height="172" stroke="#000000" stroke-width="9.16667" stroke-linejoin="round" stroke-miterlimit="10" fill="#C9F0FF"/><text font-family="Arial,Arial_MSFontService,sans-serif" font-weight="400" font-size="55" transform="matrix(1 0 0 1 2720.16 1309)">…</text><path d="M2745.06 1203.44 2745.06 1182.82 2751.94 1182.82 2751.94 1203.44ZM2745.06 1175.94 2745.06 1155.32 2751.94 1155.32 2751.94 1175.94ZM2745.06 1148.44 2745.06 1127.82 2751.94 1127.82 2751.94 1148.44ZM2745.06 1120.94 2745.06 1100.32 2751.94 1100.32 2751.94 1120.94ZM2745.06 1093.44 2745.06 1072.82 2751.94 1072.82 2751.94 1093.44ZM2745.06 1065.94 2745.06 1045.32 2751.94 1045.32 2751.94 1065.94ZM2745.06 1038.44 2745.06 1017.82 2751.94 1017.82 2751.94 1038.44ZM2752.06 1011.06 2772.68 1011.06 2772.68 1017.94 2752.06 1017.94ZM2779.56 1011.06 2800.18 1011.06 2800.18 1017.94 2779.56 1017.94ZM2807.06 1011.06 2827.68 1011.06 2827.68 1017.94 2807.06 1017.94ZM2834.56 1011.06 2843.93 1011.06 2843.93 1017.94 2834.56 1017.94ZM2839.34 1000.75 2866.84 1014.5 2839.34 1028.25Z"/><rect x="3429.5" y="1203.5" width="148" height="172" stroke="#000000" stroke-width="9.16667" stroke-linejoin="round" stroke-miterlimit="10" fill="#C9F0FF"/><text font-family="Arial,Arial_MSFontService,sans-serif" font-weight="400" font-size="55" transform="matrix(1 0 0 1 3475.8 1309)">…</text><path d="M0-3.4375 20.625-3.4375 20.625 3.4375 0 3.4375ZM27.5-3.4375 48.125-3.4375 48.125 3.4375 27.5 3.4375ZM55-3.4375 75.625-3.4375 75.625 3.4375 55 3.4375ZM82.5-3.4375 103.125-3.4375 103.125 3.4375 82.5 3.4375ZM110-3.4375 130.625-3.4375 130.625 3.4375 110 3.4375ZM137.5-3.4375 158.125-3.4375 158.125 3.4375 137.5 3.4375ZM165-3.4375 185.625-3.4375 185.625 3.4375 165 3.4375ZM192.38 3.55768 192.38 24.1827 185.505 24.1827 185.505 3.55768ZM192.38 31.0577 192.38 51.6827 185.505 51.6827 185.505 31.0577ZM192.38 58.5577 192.38 79.1827 185.505 79.1827 185.505 58.5577ZM202.692 80.5292 188.942 108.029 175.192 80.5292Z" transform="matrix(-1.83697e-16 -1 -1 1.83697e-16 3503.53 1203.44)"/><rect x="3645.5" y="1203.5" width="529" height="172" stroke="#000000" stroke-width="9.16667" stroke-linejoin="round" stroke-miterlimit="10" fill="#C9F0FF"/><text font-family="Arial,Arial_MSFontService,sans-serif" font-weight="400" font-size="55" transform="matrix(1 0 0 1 3718.99 1309)">#3202: Data</text><text font-family="Arial,Arial_MSFontService,sans-serif" font-weight="400" font-size="37" transform="matrix(1 0 0 1 4017.48 1322)">3072</text><path d="M0-3.4375 20.625-3.4375 20.625 3.4375 0 3.4375ZM27.5-3.4375 48.125-3.4375 48.125 3.4375 27.5 3.4375ZM55-3.4375 58.6777-3.4375C60.5762-3.4375 62.1152-1.89848 62.1152 0L62.1152 16.9473 55.2402 16.9473 55.2402 0 58.6777 3.4375 55 3.4375ZM62.1152 23.8223 62.1152 44.4473 55.2402 44.4473 55.2402 23.8223ZM62.1152 51.3223 62.1152 71.9473 55.2402 71.9473 55.2402 51.3223ZM62.1152 78.8223 62.1152 99.4473 55.2402 99.4473 55.2402 78.8223ZM62.1152 106.322 62.1152 126.947 55.2402 126.947 55.2402 106.322ZM62.1152 133.822 62.1152 154.447 55.2402 154.447 55.2402 133.822ZM62.1152 161.322 62.1152 181.947 55.2402 181.947 55.2402 161.322ZM62.1152 188.822 62.1152 209.447 55.2402 209.447 55.2402 188.822ZM62.1152 216.322 62.1152 236.947 55.2402 236.947 55.2402 216.322ZM62.1152 243.822 62.1152 264.447 55.2402 264.447 55.2402 243.822ZM62.1152 271.322 62.1152 291.947 55.2402 291.947 55.2402 271.322ZM62.1152 298.822 62.1152 319.447 55.2402 319.447 55.2402 298.822ZM62.1152 326.322 62.1152 346.947 55.2402 346.947 55.2402 326.322ZM62.1152 353.822 62.1152 374.447 55.2402 374.447 55.2402 353.822ZM62.1152 381.322 62.1152 401.947 55.2402 401.947 55.2402 381.322ZM62.1152 408.822 62.1152 429.447 55.2402 429.447 55.2402 408.822ZM62.1152 436.322 62.1152 456.947 55.2402 456.947 55.2402 436.322ZM62.1152 463.822 62.1152 484.447 55.2402 484.447 55.2402 463.822ZM62.1152 491.322 62.1152 511.947 55.2402 511.947 55.2402 491.322ZM62.1152 518.822 62.1152 539.447 55.2402 539.447 55.2402 518.822ZM62.1152 546.322 62.1152 566.947 55.2402 566.947 55.2402 546.322ZM62.1152 573.822 62.1152 594.447 55.2402 594.447 55.2402 573.822ZM62.1152 601.322 62.1152 621.947 55.2402 621.947 55.2402 601.322ZM62.1152 628.822 62.1152 649.447 55.2402 649.447 55.2402 628.822ZM62.1152 656.322 62.1152 676.947 55.2402 676.947 55.2402 656.322ZM62.1152 683.822 62.1152 704.447 55.2402 704.447 55.2402 683.822ZM62.1152 711.322 62.1152 731.947 55.2402 731.947 55.2402 711.322ZM62.1152 738.822 62.1152 759.447 55.2402 759.447 55.2402 738.822ZM62.1152 766.322 62.1152 786.947 55.2402 786.947 55.2402 766.322ZM62.1152 793.822 62.1152 814.447 55.2402 814.447 55.2402 793.822ZM62.1152 821.322 62.1152 841.947 55.2402 841.947 55.2402 821.322ZM62.1152 848.822 62.1152 869.447 55.2402 869.447 55.2402 848.822ZM62.1152 876.322 62.1152 896.947 55.2402 896.947 55.2402 876.322ZM62.1152 903.822 62.1152 924.447 55.2402 924.447 55.2402 903.822ZM62.1152 931.322 62.1152 951.947 55.2402 951.947 55.2402 931.322ZM62.1152 958.822 62.1152 979.447 55.2402 979.447 55.2402 958.822ZM62.1152 986.322 62.1152 1006.95 55.2402 1006.95 55.2402 986.322ZM62.1152 1013.82 62.1152 1034.35 58.6777 1030.91 58.7745 1030.91 58.7745 1037.79 58.6777 1037.79C56.7793 1037.79 55.2402 1036.25 55.2402 1034.35L55.2402 1013.82ZM65.6495 1030.91 86.2745 1030.91 86.2745 1037.79 65.6495 1037.79ZM93.1495 1030.91 113.775 1030.91 113.775 1037.79 93.1495 1037.79ZM120.65 1030.91 141.275 1030.91 141.275 1037.79 120.65 1037.79ZM148.15 1030.91 168.775 1030.91 168.775 1037.79 148.15 1037.79ZM175.65 1030.91 196.275 1030.91 196.275 1037.79 175.65 1037.79ZM203.15 1030.91 223.775 1030.91 223.775 1037.79 203.15 1037.79ZM230.65 1030.91 251.275 1030.91 251.275 1037.79 230.65 1037.79ZM258.15 1030.91 278.775 1030.91 278.775 1037.79 258.15 1037.79ZM285.65 1030.91 306.275 1030.91 306.275 1037.79 285.65 1037.79ZM313.15 1030.91 321.314 1030.91 321.314 1037.79 313.15 1037.79ZM316.731 1020.6 344.231 1034.35 316.731 1048.1Z" transform="matrix(-1.83697e-16 -1 -1 1.83697e-16 3130.85 928.731)"/><rect x="548.5" y="1478.5" width="529" height="172" stroke="#000000" stroke-width="9.16667" stroke-linejoin="round" stroke-miterlimit="10" fill="#FAFFC4"/><text font-family="Arial,Arial_MSFontService,sans-serif" font-weight="400" font-size="55" transform="matrix(1 0 0 1 640.762 1584)">#3203: MHT</text><text font-family="Arial,Arial_MSFontService,sans-serif" font-weight="400" font-size="37" transform="matrix(1 0 0 1 942.689 1597)">33</text><rect x="345.5" y="1726.5" width="148" height="172" stroke="#000000" stroke-width="9.16667" stroke-linejoin="round" stroke-miterlimit="10" fill="#C9F0FF"/><text font-family="Arial,Arial_MSFontService,sans-serif" font-weight="400" font-size="55" transform="matrix(1 0 0 1 391.398 1832)">…</text><rect x="1112.5" y="1726.5" width="147" height="172" stroke="#000000" stroke-width="9.16667" stroke-linejoin="round" stroke-miterlimit="10" fill="#C9F0FF"/><text font-family="Arial,Arial_MSFontService,sans-serif" font-weight="400" font-size="55" transform="matrix(1 0 0 1 1157.96 1832)">…</text><path d="M416.063 1726.42 416.063 1705.8 422.938 1705.8 422.938 1726.42ZM416.063 1698.92 416.063 1678.3 422.938 1678.3 422.938 1698.92ZM416.063 1671.42 416.063 1650.8 422.938 1650.8 422.938 1671.42ZM416.063 1643.92 416.063 1623.3 422.938 1623.3 422.938 1643.92ZM416.063 1616.42 416.063 1595.8 422.938 1595.8 422.938 1616.42ZM416.063 1588.92 416.063 1568.3 422.938 1568.3 422.938 1588.92ZM422.577 1561.06 443.202 1561.06 443.202 1567.94 422.577 1567.94ZM450.077 1561.06 470.702 1561.06 470.702 1567.94 450.077 1567.94ZM477.577 1561.06 498.202 1561.06 498.202 1567.94 477.577 1567.94ZM505.077 1561.06 525.405 1561.06 525.405 1567.94 505.077 1567.94ZM520.822 1550.75 548.322 1564.5 520.822 1578.25Z"/><path d="M809.063 1478.38 809.063 1457.76 815.938 1457.76 815.938 1478.38ZM809.063 1450.88 809.063 1430.26 815.938 1430.26 815.938 1450.88ZM809.063 1423.38 809.063 1402.76 815.938 1402.76 815.938 1423.38ZM809.063 1395.88 809.063 1375.26 815.938 1375.26 815.938 1395.88ZM809.063 1368.38 809.063 1347.76 815.938 1347.76 815.938 1368.38ZM809.063 1340.88 809.063 1320.26 815.938 1320.26 815.938 1340.88ZM809.063 1313.38 809.063 1292.76 815.938 1292.76 815.938 1313.38ZM816.058 1286 836.683 1286 836.683 1292.88 816.058 1292.88ZM843.558 1286 864.183 1286 864.183 1292.88 843.558 1292.88ZM871.058 1286 891.683 1286 891.683 1292.88 871.058 1292.88ZM898.558 1286 919.183 1286 919.183 1292.88 898.558 1292.88ZM926.058 1286 946.683 1286 946.683 1292.88 926.058 1292.88ZM953.558 1286 974.183 1286 974.183 1292.88 953.558 1292.88ZM981.058 1286 1001.68 1286 1001.68 1292.88 981.058 1292.88ZM1008.56 1286 1029.18 1286 1029.18 1292.88 1008.56 1292.88ZM1036.06 1286 1054.87 1286 1051.43 1289.44 1051.43 1287.63 1058.31 1287.63 1058.31 1289.44C1058.31 1291.34 1056.77 1292.88 1054.87 1292.88L1036.06 1292.88ZM1051.43 1280.76 1051.43 1260.13 1058.31 1260.13 1058.31 1280.76ZM1051.43 1253.26 1051.43 1232.63 1058.31 1232.63 1058.31 1253.26ZM1051.43 1225.76 1051.43 1205.13 1058.31 1205.13 1058.31 1225.76ZM1051.43 1198.26 1051.43 1177.63 1058.31 1177.63 1058.31 1198.26ZM1051.43 1170.76 1051.43 1150.13 1058.31 1150.13 1058.31 1170.76ZM1051.43 1143.26 1051.43 1123.42 1058.31 1123.42 1058.31 1143.26ZM1041.12 1128 1054.87 1100.5 1068.62 1128Z"/><path d="M0-3.4375 20.625-3.4375 20.625 3.4375 0 3.4375ZM27.5-3.4375 48.125-3.4375 48.125 3.4375 27.5 3.4375ZM55-3.4375 75.625-3.4375 75.625 3.4375 55 3.4375ZM82.5-3.4375 103.125-3.4375 103.125 3.4375 82.5 3.4375ZM110-3.4375 130.625-3.4375 130.625 3.4375 110 3.4375ZM137.5-3.4375 158.125-3.4375 158.125 3.4375 137.5 3.4375ZM165.361 3.07697 165.361 23.702 158.486 23.702 158.486 3.07697ZM165.361 30.577 165.361 51.202 158.486 51.202 158.486 30.577ZM165.361 58.077 165.361 78.702 158.486 78.702 158.486 58.077ZM175.673 80.9774 161.923 108.477 148.173 80.9774Z" transform="matrix(-1.83697e-16 -1 -1 1.83697e-16 1185.98 1726.42)"/><text font-family="Arial,Arial_MSFontService,sans-serif" font-weight="400" font-size="83" transform="matrix(1 0 0 1 1781.56 1582)">…</text><text font-family="Arial,Arial_MSFontService,sans-serif" font-weight="400" font-size="83" transform="matrix(1 0 0 1 1903.73 1839)">…</text><text font-family="Arial,Arial_MSFontService,sans-serif" font-weight="400" font-size="55" text-decoration="underline" transform="matrix(1 0 0 1 90.3905 191)">In</text><text font-family="Arial,Arial_MSFontService,sans-serif" font-weight="400" font-size="55" text-decoration="underline" transform="matrix(1 0 0 1 136.224 191)">-</text><text font-family="Arial,Arial_MSFontService,sans-serif" font-weight="400" font-size="55" text-decoration="underline" transform="matrix(1 0 0 1 154.557 191)">memory data structure:</text><text font-family="Arial,Arial_MSFontService,sans-serif" font-weight="400" font-size="55" text-decoration="underline" transform="matrix(1 0 0 1 97.4427 2279)">On</text><text font-family="Arial,Arial_MSFontService,sans-serif" font-weight="400" font-size="55" text-decoration="underline" transform="matrix(1 0 0 1 170.776 2279)">-</text><text font-family="Arial,Arial_MSFontService,sans-serif" font-weight="400" font-size="55" text-decoration="underline" transform="matrix(1 0 0 1 189.109 2279)">disk data layout:</text><rect x="862.5" y="2174.5" width="346" height="171" stroke="#000000" stroke-width="9.16667" stroke-linejoin="round" stroke-miterlimit="10" fill="#FFDBCC"/><text font-family="Arial,Arial_MSFontService,sans-serif" font-weight="400" font-size="55" transform="matrix(1 0 0 1 921.074 2279)">Metadata</text><rect x="1209.5" y="2174.5" width="255" height="171" stroke="#000000" stroke-width="9.16667" stroke-linejoin="round" stroke-miterlimit="10" fill="#FAFFC4"/><text font-family="Arial,Arial_MSFontService,sans-serif" font-weight="400" font-size="55" transform="matrix(1 0 0 1 1266.57 2280)">MHT</text><text font-family="Arial,Arial_MSFontService,sans-serif" font-weight="400" font-size="37" transform="matrix(1 0 0 1 1385.73 2293)">0</text><rect x="1464.5" y="2174.5" width="254" height="171" stroke="#000000" stroke-width="9.16667" stroke-linejoin="round" stroke-miterlimit="10" fill="#C9F0FF"/><text font-family="Arial,Arial_MSFontService,sans-serif" font-weight="400" font-size="55" transform="matrix(1 0 0 1 1522.66 2279)">Data</text><text font-family="Arial,Arial_MSFontService,sans-serif" font-weight="400" font-size="37" transform="matrix(1 0 0 1 1638.39 2292)">0</text><rect x="1718.5" y="2174.5" width="148" height="171" stroke="#000000" stroke-width="9.16667" stroke-linejoin="round" stroke-miterlimit="10" fill="#C9F0FF"/><text font-family="Arial,Arial_MSFontService,sans-serif" font-weight="400" font-size="55" transform="matrix(1 0 0 1 1764.4 2279)">…</text><rect x="1866.5" y="2174.5" width="254" height="171" stroke="#000000" stroke-width="9.16667" stroke-linejoin="round" stroke-miterlimit="10" fill="#C9F0FF"/><text font-family="Arial,Arial_MSFontService,sans-serif" font-weight="400" font-size="55" transform="matrix(1 0 0 1 1914.48 2279)">Data</text><text font-family="Arial,Arial_MSFontService,sans-serif" font-weight="400" font-size="37" transform="matrix(1 0 0 1 2030.21 2292)">95</text><rect x="2114.5" y="2174.5" width="255" height="171" stroke="#000000" stroke-width="9.16667" stroke-linejoin="round" stroke-miterlimit="10" fill="#FAFFC4"/><text font-family="Arial,Arial_MSFontService,sans-serif" font-weight="400" font-size="55" transform="matrix(1 0 0 1 2171.42 2279)">MHT</text><text font-family="Arial,Arial_MSFontService,sans-serif" font-weight="400" font-size="37" transform="matrix(1 0 0 1 2290.59 2292)">1</text><rect x="2368.5" y="2174.5" width="255" height="171" stroke="#000000" stroke-width="9.16667" stroke-linejoin="round" stroke-miterlimit="10" fill="#C9F0FF"/><text font-family="Arial,Arial_MSFontService,sans-serif" font-weight="400" font-size="55" transform="matrix(1 0 0 1 2417.15 2279)">Data</text><text font-family="Arial,Arial_MSFontService,sans-serif" font-weight="400" font-size="37" transform="matrix(1 0 0 1 2532.88 2292)">96</text><rect x="2622.5" y="2174.5" width="148" height="171" stroke="#000000" stroke-width="9.16667" stroke-linejoin="round" stroke-miterlimit="10" fill="#C9F0FF"/><text font-family="Arial,Arial_MSFontService,sans-serif" font-weight="400" font-size="55" transform="matrix(1 0 0 1 2668.87 2279)">…</text><rect x="2769.5" y="2174.5" width="148" height="171" stroke="#000000" stroke-width="9.16667" stroke-linejoin="round" stroke-miterlimit="10" fill="#FAFFC4"/><text font-family="Arial,Arial_MSFontService,sans-serif" font-weight="400" font-size="55" transform="matrix(1 0 0 1 2815.43 2279)">…</text><rect x="2915.5" y="2174.5" width="148" height="171" stroke="#000000" stroke-width="9.16667" stroke-linejoin="round" stroke-miterlimit="10" fill="#C9F0FF"/><text font-family="Arial,Arial_MSFontService,sans-serif" font-weight="400" font-size="55" transform="matrix(1 0 0 1 2961.38 2279)">…</text><rect x="3062.5" y="2174.5" width="258" height="171" stroke="#000000" stroke-width="9.16667" stroke-linejoin="round" stroke-miterlimit="10" fill="#FAFFC4"/><text font-family="Arial,Arial_MSFontService,sans-serif" font-weight="400" font-size="55" transform="matrix(1 0 0 1 3110.5 2279)">MHT</text><text font-family="Arial,Arial_MSFontService,sans-serif" font-weight="400" font-size="37" transform="matrix(1 0 0 1 3229.67 2292)">32</text><path d="M0-3.4375 20.625-3.4375 20.625 3.4375 0 3.4375ZM27.5-3.4375 48.125-3.4375 48.125 3.4375 27.5 3.4375ZM55-3.4375 75.625-3.4375 75.625 3.4375 55 3.4375ZM82.5-3.4375 103.125-3.4375 103.125 3.4375 82.5 3.4375ZM110-3.4375 130.625-3.4375 130.625 3.4375 110 3.4375ZM137.5-3.4375 158.125-3.4375 158.125 3.4375 137.5 3.4375ZM165-3.4375 185.625-3.4375 185.625 3.4375 165 3.4375ZM192.38 3.55768 192.38 24.1827 185.505 24.1827 185.505 3.55768ZM192.38 31.0577 192.38 51.6827 185.505 51.6827 185.505 31.0577ZM192.38 58.5577 192.38 79.1827 185.505 79.1827 185.505 58.5577ZM192.38 86.0577 192.38 106.683 185.505 106.683 185.505 86.0577ZM192.38 113.558 192.38 134.183 185.505 134.183 185.505 113.558ZM192.38 141.058 192.38 161.683 185.505 161.683 185.505 141.058ZM192.38 168.558 192.38 189.183 185.505 189.183 185.505 168.558ZM192.38 196.058 192.38 216.683 185.505 216.683 185.505 196.058ZM192.38 223.558 192.38 244.183 185.505 244.183 185.505 223.558ZM192.38 251.058 192.38 271.683 185.505 271.683 185.505 251.058ZM192.38 278.558 192.38 299.183 185.505 299.183 185.505 278.558ZM192.38 306.058 192.38 326.683 185.505 326.683 185.505 306.058ZM192.38 333.558 192.38 354.183 185.505 354.183 185.505 333.558ZM192.38 361.058 192.38 381.683 185.505 381.683 185.505 361.058ZM192.38 388.558 192.38 409.183 185.505 409.183 185.505 388.558ZM192.38 416.058 192.38 436.683 185.505 436.683 185.505 416.058ZM192.38 443.558 192.38 464.183 185.505 464.183 185.505 443.558ZM192.38 471.058 192.38 491.299 185.505 491.299 185.505 471.058ZM202.692 486.716 188.942 514.216 175.192 486.716Z" transform="matrix(-1.83697e-16 -1 -1 1.83697e-16 3909.72 1203.44)"/><rect x="3317.5" y="2174.5" width="148" height="171" stroke="#000000" stroke-width="9.16667" stroke-linejoin="round" stroke-miterlimit="10" fill="#C9F0FF"/><text font-family="Arial,Arial_MSFontService,sans-serif" font-weight="400" font-size="55" transform="matrix(1 0 0 1 3363.23 2279)">…</text><rect x="3465.5" y="2174.5" width="302" height="171" stroke="#000000" stroke-width="9.16667" stroke-linejoin="round" stroke-miterlimit="10" fill="#C9F0FF"/><text font-family="Arial,Arial_MSFontService,sans-serif" font-weight="400" font-size="55" transform="matrix(1 0 0 1 3516.61 2279)">Data</text><text font-family="Arial,Arial_MSFontService,sans-serif" font-weight="400" font-size="37" transform="matrix(1 0 0 1 3632.33 2292)">3072</text><rect x="3764.5" y="2174.5" width="302" height="171" stroke="#000000" stroke-width="9.16667" stroke-linejoin="round" stroke-miterlimit="10" fill="#FAFFC4"/><text font-family="Arial,Arial_MSFontService,sans-serif" font-weight="400" font-size="55" transform="matrix(1 0 0 1 3834.95 2279)">MHT</text><text font-family="Arial,Arial_MSFontService,sans-serif" font-weight="400" font-size="37" transform="matrix(1 0 0 1 3954.12 2292)">33</text><rect x="4066.5" y="2174.5" width="148" height="171" stroke="#000000" stroke-width="9.16667" stroke-linejoin="round" stroke-miterlimit="10" fill="#C9F0FF"/><text font-family="Arial,Arial_MSFontService,sans-serif" font-weight="400" font-size="55" transform="matrix(1 0 0 1 4112.65 2279)">…</text><rect x="3382.5" y="97.5001" width="148" height="171" stroke="#000000" stroke-width="9.16667" stroke-linejoin="round" stroke-miterlimit="10" fill="none"/><text font-family="Arial,Arial_MSFontService,sans-serif" font-weight="400" font-size="55" transform="matrix(1 0 0 1 3437.83 203)">A</text><rect x="3607.5" y="97.5001" width="147" height="171" stroke="#000000" stroke-width="9.16667" stroke-linejoin="round" stroke-miterlimit="10" fill="none"/><text font-family="Arial,Arial_MSFontService,sans-serif" font-weight="400" font-size="55" transform="matrix(1 0 0 1 3662.27 203)">B</text><path d="M3530.5 180.063 3551.13 180.063 3551.13 186.938 3530.5 186.938ZM3558 180.063 3578.63 180.063 3578.63 186.938 3558 186.938ZM3579.68 169.75 3607.18 183.5 3579.68 197.25Z"/><text font-family="Arial,Arial_MSFontService,sans-serif" font-weight="400" font-size="50" transform="matrix(1 0 0 1 3783.73 172)">Encryption key and GMAC </text><text font-family="Arial,Arial_MSFontService,sans-serif" font-weight="400" font-size="50" transform="matrix(1 0 0 1 3783.73 233)">of A is stored in B</text><rect x="3382.5" y="350.5" width="381" height="171" stroke="#000000" stroke-width="9.16667" stroke-linejoin="round" stroke-miterlimit="10" fill="#C9F0FF"/><text font-family="Arial,Arial_MSFontService,sans-serif" font-weight="400" font-size="55" transform="matrix(1 0 0 1 3453.53 456)">#X: Data</text><text font-family="Arial,Arial_MSFontService,sans-serif" font-weight="400" font-size="37" transform="matrix(1 0 0 1 3667.22 469)">Y</text><text fill="#7F7F7F" font-family="Arial,Arial_MSFontService,sans-serif" font-weight="700" font-size="50" transform="matrix(1 0 0 1 852.486 2146)">0</text><text fill="#7F7F7F" font-family="Arial,Arial_MSFontService,sans-serif" font-weight="700" font-size="34" transform="matrix(1 0 0 1 880.558 2131)">th</text><text fill="#7F7F7F" font-family="Arial,Arial_MSFontService,sans-serif" font-weight="700" font-size="50" transform="matrix(1 0 0 1 926.392 2146)">page</text><text fill="#7F7F7F" font-family="Arial,Arial_MSFontService,sans-serif" font-weight="700" font-size="50" transform="matrix(1 0 0 1 1193.09 2149)">1</text><text fill="#7F7F7F" font-family="Arial,Arial_MSFontService,sans-serif" font-weight="700" font-size="50" transform="matrix(1 0 0 1 1444.04 2149)">2</text><text fill="#7F7F7F" font-family="Arial,Arial_MSFontService,sans-serif" font-weight="700" font-size="50" transform="matrix(1 0 0 1 3704.88 2146)">3203</text><text fill="#7F7F7F" font-family="Arial,Arial_MSFontService,sans-serif" font-weight="700" font-size="50" transform="matrix(1 0 0 1 4010.12 2149)">3204</text><text font-family="Arial,Arial_MSFontService,sans-serif" font-weight="400" font-size="50" transform="matrix(1 0 0 1 3799.11 335)">#X </text><text font-family="Arial,Arial_MSFontService,sans-serif" font-weight="400" font-size="50" transform="matrix(1 0 0 1 3874.74 335)">–</text><text font-family="Arial,Arial_MSFontService,sans-serif" font-weight="400" font-size="50" transform="matrix(1 0 0 1 3916.56 335)">physical node X</text><text font-family="Arial,Arial_MSFontService,sans-serif" font-weight="400" font-size="46" transform="matrix(1 0 0 1 3799.11 391)">(4KB page on the disk)</text><text font-family="Arial,Arial_MSFontService,sans-serif" font-weight="400" font-size="50" transform="matrix(1 0 0 1 3799.11 473)">Data</text><text font-family="Arial,Arial_MSFontService,sans-serif" font-weight="400" font-size="34" transform="matrix(1 0 0 1 3905.68 485)">Y</text><text font-family="Arial,Arial_MSFontService,sans-serif" font-weight="400" font-size="50" transform="matrix(1 0 0 1 3941.77 473)">–</text><text font-family="Arial,Arial_MSFontService,sans-serif" font-weight="400" font-size="50" transform="matrix(1 0 0 1 3983.59 473)">logical node Y</text><text font-family="Arial,Arial_MSFontService,sans-serif" font-weight="400" font-size="46" transform="matrix(1 0 0 1 3799.11 529)">(separate counting for MHT </text><text font-family="Arial,Arial_MSFontService,sans-serif" font-weight="400" font-size="46" transform="matrix(1 0 0 1 3799.11 584)">and Data nodes)</text><text font-family="Arial,Arial_MSFontService,sans-serif" font-weight="400" font-size="46" transform="matrix(1 0 0 1 3386.34 71)">Notes:</text></g></svg>