<?xml version="1.0" encoding="UTF-8" standalone="no"?>
<svg
   width="4535"
   height="2449"
   xml:space="preserve"
   overflow="hidden"
   version="1.1"
   id="svg137"
   sodipodi:docname="06_encfiles_write_greater3k.svg"
   inkscape:version="1.4 (86a8ad7, 2024-10-11)"
   xmlns:inkscape="http://www.inkscape.org/namespaces/inkscape"
   xmlns:sodipodi="http://sodipodi.sourceforge.net/DTD/sodipodi-0.dtd"
   xmlns="http://www.w3.org/2000/svg"
   xmlns:svg="http://www.w3.org/2000/svg"><defs
     id="defs137" /><sodipodi:namedview
     id="namedview137"
     pagecolor="#ffffff"
     bordercolor="#000000"
     borderopacity="0.25"
     inkscape:showpageshadow="2"
     inkscape:pageopacity="0.0"
     inkscape:pagecheckerboard="0"
     inkscape:deskcolor="#d1d1d1"
     inkscape:zoom="0.46947963"
     inkscape:cx="2353.6697"
     inkscape:cy="893.5425"
     inkscape:window-width="1920"
     inkscape:window-height="1094"
     inkscape:window-x="-11"
     inkscape:window-y="-11"
     inkscape:window-maximized="1"
     inkscape:current-layer="g99" /><g
     transform="translate(3 -16)"
     id="g137"><rect
       x="104.5"
       y="505.5"
       width="741"
       height="124"
       stroke="#000000"
       stroke-width="9.16667"
       stroke-linejoin="round"
       stroke-miterlimit="10"
       fill="none"
       id="rect2" /><text
       font-family="Consolas,Consolas_MSFontService,sans-serif"
       font-weight="400"
       font-size="55"
       transform="matrix(1 0 0 1 231.639 586)"
       id="text2">host_file_handle</text><rect
       x="104.5"
       y="629.5"
       width="741"
       height="125"
       stroke="#000000"
       stroke-width="9.16667"
       stroke-linejoin="round"
       stroke-miterlimit="10"
       fill="none"
       id="rect3" /><text
       font-family="Consolas,Consolas_MSFontService,sans-serif"
       font-weight="400"
       font-size="55"
       transform="matrix(1 0 0 1 429.009 710)"
       id="text3">kdk</text><rect
       x="104.5"
       y="754.5"
       width="741"
       height="125"
       stroke="#000000"
       stroke-width="9.16667"
       stroke-linejoin="round"
       stroke-miterlimit="10"
       fill="none"
       id="rect4" /><text
       font-family="Consolas,Consolas_MSFontService,sans-serif"
       font-weight="400"
       font-size="55"
       transform="matrix(1 0 0 1 216.457 835)"
       id="text4">mode = READ|WRITE</text><rect
       x="104.5"
       y="877.5"
       width="741"
       height="125"
       stroke="#000000"
       stroke-width="9.16667"
       stroke-linejoin="round"
       stroke-miterlimit="10"
       fill="none"
       id="rect5" /><text
       font-family="Consolas,Consolas_MSFontService,sans-serif"
       font-weight="400"
       font-size="55"
       transform="matrix(1 0 0 1 277.186 959)"
       id="text5">metadata_node</text><rect
       x="104.5"
       y="1002.5"
       width="741"
       height="124"
       stroke="#000000"
       stroke-width="9.16667"
       stroke-linejoin="round"
       stroke-miterlimit="10"
       fill="none"
       id="rect6" /><text
       font-family="Consolas,Consolas_MSFontService,sans-serif"
       font-weight="400"
       font-size="55"
       transform="matrix(1 0 0 1 201.274 1083)"
       id="text6">metadata_decrypted</text><rect
       x="104.5"
       y="1126.5"
       width="741"
       height="125"
       stroke="#000000"
       stroke-width="9.16667"
       stroke-linejoin="round"
       stroke-miterlimit="10"
       fill="none"
       id="rect7" /><text
       font-family="Consolas,Consolas_MSFontService,sans-serif"
       font-weight="400"
       font-size="55"
       transform="matrix(1 0 0 1 277.186 1208)"
       id="text7">root_mht_node</text><text
       font-family="Arial,Arial_MSFontService,sans-serif"
       font-weight="400"
       font-size="46"
       transform="matrix(1 0 0 1 3615.54 113)"
       id="text8">Glossary:</text><text
       font-family="Arial,Arial_MSFontService,sans-serif"
       font-weight="400"
       font-size="46"
       transform="matrix(1 0 0 1 3615.54 168)"
       id="text9">•</text><text
       font-family="Arial,Arial_MSFontService,sans-serif"
       font-weight="400"
       font-size="46"
       transform="matrix(1 0 0 1 3677.41 168)"
       id="text10">KDK = Key Derivation Key</text><text
       font-family="Arial,Arial_MSFontService,sans-serif"
       font-weight="400"
       font-size="46"
       transform="matrix(1 0 0 1 3615.54 223)"
       id="text11">•</text><text
       font-family="Arial,Arial_MSFontService,sans-serif"
       font-weight="400"
       font-size="46"
       transform="matrix(1 0 0 1 3677.41 223)"
       id="text12">MHT = Merkle Hash Tree</text><text
       font-family="Arial,Arial_MSFontService,sans-serif"
       font-weight="400"
       font-size="46"
       transform="matrix(1 0 0 1 3615.54 278)"
       id="text13">•</text><text
       font-family="Arial,Arial_MSFontService,sans-serif"
       font-weight="400"
       font-size="46"
       transform="matrix(1 0 0 1 3677.41 278)"
       id="text14">KDF = Key Derivation Function</text><path
       d="M34.375-6.875 110.641-6.875C114.438-6.875 117.516-3.79696 117.516 0L117.516 33.7337 103.766 33.7337 103.766 0 110.641 6.875 34.375 6.875ZM117.516 74.9837 117.516 184.984 103.766 184.984 103.766 74.9837ZM117.516 226.234 117.516 336.234 103.766 336.234 103.766 226.234ZM117.516 377.484 117.516 487.484 103.766 487.484 103.766 377.484ZM117.516 528.734 117.516 638.734 103.766 638.734 103.766 528.734ZM117.516 679.984 117.516 789.984 103.766 789.984 103.766 679.984ZM117.516 831.234 117.516 941.234 103.766 941.234 103.766 831.234ZM117.516 982.484 117.516 1092.48 103.766 1092.48 103.766 982.484ZM117.516 1133.73 117.516 1243.73 103.766 1243.73 103.766 1133.73ZM117.516 1284.98 117.516 1394.98 103.766 1394.98 103.766 1284.98ZM41.25 20.625 0 0 41.25-20.625Z"
       transform="matrix(-1.83697e-16 -1 -1 1.83697e-16 3232.15 464.642)"
       id="path14" /><path
       d="M1007.48 728 1007.48 1063.68 845 1063.68"
       stroke="#000000"
       stroke-width="13.75"
       stroke-linejoin="round"
       stroke-miterlimit="10"
       fill="none"
       fill-rule="evenodd"
       id="path32" /><rect
       x="1112.5"
       y="532.5"
       width="741"
       height="124"
       stroke="#000000"
       stroke-width="9.16667"
       stroke-linejoin="round"
       stroke-miterlimit="10"
       fill="#FFFFFF"
       id="rect32" /><text
       font-family="Consolas,Consolas_MSFontService,sans-serif"
       font-weight="400"
       font-size="55"
       transform="matrix(1 0 0 1 1269.92 613)"
       id="text33">file_path</text><text
       font-family="Consolas,Consolas_MSFontService,sans-serif"
       font-weight="400"
       font-size="55"
       transform="matrix(1 0 0 1 1543.2 613)"
       id="text34">[772]</text><rect
       x="1112.5"
       y="654.5"
       width="741"
       height="124"
       stroke="#000000"
       stroke-width="9.16667"
       stroke-linejoin="round"
       stroke-miterlimit="10"
       fill="#FFFFFF"
       id="rect34" /><text
       font-family="Consolas,Consolas_MSFontService,sans-serif"
       font-weight="400"
       font-size="55"
       transform="matrix(1 0 0 1 1345.83 735)"
       id="text35">file_size</text><rect
       x="1112"
       y="778"
       width="741"
       height="125"
       stroke="#000000"
       stroke-width="13.75"
       stroke-linejoin="round"
       stroke-miterlimit="10"
       fill="none"
       id="rect35" /><text
       font-family="Consolas,Consolas_MSFontService,sans-serif"
       font-weight="400"
       font-size="55"
       transform="matrix(1 0 0 1 1224.37 860)"
       id="text36">root_mht_node_key</text><rect
       x="1112"
       y="901"
       width="741"
       height="124"
       stroke="#000000"
       stroke-width="13.75"
       stroke-linejoin="round"
       stroke-miterlimit="10"
       fill="none"
       id="rect36" /><text
       font-family="Consolas,Consolas_MSFontService,sans-serif"
       font-weight="400"
       font-size="55"
       transform="matrix(1 0 0 1 1224.37 982)"
       id="text37">root_mht_node_mac</text><rect
       x="1112.5"
       y="1025.5"
       width="741"
       height="125"
       stroke="#000000"
       stroke-width="9.16667"
       stroke-linejoin="round"
       stroke-miterlimit="10"
       fill="#FFFFFF"
       id="rect37" /><text
       font-family="Consolas,Consolas_MSFontService,sans-serif"
       font-weight="400"
       font-size="55"
       transform="matrix(1 0 0 1 1254.73 1106)"
       id="text38">file_data</text><text
       font-family="Consolas,Consolas_MSFontService,sans-serif"
       font-weight="400"
       font-size="55"
       transform="matrix(1 0 0 1 1528.02 1106)"
       id="text39">[3072]</text><path
       d="M1872.5 528.5C1896.25 528.5 1915.5 530.104 1915.5 532.083L1915.5 1146.92C1915.5 1148.9 1896.25 1150.5 1872.5 1150.5"
       stroke="#000000"
       stroke-width="6.875"
       stroke-linecap="square"
       stroke-linejoin="round"
       stroke-miterlimit="10"
       stroke-dasharray="20.625 6.875"
       fill="none"
       fill-rule="evenodd"
       id="path39" /><rect
       x="1112.5"
       y="1371.5"
       width="741"
       height="125"
       stroke="#000000"
       stroke-width="9.16667"
       stroke-linejoin="round"
       stroke-miterlimit="10"
       fill="#FFFFFF"
       id="rect39" /><text
       font-family="Consolas,Consolas_MSFontService,sans-serif"
       font-weight="400"
       font-size="55"
       transform="matrix(1 0 0 1 1255.18 1453)"
       id="text40">type = MHT_NODE</text><rect
       x="1112.5"
       y="1496.5"
       width="741"
       height="124"
       stroke="#000000"
       stroke-width="9.16667"
       stroke-linejoin="round"
       stroke-miterlimit="10"
       fill="#FFFFFF"
       id="rect40" /><text
       font-family="Consolas,Consolas_MSFontService,sans-serif"
       font-weight="400"
       font-size="55"
       transform="matrix(1 0 0 1 1239.99 1577)"
       id="text41">logical_node</text><text
       font-family="Consolas,Consolas_MSFontService,sans-serif"
       font-weight="400"
       font-size="55"
       transform="matrix(1 0 0 1 1634.73 1577)"
       id="text42">= 0</text><rect
       x="1112.5"
       y="1618.5"
       width="741"
       height="125"
       stroke="#000000"
       stroke-width="9.16667"
       stroke-linejoin="round"
       stroke-miterlimit="10"
       fill="#FFFFFF"
       id="rect42" /><text
       font-family="Consolas,Consolas_MSFontService,sans-serif"
       font-weight="400"
       font-size="55"
       transform="matrix(1 0 0 1 1224.81 1699)"
       id="text43">physical_node</text><text
       font-family="Consolas,Consolas_MSFontService,sans-serif"
       font-weight="400"
       font-size="55"
       transform="matrix(1 0 0 1 1649.92 1699)"
       id="text44">= 1</text><rect
       x="1112.5"
       y="1867.5"
       width="741"
       height="125"
       stroke="#000000"
       stroke-width="9.16667"
       stroke-linejoin="round"
       stroke-miterlimit="10"
       fill="#FFFFFF"
       id="rect44" /><text
       font-family="Consolas,Consolas_MSFontService,sans-serif"
       font-weight="400"
       font-size="55"
       transform="matrix(1 0 0 1 1345.83 1949)"
       id="text45">encrypted</text><rect
       x="1112.5"
       y="1743.5"
       width="741"
       height="125"
       stroke="#000000"
       stroke-width="9.16667"
       stroke-linejoin="round"
       stroke-miterlimit="10"
       fill="#FFFFFF"
       id="rect45" /><text
       font-family="Consolas,Consolas_MSFontService,sans-serif"
       font-weight="400"
       font-size="55"
       transform="matrix(1 0 0 1 1345.83 1824)"
       id="text46">decrypted</text><rect
       x="2218.5"
       y="1448.5"
       width="2030"
       height="482"
       stroke="#000000"
       stroke-width="9.16667"
       stroke-linejoin="round"
       stroke-miterlimit="10"
       fill="#FAFFC4"
       id="rect46" /><text
       font-family="Arial,Arial_MSFontService,sans-serif"
       font-weight="400"
       font-size="55"
       transform="matrix(1 0 0 1 2740.65 1517)"
       id="text47">#1: Root MHT node (all fields encrypted)</text><rect
       x="1009.5"
       y="2149.5"
       width="144"
       height="125"
       stroke="#000000"
       stroke-width="9.16667"
       stroke-linejoin="round"
       stroke-miterlimit="10"
       fill="#FFFFFF"
       id="rect47" /><text
       font-family="Consolas,Consolas_MSFontService,sans-serif"
       font-weight="400"
       font-size="55"
       transform="matrix(1 0 0 1 1065.59 2230)"
       id="text48">…</text><rect
       x="2271"
       y="1597"
       width="452"
       height="124"
       stroke="#000000"
       stroke-width="13.75"
       stroke-linejoin="round"
       stroke-miterlimit="10"
       fill="none"
       id="rect48" /><text
       font-family="Consolas,Consolas_MSFontService,sans-serif"
       font-weight="400"
       font-size="55"
       transform="matrix(1 0 0 1 2365.79 1678)"
       id="text49">data_key</text><text
       font-family="Consolas,Consolas_MSFontService,sans-serif"
       font-weight="400"
       font-size="37"
       transform="matrix(1 0 0 1 2608.71 1691)"
       id="text50">1</text><rect
       x="2723"
       y="1596"
       width="452"
       height="125"
       stroke="#000000"
       stroke-width="13.75"
       stroke-linejoin="round"
       stroke-miterlimit="10"
       fill="none"
       id="rect50" /><text
       font-family="Consolas,Consolas_MSFontService,sans-serif"
       font-weight="400"
       font-size="55"
       transform="matrix(1 0 0 1 2817.11 1677)"
       id="text51">data_mac</text><text
       font-family="Consolas,Consolas_MSFontService,sans-serif"
       font-weight="400"
       font-size="37"
       transform="matrix(1 0 0 1 3060.03 1690)"
       id="text52">1</text><rect
       x="3320.5"
       y="1596.5"
       width="451"
       height="125"
       stroke="#000000"
       stroke-width="9.16667"
       stroke-linejoin="round"
       stroke-miterlimit="10"
       fill="none"
       id="rect52" /><text
       font-family="Consolas,Consolas_MSFontService,sans-serif"
       font-weight="400"
       font-size="55"
       transform="matrix(1 0 0 1 3404.12 1677)"
       id="text53">data_key</text><text
       font-family="Consolas,Consolas_MSFontService,sans-serif"
       font-weight="400"
       font-size="37"
       transform="matrix(1 0 0 1 3647.04 1690)"
       id="text54">96</text><rect
       x="3771.5"
       y="1596.5"
       width="451"
       height="125"
       stroke="#000000"
       stroke-width="9.16667"
       stroke-linejoin="round"
       stroke-miterlimit="10"
       fill="none"
       id="rect54" /><text
       font-family="Consolas,Consolas_MSFontService,sans-serif"
       font-weight="400"
       font-size="55"
       transform="matrix(1 0 0 1 3855.28 1677)"
       id="text55">data_mac</text><text
       font-family="Consolas,Consolas_MSFontService,sans-serif"
       font-weight="400"
       font-size="37"
       transform="matrix(1 0 0 1 4098.2 1690)"
       id="text56">96</text><rect
       x="3175.5"
       y="1596.5"
       width="144"
       height="125"
       stroke="#000000"
       stroke-width="9.16667"
       stroke-linejoin="round"
       stroke-miterlimit="10"
       fill="none"
       id="rect56" /><text
       font-family="Consolas,Consolas_MSFontService,sans-serif"
       font-weight="400"
       font-size="55"
       transform="matrix(1 0 0 1 3231.61 1677)"
       id="text57">…</text><rect
       x="2270.5"
       y="1721.5"
       width="452"
       height="124"
       stroke="#000000"
       stroke-width="9.16667"
       stroke-linejoin="round"
       stroke-miterlimit="10"
       fill="none"
       id="rect57" /><text
       font-family="Consolas,Consolas_MSFontService,sans-serif"
       font-weight="400"
       font-size="55"
       transform="matrix(1 0 0 1 2379.86 1802)"
       id="text58">mht_key</text><text
       font-family="Consolas,Consolas_MSFontService,sans-serif"
       font-weight="400"
       font-size="37"
       transform="matrix(1 0 0 1 2592.41 1815)"
       id="text59">1</text><rect
       x="2721.5"
       y="1720.5"
       width="453"
       height="125"
       stroke="#000000"
       stroke-width="9.16667"
       stroke-linejoin="round"
       stroke-miterlimit="10"
       fill="none"
       id="rect59" /><text
       font-family="Consolas,Consolas_MSFontService,sans-serif"
       font-weight="400"
       font-size="55"
       transform="matrix(1 0 0 1 2831.18 1802)"
       id="text60">mht_mac</text><text
       font-family="Consolas,Consolas_MSFontService,sans-serif"
       font-weight="400"
       font-size="37"
       transform="matrix(1 0 0 1 3043.73 1815)"
       id="text61">1</text><rect
       x="3319.5"
       y="1720.5"
       width="452"
       height="125"
       stroke="#000000"
       stroke-width="9.16667"
       stroke-linejoin="round"
       stroke-miterlimit="10"
       fill="none"
       id="rect61" /><text
       font-family="Consolas,Consolas_MSFontService,sans-serif"
       font-weight="400"
       font-size="55"
       transform="matrix(1 0 0 1 3418.74 1802)"
       id="text62">mht_key</text><text
       font-family="Consolas,Consolas_MSFontService,sans-serif"
       font-weight="400"
       font-size="37"
       transform="matrix(1 0 0 1 3631.29 1815)"
       id="text63">32</text><rect
       x="3770.5"
       y="1720.5"
       width="452"
       height="125"
       stroke="#000000"
       stroke-width="9.16667"
       stroke-linejoin="round"
       stroke-miterlimit="10"
       fill="none"
       id="rect63" /><text
       font-family="Consolas,Consolas_MSFontService,sans-serif"
       font-weight="400"
       font-size="55"
       transform="matrix(1 0 0 1 3869.77 1802)"
       id="text64">mht_mac</text><text
       font-family="Consolas,Consolas_MSFontService,sans-serif"
       font-weight="400"
       font-size="37"
       transform="matrix(1 0 0 1 4082.32 1815)"
       id="text65">32</text><rect
       x="3174.5"
       y="1720.5"
       width="143"
       height="125"
       stroke="#000000"
       stroke-width="9.16667"
       stroke-linejoin="round"
       stroke-miterlimit="10"
       fill="none"
       id="rect65" /><text
       font-family="Consolas,Consolas_MSFontService,sans-serif"
       font-weight="400"
       font-size="55"
       transform="matrix(1 0 0 1 3230.49 1802)"
       id="text66">…</text><text
       fill="#B1BABF"
       font-family="Arial,Arial_MSFontService,sans-serif"
       font-weight="700"
       font-size="46"
       transform="matrix(1 0 0 1 2257.85 1589)"
       id="text67">0</text><text
       fill="#B1BABF"
       font-family="Arial,Arial_MSFontService,sans-serif"
       font-weight="700"
       font-size="46"
       transform="matrix(1 0 0 1 2695.8 1587)"
       id="text68">15</text><text
       fill="#B1BABF"
       font-family="Arial,Arial_MSFontService,sans-serif"
       font-weight="700"
       font-size="46"
       transform="matrix(1 0 0 1 3144.17 1585)"
       id="text69">31</text><text
       fill="#B1BABF"
       font-family="Arial,Arial_MSFontService,sans-serif"
       font-weight="700"
       font-size="46"
       transform="matrix(1 0 0 1 2263.2 1892)"
       id="text70">3072</text><text
       fill="#B1BABF"
       font-family="Arial,Arial_MSFontService,sans-serif"
       font-weight="700"
       font-size="46"
       transform="matrix(1 0 0 1 4122.29 1890)"
       id="text71">4095</text><path
       d="M1169.5 2149.5C1178.34 2149.5 1185.5 2150.1 1185.5 2150.83L1185.5 2272.17C1185.5 2272.9 1178.34 2273.5 1169.5 2273.5"
       stroke="#000000"
       stroke-width="6.875"
       stroke-linecap="square"
       stroke-linejoin="round"
       stroke-miterlimit="10"
       stroke-dasharray="20.625 6.875"
       fill="none"
       fill-rule="evenodd"
       id="path71" /><path
       d="M1640.7 2166.42 1640.71 2187.04 1633.84 2187.04 1633.83 2166.42ZM1640.71 2193.92 1640.72 2211.95C1640.72 2213.85 1639.19 2215.39 1637.29 2215.39L1634.7 2215.39 1634.7 2208.51 1637.29 2208.51 1633.85 2211.95 1633.84 2193.92ZM1627.82 2215.39 1607.2 2215.39 1607.2 2208.51 1627.82 2208.51ZM1600.32 2215.39 1579.7 2215.39 1579.7 2208.51 1600.32 2208.51ZM1572.82 2215.39 1552.2 2215.39 1552.2 2208.51 1572.82 2208.51ZM1545.32 2215.39 1524.7 2215.39 1524.7 2208.51 1545.32 2208.51ZM1517.82 2215.39 1497.2 2215.39 1497.2 2208.51 1517.82 2208.51ZM1490.32 2215.39 1469.7 2215.39 1469.7 2208.51 1490.32 2208.51ZM1462.82 2215.39 1442.2 2215.39 1442.2 2208.51 1462.82 2208.51ZM1435.32 2215.39 1414.7 2215.39 1414.7 2208.51 1435.32 2208.51ZM1407.82 2215.39 1387.2 2215.39 1387.2 2208.51 1407.82 2208.51ZM1380.32 2215.39 1359.7 2215.39 1359.7 2208.51 1380.32 2208.51ZM1352.82 2215.39 1332.2 2215.39 1332.2 2208.51 1352.82 2208.51ZM1325.32 2215.39 1304.7 2215.39 1304.7 2208.51 1325.32 2208.51ZM1297.82 2215.39 1277.2 2215.39 1277.2 2208.51 1297.82 2208.51ZM1270.32 2215.39 1249.7 2215.39 1249.7 2208.51 1270.32 2208.51ZM1242.82 2215.39 1222.2 2215.39 1222.2 2208.51 1242.82 2208.51ZM1215.32 2215.39 1194.7 2215.39 1194.7 2208.51 1215.32 2208.51ZM1187.82 2215.39 1185.5 2215.39 1185.5 2208.51 1187.82 2208.51ZM1623.54 2171.07 1637.16 2143.5 1651.04 2170.93Z"
       id="path72" /><path
       d="M3225.77 1413.62 3225.77 1403.21 3232.64 1410.09 3133.05 1410.09 3133.05 1396.34 3232.64 1396.34C3236.44 1396.34 3239.52 1399.42 3239.52 1403.21L3239.52 1413.62ZM3091.8 1410.09 2981.8 1410.09 2981.8 1396.34 3091.8 1396.34ZM2940.55 1410.09 2830.55 1410.09 2830.55 1396.34 2940.55 1396.34ZM2789.3 1410.09 2679.3 1410.09 2679.3 1396.34 2789.3 1396.34ZM2638.05 1410.09 2528.05 1410.09 2528.05 1396.34 2638.05 1396.34ZM2486.8 1410.09 2376.8 1410.09 2376.8 1396.34 2486.8 1396.34ZM2335.55 1410.09 2225.55 1410.09 2225.55 1396.34 2335.55 1396.34ZM2184.3 1410.09 2120.21 1410.09 2127.08 1403.21 2127.08 1449.12 2113.33 1449.12 2113.33 1403.21C2113.33 1399.42 2116.41 1396.34 2120.21 1396.34L2184.3 1396.34ZM2127.08 1490.37 2127.08 1600.37 2113.33 1600.37 2113.33 1490.37ZM2127.08 1641.62 2127.08 1751.62 2113.33 1751.62 2113.33 1641.62ZM2127.08 1792.87 2127.08 1902.87 2113.33 1902.87 2113.33 1792.87ZM2127.08 1944.12 2127.08 2054.12 2113.33 2054.12 2113.33 1944.12ZM2127.08 2095.37 2127.08 2109.74C2127.08 2113.54 2124.01 2116.61 2120.21 2116.61L2024.58 2116.61 2024.58 2102.86 2120.21 2102.86 2113.33 2109.74 2113.33 2095.37ZM1983.33 2116.61 1873.33 2116.61 1873.33 2102.86 1983.33 2102.86ZM3253.27 1406.75 3232.64 1448 3212.02 1406.75Z"
       id="path73" /><text
       font-family="Arial,Arial_MSFontService,sans-serif"
       font-weight="700"
       font-size="55"
       transform="matrix(1 0 0 1 1390.01 372)"
       id="text73">Bounce</text><text
       font-family="Arial,Arial_MSFontService,sans-serif"
       font-weight="700"
       font-size="55"
       transform="matrix(1 0 0 1 1604.28 372)"
       id="text74">buffer</text><path
       d="M34.375-6.875 445.854-6.875C449.651-6.875 452.729-3.79696 452.729 0L452.729 585.982 445.854 579.107 505.67 579.107 505.67 592.857 445.854 592.857C442.057 592.857 438.979 589.779 438.979 585.982L438.979 0 445.854 6.875 34.375 6.875ZM41.25 20.625 0 0 41.25-20.625Z"
       transform="matrix(-1 1.22465e-16 1.22465e-16 1 1350.67 354)"
       id="path74" /><text
       font-family="Arial,Arial_MSFontService,sans-serif"
       font-weight="700"
       font-size="55"
       transform="matrix(1 0 0 1 1450.51 2129)"
       id="text75">Bounce buffer</text><path
       d="M1386.67 2116.73 1029.5 2116.73C1025.7 2116.73 1022.62 2113.65 1022.62 2109.85L1022.62 1930C1022.62 1926.2 1025.7 1923.13 1029.5 1923.13L1112 1923.13 1112 1936.88 1029.5 1936.88 1036.37 1930 1036.37 2109.85 1029.5 2102.98 1386.67 2102.98ZM1379.8 2089.23 1421.05 2109.85 1379.8 2130.48Z"
       id="path75" /><path
       d="M2047 22 2047 2397.54"
       stroke="#7F7F7F"
       stroke-width="13.75"
       stroke-linecap="square"
       stroke-linejoin="round"
       stroke-miterlimit="10"
       stroke-dasharray="41.25 13.75"
       fill="none"
       fill-rule="evenodd"
       id="path76" /><text
       font-family="Arial,Arial_MSFontService,sans-serif"
       font-weight="400"
       font-size="55"
       text-decoration="underline"
       transform="matrix(1 0 0 1 1445.11 86)"
       id="text76">SGX enclave (trusted)</text><text
       font-family="Arial,Arial_MSFontService,sans-serif"
       font-weight="400"
       font-size="55"
       text-decoration="underline"
       transform="matrix(1 0 0 1 2095.12 88)"
       id="text77">Host storage (untrusted)</text><text
       fill="#B1BABF"
       font-family="Arial,Arial_MSFontService,sans-serif"
       font-weight="700"
       font-size="46"
       transform="matrix(1 0 0 1 4126.34 1589)"
       id="text78">3071</text><text
       font-family="Arial,Arial_MSFontService,sans-serif"
       font-weight="400"
       font-size="46"
       transform="matrix(1 0 0 1 2874.35 115)"
       id="text80">Arrows legend:</text><text
       font-family="Arial,Arial_MSFontService,sans-serif"
       font-weight="400"
       font-size="46"
       transform="matrix(1 0 0 1 3063.41 170)"
       id="text81">Encrypted on storage</text><text
       font-family="Arial,Arial_MSFontService,sans-serif"
       font-weight="400"
       font-size="46"
       transform="matrix(1 0 0 1 3063.41 225)"
       id="text82">Copied out of enclave</text><text
       font-family="Arial,Arial_MSFontService,sans-serif"
       font-weight="400"
       font-size="46"
       transform="matrix(1 0 0 1 3063.41 280)"
       id="text83">Updates MHT data</text><path
       d="M22.9167-3.43745 43.5417-3.4374 43.5417 3.4376 22.9167 3.43755ZM50.4167-3.43738 71.0417-3.43734 71.0417 3.43766 50.4167 3.43762ZM77.9167-3.43732 98.5417-3.43727 98.5417 3.43773 77.9167 3.43768ZM105.417-3.43726 126.042-3.43721 126.042 3.43779 105.417 3.43774ZM132.917-3.43719 153.542-3.43714 153.542 3.43786 132.917 3.43781ZM27.5 13.7501 0 0 27.5-13.7499Z"
       transform="matrix(-1 0 0 1 3046.37 153.5)"
       id="path83" /><path
       d="M3023.45 212.073 2968.45 212.017 2968.45 205.142 3023.45 205.198ZM2947.82 211.996 2892.82 211.94 2892.83 205.065 2947.83 205.121ZM3018.88 194.881 3046.37 208.659 3018.85 222.381Z"
       id="path84" /><path
       d="M1078.24 541.141 1008.04 541.594 1014.88 534.719 1014.88 754.158 1001.12 754.158 1001.12 534.719C1001.12 530.939 1004.18 527.869 1007.96 527.844L1078.15 527.391ZM1069.97 514.139 1112.49 532 1072.69 555.299Z"
       id="path85" /><rect
       x="3375"
       y="2267"
       width="881"
       height="134"
       fill="#FFFFFF"
       id="rect85" /><text
       font-family="Arial,Arial_MSFontService,sans-serif"
       font-style="italic"
       font-weight="400"
       font-size="55"
       transform="matrix(1 0 0 1 3686.46 2320)"
       id="text85">Case of file size &gt; 3KB:</text><text
       font-family="Arial,Arial_MSFontService,sans-serif"
       font-style="italic"
       font-weight="400"
       font-size="55"
       transform="matrix(1 0 0 1 3795.89 2386)"
       id="text86">Encrypting new file</text><path
       d="M1077.59 1378.61 978.484 1378.61C974.687 1378.61 971.609 1375.53 971.609 1371.74L971.609 1189 978.484 1195.88 845 1195.88 845 1182.12 978.484 1182.12C982.281 1182.12 985.359 1185.2 985.359 1189L985.359 1371.74 978.484 1364.86 1077.59 1364.86ZM1070.72 1351.11 1111.97 1371.74 1070.72 1392.36Z"
       id="path86" /><path
       d="M22.9167-3.4375 43.5417-3.4375 43.5417 3.4375 22.9167 3.4375ZM50.4167-3.4375 71.0417-3.4375 71.0417 3.4375 50.4167 3.4375ZM77.2508 4.10335 77.2508 24.7283 70.3758 24.7283 70.3758 4.10335ZM77.2508 31.6033 77.2508 52.2283 70.3758 52.2283 70.3758 31.6033ZM77.2508 59.1033 77.2508 79.7283 70.3758 79.7283 70.3758 59.1033ZM77.2508 86.6033 77.2508 107.228 70.3758 107.228 70.3758 86.6033ZM77.2508 114.103 77.2508 134.728 70.3758 134.728 70.3758 114.103ZM77.2508 141.603 77.2508 162.228 70.3758 162.228 70.3758 141.603ZM77.2508 169.103 77.2508 189.728 70.3758 189.728 70.3758 169.103ZM77.2508 196.603 77.2508 217.228 70.3758 217.228 70.3758 196.603ZM77.2508 224.103 77.2508 244.728 70.3758 244.728 70.3758 224.103ZM77.2508 251.603 77.2508 272.228 70.3758 272.228 70.3758 251.603ZM77.2508 279.103 77.2508 299.728 70.3758 299.728 70.3758 279.103ZM77.2508 306.603 77.2508 327.228 70.3758 327.228 70.3758 306.603ZM77.2508 334.103 77.2508 346.364 70.3758 346.364 70.3758 334.103ZM27.5 13.75 0 0 27.5-13.75Z"
       transform="matrix(1.83697e-16 1 1 -1.83697e-16 1633.5 398.5)"
       id="path87" /><text
       font-family="Cambria Math,Cambria Math_MSFontService,sans-serif"
       font-weight="400"
       font-size="55"
       transform="matrix(1 0 0 1 95.953 128)"
       id="text87">⑦</text><text
       font-family="Arial,Arial_MSFontService,sans-serif"
       font-weight="400"
       font-size="55"
       transform="matrix(1 0 0 1 177.307 128)"
       id="text88">KDF nonce = rand()</text><text
       font-family="Cambria Math,Cambria Math_MSFontService,sans-serif"
       font-weight="400"
       font-size="55"
       transform="matrix(1 0 0 1 789.238 255)"
       id="text89">⑧</text><text
       font-family="Arial,Arial_MSFontService,sans-serif"
       font-weight="400"
       font-size="55"
       transform="matrix(1 0 0 1 870.592 255)"
       id="text90">derive key</text><path
       d="M713.449 219.869 692.824 219.869 692.824 212.994 713.449 212.994ZM685.949 219.869 665.324 219.869 665.324 212.994 685.949 212.994ZM658.449 219.869 637.824 219.869 637.824 212.994 658.449 212.994ZM630.949 219.869 610.324 219.869 610.324 212.994 630.949 212.994ZM603.449 219.869 582.824 219.869 582.824 212.994 603.449 212.994ZM575.949 219.869 555.324 219.869 555.324 212.994 575.949 212.994ZM548.449 219.869 527.824 219.869 527.824 212.994 548.449 212.994ZM520.949 219.869 500.324 219.869 500.324 212.994 520.949 212.994ZM493.449 219.869 472.824 219.869 472.824 212.994 493.449 212.994ZM465.949 219.869 445.324 219.869 445.324 212.994 465.949 212.994ZM438.449 219.869 417.824 219.869 417.824 212.994 438.449 212.994ZM410.949 219.869 390.324 219.869 390.324 212.994 410.949 212.994ZM383.449 219.869 378.5 219.869C376.601 219.869 375.062 218.33 375.062 216.431L375.062 200.755 381.937 200.755 381.937 216.431 378.5 212.994 383.449 212.994ZM375.062 193.88 375.062 173.255 381.937 173.255 381.937 193.88ZM375.062 166.38 375.062 145.755 381.937 145.755 381.937 166.38ZM708.865 202.681 736.365 216.431 708.865 230.181Z"
       id="path90" /><path
       d="M22.9158-3.4375 43.5408-3.4375 43.5408 3.4375 22.9158 3.4375ZM50.4158-3.4375 71.0408-3.4375 71.0408 3.4375 50.4158 3.4375ZM77.9158-3.4375 98.5408-3.4375 98.5408 3.4375 77.9158 3.4375ZM105.416-3.4375 126.041-3.4375 126.041 3.4375 105.416 3.4375ZM132.916-3.4375 153.541-3.4375 153.541 3.4375 132.916 3.4375ZM160.416-3.4375 181.041-3.4375 181.041 3.4375 160.416 3.4375ZM187.916-3.4375 208.541-3.4375 208.541 3.4375 187.916 3.4375ZM215.416-3.4375 236.041-3.4375 236.041 3.4375 215.416 3.4375ZM242.916-3.4375 263.541-3.4375 263.541 3.4375 242.916 3.4375ZM270.416-3.4375 291.041-3.4375 291.041 3.4375 270.416 3.4375ZM297.916-3.4375 318.541-3.4375 318.541 3.4375 297.916 3.4375ZM325.416-3.4375 346.041-3.4375 346.041 3.4375 325.416 3.4375ZM352.916-3.4375 373.541-3.4375 373.541 3.4375 352.916 3.4375ZM380.416-3.4375 401.041-3.4375 401.041 3.4375 380.416 3.4375ZM407.916-3.4375 428.541-3.4375 428.541 3.4375 407.916 3.4375ZM435.416-3.4375 456.041-3.4375 456.041 3.4375 435.416 3.4375ZM462.916-3.4375 483.541-3.4375 483.541 3.4375 462.916 3.4375ZM490.416-3.4375 511.041-3.4375 511.041 3.4375 490.416 3.4375ZM517.916-3.4375 538.541-3.4375 538.541 3.4375 517.916 3.4375ZM545.416-3.4375 566.041-3.4375 566.041 3.4375 545.416 3.4375ZM572.916-3.4375 593.541-3.4375 593.541 3.4375 572.916 3.4375ZM600.416-3.4375 621.041-3.4375 621.041 3.4375 600.416 3.4375ZM627.916-3.4375 648.541-3.4375 648.541 3.4375 627.916 3.4375ZM655.416-3.4375 676.041-3.4375 676.041 3.4375 655.416 3.4375ZM682.916-3.4375 703.541-3.4375 703.541 3.4375 682.916 3.4375ZM710.416-3.4375 731.041-3.4375 731.041 3.4375 710.416 3.4375ZM737.916-3.4375 741.01-3.4375C742.908-3.4375 744.447-1.89848 744.447 0L744.447 17.5312 737.572 17.5312 737.572 0 741.01 3.4375 737.916 3.4375ZM744.447 24.4062 744.447 45.0312 737.572 45.0312 737.572 24.4062ZM744.447 51.9062 744.447 72.5312 737.572 72.5312 737.572 51.9062ZM744.447 79.4062 744.447 100.031 737.572 100.031 737.572 79.4062ZM744.447 106.906 744.447 127.531 737.572 127.531 737.572 106.906ZM744.447 134.406 744.447 155.031 737.572 155.031 737.572 134.406ZM744.447 161.906 744.447 182.531 737.572 182.531 737.572 161.906ZM744.447 189.406 744.447 210.031 737.572 210.031 737.572 189.406ZM744.447 216.906 744.447 237.531 737.572 237.531 737.572 216.906ZM744.447 244.406 744.447 265.031 737.572 265.031 737.572 244.406ZM744.447 271.906 744.447 292.531 737.572 292.531 737.572 271.906ZM744.447 299.406 744.447 320.031 737.572 320.031 737.572 299.406ZM744.447 326.906 744.447 347.531 737.572 347.531 737.572 326.906ZM744.447 354.406 744.447 375.031 737.572 375.031 737.572 354.406ZM744.447 381.906 744.447 402.531 737.572 402.531 737.572 381.906ZM744.447 409.406 744.447 426.564C744.447 428.462 742.908 430.001 741.01 430.001L737.542 430.001 737.542 423.126 741.01 423.126 737.572 426.564 737.572 409.406ZM730.667 430.001 710.042 430.001 710.042 423.126 730.667 423.126ZM703.167 430.001 682.542 430.001 682.542 423.126 703.167 423.126ZM675.667 430.001 658.511 430.001 658.511 423.126 675.667 423.126ZM27.5 13.75 0 0 27.5-13.75Z"
       transform="matrix(-1 1.22465e-16 1.22465e-16 1 763.011 265.5)"
       id="path91" /><path
       d="M22.9167-3.4375 43.5417-3.4375 43.5417 3.4375 22.9167 3.4375ZM50.4167-3.4375 71.0417-3.4375 71.0417 3.4375 50.4167 3.4375ZM77.9167-3.4375 85.5142-3.4375C87.4127-3.4375 88.9517-1.89848 88.9517 0L88.9517 13.0275 82.0767 13.0275 82.0767 0 85.5142 3.4375 77.9167 3.4375ZM88.9517 19.9025 88.9517 40.5275 82.0767 40.5275 82.0767 19.9025ZM88.9517 47.4025 88.9517 68.0275 82.0767 68.0275 82.0767 47.4025ZM88.9517 74.9025 88.9517 95.5275 82.0767 95.5275 82.0767 74.9025ZM88.9517 102.402 88.9517 123.027 82.0767 123.027 82.0767 102.402ZM88.9517 129.902 88.9517 150.527 82.0767 150.527 82.0767 129.902ZM88.9517 157.402 88.9517 178.027 82.0767 178.027 82.0767 157.402ZM88.9517 184.902 88.9517 205.527 82.0767 205.527 82.0767 184.902ZM88.9517 212.402 88.9517 233.027 82.0767 233.027 82.0767 212.402ZM88.9517 239.902 88.9517 260.527 82.0767 260.527 82.0767 239.902ZM88.9517 267.402 88.9517 288.027 82.0767 288.027 82.0767 267.402ZM88.9517 294.902 88.9517 315.527 82.0767 315.527 82.0767 294.902ZM88.9517 322.402 88.9517 343.027 82.0767 343.027 82.0767 322.402ZM88.9517 349.902 88.9517 370.527 82.0767 370.527 82.0767 349.902ZM88.9517 377.402 88.9517 390.122 82.0767 390.122 82.0767 377.402ZM27.5 13.75 0 0 27.5-13.75Z"
       transform="matrix(-1.83697e-16 -1 -1 1.83697e-16 1575.62 321.014)"
       id="path92" /><text
       font-family="Cambria Math,Cambria Math_MSFontService,sans-serif"
       font-weight="400"
       font-size="55"
       transform="matrix(1 0 0 1 1583.51 280)"
       id="text92">⑨</text><text
       font-family="Arial,Arial_MSFontService,sans-serif"
       font-weight="400"
       font-size="55"
       transform="matrix(1 0 0 1 1664.86 280)"
       id="text93">encrypt</text><path
       d="M1985.85 472.5 1985.85 500.342 1986.49 500.342 1986.49 839.225 1915.5 839.225"
       stroke="#000000"
       stroke-width="6.875"
       stroke-linecap="square"
       stroke-linejoin="round"
       stroke-miterlimit="10"
       stroke-dasharray="20.625 6.875"
       fill="none"
       fill-rule="evenodd"
       id="path93" /><text
       font-family="Cambria Math,Cambria Math_MSFontService,sans-serif"
       font-weight="400"
       font-size="55"
       transform="matrix(1 0 0 1 2229.42 331)"
       id="text94">⑩</text><text
       font-family="Arial,Arial_MSFontService,sans-serif"
       font-weight="400"
       font-size="55"
       transform="matrix(1 0 0 1 2310.77 331)"
       id="text95">copy out</text><text
       font-family="Cambria Math,Cambria Math_MSFontService,sans-serif"
       font-weight="400"
       font-size="55"
       transform="matrix(1 0 0 1 1168.86 1224)"
       id="text97">①</text><text
       font-family="Arial,Arial_MSFontService,sans-serif"
       font-weight="400"
       font-size="55"
       transform="matrix(1 0 0 1 1250.21 1224)"
       id="text98">file_data</text><text
       font-family="Arial,Arial_MSFontService,sans-serif"
       font-weight="400"
       font-size="55"
       transform="matrix(1 0 0 1 1472.51 1224)"
       id="text99">← write(</text><text
       font-family="Arial,Arial_MSFontService,sans-serif"
       font-weight="400"
       font-size="55"
       transform="matrix(1 0 0 1 1677.04 1224)"
       id="text100">buf</text><text
       font-family="Arial,Arial_MSFontService,sans-serif"
       font-weight="400"
       font-size="55"
       transform="matrix(1 0 0 1 1753.23 1224)"
       id="text101">) …</text><path
       d="M1001.12 2120.03 1001.12 1805C1001.12 1801.2 1004.2 1798.12 1008 1798.12L1112.49 1798.12 1112.49 1811.88 1008 1811.88 1014.87 1805 1014.87 2120.03ZM1028.62 2113.15 1008 2154.4 987.375 2113.15Z"
       id="path103" /><rect
       x="106.5"
       y="1455.5"
       width="741"
       height="124"
       stroke="#000000"
       stroke-width="9.16667"
       stroke-linejoin="round"
       stroke-miterlimit="10"
       fill="#FFFFFF"
       id="rect103" /><text
       font-family="Consolas,Consolas_MSFontService,sans-serif"
       font-weight="400"
       font-size="55"
       transform="matrix(1 0 0 1 233.869 1536)"
       id="text104">type = DATA_NODE</text><rect
       x="106.5"
       y="1579.5"
       width="741"
       height="125"
       stroke="#000000"
       stroke-width="9.16667"
       stroke-linejoin="round"
       stroke-miterlimit="10"
       fill="#FFFFFF"
       id="rect104" /><text
       font-family="Consolas,Consolas_MSFontService,sans-serif"
       font-weight="400"
       font-size="55"
       transform="matrix(1 0 0 1 233.869 1660)"
       id="text105">logical_node</text><text
       font-family="Consolas,Consolas_MSFontService,sans-serif"
       font-weight="400"
       font-size="55"
       transform="matrix(1 0 0 1 628.609 1660)"
       id="text106">= 0</text><rect
       x="106.5"
       y="1701.5"
       width="741"
       height="125"
       stroke="#000000"
       stroke-width="9.16667"
       stroke-linejoin="round"
       stroke-miterlimit="10"
       fill="#FFFFFF"
       id="rect106" /><text
       font-family="Consolas,Consolas_MSFontService,sans-serif"
       font-weight="400"
       font-size="55"
       transform="matrix(1 0 0 1 218.687 1783)"
       id="text107">physical_node</text><text
       font-family="Consolas,Consolas_MSFontService,sans-serif"
       font-weight="400"
       font-size="55"
       transform="matrix(1 0 0 1 643.791 1783)"
       id="text108">= 2</text><rect
       x="106.5"
       y="1950.5"
       width="741"
       height="125"
       stroke="#000000"
       stroke-width="9.16667"
       stroke-linejoin="round"
       stroke-miterlimit="10"
       fill="#FFFFFF"
       id="rect108" /><text
       font-family="Consolas,Consolas_MSFontService,sans-serif"
       font-weight="400"
       font-size="55"
       transform="matrix(1 0 0 1 339.704 2032)"
       id="text109">encrypted</text><rect
       x="106.5"
       y="1826.5"
       width="741"
       height="125"
       stroke="#000000"
       stroke-width="9.16667"
       stroke-linejoin="round"
       stroke-miterlimit="10"
       fill="#FFFFFF"
       id="rect109" /><text
       font-family="Consolas,Consolas_MSFontService,sans-serif"
       font-weight="400"
       font-size="55"
       transform="matrix(1 0 0 1 339.704 1907)"
       id="text110">decrypted</text><rect
       x="44.4998"
       y="2313.5"
       width="144"
       height="125"
       stroke="#000000"
       stroke-width="9.16667"
       stroke-linejoin="round"
       stroke-miterlimit="10"
       fill="#FFFFFF"
       id="rect110" /><text
       font-family="Consolas,Consolas_MSFontService,sans-serif"
       font-weight="400"
       font-size="64"
       transform="matrix(1 0 0 1 98.4125 2398)"
       id="text111">…</text><text
       font-family="Arial,Arial_MSFontService,sans-serif"
       font-weight="700"
       font-size="55"
       transform="matrix(1 0 0 1 1458.2 2357)"
       id="text112">Bounce</text><text
       font-family="Arial,Arial_MSFontService,sans-serif"
       font-weight="700"
       font-size="55"
       transform="matrix(1 0 0 1 1670.76 2357)"
       id="text113">buffer</text><path
       d="M208.5 2312.5C217.889 2312.5 225.5 2313.13 225.5 2313.92L225.5 2436.08C225.5 2436.87 217.889 2437.5 208.5 2437.5"
       stroke="#000000"
       stroke-width="6.875"
       stroke-linecap="square"
       stroke-linejoin="round"
       stroke-miterlimit="10"
       stroke-dasharray="20.625 6.875"
       fill="none"
       fill-rule="evenodd"
       id="path113" /><path
       d="M1646.82 2394.42 1646.82 2415.04 1639.94 2415.04 1639.94 2394.42ZM1646.82 2421.92 1646.82 2425.4C1646.82 2427.3 1645.28 2428.84 1643.38 2428.84L1626.24 2428.84 1626.24 2421.97 1643.38 2421.97 1639.94 2425.4 1639.94 2421.92ZM1619.37 2428.84 1598.74 2428.84 1598.74 2421.97 1619.37 2421.97ZM1591.87 2428.84 1571.24 2428.84 1571.24 2421.97 1591.87 2421.97ZM1564.37 2428.84 1543.74 2428.84 1543.74 2421.97 1564.37 2421.97ZM1536.87 2428.84 1516.24 2428.84 1516.24 2421.97 1536.87 2421.97ZM1509.37 2428.84 1488.74 2428.84 1488.74 2421.97 1509.37 2421.97ZM1481.87 2428.84 1461.24 2428.84 1461.24 2421.97 1481.87 2421.97ZM1454.37 2428.84 1433.74 2428.84 1433.74 2421.97 1454.37 2421.97ZM1426.87 2428.84 1406.24 2428.84 1406.24 2421.97 1426.87 2421.97ZM1399.37 2428.84 1378.74 2428.84 1378.74 2421.97 1399.37 2421.97ZM1371.87 2428.84 1351.24 2428.84 1351.24 2421.97 1371.87 2421.97ZM1344.37 2428.84 1323.74 2428.84 1323.74 2421.97 1344.37 2421.97ZM1316.87 2428.84 1296.24 2428.84 1296.24 2421.97 1316.87 2421.97ZM1289.37 2428.84 1268.74 2428.84 1268.74 2421.97 1289.37 2421.97ZM1261.87 2428.84 1241.24 2428.84 1241.24 2421.97 1261.87 2421.97ZM1234.37 2428.84 1213.74 2428.84 1213.74 2421.97 1234.37 2421.97ZM1206.87 2428.84 1186.24 2428.84 1186.24 2421.97 1206.87 2421.97ZM1179.37 2428.84 1158.74 2428.84 1158.74 2421.97 1179.37 2421.97ZM1151.87 2428.84 1131.24 2428.84 1131.24 2421.97 1151.87 2421.97ZM1124.37 2428.84 1103.74 2428.84 1103.74 2421.97 1124.37 2421.97ZM1096.87 2428.84 1076.24 2428.84 1076.24 2421.97 1096.87 2421.97ZM1069.37 2428.84 1048.74 2428.84 1048.74 2421.97 1069.37 2421.97ZM1041.87 2428.84 1021.24 2428.84 1021.24 2421.97 1041.87 2421.97ZM1014.37 2428.84 993.741 2428.84 993.741 2421.97 1014.37 2421.97ZM986.866 2428.84 966.241 2428.84 966.241 2421.97 986.866 2421.97ZM959.366 2428.84 938.741 2428.84 938.741 2421.97 959.366 2421.97ZM931.866 2428.84 911.241 2428.84 911.241 2421.97 931.866 2421.97ZM904.366 2428.84 883.741 2428.84 883.741 2421.97 904.366 2421.97ZM876.866 2428.84 856.241 2428.84 856.241 2421.97 876.866 2421.97ZM849.366 2428.84 828.741 2428.84 828.741 2421.97 849.366 2421.97ZM821.866 2428.84 801.241 2428.84 801.241 2421.97 821.866 2421.97ZM794.366 2428.84 773.741 2428.84 773.741 2421.97 794.366 2421.97ZM766.866 2428.84 746.241 2428.84 746.241 2421.97 766.866 2421.97ZM739.366 2428.84 718.741 2428.84 718.741 2421.97 739.366 2421.97ZM711.866 2428.84 691.241 2428.84 691.241 2421.97 711.866 2421.97ZM684.366 2428.84 663.741 2428.84 663.741 2421.97 684.366 2421.97ZM656.866 2428.84 636.241 2428.84 636.241 2421.97 656.866 2421.97ZM629.366 2428.84 608.741 2428.84 608.741 2421.97 629.366 2421.97ZM601.866 2428.84 581.241 2428.84 581.241 2421.97 601.866 2421.97ZM574.366 2428.84 553.741 2428.84 553.741 2421.97 574.366 2421.97ZM546.866 2428.84 526.241 2428.84 526.241 2421.97 546.866 2421.97ZM519.366 2428.84 498.741 2428.84 498.741 2421.97 519.366 2421.97ZM491.866 2428.84 471.241 2428.84 471.241 2421.97 491.866 2421.97ZM464.366 2428.84 443.741 2428.84 443.741 2421.97 464.366 2421.97ZM436.866 2428.84 416.241 2428.84 416.241 2421.97 436.866 2421.97ZM409.366 2428.84 388.741 2428.84 388.741 2421.97 409.366 2421.97ZM381.866 2428.84 361.241 2428.84 361.241 2421.97 381.866 2421.97ZM354.366 2428.84 333.741 2428.84 333.741 2421.97 354.366 2421.97ZM326.866 2428.84 324.51 2428.84C322.612 2428.84 321.073 2427.3 321.073 2425.4L321.073 2407.13 327.948 2407.13 327.948 2425.4 324.51 2421.97 326.866 2421.97ZM321.073 2400.26 321.073 2379.63 327.948 2379.63 327.948 2400.26ZM322.307 2378.4 301.682 2378.4 301.682 2371.53 322.307 2371.53ZM294.807 2378.4 274.182 2378.4 274.182 2371.53 294.807 2371.53ZM267.307 2378.4 246.682 2378.4 246.682 2371.53 267.307 2371.53ZM239.807 2378.4 225.5 2378.4 225.5 2371.53 239.807 2371.53ZM1629.63 2399 1643.38 2371.5 1657.13 2399Z"
       id="path114" /><path
       d="M33.1249 2277.49 33.1249 1888C33.1249 1884.2 36.2029 1881.12 39.9999 1881.12L105.981 1881.12 105.981 1894.87 39.9999 1894.87 46.8749 1888 46.8749 2277.49ZM60.6249 2270.61 39.9999 2311.86 19.3749 2270.61Z"
       id="path115" /><rect
       x="2218.5"
       y="2007.5"
       width="2030"
       height="154"
       stroke="#000000"
       stroke-width="9.16667"
       stroke-linejoin="round"
       stroke-miterlimit="10"
       fill="#C9F0FF"
       id="rect115" /><text
       font-family="Arial,Arial_MSFontService,sans-serif"
       font-weight="400"
       font-size="55"
       transform="matrix(1 0 0 1 2879.09 2077)"
       id="text115">#2: Data node (all encrypted)</text><path
       d="M3239.23 2195.38 3239.23 2305.38 3225.48 2305.38 3225.48 2195.38ZM3223.15 2344.3 3113.15 2344.3 3113.15 2330.55 3223.15 2330.55ZM3071.9 2344.3 2961.9 2344.3 2961.9 2330.55 3071.9 2330.55ZM2920.65 2344.3 2810.65 2344.3 2810.65 2330.55 2920.65 2330.55ZM2769.4 2344.3 2659.4 2344.3 2659.4 2330.55 2769.4 2330.55ZM2618.15 2344.3 2508.15 2344.3 2508.15 2330.55 2618.15 2330.55ZM2466.9 2344.3 2356.9 2344.3 2356.9 2330.55 2466.9 2330.55ZM2315.65 2344.3 2205.65 2344.3 2205.65 2330.55 2315.65 2330.55ZM2164.4 2344.3 2054.4 2344.3 2054.4 2330.55 2164.4 2330.55ZM2013.15 2344.3 1903.15 2344.3 1903.15 2330.55 2013.15 2330.55ZM3211.73 2202.25 3232.36 2161 3252.98 2202.25Z"
       id="path116" /><text
       font-family="Cambria Math,Cambria Math_MSFontService,sans-serif"
       font-weight="400"
       font-size="55"
       transform="matrix(1 0 0 1 48.1335 1430)"
       id="text116">②</text><text
       font-family="Arial,Arial_MSFontService,sans-serif"
       font-weight="400"
       font-size="55"
       transform="matrix(1 0 0 1 129.488 1430)"
       id="text117">… </text><text
       font-family="Arial,Arial_MSFontService,sans-serif"
       font-weight="400"
       font-size="55"
       transform="matrix(1 0 0 1 199.956 1430)"
       id="text118">new.decrypted</text><text
       font-family="Arial,Arial_MSFontService,sans-serif"
       font-weight="400"
       font-size="55"
       transform="matrix(1 0 0 1 568.754 1430)"
       id="text119">← write(</text><text
       font-family="Arial,Arial_MSFontService,sans-serif"
       font-weight="400"
       font-size="55"
       transform="matrix(1 0 0 1 773.286 1430)"
       id="text120">buf</text><text
       font-family="Arial,Arial_MSFontService,sans-serif"
       font-weight="400"
       font-size="55"
       transform="matrix(1 0 0 1 849.483 1430)"
       id="text121">)</text><text
       font-family="Cambria Math,Cambria Math_MSFontService,sans-serif"
       font-weight="400"
       font-size="55"
       transform="matrix(1 0 0 1 543.7 2329)"
       id="text122">③</text><text
       font-family="Arial,Arial_MSFontService,sans-serif"
       font-weight="400"
       font-size="55"
       transform="matrix(1 0 0 1 625.054 2329)"
       id="text123">key = rand()</text><path
       d="M22.9167-3.43745 29.7917-3.43743 29.7917 3.43757 22.9167 3.43755ZM36.6667-3.43742 43.5417-3.4374 43.5417 3.4376 36.6667 3.43758ZM50.4167-3.43738 57.2917-3.43737 57.2917 3.43763 50.4167 3.43762ZM64.1667-3.43735 71.0417-3.43734 71.0417 3.43766 64.1667 3.43765ZM77.9167-3.43732 84.7917-3.4373 84.7917 3.4377 77.9167 3.43768ZM91.6667-3.43729 98.5417-3.43727 98.5417 3.43773 91.6667 3.43771ZM105.417-3.43726 112.292-3.43724 112.292 3.43776 105.417 3.43774ZM119.167-3.43722 126.042-3.43721 126.042 3.43779 119.167 3.43778ZM132.917-3.43719 139.792-3.43718 139.792 3.43782 132.917 3.43781ZM146.667-3.43716 153.542-3.43714 153.542 3.43786 146.667 3.43784ZM27.5 13.7501 0 0 27.5-13.7499Z"
       transform="matrix(-1 0 0 1 3046.37 265.5)"
       id="path123" /><path
       d="M22.9166-3.4375 29.7916-3.4375 29.7916 3.4375 22.9166 3.4375ZM36.6666-3.4375 43.5416-3.4375 43.5416 3.4375 36.6666 3.4375ZM50.4166-3.4375 57.2916-3.4375 57.2916 3.4375 50.4166 3.4375ZM64.1666-3.4375 71.0416-3.4375 71.0416 3.4375 64.1666 3.4375ZM77.9166-3.4375 84.7916-3.4375 84.7916 3.4375 77.9166 3.4375ZM91.6666-3.4375 98.5416-3.4375 98.5416 3.4375 91.6666 3.4375ZM105.417-3.4375 112.292-3.4375 112.292 3.4375 105.417 3.4375ZM119.167-3.4375 126.042-3.4375 126.042 3.4375 119.167 3.4375ZM132.917-3.4375 139.792-3.4375 139.792 3.4375 132.917 3.4375ZM146.667-3.4375 153.542-3.4375 153.542 3.4375 146.667 3.4375ZM160.417-3.4375 167.292-3.4375 167.292 3.4375 160.417 3.4375ZM174.167-3.4375 181.042-3.4375 181.042 3.4375 174.167 3.4375ZM187.917-3.4375 194.792-3.4375 194.792 3.4375 187.917 3.4375ZM201.667-3.4375 208.542-3.4375 208.542 3.4375 201.667 3.4375ZM215.417-3.4375 222.292-3.4375 222.292 3.4375 215.417 3.4375ZM229.167-3.4375 236.042-3.4375 236.042 3.4375 229.167 3.4375ZM242.917-3.4375 249.792-3.4375 249.792 3.4375 242.917 3.4375ZM256.667-3.4375 263.542-3.4375 263.542 3.4375 256.667 3.4375ZM270.417-3.4375 277.292-3.4375 277.292 3.4375 270.417 3.4375ZM280.785 6.81902 280.785 13.694 273.91 13.694 273.91 6.81902ZM280.785 20.569 280.785 27.444 273.91 27.444 273.91 20.569ZM280.785 34.319 280.785 41.194 273.91 41.194 273.91 34.319ZM280.785 48.069 280.785 54.944 273.91 54.944 273.91 48.069ZM280.785 61.819 280.785 64.6521 273.91 64.6521 273.91 61.819ZM27.5 13.75 0 0 27.5-13.75Z"
       transform="matrix(-1 1.22465e-16 1.22465e-16 1 1009.85 2211.5)"
       id="path124" /><text
       font-family="Cambria Math,Cambria Math_MSFontService,sans-serif"
       font-weight="400"
       font-size="55"
       transform="matrix(1 0 0 1 1659.38 2418)"
       id="text124">④</text><text
       font-family="Arial,Arial_MSFontService,sans-serif"
       font-weight="400"
       font-size="55"
       transform="matrix(1 0 0 1 1740.73 2418)"
       id="text125">encrypt</text><path
       d="M1394.4 2341.3 1373.78 2341.3 1373.78 2334.43 1394.4 2334.43ZM1366.9 2341.3 1346.28 2341.3 1346.28 2334.43 1366.9 2334.43ZM1339.4 2341.3 1318.78 2341.3 1318.78 2334.43 1339.4 2334.43ZM1311.9 2341.3 1291.28 2341.3 1291.28 2334.43 1311.9 2334.43ZM1284.4 2341.3 1263.78 2341.3 1263.78 2334.43 1284.4 2334.43ZM1256.9 2341.3 1236.28 2341.3 1236.28 2334.43 1256.9 2334.43ZM1229.4 2341.3 1208.78 2341.3 1208.78 2334.43 1229.4 2334.43ZM1201.9 2341.3 1189.91 2341.3C1188.01 2341.3 1186.47 2339.77 1186.47 2337.87L1186.47 2329.24 1193.35 2329.24 1193.35 2337.87 1189.91 2334.43 1201.9 2334.43ZM1186.47 2322.36 1186.47 2309.5 1189.91 2312.94 1182.15 2312.94 1182.15 2306.06 1189.91 2306.06C1191.81 2306.06 1193.35 2307.6 1193.35 2309.5L1193.35 2322.36ZM1175.27 2312.94 1154.65 2312.94 1154.65 2306.06 1175.27 2306.06ZM1147.77 2312.94 1127.15 2312.94 1127.15 2306.06 1147.77 2306.06ZM1120.27 2312.94 1099.65 2312.94 1099.65 2306.06 1120.27 2306.06ZM1092.77 2312.94 1072.15 2312.94 1072.15 2306.06 1092.77 2306.06ZM1065.27 2312.94 1044.65 2312.94 1044.65 2306.06 1065.27 2306.06ZM1037.77 2312.94 1017.15 2312.94 1017.15 2306.06 1037.77 2306.06ZM1010.27 2312.94 989.647 2312.94 989.647 2306.06 1010.27 2306.06ZM982.772 2312.94 962.5 2312.94 962.5 2306.06 982.772 2306.06ZM1389.82 2324.12 1417.32 2337.87 1389.82 2351.62Z"
       id="path125" /><text
       font-family="Cambria Math,Cambria Math_MSFontService,sans-serif"
       font-weight="400"
       font-size="55"
       transform="matrix(1 0 0 1 1282.78 1315)"
       id="text126">⑤</text><text
       font-family="Arial,Arial_MSFontService,sans-serif"
       font-weight="400"
       font-size="55"
       transform="matrix(1 0 0 1 1364.13 1315)"
       id="text127">key = rand()</text><path
       d="M1089.58 844.938 1082.71 844.938 1082.71 838.062 1089.58 838.062ZM1075.83 844.938 1068.96 844.938 1068.96 838.062 1075.83 838.062ZM1062.08 844.938 1055.21 844.938 1055.21 838.062 1062.08 838.062ZM1055.44 845.166 1055.44 852.041 1048.56 852.041 1048.56 845.166ZM1055.44 858.916 1055.44 865.791 1048.56 865.791 1048.56 858.916ZM1055.44 872.666 1055.44 879.541 1048.56 879.541 1048.56 872.666ZM1055.44 886.416 1055.44 893.291 1048.56 893.291 1048.56 886.416ZM1055.44 900.166 1055.44 907.041 1048.56 907.041 1048.56 900.166ZM1055.44 913.916 1055.44 920.791 1048.56 920.791 1048.56 913.916ZM1055.44 927.666 1055.44 934.541 1048.56 934.541 1048.56 927.666ZM1055.44 941.416 1055.44 948.291 1048.56 948.291 1048.56 941.416ZM1055.44 955.166 1055.44 962.041 1048.56 962.041 1048.56 955.166ZM1055.44 968.916 1055.44 975.791 1048.56 975.791 1048.56 968.916ZM1055.44 982.666 1055.44 989.541 1048.56 989.541 1048.56 982.666ZM1055.44 996.416 1055.44 1003.29 1048.56 1003.29 1048.56 996.416ZM1055.44 1010.17 1055.44 1017.04 1048.56 1017.04 1048.56 1010.17ZM1055.44 1023.92 1055.44 1030.79 1048.56 1030.79 1048.56 1023.92ZM1055.44 1037.67 1055.44 1044.54 1048.56 1044.54 1048.56 1037.67ZM1055.44 1051.42 1055.44 1058.29 1048.56 1058.29 1048.56 1051.42ZM1055.44 1065.17 1055.44 1072.04 1048.56 1072.04 1048.56 1065.17ZM1055.44 1078.92 1055.44 1085.79 1048.56 1085.79 1048.56 1078.92ZM1055.44 1092.67 1055.44 1099.54 1048.56 1099.54 1048.56 1092.67ZM1055.44 1106.42 1055.44 1113.29 1048.56 1113.29 1048.56 1106.42ZM1055.44 1120.17 1055.44 1127.04 1048.56 1127.04 1048.56 1120.17ZM1055.44 1133.92 1055.44 1140.79 1048.56 1140.79 1048.56 1133.92ZM1055.44 1147.67 1055.44 1154.54 1048.56 1154.54 1048.56 1147.67ZM1055.44 1161.42 1055.44 1168.29 1048.56 1168.29 1048.56 1161.42ZM1055.44 1175.17 1055.44 1182.04 1048.56 1182.04 1048.56 1175.17ZM1055.44 1188.92 1055.44 1195.79 1048.56 1195.79 1048.56 1188.92ZM1055.44 1202.67 1055.44 1209.54 1048.56 1209.54 1048.56 1202.67ZM1055.44 1216.42 1055.44 1223.29 1048.56 1223.29 1048.56 1216.42ZM1055.44 1230.17 1055.44 1237.04 1048.56 1237.04 1048.56 1230.17ZM1055.44 1243.92 1055.44 1250.79 1048.56 1250.79 1048.56 1243.92ZM1055.44 1257.67 1055.44 1264.54 1048.56 1264.54 1048.56 1257.67ZM1055.44 1271.42 1055.44 1278.29 1048.56 1278.29 1048.56 1271.42ZM1055.44 1285.17 1055.44 1292.04 1048.56 1292.04 1048.56 1285.17ZM1054.72 1292.75 1061.6 1292.75 1061.6 1299.63 1054.72 1299.63ZM1068.47 1292.75 1075.35 1292.75 1075.35 1299.63 1068.47 1299.63ZM1082.22 1292.75 1089.1 1292.75 1089.1 1299.63 1082.22 1299.63ZM1095.97 1292.75 1102.85 1292.75 1102.85 1299.63 1095.97 1299.63ZM1109.72 1292.75 1116.6 1292.75 1116.6 1299.63 1109.72 1299.63ZM1123.47 1292.75 1130.35 1292.75 1130.35 1299.63 1123.47 1299.63ZM1137.22 1292.75 1144.1 1292.75 1144.1 1299.63 1137.22 1299.63ZM1150.97 1292.75 1157.85 1292.75 1157.85 1299.63 1150.97 1299.63ZM1164.72 1292.75 1171.6 1292.75 1171.6 1299.63 1164.72 1299.63ZM1178.47 1292.75 1185.35 1292.75 1185.35 1299.63 1178.47 1299.63ZM1192.22 1292.75 1199.1 1292.75 1199.1 1299.63 1192.22 1299.63ZM1205.97 1292.75 1212.85 1292.75 1212.85 1299.63 1205.97 1299.63ZM1219.72 1292.75 1226.6 1292.75 1226.6 1299.63 1219.72 1299.63ZM1233.47 1292.75 1240.35 1292.75 1240.35 1299.63 1233.47 1299.63ZM1247.22 1292.75 1254.1 1292.75 1254.1 1299.63 1247.22 1299.63ZM1085 827.75 1112.5 841.5 1085 855.25Z"
       id="path127" /><path
       d="M1634.06 2053.45 1634.06 2032.82 1640.94 2032.82 1640.94 2053.45ZM1641 2026.01 1661.63 2026.01 1661.63 2032.89 1641 2032.89ZM1668.5 2026.01 1689.13 2026.01 1689.13 2032.89 1668.5 2032.89ZM1696 2026.01 1716.63 2026.01 1716.63 2032.89 1696 2032.89ZM1723.5 2026.01 1744.13 2026.01 1744.13 2032.89 1723.5 2032.89ZM1751 2026.01 1771.63 2026.01 1771.63 2032.89 1751 2032.89ZM1778.5 2026.01 1799.13 2026.01 1799.13 2032.89 1778.5 2032.89ZM1806 2026.01 1826.63 2026.01 1826.63 2032.89 1806 2032.89ZM1833.5 2026.01 1854.13 2026.01 1854.13 2032.89 1833.5 2032.89ZM1861 2026.01 1881.63 2026.01 1881.63 2032.89 1861 2032.89ZM1888.5 2026.01 1909.13 2026.01 1909.13 2032.89 1888.5 2032.89ZM1916 2026.01 1936.63 2026.01 1936.63 2032.89 1916 2032.89ZM1943.5 2026.01 1951.45 2026.01 1948.02 2029.45 1948.02 2016.78 1954.89 2016.78 1954.89 2029.45C1954.89 2031.35 1953.35 2032.89 1951.45 2032.89L1943.5 2032.89ZM1948.02 2009.9 1948.02 1989.28 1954.89 1989.28 1954.89 2009.9ZM1948.02 1982.4 1948.02 1961.78 1954.89 1961.78 1954.89 1982.4ZM1948.02 1954.9 1948.02 1934.28 1954.89 1934.28 1954.89 1954.9ZM1948.02 1927.4 1948.02 1906.78 1954.89 1906.78 1954.89 1927.4ZM1948.02 1899.9 1948.02 1879.28 1954.89 1879.28 1954.89 1899.9ZM1948.02 1872.4 1948.02 1851.78 1954.89 1851.78 1954.89 1872.4ZM1948.02 1844.9 1948.02 1824.28 1954.89 1824.28 1954.89 1844.9ZM1948.02 1817.4 1948.02 1796.78 1954.89 1796.78 1954.89 1817.4ZM1948.02 1789.9 1948.02 1769.28 1954.89 1769.28 1954.89 1789.9ZM1948.02 1762.4 1948.02 1741.78 1954.89 1741.78 1954.89 1762.4ZM1948.02 1734.9 1948.02 1714.28 1954.89 1714.28 1954.89 1734.9ZM1948.02 1707.4 1948.02 1686.78 1954.89 1686.78 1954.89 1707.4ZM1948.02 1679.9 1948.02 1659.28 1954.89 1659.28 1954.89 1679.9ZM1948.02 1652.4 1948.02 1631.78 1954.89 1631.78 1954.89 1652.4ZM1948.02 1624.9 1948.02 1604.28 1954.89 1604.28 1954.89 1624.9ZM1948.02 1597.4 1948.02 1576.78 1954.89 1576.78 1954.89 1597.4ZM1948.02 1569.9 1948.02 1549.28 1954.89 1549.28 1954.89 1569.9ZM1948.02 1542.4 1948.02 1521.78 1954.89 1521.78 1954.89 1542.4ZM1948.02 1514.9 1948.02 1494.28 1954.89 1494.28 1954.89 1514.9ZM1948.02 1487.4 1948.02 1466.78 1954.89 1466.78 1954.89 1487.4ZM1948.02 1459.9 1948.02 1439.28 1954.89 1439.28 1954.89 1459.9ZM1948.02 1432.4 1948.02 1411.78 1954.89 1411.78 1954.89 1432.4ZM1948.02 1404.9 1948.02 1384.28 1954.89 1384.28 1954.89 1404.9ZM1948.02 1377.4 1948.02 1356.78 1954.89 1356.78 1954.89 1377.4ZM1948.02 1349.9 1948.02 1329.28 1954.89 1329.28 1954.89 1349.9ZM1948.02 1322.4 1948.02 1301.78 1954.89 1301.78 1954.89 1322.4ZM1950.86 1298.94 1930.23 1298.94 1930.23 1292.06 1950.86 1292.06ZM1923.36 1298.94 1902.73 1298.94 1902.73 1292.06 1923.36 1292.06ZM1895.86 1298.94 1875.23 1298.94 1875.23 1292.06 1895.86 1292.06ZM1868.36 1298.94 1847.73 1298.94 1847.73 1292.06 1868.36 1292.06ZM1840.86 1298.94 1820.23 1298.94 1820.23 1292.06 1840.86 1292.06ZM1813.36 1298.94 1792.73 1298.94 1792.73 1292.06 1813.36 1292.06ZM1785.86 1298.94 1765.23 1298.94 1765.23 1292.06 1785.86 1292.06ZM1758.36 1298.94 1737.73 1298.94 1737.73 1292.06 1758.36 1292.06ZM1730.86 1298.94 1710.23 1298.94 1710.23 1292.06 1730.86 1292.06ZM1703.36 1298.94 1686.67 1298.94 1686.67 1292.06 1703.36 1292.06ZM1651.25 2048.86 1637.5 2076.36 1623.75 2048.86Z"
       id="path128" /><text
       font-family="Cambria Math,Cambria Math_MSFontService,sans-serif"
       font-weight="400"
       font-size="55"
       transform="matrix(1 0 0 1 1655.55 2199)"
       id="text128">⑥</text><text
       font-family="Arial,Arial_MSFontService,sans-serif"
       font-weight="400"
       font-size="55"
       transform="matrix(1 0 0 1 1736.91 2199)"
       id="text129">encrypt</text><text
       font-family="Cambria Math,Cambria Math_MSFontService,sans-serif"
       font-weight="400"
       font-size="55"
       transform="matrix(1 0 0 1 2149.09 1374)"
       id="text130">⑩</text><text
       font-family="Arial,Arial_MSFontService,sans-serif"
       font-weight="400"
       font-size="55"
       transform="matrix(1 0 0 1 2230.45 1374)"
       id="text131">copy out</text><text
       font-family="Cambria Math,Cambria Math_MSFontService,sans-serif"
       font-weight="400"
       font-size="55"
       transform="matrix(1 0 0 1 2067.43 2315)"
       id="text132">⑩</text><text
       font-family="Arial,Arial_MSFontService,sans-serif"
       font-weight="400"
       font-size="55"
       transform="matrix(1 0 0 1 2148.78 2315)"
       id="text133">copy out</text><text
       font-family="Cambria Math,Cambria Math_MSFontService,sans-serif"
       font-weight="400"
       font-size="55"
       transform="matrix(1 0 0 1 2292.21 1659)"
       id="text134">③</text><text
       font-family="Cambria Math,Cambria Math_MSFontService,sans-serif"
       font-weight="400"
       font-size="55"
       transform="matrix(1 0 0 1 2734.44 1662)"
       id="text135">④</text><text
       font-family="Cambria Math,Cambria Math_MSFontService,sans-serif"
       font-weight="400"
       font-size="55"
       transform="matrix(1 0 0 1 1133.96 840)"
       id="text136">⑤</text><text
       font-family="Cambria Math,Cambria Math_MSFontService,sans-serif"
       font-weight="400"
       font-size="55"
       transform="matrix(1 0 0 1 1132.25 965)"
       id="text137">⑥</text><path
       d="M1381.85 2381.31 476 2381.31C472.203 2381.31 469.125 2378.23 469.125 2374.43L469.125 2075 482.875 2075 482.875 2374.43 476 2367.56 1381.85 2367.56ZM1374.98 2353.81 1416.23 2374.43 1374.98 2395.06Z"
       id="path137" /><g
       id="g101"
       transform="matrix(1.0052588,0,0,0.99996927,-26.616349,1.3905624)"><rect
         x="2226.3311"
         y="463.12817"
         width="2020.6708"
         height="777.021"
         stroke="#000000"
         stroke-width="9.14571"
         stroke-linejoin="round"
         stroke-miterlimit="10"
         fill="#ffdbcc"
         id="rect1" /><text
         font-family="Arial, Arial_MSFontService, sans-serif"
         font-weight="400"
         font-size="55px"
         id="text1"
         x="2683.4399"
         y="534">#0: Metadata node </text><text
         font-family="Arial, Arial_MSFontService, sans-serif"
         font-weight="400"
         font-size="55px"
         id="text2-3"
         x="3156.1001"
         y="534">(</text><text
         font-family="Arial, Arial_MSFontService, sans-serif"
         font-weight="400"
         font-size="55px"
         id="text3-5"
         x="3174.4299"
         y="534">first 59 bytes</text><text
         font-family="Arial, Arial_MSFontService, sans-serif"
         font-weight="400"
         font-size="55px"
         id="text4-1"
         x="3501.5601"
         y="534">in plaintext)</text><g
         id="g99"
         transform="translate(-0.77918732,-1.2986455)"><rect
           x="2257.9207"
           y="657.92078"
           width="335.73364"
           height="125.15844"
           stroke="#000000"
           stroke-width="8.00823"
           stroke-linejoin="round"
           stroke-miterlimit="10"
           fill="none"
           id="rect17" /><text
           font-family="Consolas, Consolas_MSFontService, sans-serif"
           font-weight="400"
           font-size="55px"
           id="text18"
           x="2269.3201"
           y="736.79614">“GRAFS_PF”</text><rect
           x="2592.75"
           y="657.61786"
           width="148.74138"
           height="125.53075"
           stroke="#000000"
           stroke-width="7.63593"
           stroke-linejoin="round"
           stroke-miterlimit="10"
           fill="none"
           id="rect18" /><text
           font-family="Consolas, Consolas_MSFontService, sans-serif"
           font-weight="400"
           font-size="55px"
           id="text19"
           x="2609.5469"
           y="737.414">0x01</text><rect
           x="2739.9561"
           y="657.82404"
           width="158.504"
           height="125.27399"
           stroke="#000000"
           stroke-width="7.89268"
           stroke-linejoin="round"
           stroke-miterlimit="10"
           fill="none"
           id="rect19" /><text
           font-family="Consolas, Consolas_MSFontService, sans-serif"
           font-weight="400"
           font-size="55px"
           id="text20"
           x="2760.8147"
           y="739.39142">0x00</text><rect
           x="2898.6907"
           y="657.8634"
           width="321.54251"
           height="124.74249"
           stroke="#000000"
           stroke-width="8.42418"
           stroke-linejoin="round"
           stroke-miterlimit="10"
           fill="none"
           id="rect20" /><text
           font-family="Consolas, Consolas_MSFontService, sans-serif"
           font-weight="400"
           font-size="55px"
           id="text21"
           x="2930.6672"
           y="739.56567">KDF nonce</text><rect
           x="3221.6348"
           y="657.68402"
           width="187.00835"
           height="125.95605"
           stroke="#000000"
           stroke-width="7.21061"
           stroke-linejoin="round"
           stroke-miterlimit="10"
           fill="none"
           id="rect21" /><text
           font-family="Consolas, Consolas_MSFontService, sans-serif"
           font-weight="400"
           font-size="55px"
           id="text22"
           x="3275.5481"
           y="739.79614">MAC</text><text
           font-family="Consolas, Consolas_MSFontService, sans-serif"
           font-weight="400"
           font-size="55px"
           id="text22-9"
           x="3422.804"
           y="736.30658">pending_write</text><text
           fill="#7f7f7f"
           font-family="Arial, Arial_MSFontService, sans-serif"
           font-weight="700"
           font-size="46px"
           id="text23"
           x="2244.8301"
           y="649">0</text><text
           fill="#7f7f7f"
           font-family="Arial, Arial_MSFontService, sans-serif"
           font-weight="700"
           font-size="46px"
           id="text24"
           x="2583.4099"
           y="650">7</text><text
           fill="#7f7f7f"
           font-family="Arial, Arial_MSFontService, sans-serif"
           font-weight="700"
           font-size="46px"
           id="text25"
           x="2730.7502"
           y="649.26538">8</text><text
           fill="#7f7f7f"
           font-family="Arial, Arial_MSFontService, sans-serif"
           font-weight="700"
           font-size="46px"
           id="text26"
           x="2887.1509"
           y="648.06152">9</text><text
           fill="#7f7f7f"
           font-family="Arial, Arial_MSFontService, sans-serif"
           font-weight="700"
           font-size="46px"
           id="text27"
           x="3193.7212"
           y="648.26538">41</text><text
           fill="#7f7f7f"
           font-family="Arial, Arial_MSFontService, sans-serif"
           font-weight="700"
           font-size="46px"
           id="text28"
           x="3380.9998"
           y="648.79614">57</text><text
           fill="#7f7f7f"
           font-family="Arial, Arial_MSFontService, sans-serif"
           font-weight="700"
           font-size="46px"
           id="text28-5"
           x="3785.592"
           y="649.33612">58</text><rect
           x="2265.5"
           y="859.5"
           width="747"
           height="125"
           stroke="#000000"
           stroke-width="9.16667"
           stroke-linejoin="round"
           stroke-miterlimit="10"
           fill="none"
           id="rect28" /><text
           font-family="Consolas, Consolas_MSFontService, sans-serif"
           font-weight="400"
           font-size="55px"
           transform="translate(2365.4,941)"
           id="text29">encrypted metadata</text><path
           d="m 3903.6605,922.646 h 36.7605 v 6.875 h -36.7605 z m 48.755,0 h 36.7606 v 6.875 h -36.7606 z m 49.002,0 h 36.7606 v 6.875 h -36.7606 z m 49.0022,0 h 30.4883 l -6.1297,3.437 v -3.521 h 12.2415 v 3.521 c 0,1.899 -2.7441,3.438 -6.1118,3.438 h -30.4883 z m 24.3586,-6.959 v -20.625 h 12.2415 v 20.625 z m 0,-27.5 v -20.625 h 12.2415 v 20.625 z m 0,-27.5 v -20.625 h 12.2415 v 20.625 z m 0,-27.5 v -20.625 h 12.2415 v 20.625 z m 0,-27.5 v -20.625 h 12.2415 v 20.625 z m 0,-27.5 v -20.625 h 12.2415 v 20.625 z m 0,-27.5 v -20.625 h 12.2415 v 20.625 z m 0,-27.5 v -20.625 h 12.2415 v 20.625 z m 0,-27.5 v -20.625 h 12.2415 v 20.625 z m 0,-27.5 v -20.625 h 12.2415 v 20.625 z m 0,-27.5 v -20.625 h 12.2415 v 20.625 z m 0,-27.5 v -20.625 h 12.2415 v 20.625 z m 0,-27.5 v -8.686 l 6.1297,3.437 h -21.2759 v -6.875 h 21.2759 c 3.3677,0 6.1118,1.539 6.1118,3.438 v 8.686 z m -27.4056,-5.249 H 4010.63 v -6.875 h 36.7427 z m -49.0022,0 h -36.7427 v -6.875 h 36.7427 z m -49.0019,0 h -36.7429 v -6.875 h 36.7429 z m -49.0023,0 h -36.7428 v -6.875 h 36.7428 z m -49.0022,0 h -36.7425 v -6.875 h 36.7425 z m -49.002,0 h -36.7427 v -6.875 h 36.7427 z m -49.0021,0 h -36.743 v -6.875 h 36.743 z m -49.0021,0 h -36.7429 v -6.875 h 36.7429 z m -49.0023,0 h -36.7426 v -6.875 h 36.7426 z m -49.002,0 h -36.7427 v -6.875 h 36.7427 z m -49.0021,0 h -36.7428 v -6.875 h 36.7428 z m -49.0022,0 h -36.7427 v -6.875 h 36.7427 z m -49.002,0 h -36.7427 v -6.875 h 36.7427 z m -135.3909,0 h -18.5686 l 6.1297,-3.437 v 4.692 h -12.2595 v -4.692 c 0,-1.899 2.7441,-3.438 6.1298,-3.438 h 18.5686 z m -12.4389,8.13 v 20.625 h -12.2595 v -20.625 z m 0,27.5 v 20.625 h -12.2595 v -20.625 z m 0,27.5 V 659.5 h -12.2595 v -15.932 z m 600.322,296.265 -49.002,-13.75 49.002,-13.75 z M 3368.0501,580.438 h -36.7427 v -6.875 h 36.7427 z m 44.176,0 h -36.7427 v -6.875 h 36.7427 z"
           id="path29"
           style="stroke-width:1.33488"
           sodipodi:nodetypes="ccccccccccccccccccccsscccccccccccccccccccccccccccccccccccccccccccccccccccccccccccccccccccssccccccccccccccccccccccccccccccccccccccccccccccccccccccccccccccccccccccccssccccccccccccccccccccccccccccccc" /><text
           font-family="Arial, Arial_MSFontService, sans-serif"
           font-weight="400"
           font-size="50px"
           id="text30"
           x="3969.6426"
           y="620.11676">over</text><text
           fill="#7f7f7f"
           font-family="Arial, Arial_MSFontService, sans-serif"
           font-weight="700"
           font-size="46px"
           transform="translate(2240.01,846)"
           id="text31">59</text><text
           fill="#7f7f7f"
           font-family="Arial, Arial_MSFontService, sans-serif"
           font-weight="700"
           font-size="46px"
           transform="translate(3738.24,850)"
           id="text32">3942</text><rect
           x="2265.5"
           y="1062.5"
           width="1561"
           height="125"
           stroke="#000000"
           stroke-width="9.16667"
           stroke-linejoin="round"
           stroke-miterlimit="10"
           fill="none"
           id="rect32-2" /><text
           font-family="Consolas, Consolas_MSFontService, sans-serif"
           font-weight="400"
           font-size="55px"
           transform="translate(2802.57,1144)"
           id="text33-0">Constant padding</text><text
           fill="#7f7f7f"
           font-family="Arial, Arial_MSFontService, sans-serif"
           font-weight="700"
           font-size="46px"
           transform="translate(2235.61,1049)"
           id="text34-1">3943</text><text
           fill="#7f7f7f"
           font-family="Arial, Arial_MSFontService, sans-serif"
           font-weight="700"
           font-size="46px"
           transform="translate(3736.81,1053)"
           id="text35-6">4095</text><rect
           x="3012.5"
           y="859.5"
           width="814"
           height="125"
           stroke="#000000"
           stroke-width="9.16667"
           stroke-linejoin="round"
           stroke-miterlimit="10"
           fill="none"
           id="rect91" /><text
           font-family="Consolas, Consolas_MSFontService, sans-serif"
           font-weight="400"
           font-size="55px"
           id="text92-4"
           transform="translate(3130.48,940)">encrypted file data</text><path
           d="m 3842.5,867.5 c 9.94,0 18,0.672 18,1.5 v 113 c 0,0.828 -8.06,1.5 -18,1.5"
           stroke="#000000"
           stroke-width="6.875"
           stroke-linecap="square"
           stroke-linejoin="round"
           stroke-miterlimit="10"
           stroke-dasharray="20.625, 6.875"
           fill="none"
           fill-rule="evenodd"
           id="path92-0" /><text
           fill="#7f7f7f"
           font-family="Arial, Arial_MSFontService, sans-serif"
           font-weight="700"
           font-size="46px"
           transform="translate(2972.09,849)"
           id="text98-6">870</text><rect
           x="3408.6912"
           y="658.98279"
           width="414.94379"
           height="124.2945"
           stroke="#000000"
           stroke-width="8.87217"
           stroke-linejoin="round"
           stroke-miterlimit="10"
           fill="none"
           id="rect17-7" /></g><text
         font-family="'Cambria Math', 'Cambria Math_MSFontService', sans-serif"
         font-weight="400"
         font-size="54.8568px"
         id="text103"
         x="3224.9543"
         y="703.86182"
         transform="scale(0.99736564,1.0026413)"
         style="stroke-width:0.997396">⑨</text><text
         font-family="'Cambria Math', 'Cambria Math_MSFontService', sans-serif"
         font-weight="400"
         font-size="54.8568px"
         id="text102"
         x="2905.1204"
         y="704.98889"
         transform="scale(0.99736562,1.0026413)"
         style="stroke-width:0.997396">⑦</text></g></g></svg>
