<svg width="3986" height="2428" xmlns="http://www.w3.org/2000/svg" xmlns:xlink="http://www.w3.org/1999/xlink" xml:space="preserve" overflow="hidden"><g transform="translate(-316 9)"><rect x="1365.5" y="151.5" width="529" height="399" stroke="#000000" stroke-width="9.16667" stroke-linejoin="round" stroke-miterlimit="10" fill="#FFDBCC"/><text font-family="Arial,Arial_MSFontService,sans-serif" font-weight="400" font-size="55" transform="matrix(1 0 0 1 1469.24 220)">#0: Metadata</text><rect x="1365.5" y="674.5" width="529" height="310" stroke="#000000" stroke-width="9.16667" stroke-linejoin="round" stroke-miterlimit="10" fill="#FAFFC4"/><text font-family="Arial,Arial_MSFontService,sans-serif" font-weight="400" font-size="55" transform="matrix(1 0 0 1 1448.05 743)">#1: Root MHT</text><text font-family="Arial,Arial_MSFontService,sans-serif" font-weight="400" font-size="37" transform="matrix(1 0 0 1 1790.08 756)">0</text><path d="M3.4375-1.00054e-05 3.43779 101.074-3.43721 101.074-3.4375 1.00054e-05ZM13.7503 96.4903 0.000360892 123.99-13.7497 96.4904Z" fill="#B1BABF" transform="matrix(1 0 0 -1 1629.5 674.49)"/><rect x="825.5" y="1190.5" width="529" height="310" stroke="#000000" stroke-width="9.16667" stroke-linejoin="round" stroke-miterlimit="10" fill="#FAFFC4"/><text font-family="Arial,Arial_MSFontService,sans-serif" font-weight="400" font-size="55" transform="matrix(1 0 0 1 958.776 1259)">#98: MHT</text><text font-family="Arial,Arial_MSFontService,sans-serif" font-weight="400" font-size="37" transform="matrix(1 0 0 1 1199.97 1272)">1</text><path d="M1087.06 1190.17 1087.06 1087.33C1087.06 1085.43 1088.6 1083.9 1090.5 1083.9L1630.19 1083.9 1626.75 1087.33 1626.75 1007.42 1633.62 1007.42 1633.62 1087.33C1633.62 1089.23 1632.09 1090.77 1630.19 1090.77L1090.5 1090.77 1093.94 1087.33 1093.94 1190.17ZM1616.44 1012 1630.19 984.5 1643.94 1012Z" fill="#B1BABF"/><rect x="583.5" y="1739.5" width="529" height="311" stroke="#000000" stroke-width="9.16667" stroke-linejoin="round" stroke-miterlimit="10" fill="#FAFFC4"/><text font-family="Arial,Arial_MSFontService,sans-serif" font-weight="400" font-size="55" transform="matrix(1 0 0 1 675.727 1809)">#3203: MHT</text><text font-family="Arial,Arial_MSFontService,sans-serif" font-weight="400" font-size="37" transform="matrix(1 0 0 1 977.654 1822)">33</text><rect x="1207.5" y="2111.5" width="147" height="172" stroke="#000000" stroke-width="9.16667" stroke-linejoin="round" stroke-miterlimit="10" fill="#C9F0FF"/><text font-family="Arial,Arial_MSFontService,sans-serif" font-weight="400" font-size="55" transform="matrix(1 0 0 1 1252.94 2217)">…</text><path d="M844.062 1739.82 844.062 1620.16C844.062 1618.26 845.601 1616.72 847.5 1616.72L1089.87 1616.72 1086.43 1620.16 1086.43 1523.42 1093.31 1523.42 1093.31 1620.16C1093.31 1622.06 1091.77 1623.6 1089.87 1623.6L847.5 1623.6 850.937 1620.16 850.937 1739.82ZM1076.12 1528 1089.87 1500.5 1103.62 1528Z" fill="#B1BABF"/><path d="M0-3.4375 216.39-3.4375C218.289-3.4375 219.828-1.89848 219.828 0L219.828 145.577 212.953 145.577 212.953 0 216.39 3.4375 0 3.4375ZM230.14 140.994 216.39 168.494 202.64 140.994Z" fill="#B1BABF" transform="matrix(-1.83697e-16 -1 -1 1.83697e-16 1280.99 2110.89)"/><rect x="672.5" y="1864.5" width="168" height="63.9999" stroke="#000000" stroke-width="9.16667" stroke-linejoin="round" stroke-miterlimit="10" fill="none"/><rect x="840.5" y="1864.5" width="169" height="65" stroke="#000000" stroke-width="9.16667" stroke-linejoin="round" stroke-miterlimit="10" fill="none"/><rect x="672.5" y="1928.5" width="169" height="65" stroke="#000000" stroke-width="20.625" stroke-linejoin="round" stroke-miterlimit="10" fill="none"/><rect x="841.5" y="1929.5" width="168" height="63.9999" stroke="#000000" stroke-width="20.625" stroke-linejoin="round" stroke-miterlimit="10" fill="none"/><rect x="924.5" y="1313.5" width="169" height="63.9999" stroke="#000000" stroke-width="20.625" stroke-linejoin="round" stroke-miterlimit="10" fill="none"/><rect x="1093.5" y="1313.5" width="168" height="65" stroke="#000000" stroke-width="20.625" stroke-linejoin="round" stroke-miterlimit="10" fill="none"/><rect x="925.5" y="1377.5" width="168" height="65" stroke="#000000" stroke-width="9.16667" stroke-linejoin="round" stroke-miterlimit="10" fill="none"/><rect x="1093.5" y="1378.5" width="168" height="63.9999" stroke="#000000" stroke-width="9.16667" stroke-linejoin="round" stroke-miterlimit="10" fill="none"/><rect x="1461.5" y="797.5" width="168" height="63.9999" stroke="#000000" stroke-width="20.625" stroke-linejoin="round" stroke-miterlimit="10" fill="none"/><rect x="1629.5" y="797.5" width="169" height="63.9999" stroke="#000000" stroke-width="20.625" stroke-linejoin="round" stroke-miterlimit="10" fill="none"/><rect x="1461.5" y="861.5" width="168" height="63.9999" stroke="#000000" stroke-width="9.16667" stroke-linejoin="round" stroke-miterlimit="10" fill="none"/><rect x="1629.5" y="861.5" width="169" height="64.9999" stroke="#000000" stroke-width="9.16667" stroke-linejoin="round" stroke-miterlimit="10" fill="none"/><text font-family="Arial,Arial_MSFontService,sans-serif" font-weight="400" font-size="55" transform="matrix(1 0 0 1 589.785 61)">KDK</text><text font-family="Cambria Math,Cambria Math_MSFontService,sans-serif" font-weight="400" font-size="50" transform="matrix(1 0 0 1 522.801 463)">①</text><text font-family="Arial,Arial_MSFontService,sans-serif" font-weight="700" font-size="55" transform="matrix(1 0 0 1 376.251 2372)">write(</text><text font-family="Arial,Arial_MSFontService,sans-serif" font-weight="700" font-size="55" transform="matrix(1 0 0 1 522.918 2372)">buf</text><text font-family="Arial,Arial_MSFontService,sans-serif" font-weight="700" font-size="55" transform="matrix(1 0 0 1 608.855 2372)">)</text><path d="M0-3.4375 6.875-3.4375 6.875 3.4375 0 3.4375ZM13.75-3.4375 20.625-3.4375 20.625 3.4375 13.75 3.4375ZM27.5-3.4375 34.375-3.4375 34.375 3.4375 27.5 3.4375ZM41.25-3.4375 48.125-3.4375 48.125 3.4375 41.25 3.4375ZM55-3.4375 61.875-3.4375 61.875 3.4375 55 3.4375ZM68.75-3.4375 75.625-3.4375 75.625 3.4375 68.75 3.4375ZM82.5-3.4375 89.375-3.4375 89.375 3.4375 82.5 3.4375ZM96.25-3.4375 103.125-3.4375 103.125 3.4375 96.25 3.4375ZM110-3.4375 116.875-3.4375 116.875 3.4375 110 3.4375ZM123.75-3.4375 130.625-3.4375 130.625 3.4375 123.75 3.4375ZM137.5-3.4375 144.375-3.4375 144.375 3.4375 137.5 3.4375ZM151.25-3.4375 158.125-3.4375 158.125 3.4375 151.25 3.4375ZM165-3.4375 171.875-3.4375 171.875 3.4375 165 3.4375ZM178.75-3.4375 185.625-3.4375 185.625 3.4375 178.75 3.4375ZM192.5-3.4375 199.375-3.4375 199.375 3.4375 192.5 3.4375ZM206.25-3.4375 213.125-3.4375 213.125 3.4375 206.25 3.4375ZM220-3.4375 226.875-3.4375 226.875 3.4375 220 3.4375ZM233.75-3.4375 240.625-3.4375 240.625 3.4375 233.75 3.4375ZM247.5-3.4375 254.375-3.4375 254.375 3.4375 247.5 3.4375ZM261.25-3.4375 268.125-3.4375 268.125 3.4375 261.25 3.4375ZM275-3.4375 281.875-3.4375 281.875 3.4375 275 3.4375ZM288.75-3.4375 295.625-3.4375 295.625 3.4375 288.75 3.4375ZM302.5-3.4375 309.375-3.4375 309.375 3.4375 302.5 3.4375ZM316.25-3.4375 323.125-3.4375 323.125 3.4375 316.25 3.4375ZM330-3.4375 336.875-3.4375 336.875 3.4375 330 3.4375ZM343.75-3.4375 350.625-3.4375 350.625 3.4375 343.75 3.4375ZM357.5-3.4375 364.375-3.4375 364.375 3.4375 357.5 3.4375ZM371.25-3.4375 378.125-3.4375 378.125 3.4375 371.25 3.4375ZM385-3.4375 391.875-3.4375 391.875 3.4375 385 3.4375ZM398.75-3.4375 405.625-3.4375 405.625 3.4375 398.75 3.4375ZM412.5-3.4375 419.375-3.4375 419.375 3.4375 412.5 3.4375ZM426.25-3.4375 433.125-3.4375 433.125 3.4375 426.25 3.4375ZM440-3.4375 446.875-3.4375 446.875 3.4375 440 3.4375ZM453.75-3.4375 460.625-3.4375 460.625 3.4375 453.75 3.4375ZM467.5-3.4375 474.375-3.4375 474.375 3.4375 467.5 3.4375ZM481.25-3.4375 488.125-3.4375 488.125 3.4375 481.25 3.4375ZM495-3.4375 501.875-3.4375 501.875 3.4375 495 3.4375ZM508.75-3.4375 515.625-3.4375 515.625 3.4375 508.75 3.4375ZM522.5-3.4375 529.375-3.4375 529.375 3.4375 522.5 3.4375ZM536.25-3.4375 543.125-3.4375 543.125 3.4375 536.25 3.4375ZM550-3.4375 556.875-3.4375 556.875 3.4375 550 3.4375ZM563.75-3.4375 570.625-3.4375 570.625 3.4375 563.75 3.4375ZM577.5-3.4375 584.375-3.4375 584.375 3.4375 577.5 3.4375ZM591.25-3.4375 593.249-3.4375C595.148-3.4375 596.687-1.89848 596.687 0L596.687 4.87566 589.812 4.87566 589.812 0 593.249 3.4375 591.25 3.4375ZM596.687 11.7507 596.687 18.6257 589.812 18.6257 589.812 11.7507ZM596.687 25.5007 596.687 32.3757 589.812 32.3757 589.812 25.5007ZM596.687 39.2507 596.687 46.1257 589.812 46.1257 589.812 39.2507ZM606.999 42.7946 593.249 70.2946 579.499 42.7946Z" transform="matrix(1 0 0 -1 687.5 2353.79)"/><text font-family="Cambria Math,Cambria Math_MSFontService,sans-serif" font-weight="400" font-size="50" transform="matrix(1 0 0 1 868.397 2331)">②</text><text font-family="Cambria Math,Cambria Math_MSFontService,sans-serif" font-weight="400" font-size="50" transform="matrix(1 0 0 1 602.007 1994)">③</text><text font-family="Arial,Arial_MSFontService,sans-serif" font-weight="700" font-size="55" transform="matrix(1 0 0 1 1579.09 2215)">Bounce</text><text font-family="Arial,Arial_MSFontService,sans-serif" font-weight="700" font-size="55" transform="matrix(1 0 0 1 1791.64 2215)">buffer</text><path d="M0-3.4375 20.625-3.4375 20.625 3.4375 0 3.4375ZM27.5-3.4375 48.125-3.4375 48.125 3.4375 27.5 3.4375ZM55-3.4375 75.625-3.4375 75.625 3.4375 55 3.4375ZM85.4669 0.470604 85.4669 1.61896 82.0294-1.81854 101.506-1.81854 101.506 5.05646 82.0294 5.05646C80.1309 5.05646 78.5919 3.51744 78.5919 1.61896L78.5919 0.470604ZM108.381-1.81854 129.006-1.81854 129.006 5.05646 108.381 5.05646ZM135.881-1.81854 141.142-1.81854 141.142 5.05646 135.881 5.05646ZM136.558-12.131 164.058 1.61896 136.558 15.369Z" transform="matrix(1 0 0 -1 1354.5 2197.12)"/><path d="M0-3.4375 20.625-3.4375 20.625 3.4375 0 3.4375ZM27.5-3.4375 48.125-3.4375 48.125 3.4375 27.5 3.4375ZM55-3.4375 75.625-3.4375 75.625 3.4375 55 3.4375ZM82.5-3.4375 84.4683-3.4375C86.3668-3.4375 87.9058-1.89848 87.9058 0L87.9058 18.6567 81.0308 18.6567 81.0308 0 84.4683 3.4375 82.5 3.4375ZM87.9058 25.5317 87.9058 46.1567 81.0308 46.1567 81.0308 25.5317ZM87.9058 53.0317 87.9058 73.6567 81.0308 73.6567 81.0308 53.0317ZM87.9058 80.5317 87.9058 101.157 81.0308 101.157 81.0308 80.5317ZM87.9058 108.032 87.9058 128.657 81.0308 128.657 81.0308 108.032ZM87.9058 135.532 87.9058 156.157 81.0308 156.157 81.0308 135.532ZM87.9058 163.032 87.9058 183.657 81.0308 183.657 81.0308 163.032ZM87.9058 190.532 87.9058 211.157 81.0308 211.157 81.0308 190.532ZM87.9058 218.032 87.9058 238.657 81.0308 238.657 81.0308 218.032ZM87.9058 245.532 87.9058 266.157 81.0308 266.157 81.0308 245.532ZM87.9058 273.032 87.9058 293.657 81.0308 293.657 81.0308 273.032ZM87.9058 300.532 87.9058 321.157 81.0308 321.157 81.0308 300.532ZM87.9058 328.032 87.9058 348.657 81.0308 348.657 81.0308 328.032ZM87.9058 355.532 87.9058 376.157 81.0308 376.157 81.0308 355.532ZM87.9058 383.032 87.9058 403.657 81.0308 403.657 81.0308 383.032ZM87.9058 410.532 87.9058 431.157 81.0308 431.157 81.0308 410.532ZM87.9058 438.032 87.9058 458.657 81.0308 458.657 81.0308 438.032ZM87.9058 465.532 87.9058 486.157 81.0308 486.157 81.0308 465.532ZM87.9058 493.032 87.9058 513.657 81.0308 513.657 81.0308 493.032ZM87.9058 520.532 87.9058 541.157 81.0308 541.157 81.0308 520.532ZM87.9058 548.032 87.9058 568.657 81.0308 568.657 81.0308 548.032ZM87.9058 575.532 87.9058 596.157 81.0308 596.157 81.0308 575.532ZM87.9058 603.032 87.9058 623.657 81.0308 623.657 81.0308 603.032ZM87.9058 630.532 87.9058 651.157 81.0308 651.157 81.0308 630.532ZM87.9058 658.032 87.9058 678.657 81.0308 678.657 81.0308 658.032ZM87.9058 685.532 87.9058 706.157 81.0308 706.157 81.0308 685.532ZM87.9058 713.032 87.9058 733.657 81.0308 733.657 81.0308 713.032ZM87.9058 740.532 87.9058 761.157 81.0308 761.157 81.0308 740.532ZM87.9058 768.032 87.9058 788.657 81.0308 788.657 81.0308 768.032ZM87.9058 795.532 87.9058 816.157 81.0308 816.157 81.0308 795.532ZM87.9058 823.032 87.9058 843.657 81.0308 843.657 81.0308 823.032ZM87.9058 850.532 87.9058 871.157 81.0308 871.157 81.0308 850.532ZM87.9058 878.032 87.9058 898.657 81.0308 898.657 81.0308 878.032ZM87.9058 905.532 87.9058 926.157 81.0308 926.157 81.0308 905.532ZM87.9058 933.032 87.9058 953.657 81.0308 953.657 81.0308 933.032ZM87.9058 960.532 87.9058 981.157 81.0308 981.157 81.0308 960.532ZM87.9058 988.032 87.9058 1006.94 84.4683 1003.51 86.1807 1003.51 86.1807 1010.38 84.4683 1010.38C82.5698 1010.38 81.0308 1008.84 81.0308 1006.94L81.0308 988.032ZM93.0557 1003.51 113.681 1003.51 113.681 1010.38 93.0557 1010.38ZM120.556 1003.51 141.181 1003.51 141.181 1010.38 120.556 1010.38ZM141.437 993.194 168.937 1006.94 141.437 1020.69Z" transform="matrix(1.83697e-16 1 1 -1.83697e-16 756.5 1993.5)"/><path d="M1032.42 1958.06 1053.04 1958.06 1053.04 1964.94 1032.42 1964.94ZM1059.92 1958.06 1080.54 1958.06 1080.54 1964.94 1059.92 1964.94ZM1087.42 1958.06 1108.04 1958.06 1108.04 1964.94 1087.42 1964.94ZM1114.92 1958.06 1135.54 1958.06 1135.54 1964.94 1114.92 1964.94ZM1142.42 1958.06 1163.04 1958.06 1163.04 1964.94 1142.42 1964.94ZM1169.92 1958.06 1190.54 1958.06 1190.54 1964.94 1169.92 1964.94ZM1197.42 1958.06 1218.04 1958.06 1218.04 1964.94 1197.42 1964.94ZM1224.92 1958.06 1245.54 1958.06 1245.54 1964.94 1224.92 1964.94ZM1252.42 1958.06 1273.04 1958.06 1273.04 1964.94 1252.42 1964.94ZM1279.92 1958.06 1300.54 1958.06 1300.54 1964.94 1279.92 1964.94ZM1307.42 1958.06 1328.04 1958.06 1328.04 1964.94 1307.42 1964.94ZM1334.92 1958.06 1355.54 1958.06 1355.54 1964.94 1334.92 1964.94ZM1362.42 1958.06 1383.04 1958.06 1383.04 1964.94 1362.42 1964.94ZM1389.92 1958.06 1410.54 1958.06 1410.54 1964.94 1389.92 1964.94ZM1417.42 1958.06 1438.04 1958.06 1438.04 1964.94 1417.42 1964.94ZM1444.92 1958.06 1465.54 1958.06 1465.54 1964.94 1444.92 1964.94ZM1472.42 1958.06 1493.04 1958.06 1493.04 1964.94 1472.42 1964.94ZM1499.92 1958.06 1520.54 1958.06 1520.54 1964.94 1499.92 1964.94ZM1527.42 1958.06 1548.04 1958.06 1548.04 1964.94 1527.42 1964.94ZM1554.92 1958.06 1575.54 1958.06 1575.54 1964.94 1554.92 1964.94ZM1582.42 1958.06 1603.04 1958.06 1603.04 1964.94 1582.42 1964.94ZM1609.92 1958.06 1630.54 1958.06 1630.54 1964.94 1609.92 1964.94ZM1637.42 1958.06 1658.04 1958.06 1658.04 1964.94 1637.42 1964.94ZM1664.92 1958.06 1685.54 1958.06 1685.54 1964.94 1664.92 1964.94ZM1692.42 1958.06 1713.04 1958.06 1713.04 1964.94 1692.42 1964.94ZM1719.92 1958.06 1740.54 1958.06 1740.54 1964.94 1719.92 1964.94ZM1747.42 1958.06 1768.04 1958.06 1768.04 1964.94 1747.42 1964.94ZM1774.92 1958.06 1795.54 1958.06 1795.54 1964.94 1774.92 1964.94ZM1802.42 1958.06 1823.04 1958.06 1823.04 1964.94 1802.42 1964.94ZM1829.92 1958.06 1850.54 1958.06 1850.54 1964.94 1829.92 1964.94ZM1857.42 1958.06 1878.04 1958.06 1878.04 1964.94 1857.42 1964.94ZM1884.92 1958.06 1905.54 1958.06 1905.54 1964.94 1884.92 1964.94ZM1912.42 1958.06 1933.04 1958.06 1933.04 1964.94 1912.42 1964.94ZM1939.92 1958.06 1960.54 1958.06 1960.54 1964.94 1939.92 1964.94ZM1967.42 1958.06 1988.04 1958.06 1988.04 1964.94 1967.42 1964.94ZM1994.92 1958.06 2015.54 1958.06 2015.54 1964.94 1994.92 1964.94ZM2022.42 1958.06 2043.04 1958.06 2043.04 1964.94 2022.42 1964.94ZM2049.92 1958.06 2070.54 1958.06 2070.54 1964.94 2049.92 1964.94ZM2077.42 1958.06 2091.2 1958.06C2093.1 1958.06 2094.64 1959.6 2094.64 1961.5L2094.64 1968.34 2087.76 1968.34 2087.76 1961.5 2091.2 1964.94 2077.42 1964.94ZM2094.64 1975.22 2094.64 1995.84 2087.76 1995.84 2087.76 1975.22ZM2094.64 2002.72 2094.64 2023.34 2087.76 2023.34 2087.76 2002.72ZM2094.64 2030.22 2094.64 2050.84 2087.76 2050.84 2087.76 2030.22ZM2094.64 2057.72 2094.64 2078.34 2087.76 2078.34 2087.76 2057.72ZM2094.64 2085.22 2094.64 2105.84 2087.76 2105.84 2087.76 2085.22ZM2094.64 2112.72 2094.64 2133.34 2087.76 2133.34 2087.76 2112.72ZM2094.64 2140.22 2094.64 2160.84 2087.76 2160.84 2087.76 2140.22ZM2094.64 2167.72 2094.64 2188.34 2087.76 2188.34 2087.76 2167.72ZM2094.64 2195.22 2094.64 2195.67C2094.64 2197.57 2093.1 2199.11 2091.2 2199.11L2071.02 2199.11 2071.02 2192.23 2091.2 2192.23 2087.76 2195.67 2087.76 2195.22ZM2064.15 2199.11 2043.52 2199.11 2043.52 2192.23 2064.15 2192.23ZM2036.65 2199.11 2016.02 2199.11 2016.02 2192.23 2036.65 2192.23ZM2009.15 2199.11 2008.7 2199.11 2008.7 2192.23 2009.15 2192.23ZM1037 1975.25 1009.5 1961.5 1037 1947.75Z"/><text fill="#7F7F7F" font-family="Arial,Arial_MSFontService,sans-serif" font-weight="400" font-size="50" transform="matrix(1 0 0 1 1635.37 2058)">key</text><text fill="#7F7F7F" font-family="Arial,Arial_MSFontService,sans-serif" font-weight="400" font-size="50" transform="matrix(1 0 0 1 1928.05 2004)">MAC</text><text font-family="Cambria Math,Cambria Math_MSFontService,sans-serif" font-weight="400" font-size="50" transform="matrix(1 0 0 1 1547.81 2146)">④</text><text font-family="Cambria Math,Cambria Math_MSFontService,sans-serif" font-weight="400" font-size="50" transform="matrix(1 0 0 1 852.012 1344)">⑤</text><text font-family="Arial,Arial_MSFontService,sans-serif" font-weight="700" font-size="55" transform="matrix(1 0 0 1 1985.52 1762)">Bounce</text><text font-family="Arial,Arial_MSFontService,sans-serif" font-weight="700" font-size="55" transform="matrix(1 0 0 1 2198.07 1762)">buffer</text><path d="M0-3.4375 20.625-3.4375 20.625 3.4375 0 3.4375ZM27.5-3.4375 48.125-3.4375 48.125 3.4375 27.5 3.4375ZM55-3.4375 75.625-3.4375 75.625 3.4375 55 3.4375ZM82.5-3.4375 103.125-3.4375 103.125 3.4375 82.5 3.4375ZM110-3.4375 130.625-3.4375 130.625 3.4375 110 3.4375ZM137.5-3.4375 158.125-3.4375 158.125 3.4375 137.5 3.4375ZM165-3.4375 185.625-3.4375 185.625 3.4375 165 3.4375ZM192.5-3.4375 213.125-3.4375 213.125 3.4375 192.5 3.4375ZM220-3.4375 240.625-3.4375 240.625 3.4375 220 3.4375ZM247.5-3.4375 268.125-3.4375 268.125 3.4375 247.5 3.4375ZM275-3.4375 295.625-3.4375 295.625 3.4375 275 3.4375ZM302.5-3.4375 323.125-3.4375 323.125 3.4375 302.5 3.4375ZM330-3.4375 350.625-3.4375 350.625 3.4375 330 3.4375ZM357.5-3.4375 378.125-3.4375 378.125 3.4375 357.5 3.4375ZM385-3.4375 405.625-3.4375 405.625 3.4375 385 3.4375ZM409.868 6.06931 409.868 26.6943 402.993 26.6943 402.993 6.06931ZM409.868 33.5693 409.868 54.1943 402.993 54.1943 402.993 33.5693ZM409.868 61.0693 409.868 81.6943 402.993 81.6943 402.993 61.0693ZM409.868 88.5693 409.868 93.0619 406.431 89.6244 422.563 89.6244 422.563 96.4994 406.431 96.4994C404.532 96.4994 402.993 94.9604 402.993 93.0619L402.993 88.5693ZM429.438 89.6244 450.063 89.6244 450.063 96.4994 429.438 96.4994ZM456.938 89.6244 477.563 89.6244 477.563 96.4994 456.938 96.4994ZM484.438 89.6244 505.063 89.6244 505.063 96.4994 484.438 96.4994ZM511.938 89.6244 532.563 89.6244 532.563 96.4994 511.938 96.4994ZM539.438 89.6244 560.063 89.6244 560.063 96.4994 539.438 96.4994ZM566.938 89.6244 587.563 89.6244 587.563 96.4994 566.938 96.4994ZM594.438 89.6244 615.063 89.6244 615.063 96.4994 594.438 96.4994ZM621.938 89.6244 642.563 89.6244 642.563 96.4994 621.938 96.4994ZM649.438 89.6244 670.063 89.6244 670.063 96.4994 649.438 96.4994ZM676.938 89.6244 697.563 89.6244 697.563 96.4994 676.938 96.4994ZM704.438 89.6244 725.063 89.6244 725.063 96.4994 704.438 96.4994ZM731.938 89.6244 752.563 89.6244 752.563 96.4994 731.938 96.4994ZM759.438 89.6244 780.063 89.6244 780.063 96.4994 759.438 96.4994ZM786.938 89.6244 789.945 89.6244 789.945 96.4994 786.938 96.4994ZM785.361 79.3119 812.861 93.0619 785.361 106.812Z" transform="matrix(1 0 0 -1 1112.5 1835.56)"/><path d="M0-3.4375 20.625-3.4375 20.625 3.4375 0 3.4375ZM27.5-3.4375 48.125-3.4375 48.125 3.4375 27.5 3.4375ZM55-3.4375 75.625-3.4375 75.625 3.4375 55 3.4375ZM82.5-3.4375 103.125-3.4375 103.125 3.4375 82.5 3.4375ZM110-3.4375 130.625-3.4375 130.625 3.4375 110 3.4375ZM137.5-3.4375 158.125-3.4375 158.125 3.4375 137.5 3.4375ZM165-3.4375 165.863-3.4375C167.762-3.4375 169.301-1.89848 169.301 0L169.301 19.7618 162.426 19.7618 162.426 0 165.863 3.4375 165 3.4375ZM169.301 26.6368 169.301 47.2618 162.426 47.2618 162.426 26.6368ZM169.301 54.1368 169.301 74.7618 162.426 74.7618 162.426 54.1368ZM169.301 81.6368 169.301 102.262 162.426 102.262 162.426 81.6368ZM169.301 109.137 169.301 129.762 162.426 129.762 162.426 109.137ZM169.301 136.637 169.301 157.262 162.426 157.262 162.426 136.637ZM169.301 164.137 169.301 184.762 162.426 184.762 162.426 164.137ZM169.301 191.637 169.301 212.262 162.426 212.262 162.426 191.637ZM169.301 219.137 169.301 239.762 162.426 239.762 162.426 219.137ZM169.301 246.637 169.301 267.262 162.426 267.262 162.426 246.637ZM169.301 274.137 169.301 294.762 162.426 294.762 162.426 274.137ZM169.301 301.637 169.301 322.262 162.426 322.262 162.426 301.637ZM169.301 329.137 169.301 349.762 162.426 349.762 162.426 329.137ZM169.301 356.637 169.301 377.262 162.426 377.262 162.426 356.637ZM169.301 384.137 169.301 404.762 162.426 404.762 162.426 384.137ZM169.301 411.637 169.301 432.262 162.426 432.262 162.426 411.637ZM169.301 439.137 169.301 459.762 162.426 459.762 162.426 439.137ZM169.301 466.637 169.301 487.262 162.426 487.262 162.426 466.637ZM169.301 494.137 169.301 514.762 162.426 514.762 162.426 494.137ZM169.301 521.637 169.301 542.262 162.426 542.262 162.426 521.637ZM169.301 549.137 169.301 569.762 162.426 569.762 162.426 549.137ZM169.301 576.637 169.301 597.262 162.426 597.262 162.426 576.637ZM169.301 604.137 169.301 624.762 162.426 624.762 162.426 604.137ZM169.301 631.637 169.301 652.262 162.426 652.262 162.426 631.637ZM169.301 659.137 169.301 679.762 162.426 679.762 162.426 659.137ZM169.301 686.637 169.301 707.262 162.426 707.262 162.426 686.637ZM169.301 714.137 169.301 734.762 162.426 734.762 162.426 714.137ZM169.301 741.637 169.301 762.262 162.426 762.262 162.426 741.637ZM169.301 769.137 169.301 789.762 162.426 789.762 162.426 769.137ZM169.301 796.637 169.301 817.262 162.426 817.262 162.426 796.637ZM169.301 824.137 169.301 844.762 162.426 844.762 162.426 824.137ZM169.301 851.637 169.301 872.262 162.426 872.262 162.426 851.637ZM169.301 879.137 169.301 899.762 162.426 899.762 162.426 879.137ZM169.301 906.637 169.301 927.262 162.426 927.262 162.426 906.637ZM169.301 934.137 169.301 954.762 162.426 954.762 162.426 934.137ZM169.301 961.637 169.301 982.262 162.426 982.262 162.426 961.637ZM169.301 989.137 169.301 1009.76 162.426 1009.76 162.426 989.137ZM169.301 1016.64 169.301 1037.26 162.426 1037.26 162.426 1016.64ZM169.301 1044.14 169.301 1064.76 162.426 1064.76 162.426 1044.14ZM169.301 1071.64 169.301 1092.26 162.426 1092.26 162.426 1071.64ZM169.301 1099.14 169.301 1119.76 162.426 1119.76 162.426 1099.14ZM169.301 1126.64 169.301 1147.26 162.426 1147.26 162.426 1126.64ZM169.301 1154.14 169.301 1161.03 165.863 1157.59 179.596 1157.59 179.596 1164.47 165.863 1164.47C163.965 1164.47 162.426 1162.93 162.426 1161.03L162.426 1154.14ZM186.471 1157.59 207.096 1157.59 207.096 1164.47 186.471 1164.47ZM213.971 1157.59 234.596 1157.59 234.596 1164.47 213.971 1164.47ZM241.471 1157.59 262.096 1157.59 262.096 1164.47 241.471 1164.47ZM268.971 1157.59 289.596 1157.59 289.596 1164.47 268.971 1164.47ZM296.471 1157.59 308.808 1157.59 308.808 1164.47 296.471 1164.47ZM304.225 1147.28 331.725 1161.03 304.225 1174.78Z" transform="matrix(1.83697e-16 1 1 -1.83697e-16 1009.5 1377.5)"/><path d="M1284.41 1342.06 1305.04 1342.06 1305.04 1348.94 1284.41 1348.94ZM1311.91 1342.06 1332.54 1342.06 1332.54 1348.94 1311.91 1348.94ZM1339.41 1342.06 1360.04 1342.06 1360.04 1348.94 1339.41 1348.94ZM1366.91 1342.06 1387.54 1342.06 1387.54 1348.94 1366.91 1348.94ZM1394.41 1342.06 1415.04 1342.06 1415.04 1348.94 1394.41 1348.94ZM1421.91 1342.06 1442.54 1342.06 1442.54 1348.94 1421.91 1348.94ZM1449.41 1342.06 1470.04 1342.06 1470.04 1348.94 1449.41 1348.94ZM1476.91 1342.06 1497.54 1342.06 1497.54 1348.94 1476.91 1348.94ZM1504.41 1342.06 1525.04 1342.06 1525.04 1348.94 1504.41 1348.94ZM1531.91 1342.06 1552.54 1342.06 1552.54 1348.94 1531.91 1348.94ZM1559.41 1342.06 1580.04 1342.06 1580.04 1348.94 1559.41 1348.94ZM1586.91 1342.06 1607.54 1342.06 1607.54 1348.94 1586.91 1348.94ZM1614.41 1342.06 1635.04 1342.06 1635.04 1348.94 1614.41 1348.94ZM1641.91 1342.06 1662.54 1342.06 1662.54 1348.94 1641.91 1348.94ZM1669.41 1342.06 1690.04 1342.06 1690.04 1348.94 1669.41 1348.94ZM1696.91 1342.06 1717.54 1342.06 1717.54 1348.94 1696.91 1348.94ZM1724.41 1342.06 1745.04 1342.06 1745.04 1348.94 1724.41 1348.94ZM1751.91 1342.06 1772.54 1342.06 1772.54 1348.94 1751.91 1348.94ZM1779.41 1342.06 1800.04 1342.06 1800.04 1348.94 1779.41 1348.94ZM1806.91 1342.06 1827.54 1342.06 1827.54 1348.94 1806.91 1348.94ZM1834.41 1342.06 1855.04 1342.06 1855.04 1348.94 1834.41 1348.94ZM1861.91 1342.06 1882.54 1342.06 1882.54 1348.94 1861.91 1348.94ZM1889.41 1342.06 1910.04 1342.06 1910.04 1348.94 1889.41 1348.94ZM1916.91 1342.06 1937.54 1342.06 1937.54 1348.94 1916.91 1348.94ZM1944.41 1342.06 1965.04 1342.06 1965.04 1348.94 1944.41 1348.94ZM1971.91 1342.06 1992.54 1342.06 1992.54 1348.94 1971.91 1348.94ZM1999.41 1342.06 2020.04 1342.06 2020.04 1348.94 1999.41 1348.94ZM2026.91 1342.06 2047.54 1342.06 2047.54 1348.94 2026.91 1348.94ZM2054.41 1342.06 2075.04 1342.06 2075.04 1348.94 2054.41 1348.94ZM2081.91 1342.06 2102.54 1342.06 2102.54 1348.94 2081.91 1348.94ZM2109.41 1342.06 2130.04 1342.06 2130.04 1348.94 2109.41 1348.94ZM2136.91 1342.06 2157.54 1342.06 2157.54 1348.94 2136.91 1348.94ZM2164.41 1342.06 2185.04 1342.06 2185.04 1348.94 2164.41 1348.94ZM2191.91 1342.06 2212.54 1342.06 2212.54 1348.94 2191.91 1348.94ZM2219.41 1342.06 2240.04 1342.06 2240.04 1348.94 2219.41 1348.94ZM2246.91 1342.06 2267.54 1342.06 2267.54 1348.94 2246.91 1348.94ZM2274.41 1342.06 2295.04 1342.06 2295.04 1348.94 2274.41 1348.94ZM2301.91 1342.06 2322.54 1342.06 2322.54 1348.94 2301.91 1348.94ZM2329.41 1342.06 2350.04 1342.06 2350.04 1348.94 2329.41 1348.94ZM2356.91 1342.06 2377.54 1342.06 2377.54 1348.94 2356.91 1348.94ZM2384.41 1342.06 2405.04 1342.06 2405.04 1348.94 2384.41 1348.94ZM2411.91 1342.06 2432.54 1342.06 2432.54 1348.94 2411.91 1348.94ZM2439.41 1342.06 2460.04 1342.06 2460.04 1348.94 2439.41 1348.94ZM2466.91 1342.06 2487.54 1342.06 2487.54 1348.94 2466.91 1348.94ZM2494.41 1342.06 2497.29 1342.06C2499.18 1342.06 2500.72 1343.6 2500.72 1345.5L2500.72 1363.25 2493.85 1363.25 2493.85 1345.5 2497.29 1348.94 2494.41 1348.94ZM2500.72 1370.13 2500.72 1390.75 2493.85 1390.75 2493.85 1370.13ZM2500.72 1397.63 2500.72 1418.25 2493.85 1418.25 2493.85 1397.63ZM2500.72 1425.13 2500.72 1445.75 2493.85 1445.75 2493.85 1425.13ZM2500.72 1452.63 2500.72 1473.25 2493.85 1473.25 2493.85 1452.63ZM2500.72 1480.13 2500.72 1500.75 2493.85 1500.75 2493.85 1480.13ZM2500.72 1507.63 2500.72 1528.25 2493.85 1528.25 2493.85 1507.63ZM2500.72 1535.13 2500.72 1555.75 2493.85 1555.75 2493.85 1535.13ZM2500.72 1562.63 2500.72 1583.25 2493.85 1583.25 2493.85 1562.63ZM2500.72 1590.13 2500.72 1610.75 2493.85 1610.75 2493.85 1590.13ZM2500.72 1617.63 2500.72 1638.25 2493.85 1638.25 2493.85 1617.63ZM2500.72 1645.13 2500.72 1665.75 2493.85 1665.75 2493.85 1645.13ZM2500.72 1672.63 2500.72 1693.25 2493.85 1693.25 2493.85 1672.63ZM2500.72 1700.13 2500.72 1720.75 2493.85 1720.75 2493.85 1700.13ZM2500.72 1727.63 2500.72 1742.46C2500.72 1744.35 2499.18 1745.89 2497.29 1745.89L2491.49 1745.89 2491.49 1739.02 2497.29 1739.02 2493.85 1742.46 2493.85 1727.63ZM2484.61 1745.89 2463.99 1745.89 2463.99 1739.02 2484.61 1739.02ZM2457.11 1745.89 2436.49 1745.89 2436.49 1739.02 2457.11 1739.02ZM2429.61 1745.89 2414.78 1745.89 2414.78 1739.02 2429.61 1739.02ZM1289 1359.25 1261.5 1345.5 1289 1331.75Z"/><text font-family="Cambria Math,Cambria Math_MSFontService,sans-serif" font-weight="400" font-size="50" transform="matrix(1 0 0 1 1990.05 1700)">⑥</text><text fill="#7F7F7F" font-family="Arial,Arial_MSFontService,sans-serif" font-weight="400" font-size="50" transform="matrix(1 0 0 1 2083.85 1519)">key</text><text fill="#7F7F7F" font-family="Arial,Arial_MSFontService,sans-serif" font-weight="400" font-size="50" transform="matrix(1 0 0 1 2330.72 1392)">MAC</text><text font-family="Arial,Arial_MSFontService,sans-serif" font-weight="700" font-size="55" transform="matrix(1 0 0 1 2676.46 1136)">Bounce</text><text font-family="Arial,Arial_MSFontService,sans-serif" font-weight="700" font-size="55" transform="matrix(1 0 0 1 2889.01 1136)">buffer</text><path d="M0-3.4375 20.625-3.4375 20.625 3.4375 0 3.4375ZM27.5-3.4375 48.125-3.4375 48.125 3.4375 27.5 3.4375ZM55-3.4375 75.625-3.4375 75.625 3.4375 55 3.4375ZM82.5-3.4375 103.125-3.4375 103.125 3.4375 82.5 3.4375ZM110-3.4375 130.625-3.4375 130.625 3.4375 110 3.4375ZM137.5-3.4375 158.125-3.4375 158.125 3.4375 137.5 3.4375ZM165-3.4375 185.625-3.4375 185.625 3.4375 165 3.4375ZM192.5-3.4375 213.125-3.4375 213.125 3.4375 192.5 3.4375ZM220-3.4375 240.625-3.4375 240.625 3.4375 220 3.4375ZM247.5-3.4375 268.125-3.4375 268.125 3.4375 247.5 3.4375ZM275-3.4375 295.625-3.4375 295.625 3.4375 275 3.4375ZM302.5-3.4375 323.125-3.4375 323.125 3.4375 302.5 3.4375ZM330-3.4375 350.625-3.4375 350.625 3.4375 330 3.4375ZM357.5-3.4375 378.125-3.4375 378.125 3.4375 357.5 3.4375ZM385-3.4375 405.625-3.4375 405.625 3.4375 385 3.4375ZM412.5-3.4375 433.125-3.4375 433.125 3.4375 412.5 3.4375ZM440-3.4375 460.625-3.4375 460.625 3.4375 440 3.4375ZM467.5-3.4375 488.125-3.4375 488.125 3.4375 467.5 3.4375ZM495-3.4375 515.625-3.4375 515.625 3.4375 495 3.4375ZM522.5-3.4375 543.125-3.4375 543.125 3.4375 522.5 3.4375ZM550-3.4375 570.625-3.4375 570.625 3.4375 550 3.4375ZM577.5-3.4375 598.125-3.4375 598.125 3.4375 577.5 3.4375ZM605-3.4375 625.501-3.4375C627.399-3.4375 628.939-1.89848 628.939 0L628.939 0.123967 622.064 0.123967 622.064 0 625.501 3.4375 605 3.4375ZM628.939 6.99897 628.939 27.624 622.064 27.624 622.064 6.99897ZM628.939 34.499 628.939 55.124 622.064 55.124 622.064 34.499ZM628.939 61.999 628.939 82.624 622.064 82.624 622.064 61.999ZM628.939 89.499 628.939 110.124 622.064 110.124 622.064 89.499ZM628.939 116.999 628.939 118.08 625.501 114.643 645.045 114.643 645.045 121.518 625.501 121.518C623.603 121.518 622.064 119.979 622.064 118.08L622.064 116.999ZM651.92 114.643 672.545 114.643 672.545 121.518 651.92 121.518ZM679.42 114.643 700.045 114.643 700.045 121.518 679.42 121.518ZM706.92 114.643 727.545 114.643 727.545 121.518 706.92 121.518ZM734.42 114.643 755.045 114.643 755.045 121.518 734.42 121.518ZM761.92 114.643 782.545 114.643 782.545 121.518 761.92 121.518ZM789.42 114.643 810.045 114.643 810.045 121.518 789.42 121.518ZM816.92 114.643 837.545 114.643 837.545 121.518 816.92 121.518ZM844.42 114.643 865.045 114.643 865.045 121.518 844.42 121.518ZM871.92 114.643 892.545 114.643 892.545 121.518 871.92 121.518ZM899.42 114.643 920.045 114.643 920.045 121.518 899.42 121.518ZM926.92 114.643 947.545 114.643 947.545 121.518 926.92 121.518ZM954.42 114.643 975.045 114.643 975.045 121.518 954.42 121.518ZM981.92 114.643 1002.54 114.643 1002.54 121.518 981.92 121.518ZM1009.42 114.643 1030.04 114.643 1030.04 121.518 1009.42 121.518ZM1036.92 114.643 1057.54 114.643 1057.54 121.518 1036.92 121.518ZM1064.42 114.643 1085.04 114.643 1085.04 121.518 1064.42 121.518ZM1091.92 114.643 1112.54 114.643 1112.54 121.518 1091.92 121.518ZM1119.42 114.643 1140.04 114.643 1140.04 121.518 1119.42 121.518ZM1146.92 114.643 1167.54 114.643 1167.54 121.518 1146.92 121.518ZM1174.42 114.643 1195.04 114.643 1195.04 121.518 1174.42 121.518ZM1201.92 114.643 1222.54 114.643 1222.54 121.518 1201.92 121.518ZM1223.5 104.33 1251 118.08 1223.5 131.83Z" transform="matrix(1 0 0 -1 1365.5 1234.58)"/><path d="M0-3.4375 20.625-3.4375 20.625 3.4375 0 3.4375ZM27.5-3.4375 48.125-3.4375 48.125 3.4375 27.5 3.4375ZM55-3.4375 75.625-3.4375 75.625 3.4375 55 3.4375ZM82.5-3.4375 103.125-3.4375 103.125 3.4375 82.5 3.4375ZM110-3.4375 130.625-3.4375 130.625 3.4375 110 3.4375ZM137.5-3.4375 158.125-3.4375 158.125 3.4375 137.5 3.4375ZM165-3.4375 165.785-3.4375C167.684-3.4375 169.223-1.89848 169.223 0L169.223 19.8396 162.348 19.8396 162.348 0 165.785 3.4375 165 3.4375ZM169.223 26.7146 169.223 47.3396 162.348 47.3396 162.348 26.7146ZM169.223 54.2146 169.223 74.8396 162.348 74.8396 162.348 54.2146ZM169.223 81.7146 169.223 102.34 162.348 102.34 162.348 81.7146ZM169.223 109.215 169.223 129.84 162.348 129.84 162.348 109.215ZM169.223 136.715 169.223 157.34 162.348 157.34 162.348 136.715ZM169.223 164.215 169.223 184.84 162.348 184.84 162.348 164.215ZM169.223 191.715 169.223 212.34 162.348 212.34 162.348 191.715ZM169.223 219.215 169.223 239.84 162.348 239.84 162.348 219.215ZM169.223 246.715 169.223 267.34 162.348 267.34 162.348 246.715ZM169.223 274.215 169.223 294.84 162.348 294.84 162.348 274.215ZM169.223 301.715 169.223 322.34 162.348 322.34 162.348 301.715ZM169.223 329.215 169.223 349.84 162.348 349.84 162.348 329.215ZM169.223 356.715 169.223 377.34 162.348 377.34 162.348 356.715ZM169.223 384.215 169.223 404.84 162.348 404.84 162.348 384.215ZM169.223 411.715 169.223 432.34 162.348 432.34 162.348 411.715ZM169.223 439.215 169.223 459.84 162.348 459.84 162.348 439.215ZM169.223 466.715 169.223 487.34 162.348 487.34 162.348 466.715ZM169.223 494.215 169.223 514.84 162.348 514.84 162.348 494.215ZM169.223 521.715 169.223 542.34 162.348 542.34 162.348 521.715ZM169.223 549.215 169.223 569.84 162.348 569.84 162.348 549.215ZM169.223 576.715 169.223 597.34 162.348 597.34 162.348 576.715ZM169.223 604.215 169.223 624.84 162.348 624.84 162.348 604.215ZM169.223 631.715 169.223 652.34 162.348 652.34 162.348 631.715ZM169.223 659.215 169.223 679.84 162.348 679.84 162.348 659.215ZM169.223 686.715 169.223 707.34 162.348 707.34 162.348 686.715ZM169.223 714.215 169.223 734.84 162.348 734.84 162.348 714.215ZM169.223 741.715 169.223 762.34 162.348 762.34 162.348 741.715ZM169.223 769.215 169.223 789.84 162.348 789.84 162.348 769.215ZM169.223 796.715 169.223 817.34 162.348 817.34 162.348 796.715ZM169.223 824.215 169.223 844.84 162.348 844.84 162.348 824.215ZM169.223 851.715 169.223 872.34 162.348 872.34 162.348 851.715ZM169.223 879.215 169.223 899.84 162.348 899.84 162.348 879.215ZM169.223 906.715 169.223 927.34 162.348 927.34 162.348 906.715ZM169.223 934.215 169.223 954.84 162.348 954.84 162.348 934.215ZM169.223 961.715 169.223 982.34 162.348 982.34 162.348 961.715ZM169.223 989.215 169.223 1009.84 162.348 1009.84 162.348 989.215ZM169.223 1016.71 169.223 1037.34 162.348 1037.34 162.348 1016.71ZM169.223 1044.21 169.223 1064.84 162.348 1064.84 162.348 1044.21ZM169.223 1071.71 169.223 1092.34 162.348 1092.34 162.348 1071.71ZM169.223 1099.21 169.223 1119.84 162.348 1119.84 162.348 1099.21ZM169.223 1126.71 169.223 1147.34 162.348 1147.34 162.348 1126.71ZM169.223 1154.21 169.223 1174.84 162.348 1174.84 162.348 1154.21ZM169.223 1181.71 169.223 1202.34 162.348 1202.34 162.348 1181.71ZM169.223 1209.21 169.223 1229.84 162.348 1229.84 162.348 1209.21ZM169.223 1236.71 169.223 1257.34 162.348 1257.34 162.348 1236.71ZM169.223 1264.21 169.223 1284.84 162.348 1284.84 162.348 1264.21ZM169.223 1291.71 169.223 1312.34 162.348 1312.34 162.348 1291.71ZM169.502 1312.06 190.127 1312.06 190.127 1318.94 169.502 1318.94ZM197.002 1312.06 198.71 1312.06 198.71 1318.94 197.002 1318.94ZM194.127 1301.75 221.627 1315.5 194.127 1329.25Z" transform="matrix(1.83697e-16 1 1 -1.83697e-16 1545.5 861.5)"/><path d="M1821.41 826.062 1842.04 826.062 1842.04 832.937 1821.41 832.937ZM1848.91 826.062 1869.54 826.062 1869.54 832.937 1848.91 832.937ZM1876.41 826.062 1897.04 826.062 1897.04 832.937 1876.41 832.937ZM1903.91 826.062 1924.54 826.062 1924.54 832.937 1903.91 832.937ZM1931.41 826.062 1952.04 826.062 1952.04 832.937 1931.41 832.937ZM1958.91 826.062 1979.54 826.062 1979.54 832.937 1958.91 832.937ZM1986.41 826.062 2007.04 826.062 2007.04 832.937 1986.41 832.937ZM2013.91 826.062 2034.54 826.062 2034.54 832.937 2013.91 832.937ZM2041.41 826.062 2062.04 826.062 2062.04 832.937 2041.41 832.937ZM2068.91 826.062 2089.54 826.062 2089.54 832.937 2068.91 832.937ZM2096.41 826.062 2117.04 826.062 2117.04 832.937 2096.41 832.937ZM2123.91 826.062 2144.54 826.062 2144.54 832.937 2123.91 832.937ZM2151.41 826.062 2172.04 826.062 2172.04 832.937 2151.41 832.937ZM2178.91 826.062 2199.54 826.062 2199.54 832.937 2178.91 832.937ZM2206.41 826.062 2227.04 826.062 2227.04 832.937 2206.41 832.937ZM2233.91 826.062 2254.54 826.062 2254.54 832.937 2233.91 832.937ZM2261.41 826.062 2282.04 826.062 2282.04 832.937 2261.41 832.937ZM2288.91 826.062 2309.54 826.062 2309.54 832.937 2288.91 832.937ZM2316.41 826.062 2337.04 826.062 2337.04 832.937 2316.41 832.937ZM2343.91 826.062 2364.54 826.062 2364.54 832.937 2343.91 832.937ZM2371.41 826.062 2392.04 826.062 2392.04 832.937 2371.41 832.937ZM2398.91 826.062 2419.54 826.062 2419.54 832.937 2398.91 832.937ZM2426.41 826.062 2447.04 826.062 2447.04 832.937 2426.41 832.937ZM2453.91 826.062 2474.54 826.062 2474.54 832.937 2453.91 832.937ZM2481.41 826.062 2502.04 826.062 2502.04 832.937 2481.41 832.937ZM2508.91 826.062 2529.54 826.062 2529.54 832.937 2508.91 832.937ZM2536.41 826.062 2557.04 826.062 2557.04 832.937 2536.41 832.937ZM2563.91 826.062 2584.54 826.062 2584.54 832.937 2563.91 832.937ZM2591.41 826.062 2612.04 826.062 2612.04 832.937 2591.41 832.937ZM2618.91 826.062 2639.54 826.062 2639.54 832.937 2618.91 832.937ZM2646.41 826.062 2667.04 826.062 2667.04 832.937 2646.41 832.937ZM2673.91 826.062 2694.54 826.062 2694.54 832.937 2673.91 832.937ZM2701.41 826.062 2722.04 826.062 2722.04 832.937 2701.41 832.937ZM2728.91 826.062 2749.54 826.062 2749.54 832.937 2728.91 832.937ZM2756.41 826.062 2777.04 826.062 2777.04 832.937 2756.41 832.937ZM2783.91 826.062 2804.54 826.062 2804.54 832.937 2783.91 832.937ZM2811.41 826.062 2832.04 826.062 2832.04 832.937 2811.41 832.937ZM2838.91 826.062 2859.54 826.062 2859.54 832.937 2838.91 832.937ZM2866.41 826.062 2887.04 826.062 2887.04 832.937 2866.41 832.937ZM2893.91 826.062 2914.54 826.062 2914.54 832.937 2893.91 832.937ZM2921.41 826.062 2942.04 826.062 2942.04 832.937 2921.41 832.937ZM2948.91 826.062 2969.54 826.062 2969.54 832.937 2948.91 832.937ZM2976.41 826.062 2997.04 826.062 2997.04 832.937 2976.41 832.937ZM3003.91 826.062 3024.54 826.062 3024.54 832.937 3003.91 832.937ZM3031.41 826.062 3052.04 826.062 3052.04 832.937 3031.41 832.937ZM3058.91 826.062 3079.54 826.062 3079.54 832.937 3058.91 832.937ZM3086.41 826.062 3107.04 826.062 3107.04 832.937 3086.41 832.937ZM3113.91 826.062 3134.54 826.062 3134.54 832.937 3113.91 832.937ZM3141.41 826.062 3162.04 826.062 3162.04 832.937 3141.41 832.937ZM3168.91 826.062 3188.91 826.062C3190.8 826.062 3192.34 827.601 3192.34 829.5L3192.34 830.133 3185.47 830.133 3185.47 829.5 3188.91 832.937 3168.91 832.937ZM3192.34 837.008 3192.34 857.633 3185.47 857.633 3185.47 837.008ZM3192.34 864.508 3192.34 885.133 3185.47 885.133 3185.47 864.508ZM3192.34 892.008 3192.34 912.633 3185.47 912.633 3185.47 892.008ZM3192.34 919.508 3192.34 940.133 3185.47 940.133 3185.47 919.508ZM3192.34 947.008 3192.34 967.633 3185.47 967.633 3185.47 947.008ZM3192.34 974.508 3192.34 995.133 3185.47 995.133 3185.47 974.508ZM3192.34 1002.01 3192.34 1022.63 3185.47 1022.63 3185.47 1002.01ZM3192.34 1029.51 3192.34 1050.13 3185.47 1050.13 3185.47 1029.51ZM3192.34 1057.01 3192.34 1077.63 3185.47 1077.63 3185.47 1057.01ZM3192.34 1084.51 3192.34 1105.13 3185.47 1105.13 3185.47 1084.51ZM3192.34 1112.01 3192.34 1116.36C3192.34 1118.26 3190.8 1119.8 3188.91 1119.8L3172.63 1119.8 3172.63 1112.92 3188.91 1112.92 3185.47 1116.36 3185.47 1112.01ZM3165.76 1119.8 3145.13 1119.8 3145.13 1112.92 3165.76 1112.92ZM3138.26 1119.8 3117.63 1119.8 3117.63 1112.92 3138.26 1112.92ZM3110.76 1119.8 3106.4 1119.8 3106.4 1112.92 3110.76 1112.92ZM1826 843.25 1798.5 829.5 1826 815.75Z"/><text font-family="Arial,Arial_MSFontService,sans-serif" font-weight="400" font-size="50" transform="matrix(1 0 0 1 1386.19 837)">…</text><text font-family="Arial,Arial_MSFontService,sans-serif" font-weight="400" font-size="50" transform="matrix(1 0 0 1 2709.63 1079)">…</text><text fill="#7F7F7F" font-family="Arial,Arial_MSFontService,sans-serif" font-weight="400" font-size="50" transform="matrix(1 0 0 1 2747.6 1006)">key</text><text fill="#7F7F7F" font-family="Arial,Arial_MSFontService,sans-serif" font-weight="400" font-size="50" transform="matrix(1 0 0 1 3032.18 876)">MAC</text><text font-family="Arial,Arial_MSFontService,sans-serif" font-weight="700" font-size="55" transform="matrix(1 0 0 1 3258.72 653)">Bounce</text><text font-family="Arial,Arial_MSFontService,sans-serif" font-weight="700" font-size="55" transform="matrix(1 0 0 1 3471.27 653)">buffer</text><path d="M0-3.4375 20.625-3.4375 20.625 3.4375 0 3.4375ZM27.5-3.4375 48.125-3.4375 48.125 3.4375 27.5 3.4375ZM55-3.4375 75.625-3.4375 75.625 3.4375 55 3.4375ZM82.5-3.4375 103.125-3.4375 103.125 3.4375 82.5 3.4375ZM110-3.4375 130.625-3.4375 130.625 3.4375 110 3.4375ZM137.5-3.4375 158.125-3.4375 158.125 3.4375 137.5 3.4375ZM165-3.4375 185.625-3.4375 185.625 3.4375 165 3.4375ZM192.5-3.4375 213.125-3.4375 213.125 3.4375 192.5 3.4375ZM220-3.4375 240.625-3.4375 240.625 3.4375 220 3.4375ZM247.5-3.4375 268.125-3.4375 268.125 3.4375 247.5 3.4375ZM275-3.4375 295.625-3.4375 295.625 3.4375 275 3.4375ZM302.5-3.4375 323.125-3.4375 323.125 3.4375 302.5 3.4375ZM330-3.4375 350.625-3.4375 350.625 3.4375 330 3.4375ZM357.5-3.4375 378.125-3.4375 378.125 3.4375 357.5 3.4375ZM385-3.4375 405.625-3.4375 405.625 3.4375 385 3.4375ZM412.5-3.4375 433.125-3.4375 433.125 3.4375 412.5 3.4375ZM440-3.4375 460.625-3.4375 460.625 3.4375 440 3.4375ZM467.5-3.4375 488.125-3.4375 488.125 3.4375 467.5 3.4375ZM495-3.4375 515.625-3.4375 515.625 3.4375 495 3.4375ZM522.5-3.4375 543.125-3.4375 543.125 3.4375 522.5 3.4375ZM550-3.4375 570.625-3.4375 570.625 3.4375 550 3.4375ZM577.5-3.4375 598.125-3.4375 598.125 3.4375 577.5 3.4375ZM605-3.4375 625.625-3.4375 625.625 3.4375 605 3.4375ZM632.5-3.4375 638.751-3.4375C640.649-3.4375 642.188-1.89848 642.188 0L642.188 14.3742 635.313 14.3742 635.313 0 638.751 3.4375 632.5 3.4375ZM642.188 21.2492 642.188 41.8742 635.313 41.8742 635.313 21.2492ZM642.188 48.7492 642.188 69.3742 635.313 69.3742 635.313 48.7492ZM642.188 76.2492 642.188 91.8597 638.751 88.4222 643.765 88.4222 643.765 95.2972 638.751 95.2972C636.852 95.2972 635.313 93.7582 635.313 91.8597L635.313 76.2492ZM650.64 88.4222 671.265 88.4222 671.265 95.2972 650.64 95.2972ZM678.14 88.4222 698.765 88.4222 698.765 95.2972 678.14 95.2972ZM705.64 88.4222 726.265 88.4222 726.265 95.2972 705.64 95.2972ZM733.14 88.4222 753.765 88.4222 753.765 95.2972 733.14 95.2972ZM760.64 88.4222 781.265 88.4222 781.265 95.2972 760.64 95.2972ZM788.14 88.4222 808.765 88.4222 808.765 95.2972 788.14 95.2972ZM815.64 88.4222 836.265 88.4222 836.265 95.2972 815.64 95.2972ZM843.14 88.4222 863.765 88.4222 863.765 95.2972 843.14 95.2972ZM870.64 88.4222 891.265 88.4222 891.265 95.2972 870.64 95.2972ZM898.14 88.4222 918.765 88.4222 918.765 95.2972 898.14 95.2972ZM925.64 88.4222 946.265 88.4222 946.265 95.2972 925.64 95.2972ZM953.14 88.4222 973.765 88.4222 973.765 95.2972 953.14 95.2972ZM980.64 88.4222 1001.27 88.4222 1001.27 95.2972 980.64 95.2972ZM1008.14 88.4222 1028.77 88.4222 1028.77 95.2972 1008.14 95.2972ZM1035.64 88.4222 1056.27 88.4222 1056.27 95.2972 1035.64 95.2972ZM1063.14 88.4222 1083.77 88.4222 1083.77 95.2972 1063.14 95.2972ZM1090.64 88.4222 1111.27 88.4222 1111.27 95.2972 1090.64 95.2972ZM1118.14 88.4222 1138.77 88.4222 1138.77 95.2972 1118.14 95.2972ZM1145.64 88.4222 1166.27 88.4222 1166.27 95.2972 1145.64 95.2972ZM1173.14 88.4222 1193.77 88.4222 1193.77 95.2972 1173.14 95.2972ZM1200.64 88.4222 1221.27 88.4222 1221.27 95.2972 1200.64 95.2972ZM1228.14 88.4222 1248.77 88.4222 1248.77 95.2972 1228.14 95.2972ZM1250 78.1097 1277.5 91.8597 1250 105.61Z" transform="matrix(1 0 0 -1 1921.5 725.36)"/><rect x="1471.5" y="396.5" width="169" height="64.0003" stroke="#000000" stroke-width="20.625" stroke-linejoin="round" stroke-miterlimit="10" fill="none"/><rect x="1640.5" y="396.5" width="168" height="65.0003" stroke="#000000" stroke-width="20.625" stroke-linejoin="round" stroke-miterlimit="10" fill="none"/><text font-family="Cambria Math,Cambria Math_MSFontService,sans-serif" font-weight="400" font-size="50" transform="matrix(1 0 0 1 1394.94 443)">⑤</text><text font-family="Cambria Math,Cambria Math_MSFontService,sans-serif" font-weight="400" font-size="50" transform="matrix(1 0 0 1 3271.6 596)">⑥</text><path d="M0-3.4375 20.625-3.4375 20.625 3.4375 0 3.4375ZM27.5-3.4375 48.125-3.4375 48.125 3.4375 27.5 3.4375ZM55-3.4375 69.665-3.4375C71.5635-3.4375 73.1025-1.89848 73.1025 0L73.1025 5.96001 66.2275 5.96001 66.2275 0 69.665 3.4375 55 3.4375ZM73.1025 12.835 73.1025 33.46 66.2275 33.46 66.2275 12.835ZM73.1025 40.335 73.1025 60.96 66.2275 60.96 66.2275 40.335ZM73.1025 67.835 73.1025 88.46 66.2275 88.46 66.2275 67.835ZM73.1025 95.335 73.1025 115.96 66.2275 115.96 66.2275 95.335ZM73.1025 122.835 73.1025 143.46 66.2275 143.46 66.2275 122.835ZM73.1025 150.335 73.1025 170.96 66.2275 170.96 66.2275 150.335ZM73.1025 177.835 73.1025 198.46 66.2275 198.46 66.2275 177.835ZM73.1025 205.335 73.1025 225.96 66.2275 225.96 66.2275 205.335ZM73.1025 232.835 73.1025 253.46 66.2275 253.46 66.2275 232.835ZM73.1025 260.335 73.1025 280.96 66.2275 280.96 66.2275 260.335ZM73.1025 287.835 73.1025 308.46 66.2275 308.46 66.2275 287.835ZM73.1025 315.335 73.1025 335.96 66.2275 335.96 66.2275 315.335ZM73.1025 342.835 73.1025 363.46 66.2275 363.46 66.2275 342.835ZM73.1025 370.335 73.1025 390.96 66.2275 390.96 66.2275 370.335ZM73.1025 397.835 73.1025 418.46 66.2275 418.46 66.2275 397.835ZM73.1025 425.335 73.1025 445.96 66.2275 445.96 66.2275 425.335ZM73.1025 452.835 73.1025 473.46 66.2275 473.46 66.2275 452.835ZM73.1025 480.335 73.1025 500.96 66.2275 500.96 66.2275 480.335ZM73.1025 507.835 73.1025 528.46 66.2275 528.46 66.2275 507.835ZM73.1025 535.335 73.1025 555.96 66.2275 555.96 66.2275 535.335ZM73.1025 562.835 73.1025 583.46 66.2275 583.46 66.2275 562.835ZM73.1025 590.335 73.1025 610.96 66.2275 610.96 66.2275 590.335ZM73.1025 617.835 73.1025 638.46 66.2275 638.46 66.2275 617.835ZM73.1025 645.335 73.1025 665.96 66.2275 665.96 66.2275 645.335ZM73.1025 672.835 73.1025 693.46 66.2275 693.46 66.2275 672.835ZM73.1025 700.335 73.1025 720.96 66.2275 720.96 66.2275 700.335ZM73.1025 727.835 73.1025 748.46 66.2275 748.46 66.2275 727.835ZM73.1025 755.335 73.1025 775.96 66.2275 775.96 66.2275 755.335ZM73.1025 782.835 73.1025 803.46 66.2275 803.46 66.2275 782.835ZM73.1025 810.335 73.1025 830.96 66.2275 830.96 66.2275 810.335ZM73.1025 837.835 73.1025 858.46 66.2275 858.46 66.2275 837.835ZM73.1025 865.335 73.1025 885.96 66.2275 885.96 66.2275 865.335ZM73.1025 892.835 73.1025 913.46 66.2275 913.46 66.2275 892.835ZM73.1025 920.335 73.1025 940.96 66.2275 940.96 66.2275 920.335ZM73.1025 947.835 73.1025 968.46 66.2275 968.46 66.2275 947.835ZM73.1025 975.335 73.1025 995.96 66.2275 995.96 66.2275 975.335ZM73.1025 1002.83 73.1025 1023.46 66.2275 1023.46 66.2275 1002.83ZM73.1025 1030.33 73.1025 1050.96 66.2275 1050.96 66.2275 1030.33ZM73.1025 1057.83 73.1025 1078.46 66.2275 1078.46 66.2275 1057.83ZM73.1025 1085.33 73.1025 1105.96 66.2275 1105.96 66.2275 1085.33ZM73.1025 1112.83 73.1025 1133.46 66.2275 1133.46 66.2275 1112.83ZM73.1025 1140.33 73.1025 1160.96 66.2275 1160.96 66.2275 1140.33ZM73.1025 1167.83 73.1025 1188.46 66.2275 1188.46 66.2275 1167.83ZM73.1025 1195.33 73.1025 1215.96 66.2275 1215.96 66.2275 1195.33ZM73.1025 1222.83 73.1025 1243.46 66.2275 1243.46 66.2275 1222.83ZM73.1025 1250.33 73.1025 1270.96 66.2275 1270.96 66.2275 1250.33ZM73.1025 1277.83 73.1025 1298.46 66.2275 1298.46 66.2275 1277.83ZM73.1025 1305.33 73.1025 1325.96 66.2275 1325.96 66.2275 1305.33ZM73.1025 1332.83 73.1025 1353.46 66.2275 1353.46 66.2275 1332.83ZM73.1025 1360.33 73.1025 1380.96 66.2275 1380.96 66.2275 1360.33ZM73.1025 1387.83 73.1025 1408.46 66.2275 1408.46 66.2275 1387.83ZM73.1025 1415.33 73.1025 1435.96 66.2275 1435.96 66.2275 1415.33ZM73.1025 1442.83 73.1025 1463.46 66.2275 1463.46 66.2275 1442.83ZM73.1025 1470.33 73.1025 1490.96 66.2275 1490.96 66.2275 1470.33ZM73.1025 1497.83 73.1025 1518.46 66.2275 1518.46 66.2275 1497.83ZM73.1025 1525.33 73.1025 1545.96 66.2275 1545.96 66.2275 1525.33ZM73.1025 1552.83 73.1025 1573.46 66.2275 1573.46 66.2275 1552.83ZM73.1025 1580.33 73.1025 1600.96 66.2275 1600.96 66.2275 1580.33ZM73.1025 1607.83 73.1025 1628.46 66.2275 1628.46 66.2275 1607.83ZM73.1025 1635.33 73.1025 1655.96 66.2275 1655.96 66.2275 1635.33ZM73.1025 1662.83 73.1025 1683.46 66.2275 1683.46 66.2275 1662.83ZM73.1025 1690.33 73.1025 1710.96 66.2275 1710.96 66.2275 1690.33ZM73.1025 1717.83 73.1025 1738.46 66.2275 1738.46 66.2275 1717.83ZM73.1025 1745.33 73.1025 1765.96 66.2275 1765.96 66.2275 1745.33ZM73.1025 1772.83 73.1025 1793.46 66.2275 1793.46 66.2275 1772.83ZM73.1025 1800.33 73.1025 1820.96 66.2275 1820.96 66.2275 1800.33ZM73.1025 1827.83 73.1025 1848.46 66.2275 1848.46 66.2275 1827.83ZM73.1025 1855.33 73.1025 1875.96 66.2275 1875.96 66.2275 1855.33ZM73.1025 1882.83 73.1025 1887.26 69.665 1883.82 85.8627 1883.82 85.8627 1890.7 69.665 1890.7C67.7665 1890.7 66.2275 1889.16 66.2275 1887.26L66.2275 1882.83ZM92.7377 1883.82 113.363 1883.82 113.363 1890.7 92.7377 1890.7ZM111.828 1873.51 139.328 1887.26 111.828 1901.01Z" transform="matrix(1.83697e-16 1 1 -1.83697e-16 1556.5 460.5)"/><path d="M1831.41 425.063 1852.03 425.063 1852.03 431.938 1831.41 431.938ZM1858.91 425.063 1879.53 425.063 1879.53 431.938 1858.91 431.938ZM1886.41 425.063 1907.03 425.063 1907.03 431.938 1886.41 431.938ZM1913.91 425.063 1934.53 425.063 1934.53 431.938 1913.91 431.938ZM1941.41 425.063 1962.03 425.063 1962.03 431.938 1941.41 431.938ZM1968.91 425.063 1989.53 425.063 1989.53 431.938 1968.91 431.938ZM1996.41 425.063 2017.03 425.063 2017.03 431.938 1996.41 431.938ZM2023.91 425.063 2044.53 425.063 2044.53 431.938 2023.91 431.938ZM2051.41 425.063 2072.03 425.063 2072.03 431.938 2051.41 431.938ZM2078.91 425.063 2099.53 425.063 2099.53 431.938 2078.91 431.938ZM2106.41 425.063 2127.03 425.063 2127.03 431.938 2106.41 431.938ZM2133.91 425.063 2154.53 425.063 2154.53 431.938 2133.91 431.938ZM2161.41 425.063 2182.03 425.063 2182.03 431.938 2161.41 431.938ZM2188.91 425.063 2209.53 425.063 2209.53 431.938 2188.91 431.938ZM2216.41 425.063 2237.03 425.063 2237.03 431.938 2216.41 431.938ZM2243.91 425.063 2264.53 425.063 2264.53 431.938 2243.91 431.938ZM2271.41 425.063 2292.03 425.063 2292.03 431.938 2271.41 431.938ZM2298.91 425.063 2319.53 425.063 2319.53 431.938 2298.91 431.938ZM2326.41 425.063 2347.03 425.063 2347.03 431.938 2326.41 431.938ZM2353.91 425.063 2374.53 425.063 2374.53 431.938 2353.91 431.938ZM2381.41 425.063 2402.03 425.063 2402.03 431.938 2381.41 431.938ZM2408.91 425.063 2429.53 425.063 2429.53 431.938 2408.91 431.938ZM2436.41 425.063 2457.03 425.063 2457.03 431.938 2436.41 431.938ZM2463.91 425.063 2484.53 425.063 2484.53 431.938 2463.91 431.938ZM2491.41 425.063 2512.03 425.063 2512.03 431.938 2491.41 431.938ZM2518.91 425.063 2539.53 425.063 2539.53 431.938 2518.91 431.938ZM2546.41 425.063 2567.03 425.063 2567.03 431.938 2546.41 431.938ZM2573.91 425.063 2594.53 425.063 2594.53 431.938 2573.91 431.938ZM2601.41 425.063 2622.03 425.063 2622.03 431.938 2601.41 431.938ZM2628.91 425.063 2649.53 425.063 2649.53 431.938 2628.91 431.938ZM2656.41 425.063 2677.03 425.063 2677.03 431.938 2656.41 431.938ZM2683.91 425.063 2704.53 425.063 2704.53 431.938 2683.91 431.938ZM2711.41 425.063 2732.03 425.063 2732.03 431.938 2711.41 431.938ZM2738.91 425.063 2759.53 425.063 2759.53 431.938 2738.91 431.938ZM2766.41 425.063 2787.03 425.063 2787.03 431.938 2766.41 431.938ZM2793.91 425.063 2814.53 425.063 2814.53 431.938 2793.91 431.938ZM2821.41 425.063 2842.03 425.063 2842.03 431.938 2821.41 431.938ZM2848.91 425.063 2869.53 425.063 2869.53 431.938 2848.91 431.938ZM2876.41 425.063 2897.03 425.063 2897.03 431.938 2876.41 431.938ZM2903.91 425.063 2924.53 425.063 2924.53 431.938 2903.91 431.938ZM2931.41 425.063 2952.03 425.063 2952.03 431.938 2931.41 431.938ZM2958.91 425.063 2979.53 425.063 2979.53 431.938 2958.91 431.938ZM2986.41 425.063 3007.03 425.063 3007.03 431.938 2986.41 431.938ZM3013.91 425.063 3034.53 425.063 3034.53 431.938 3013.91 431.938ZM3041.41 425.063 3062.03 425.063 3062.03 431.938 3041.41 431.938ZM3068.91 425.063 3089.53 425.063 3089.53 431.938 3068.91 431.938ZM3096.41 425.063 3117.03 425.063 3117.03 431.938 3096.41 431.938ZM3123.91 425.063 3144.53 425.063 3144.53 431.938 3123.91 431.938ZM3151.41 425.063 3172.03 425.063 3172.03 431.938 3151.41 431.938ZM3178.91 425.063 3199.53 425.063 3199.53 431.938 3178.91 431.938ZM3206.41 425.063 3227.03 425.063 3227.03 431.938 3206.41 431.938ZM3233.91 425.063 3254.53 425.063 3254.53 431.938 3233.91 431.938ZM3261.41 425.063 3282.03 425.063 3282.03 431.938 3261.41 431.938ZM3288.91 425.063 3309.53 425.063 3309.53 431.938 3288.91 431.938ZM3316.41 425.063 3337.03 425.063 3337.03 431.938 3316.41 431.938ZM3343.91 425.063 3364.53 425.063 3364.53 431.938 3343.91 431.938ZM3371.41 425.063 3392.03 425.063 3392.03 431.938 3371.41 431.938ZM3398.91 425.063 3419.53 425.063 3419.53 431.938 3398.91 431.938ZM3426.41 425.063 3447.03 425.063 3447.03 431.938 3426.41 431.938ZM3453.91 425.063 3474.53 425.063 3474.53 431.938 3453.91 431.938ZM3481.41 425.063 3502.03 425.063 3502.03 431.938 3481.41 431.938ZM3508.91 425.063 3529.53 425.063 3529.53 431.938 3508.91 431.938ZM3536.41 425.063 3557.03 425.063 3557.03 431.938 3536.41 431.938ZM3563.91 425.063 3584.53 425.063 3584.53 431.938 3563.91 431.938ZM3591.41 425.063 3612.03 425.063 3612.03 431.938 3591.41 431.938ZM3618.91 425.063 3639.53 425.063 3639.53 431.938 3618.91 431.938ZM3646.41 425.063 3667.03 425.063 3667.03 431.938 3646.41 431.938ZM3673.91 425.063 3694.53 425.063 3694.53 431.938 3673.91 431.938ZM3701.41 425.063 3722.03 425.063 3722.03 431.938 3701.41 431.938ZM3728.91 425.063 3749.53 425.063 3749.53 431.938 3728.91 431.938ZM3756.41 425.063 3770.5 425.063C3772.4 425.063 3773.94 426.602 3773.94 428.5L3773.94 435.03 3767.07 435.03 3767.07 428.5 3770.5 431.938 3756.41 431.938ZM3773.94 441.905 3773.94 462.53 3767.07 462.53 3767.07 441.905ZM3773.94 469.405 3773.94 490.03 3767.07 490.03 3767.07 469.405ZM3773.94 496.905 3773.94 517.53 3767.07 517.53 3767.07 496.905ZM3773.94 524.405 3773.94 545.03 3767.07 545.03 3767.07 524.405ZM3773.94 551.905 3773.94 572.53 3767.07 572.53 3767.07 551.905ZM3773.94 579.405 3773.94 600.03 3767.07 600.03 3767.07 579.405ZM3773.94 606.905 3773.94 627.53 3767.07 627.53 3767.07 606.905ZM3769.16 636.497 3748.53 636.497 3748.53 629.622 3769.16 629.622ZM3741.66 636.497 3721.03 636.497 3721.03 629.622 3741.66 629.622ZM3714.16 636.497 3693.53 636.497 3693.53 629.622 3714.16 629.622ZM1836 442.25 1808.5 428.5 1836 414.75Z"/><text fill="#7F7F7F" font-family="Arial,Arial_MSFontService,sans-serif" font-weight="400" font-size="50" transform="matrix(1 0 0 1 3074.94 500)">Root MHT key</text><text fill="#7F7F7F" font-family="Arial,Arial_MSFontService,sans-serif" font-weight="400" font-size="50" transform="matrix(1 0 0 1 3359.6 407)">Root MHT MAC</text><rect x="1636.5" y="288.5" width="169" height="63.9999" stroke="#A6A6A6" stroke-width="20.625" stroke-linejoin="round" stroke-miterlimit="10" fill="none"/><text font-family="Arial,Arial_MSFontService,sans-serif" font-weight="400" font-size="55" transform="matrix(1 0 0 1 2134.91 100)">derived key</text><rect x="1461.5" y="287.5" width="168" height="64.0003" stroke="#A6A6A6" stroke-width="20.625" stroke-linejoin="round" stroke-miterlimit="10" fill="none"/><text font-family="Arial,Arial_MSFontService,sans-serif" font-weight="400" font-size="55" transform="matrix(1 0 0 1 725.76 333)">random nonce</text><path d="M1090.5 311.063 1111.12 311.063 1111.12 317.938 1090.5 317.938ZM1118 311.063 1138.62 311.063 1138.62 317.938 1118 317.938ZM1145.5 311.063 1166.12 311.063 1166.12 317.938 1145.5 317.938ZM1173 311.063 1193.62 311.063 1193.62 317.938 1173 317.938ZM1200.5 311.063 1221.12 311.063 1221.12 317.938 1200.5 317.938ZM1228 311.063 1248.62 311.063 1248.62 317.938 1228 317.938ZM1255.5 311.063 1276.05 311.063C1277.95 311.063 1279.48 312.602 1279.48 314.5L1279.48 314.578 1272.61 314.578 1272.61 314.5 1276.05 317.938 1255.5 317.938ZM1277.82 316.246 1298.44 316.246 1298.44 323.121 1277.82 323.121ZM1305.32 316.246 1325.94 316.246 1325.94 323.121 1305.32 323.121ZM1332.82 316.246 1353.44 316.246 1353.44 323.121 1332.82 323.121ZM1360.32 316.246 1380.94 316.246 1380.94 323.121 1360.32 323.121ZM1387.82 316.246 1408.44 316.246 1408.44 323.121 1387.82 323.121ZM1415.32 316.246 1435.94 316.246 1435.94 323.121 1415.32 323.121ZM1434.09 305.934 1461.59 319.684 1434.09 333.434Z"/><text font-family="Cambria Math,Cambria Math_MSFontService,sans-serif" font-weight="400" font-size="50" transform="matrix(1 0 0 1 1219.1 293)">⑦</text><path d="M756.5 38.0626 777.125 38.0626 777.125 44.9376 756.5 44.9376ZM784 38.0626 804.625 38.0626 804.625 44.9376 784 44.9376ZM811.5 38.0626 832.125 38.0626 832.125 44.9376 811.5 44.9376ZM839 38.0626 859.625 38.0626 859.625 44.9376 839 44.9376ZM866.5 38.0626 887.125 38.0626 887.125 44.9376 866.5 44.9376ZM894 38.0626 914.625 38.0626 914.625 44.9376 894 44.9376ZM921.5 38.0626 942.125 38.0626 942.125 44.9376 921.5 44.9376ZM949 38.0626 969.625 38.0626 969.625 44.9376 949 44.9376ZM976.5 38.0626 997.125 38.0626 997.125 44.9376 976.5 44.9376ZM1004 38.0626 1024.63 38.0626 1024.63 44.9376 1004 44.9376ZM1031.5 38.0626 1052.13 38.0626 1052.13 44.9376 1031.5 44.9376ZM1059 38.0626 1079.63 38.0626 1079.63 44.9376 1059 44.9376ZM1086.5 38.0626 1107.13 38.0626 1107.13 44.9376 1086.5 44.9376ZM1114 38.0626 1134.63 38.0626 1134.63 44.9376 1114 44.9376ZM1141.5 38.0626 1162.13 38.0626 1162.13 44.9376 1141.5 44.9376ZM1169 38.0626 1189.63 38.0626 1189.63 44.9376 1169 44.9376ZM1196.5 38.0626 1217.13 38.0626 1217.13 44.9376 1196.5 44.9376ZM1224 38.0626 1244.63 38.0626 1244.63 44.9376 1224 44.9376ZM1251.5 38.0626 1272.13 38.0626 1272.13 44.9376 1251.5 44.9376ZM1279 38.0626 1299.63 38.0626 1299.63 44.9376 1279 44.9376ZM1306.5 38.0626 1327.13 38.0626 1327.13 44.9376 1306.5 44.9376ZM1334 38.0626 1354.63 38.0626 1354.63 44.9376 1334 44.9376ZM1361.5 38.0626 1382.13 38.0626 1382.13 44.9376 1361.5 44.9376ZM1389 38.0626 1409.63 38.0626 1409.63 44.9376 1389 44.9376ZM1416.21 45.2252 1416.21 65.8502 1409.34 65.8502 1409.34 45.2252ZM1416.21 72.7252 1416.21 80.501 1412.77 77.0635 1425.62 77.0635 1425.62 83.9385 1412.77 83.9385C1410.88 83.9385 1409.34 82.3995 1409.34 80.501L1409.34 72.7252ZM1432.5 77.0635 1453.12 77.0635 1453.12 83.9385 1432.5 83.9385ZM1460 77.0635 1480.62 77.0635 1480.62 83.9385 1460 83.9385ZM1487.5 77.0635 1508.12 77.0635 1508.12 83.9385 1487.5 83.9385ZM1515 77.0635 1535.62 77.0635 1535.62 83.9385 1515 83.9385ZM1542.5 77.0635 1563.12 77.0635 1563.12 83.9385 1542.5 83.9385ZM1570 77.0635 1590.62 77.0635 1590.62 83.9385 1570 83.9385ZM1597.5 77.0635 1618.12 77.0635 1618.12 83.9385 1597.5 83.9385ZM1625 77.0635 1645.62 77.0635 1645.62 83.9385 1625 83.9385ZM1652.5 77.0635 1673.12 77.0635 1673.12 83.9385 1652.5 83.9385ZM1680 77.0635 1700.62 77.0635 1700.62 83.9385 1680 83.9385ZM1707.5 77.0635 1728.12 77.0635 1728.12 83.9385 1707.5 83.9385ZM1735 77.0635 1755.62 77.0635 1755.62 83.9385 1735 83.9385ZM1762.5 77.0635 1783.12 77.0635 1783.12 83.9385 1762.5 83.9385ZM1790 77.0635 1810.62 77.0635 1810.62 83.9385 1790 83.9385ZM1817.5 77.0635 1838.12 77.0635 1838.12 83.9385 1817.5 83.9385ZM1845 77.0635 1865.62 77.0635 1865.62 83.9385 1845 83.9385ZM1872.5 77.0635 1893.12 77.0635 1893.12 83.9385 1872.5 83.9385ZM1900 77.0635 1920.62 77.0635 1920.62 83.9385 1900 83.9385ZM1927.5 77.0635 1948.12 77.0635 1948.12 83.9385 1927.5 83.9385ZM1955 77.0635 1975.62 77.0635 1975.62 83.9385 1955 83.9385ZM1982.5 77.0635 2003.12 77.0635 2003.12 83.9385 1982.5 83.9385ZM2010 77.0635 2030.62 77.0635 2030.62 83.9385 2010 83.9385ZM2037.5 77.0635 2046.13 77.0635 2046.13 83.9385 2037.5 83.9385ZM2041.55 66.751 2069.05 80.501 2041.55 94.251Z"/><path d="M898.063 280.529 898.063 259.904 904.938 259.904 904.938 280.529ZM898.063 253.029 898.063 232.404 904.938 232.404 904.938 253.029ZM898.063 225.529 898.063 204.904 904.938 204.904 904.938 225.529ZM898.063 198.029 898.063 177.404 904.938 177.404 904.938 198.029ZM898.063 170.529 898.063 149.904 904.938 149.904 904.938 170.529ZM898.063 143.029 898.063 122.404 904.938 122.404 904.938 143.029ZM906.471 117.063 927.096 117.063 927.096 123.938 906.471 123.938ZM933.971 117.063 954.596 117.063 954.596 123.938 933.971 123.938ZM961.471 117.063 982.096 117.063 982.096 123.938 961.471 123.938ZM988.971 117.063 1009.6 117.063 1009.6 123.938 988.971 123.938ZM1016.47 117.063 1037.1 117.063 1037.1 123.938 1016.47 123.938ZM1043.97 117.063 1064.6 117.063 1064.6 123.938 1043.97 123.938ZM1071.47 117.063 1092.1 117.063 1092.1 123.938 1071.47 123.938ZM1098.97 117.063 1119.6 117.063 1119.6 123.938 1098.97 123.938ZM1126.47 117.063 1147.1 117.063 1147.1 123.938 1126.47 123.938ZM1153.97 117.063 1174.6 117.063 1174.6 123.938 1153.97 123.938ZM1181.47 117.063 1202.1 117.063 1202.1 123.938 1181.47 123.938ZM1208.97 117.063 1229.6 117.063 1229.6 123.938 1208.97 123.938ZM1236.47 117.063 1257.1 117.063 1257.1 123.938 1236.47 123.938ZM1263.97 117.063 1284.6 117.063 1284.6 123.938 1263.97 123.938ZM1291.47 117.063 1312.1 117.063 1312.1 123.938 1291.47 123.938ZM1318.97 117.063 1339.6 117.063 1339.6 123.938 1318.97 123.938ZM1346.47 117.063 1367.1 117.063 1367.1 123.938 1346.47 123.938ZM1373.97 117.063 1394.6 117.063 1394.6 123.938 1373.97 123.938ZM1401.47 117.063 1422.1 117.063 1422.1 123.938 1401.47 123.938ZM1428.97 117.063 1449.6 117.063 1449.6 123.938 1428.97 123.938ZM1456.47 117.063 1477.1 117.063 1477.1 123.938 1456.47 123.938ZM1483.97 117.063 1504.6 117.063 1504.6 123.938 1483.97 123.938ZM1511.47 117.063 1532.1 117.063 1532.1 123.938 1511.47 123.938ZM1538.97 117.063 1559.6 117.063 1559.6 123.938 1538.97 123.938ZM1566.47 117.063 1587.1 117.063 1587.1 123.938 1566.47 123.938ZM1593.97 117.063 1614.6 117.063 1614.6 123.938 1593.97 123.938ZM1621.47 117.063 1642.1 117.063 1642.1 123.938 1621.47 123.938ZM1648.97 117.063 1669.6 117.063 1669.6 123.938 1648.97 123.938ZM1676.47 117.063 1697.1 117.063 1697.1 123.938 1676.47 123.938ZM1703.97 117.063 1724.6 117.063 1724.6 123.938 1703.97 123.938ZM1731.47 117.063 1752.1 117.063 1752.1 123.938 1731.47 123.938ZM1758.97 117.063 1779.6 117.063 1779.6 123.938 1758.97 123.938ZM1786.47 117.063 1807.1 117.063 1807.1 123.938 1786.47 123.938ZM1813.97 117.063 1834.6 117.063 1834.6 123.938 1813.97 123.938ZM1841.47 117.063 1862.1 117.063 1862.1 123.938 1841.47 123.938ZM1868.97 117.063 1889.6 117.063 1889.6 123.938 1868.97 123.938ZM1896.47 117.063 1917.1 117.063 1917.1 123.938 1896.47 123.938ZM1923.97 117.063 1944.6 117.063 1944.6 123.938 1923.97 123.938ZM1951.47 117.063 1972.1 117.063 1972.1 123.938 1951.47 123.938ZM1978.97 117.063 1999.6 117.063 1999.6 123.938 1978.97 123.938ZM2006.47 117.063 2027.1 117.063 2027.1 123.938 2006.47 123.938ZM2033.97 117.063 2046.53 117.063 2046.53 123.938 2033.97 123.938ZM2041.95 106.75 2069.45 120.5 2041.95 134.25Z"/><text font-family="Arial,Arial_MSFontService,sans-serif" font-weight="700" font-size="55" transform="matrix(1 0 0 1 3639.15 190)">Bounce</text><text font-family="Arial,Arial_MSFontService,sans-serif" font-weight="700" font-size="55" transform="matrix(1 0 0 1 3851.7 190)">buffer</text><path d="M0-3.4375 20.625-3.4375 20.625 3.4375 0 3.4375ZM27.5-3.4375 48.125-3.4375 48.125 3.4375 27.5 3.4375ZM55-3.4375 75.625-3.4375 75.625 3.4375 55 3.4375ZM82.5-3.4375 103.125-3.4375 103.125 3.4375 82.5 3.4375ZM110-3.4375 130.625-3.4375 130.625 3.4375 110 3.4375ZM137.5-3.4375 158.125-3.4375 158.125 3.4375 137.5 3.4375ZM165-3.4375 185.625-3.4375 185.625 3.4375 165 3.4375ZM192.5-3.4375 213.125-3.4375 213.125 3.4375 192.5 3.4375ZM220-3.4375 240.625-3.4375 240.625 3.4375 220 3.4375ZM247.5-3.4375 268.125-3.4375 268.125 3.4375 247.5 3.4375ZM275-3.4375 295.625-3.4375 295.625 3.4375 275 3.4375ZM302.5-3.4375 323.125-3.4375 323.125 3.4375 302.5 3.4375ZM330-3.4375 350.625-3.4375 350.625 3.4375 330 3.4375ZM357.5-3.4375 378.125-3.4375 378.125 3.4375 357.5 3.4375ZM385-3.4375 405.625-3.4375 405.625 3.4375 385 3.4375ZM412.5-3.4375 433.125-3.4375 433.125 3.4375 412.5 3.4375ZM440-3.4375 460.625-3.4375 460.625 3.4375 440 3.4375ZM467.5-3.4375 488.125-3.4375 488.125 3.4375 467.5 3.4375ZM495-3.4375 515.625-3.4375 515.625 3.4375 495 3.4375ZM522.5-3.4375 543.125-3.4375 543.125 3.4375 522.5 3.4375ZM550-3.4375 570.625-3.4375 570.625 3.4375 550 3.4375ZM577.5-3.4375 598.125-3.4375 598.125 3.4375 577.5 3.4375ZM605-3.4375 625.625-3.4375 625.625 3.4375 605 3.4375ZM632.5-3.4375 653.125-3.4375 653.125 3.4375 632.5 3.4375ZM660-3.4375 680.625-3.4375 680.625 3.4375 660 3.4375ZM687.5-3.4375 708.125-3.4375 708.125 3.4375 687.5 3.4375ZM715-3.4375 735.625-3.4375 735.625 3.4375 715 3.4375ZM742.5-3.4375 763.125-3.4375 763.125 3.4375 742.5 3.4375ZM770-3.4375 790.625-3.4375 790.625 3.4375 770 3.4375ZM797.5-3.4375 818.125-3.4375 818.125 3.4375 797.5 3.4375ZM825-3.4375 842.215-3.4375C844.113-3.4375 845.652-1.89848 845.652 0L845.652 3.41007 838.777 3.41007 838.777 0 842.215 3.4375 825 3.4375ZM845.652 10.2851 845.652 30.9101 838.777 30.9101 838.777 10.2851ZM845.652 37.7851 845.652 44.4298 842.215 40.9923 856.195 40.9923 856.195 47.8673 842.215 47.8673C840.316 47.8673 838.777 46.3283 838.777 44.4298L838.777 37.7851ZM863.07 40.9923 883.695 40.9923 883.695 47.8673 863.07 47.8673ZM890.57 40.9923 911.195 40.9923 911.195 47.8673 890.57 47.8673ZM918.07 40.9923 938.695 40.9923 938.695 47.8673 918.07 47.8673ZM945.57 40.9923 966.195 40.9923 966.195 47.8673 945.57 47.8673ZM973.07 40.9923 993.695 40.9923 993.695 47.8673 973.07 47.8673ZM1000.57 40.9923 1021.2 40.9923 1021.2 47.8673 1000.57 47.8673ZM1028.07 40.9923 1048.7 40.9923 1048.7 47.8673 1028.07 47.8673ZM1055.57 40.9923 1076.2 40.9923 1076.2 47.8673 1055.57 47.8673ZM1083.07 40.9923 1103.7 40.9923 1103.7 47.8673 1083.07 47.8673ZM1110.57 40.9923 1131.2 40.9923 1131.2 47.8673 1110.57 47.8673ZM1138.07 40.9923 1158.7 40.9923 1158.7 47.8673 1138.07 47.8673ZM1165.57 40.9923 1186.2 40.9923 1186.2 47.8673 1165.57 47.8673ZM1193.07 40.9923 1213.7 40.9923 1213.7 47.8673 1193.07 47.8673ZM1220.57 40.9923 1241.2 40.9923 1241.2 47.8673 1220.57 47.8673ZM1248.07 40.9923 1268.7 40.9923 1268.7 47.8673 1248.07 47.8673ZM1275.57 40.9923 1296.2 40.9923 1296.2 47.8673 1275.57 47.8673ZM1303.07 40.9923 1323.7 40.9923 1323.7 47.8673 1303.07 47.8673ZM1330.57 40.9923 1351.2 40.9923 1351.2 47.8673 1330.57 47.8673ZM1358.07 40.9923 1378.7 40.9923 1378.7 47.8673 1358.07 47.8673ZM1385.57 40.9923 1406.2 40.9923 1406.2 47.8673 1385.57 47.8673ZM1413.07 40.9923 1433.7 40.9923 1433.7 47.8673 1413.07 47.8673ZM1440.57 40.9923 1461.2 40.9923 1461.2 47.8673 1440.57 47.8673ZM1468.07 40.9923 1488.7 40.9923 1488.7 47.8673 1468.07 47.8673ZM1495.57 40.9923 1516.2 40.9923 1516.2 47.8673 1495.57 47.8673ZM1523.07 40.9923 1543.7 40.9923 1543.7 47.8673 1523.07 47.8673ZM1550.57 40.9923 1571.2 40.9923 1571.2 47.8673 1550.57 47.8673ZM1578.07 40.9923 1598.7 40.9923 1598.7 47.8673 1578.07 47.8673ZM1605.57 40.9923 1626.2 40.9923 1626.2 47.8673 1605.57 47.8673ZM1633.07 40.9923 1653.7 40.9923 1653.7 47.8673 1633.07 47.8673ZM1660.57 40.9923 1661.51 40.9923 1661.51 47.8673 1660.57 47.8673ZM1656.93 30.6798 1684.43 44.4298 1656.93 58.1798Z" transform="matrix(1 0 0 -1 1894.5 214.93)"/><path d="M2481.5 77.0624 2502.12 77.0624 2502.12 83.9374 2481.5 83.9374ZM2509 77.0624 2529.62 77.0624 2529.62 83.9374 2509 83.9374ZM2536.5 77.0624 2557.12 77.0624 2557.12 83.9374 2536.5 83.9374ZM2564 77.0624 2584.62 77.0624 2584.62 83.9374 2564 83.9374ZM2591.5 77.0624 2612.12 77.0624 2612.12 83.9374 2591.5 83.9374ZM2619 77.0624 2639.62 77.0624 2639.62 83.9374 2619 83.9374ZM2646.5 77.0624 2667.12 77.0624 2667.12 83.9374 2646.5 83.9374ZM2674 77.0624 2694.62 77.0624 2694.62 83.9374 2674 83.9374ZM2701.5 77.0624 2722.12 77.0624 2722.12 83.9374 2701.5 83.9374ZM2729 77.0624 2749.62 77.0624 2749.62 83.9374 2729 83.9374ZM2756.5 77.0624 2777.12 77.0624 2777.12 83.9374 2756.5 83.9374ZM2784 77.0624 2804.62 77.0624 2804.62 83.9374 2784 83.9374ZM2811.5 77.0624 2832.12 77.0624 2832.12 83.9374 2811.5 83.9374ZM2839 77.0624 2859.62 77.0624 2859.62 83.9374 2839 83.9374ZM2866.5 77.0624 2887.12 77.0624 2887.12 83.9374 2866.5 83.9374ZM2894 77.0624 2914.62 77.0624 2914.62 83.9374 2894 83.9374ZM2921.5 77.0624 2942.12 77.0624 2942.12 83.9374 2921.5 83.9374ZM2949 77.0624 2969.62 77.0624 2969.62 83.9374 2949 83.9374ZM2976.5 77.0624 2997.12 77.0624 2997.12 83.9374 2976.5 83.9374ZM3004 77.0624 3024.62 77.0624 3024.62 83.9374 3004 83.9374ZM3031.5 77.0624 3052.12 77.0624 3052.12 83.9374 3031.5 83.9374ZM3059 77.0624 3079.62 77.0624 3079.62 83.9374 3059 83.9374ZM3086.5 77.0624 3107.12 77.0624 3107.12 83.9374 3086.5 83.9374ZM3114 77.0624 3134.62 77.0624 3134.62 83.9374 3114 83.9374ZM3141.5 77.0624 3162.12 77.0624 3162.12 83.9374 3141.5 83.9374ZM3169 77.0624 3189.62 77.0624 3189.62 83.9374 3169 83.9374ZM3196.5 77.0624 3217.12 77.0624 3217.12 83.9374 3196.5 83.9374ZM3224 77.0624 3244.62 77.0624 3244.62 83.9374 3224 83.9374ZM3251.5 77.0624 3272.12 77.0624 3272.12 83.9374 3251.5 83.9374ZM3279 77.0624 3299.62 77.0624 3299.62 83.9374 3279 83.9374ZM3306.5 77.0624 3327.12 77.0624 3327.12 83.9374 3306.5 83.9374ZM3334 77.0624 3354.62 77.0624 3354.62 83.9374 3334 83.9374ZM3361.5 77.0624 3382.12 77.0624 3382.12 83.9374 3361.5 83.9374ZM3389 77.0624 3409.62 77.0624 3409.62 83.9374 3389 83.9374ZM3416.5 77.0624 3437.12 77.0624 3437.12 83.9374 3416.5 83.9374ZM3444 77.0624 3464.62 77.0624 3464.62 83.9374 3444 83.9374ZM3471.5 77.0624 3492.12 77.0624 3492.12 83.9374 3471.5 83.9374ZM3499 77.0624 3519.62 77.0624 3519.62 83.9374 3499 83.9374ZM3526.5 77.0624 3547.12 77.0624 3547.12 83.9374 3526.5 83.9374ZM3554 77.0624 3574.62 77.0624 3574.62 83.9374 3554 83.9374ZM3581.5 77.0624 3602.12 77.0624 3602.12 83.9374 3581.5 83.9374ZM3609 77.0624 3629.62 77.0624 3629.62 83.9374 3609 83.9374ZM3636.5 77.0624 3657.12 77.0624 3657.12 83.9374 3636.5 83.9374ZM3664 77.0624 3684.62 77.0624 3684.62 83.9374 3664 83.9374ZM3691.5 77.0624 3712.12 77.0624 3712.12 83.9374 3691.5 83.9374ZM3719 77.0624 3739.62 77.0624 3739.62 83.9374 3719 83.9374ZM3746.5 77.0624 3767.12 77.0624 3767.12 83.9374 3746.5 83.9374ZM3774 77.0624 3794.62 77.0624 3794.62 83.9374 3774 83.9374ZM3801.5 77.0624 3822.12 77.0624 3822.12 83.9374 3801.5 83.9374ZM3827.03 85.905 3827.03 106.53 3820.16 106.53 3820.16 85.905ZM3827.03 113.405 3827.03 114.181 3820.16 114.181 3820.16 113.405ZM3837.34 109.598 3823.59 137.098 3809.84 109.598Z"/><path d="M0 3.4375-20.625 3.4375-20.625-3.4375 0-3.4375ZM-27.5 3.4375-48.125 3.4375-48.125-3.4375-27.5-3.4375ZM-55 3.4375-75.625 3.4375-75.625-3.4375-55-3.4375ZM-79.0531 0.00942267-79.0531 20.6344-85.9281 20.6344-85.9281 0.00942267ZM-79.0531 27.5094-79.0531 48.1344-85.9281 48.1344-85.9281 27.5094ZM-79.0531 55.0094-79.0531 75.6344-85.9281 75.6344-85.9281 55.0094ZM-79.0531 82.5094-79.0531 103.134-85.9281 103.134-85.9281 82.5094ZM-79.0531 110.009-79.0531 130.634-85.9281 130.634-85.9281 110.009ZM-79.0531 137.509-79.0531 149.778-82.4906 146.34-74.1337 146.34-74.1337 153.215-82.4906 153.215C-84.3891 153.215-85.9281 151.676-85.9281 149.778L-85.9281 137.509ZM-67.2587 146.34-46.6337 146.34-46.6337 153.215-67.2587 153.215ZM-39.7587 146.34-19.1337 146.34-19.1337 153.215-39.7587 153.215ZM-12.2587 146.34 8.36629 146.34 8.36629 153.215-12.2587 153.215ZM15.2413 146.34 35.8663 146.34 35.8663 153.215 15.2413 153.215ZM42.7413 146.34 63.3663 146.34 63.3663 153.215 42.7413 153.215ZM70.2413 146.34 90.8663 146.34 90.8663 153.215 70.2413 153.215ZM97.7413 146.34 118.366 146.34 118.366 153.215 97.7413 153.215ZM125.241 146.34 145.866 146.34 145.866 153.215 125.241 153.215ZM152.741 146.34 173.366 146.34 173.366 153.215 152.741 153.215ZM180.241 146.34 200.866 146.34 200.866 153.215 180.241 153.215ZM207.741 146.34 228.366 146.34 228.366 153.215 207.741 153.215ZM235.241 146.34 255.866 146.34 255.866 153.215 235.241 153.215ZM262.741 146.34 283.366 146.34 283.366 153.215 262.741 153.215ZM290.241 146.34 310.866 146.34 310.866 153.215 290.241 153.215ZM317.741 146.34 338.366 146.34 338.366 153.215 317.741 153.215ZM345.241 146.34 365.866 146.34 365.866 153.215 345.241 153.215ZM372.741 146.34 393.366 146.34 393.366 153.215 372.741 153.215ZM400.241 146.34 420.866 146.34 420.866 153.215 400.241 153.215ZM427.741 146.34 448.366 146.34 448.366 153.215 427.741 153.215ZM455.241 146.34 475.866 146.34 475.866 153.215 455.241 153.215ZM482.741 146.34 503.366 146.34 503.366 153.215 482.741 153.215ZM510.241 146.34 530.866 146.34 530.866 153.215 510.241 153.215ZM537.741 146.34 558.366 146.34 558.366 153.215 537.741 153.215ZM565.241 146.34 585.866 146.34 585.866 153.215 565.241 153.215ZM592.741 146.34 613.366 146.34 613.366 153.215 592.741 153.215ZM620.241 146.34 640.866 146.34 640.866 153.215 620.241 153.215ZM647.741 146.34 668.366 146.34 668.366 153.215 647.741 153.215ZM675.241 146.34 695.866 146.34 695.866 153.215 675.241 153.215ZM702.741 146.34 723.366 146.34 723.366 153.215 702.741 153.215ZM730.241 146.34 750.866 146.34 750.866 153.215 730.241 153.215ZM757.741 146.34 778.366 146.34 778.366 153.215 757.741 153.215ZM785.241 146.34 805.866 146.34 805.866 153.215 785.241 153.215ZM812.741 146.34 833.366 146.34 833.366 153.215 812.741 153.215ZM840.241 146.34 860.866 146.34 860.866 153.215 840.241 153.215ZM867.741 146.34 888.366 146.34 888.366 153.215 867.741 153.215ZM895.241 146.34 915.866 146.34 915.866 153.215 895.241 153.215ZM922.741 146.34 943.366 146.34 943.366 153.215 922.741 153.215ZM950.241 146.34 970.866 146.34 970.866 153.215 950.241 153.215ZM977.741 146.34 998.366 146.34 998.366 153.215 977.741 153.215ZM1005.24 146.34 1025.87 146.34 1025.87 153.215 1005.24 153.215ZM1032.74 146.34 1053.37 146.34 1053.37 153.215 1032.74 153.215ZM1060.24 146.34 1080.87 146.34 1080.87 153.215 1060.24 153.215ZM1087.74 146.34 1108.37 146.34 1108.37 153.215 1087.74 153.215ZM1115.24 146.34 1135.87 146.34 1135.87 153.215 1115.24 153.215ZM1142.74 146.34 1163.37 146.34 1163.37 153.215 1142.74 153.215ZM1170.24 146.34 1190.87 146.34 1190.87 153.215 1170.24 153.215ZM1197.74 146.34 1218.37 146.34 1218.37 153.215 1197.74 153.215ZM1225.24 146.34 1245.87 146.34 1245.87 153.215 1225.24 153.215ZM1252.74 146.34 1273.37 146.34 1273.37 153.215 1252.74 153.215ZM1280.24 146.34 1300.87 146.34 1300.87 153.215 1280.24 153.215ZM1307.74 146.34 1328.37 146.34 1328.37 153.215 1307.74 153.215ZM1335.24 146.34 1355.87 146.34 1355.87 153.215 1335.24 153.215ZM1362.74 146.34 1383.37 146.34 1383.37 153.215 1362.74 153.215ZM1390.24 146.34 1410.87 146.34 1410.87 153.215 1390.24 153.215ZM1417.74 146.34 1438.37 146.34 1438.37 153.215 1417.74 153.215ZM1445.24 146.34 1465.87 146.34 1465.87 153.215 1445.24 153.215ZM1472.74 146.34 1493.37 146.34 1493.37 153.215 1472.74 153.215ZM1500.24 146.34 1520.87 146.34 1520.87 153.215 1500.24 153.215ZM1527.74 146.34 1548.37 146.34 1548.37 153.215 1527.74 153.215ZM1555.24 146.34 1575.87 146.34 1575.87 153.215 1555.24 153.215ZM1582.74 146.34 1603.37 146.34 1603.37 153.215 1582.74 153.215ZM1610.24 146.34 1630.87 146.34 1630.87 153.215 1610.24 153.215ZM1637.74 146.34 1658.37 146.34 1658.37 153.215 1637.74 153.215ZM1665.24 146.34 1685.87 146.34 1685.87 153.215 1665.24 153.215ZM1692.74 146.34 1713.37 146.34 1713.37 153.215 1692.74 153.215ZM1720.24 146.34 1740.87 146.34 1740.87 153.215 1720.24 153.215ZM1747.74 146.34 1768.37 146.34 1768.37 153.215 1747.74 153.215ZM1775.24 146.34 1795.87 146.34 1795.87 153.215 1775.24 153.215ZM1802.74 146.34 1823.37 146.34 1823.37 153.215 1802.74 153.215ZM1830.24 146.34 1850.87 146.34 1850.87 153.215 1830.24 153.215ZM1857.74 146.34 1878.37 146.34 1878.37 153.215 1857.74 153.215ZM1885.24 146.34 1905.87 146.34 1905.87 153.215 1885.24 153.215ZM1912.74 146.34 1933.37 146.34 1933.37 153.215 1912.74 153.215ZM1940.24 146.34 1960.87 146.34 1960.87 153.215 1940.24 153.215ZM1967.74 146.34 1988.37 146.34 1988.37 153.215 1967.74 153.215ZM1995.24 146.34 2015.87 146.34 2015.87 153.215 1995.24 153.215ZM2022.74 146.34 2043.37 146.34 2043.37 153.215 2022.74 153.215ZM2050.24 146.34 2070.87 146.34 2070.87 153.215 2050.24 153.215ZM2077.74 146.34 2098.37 146.34 2098.37 153.215 2077.74 153.215ZM2105.24 146.34 2125.87 146.34 2125.87 153.215 2105.24 153.215ZM2132.74 146.34 2153.37 146.34 2153.37 153.215 2132.74 153.215ZM2160.24 146.34 2180.87 146.34 2180.87 153.215 2160.24 153.215ZM2187.74 146.34 2208.37 146.34 2208.37 153.215 2187.74 153.215ZM2215.24 146.34 2235.87 146.34 2235.87 153.215 2215.24 153.215ZM2236.22 136.028 2263.72 149.778 2236.22 163.528Z" transform="matrix(-1 0 0 1 4069.22 170.5)"/><text font-family="Cambria Math,Cambria Math_MSFontService,sans-serif" font-weight="400" font-size="50" transform="matrix(1 0 0 1 1994.49 61)">⑧</text><text font-family="Cambria Math,Cambria Math_MSFontService,sans-serif" font-weight="400" font-size="50" transform="matrix(1 0 0 1 3656.35 137)">⑨</text><rect x="3450.5" y="1829.5" width="163" height="119" stroke="#A6A6A6" stroke-width="20.625" stroke-linejoin="round" stroke-miterlimit="10" fill="none"/><text font-family="Arial,Arial_MSFontService,sans-serif" font-weight="400" font-size="50" transform="matrix(1 0 0 1 3651.24 1878)">First 58 bytes of m</text><text font-family="Arial,Arial_MSFontService,sans-serif" font-weight="400" font-size="50" transform="matrix(1 0 0 1 4064.31 1878)">etadata </text><text font-family="Arial,Arial_MSFontService,sans-serif" font-weight="400" font-size="50" transform="matrix(1 0 0 1 3651.24 1939)">node are </text><text font-family="Arial,Arial_MSFontService,sans-serif" font-weight="400" font-size="50" transform="matrix(1 0 0 1 3863.79 1939)">stored </text><text font-family="Arial,Arial_MSFontService,sans-serif" font-weight="400" font-size="50" transform="matrix(1 0 0 1 4017.33 1939)">in plaintext</text><path d="M499.063 2319.49 499.063 2312.61 505.938 2312.61 505.938 2319.49ZM499.063 2305.74 499.063 2298.86 505.938 2298.86 505.938 2305.74ZM499.063 2291.99 499.063 2285.11 505.938 2285.11 505.938 2291.99ZM499.063 2278.24 499.063 2271.36 505.938 2271.36 505.938 2278.24ZM499.063 2264.49 499.063 2257.61 505.938 2257.61 505.938 2264.49ZM499.063 2250.74 499.063 2243.86 505.938 2243.86 505.938 2250.74ZM499.063 2236.99 499.063 2230.11 505.938 2230.11 505.938 2236.99ZM499.063 2223.24 499.063 2216.36 505.938 2216.36 505.938 2223.24ZM499.063 2209.49 499.063 2202.61 505.938 2202.61 505.938 2209.49ZM499.063 2195.74 499.063 2188.86 505.938 2188.86 505.938 2195.74ZM499.063 2181.99 499.063 2175.11 505.938 2175.11 505.938 2181.99ZM499.063 2168.24 499.063 2161.36 505.938 2161.36 505.938 2168.24ZM499.063 2154.49 499.063 2147.61 505.938 2147.61 505.938 2154.49ZM499.063 2140.74 499.063 2133.86 505.938 2133.86 505.938 2140.74ZM499.063 2126.99 499.063 2120.11 505.938 2120.11 505.938 2126.99ZM499.063 2113.24 499.063 2106.36 505.938 2106.36 505.938 2113.24ZM499.063 2099.49 499.063 2092.61 505.938 2092.61 505.938 2099.49ZM499.063 2085.74 499.063 2078.86 505.938 2078.86 505.938 2085.74ZM499.063 2071.99 499.063 2065.11 505.938 2065.11 505.938 2071.99ZM499.063 2058.24 499.063 2051.36 505.938 2051.36 505.938 2058.24ZM499.063 2044.49 499.063 2037.61 505.938 2037.61 505.938 2044.49ZM499.063 2030.74 499.063 2023.86 505.938 2023.86 505.938 2030.74ZM499.063 2016.99 499.063 2010.11 505.938 2010.11 505.938 2016.99ZM499.063 2003.24 499.063 1996.36 505.938 1996.36 505.938 2003.24ZM499.063 1989.49 499.063 1982.61 505.938 1982.61 505.938 1989.49ZM499.063 1975.74 499.063 1968.86 505.938 1968.86 505.938 1975.74ZM499.063 1961.99 499.063 1955.11 505.938 1955.11 505.938 1961.99ZM499.063 1948.24 499.063 1941.36 505.938 1941.36 505.938 1948.24ZM499.063 1934.49 499.063 1927.61 505.938 1927.61 505.938 1934.49ZM499.063 1920.74 499.063 1913.86 505.938 1913.86 505.938 1920.74ZM499.063 1906.99 499.063 1900.11 505.938 1900.11 505.938 1906.99ZM499.063 1893.24 499.063 1886.36 505.938 1886.36 505.938 1893.24ZM499.063 1879.49 499.063 1872.61 505.938 1872.61 505.938 1879.49ZM499.063 1865.74 499.063 1858.86 505.938 1858.86 505.938 1865.74ZM499.063 1851.99 499.063 1845.11 505.938 1845.11 505.938 1851.99ZM499.063 1838.24 499.063 1831.36 505.938 1831.36 505.938 1838.24ZM499.063 1824.49 499.063 1817.61 505.938 1817.61 505.938 1824.49ZM499.063 1810.74 499.063 1803.86 505.938 1803.86 505.938 1810.74ZM499.063 1796.99 499.063 1790.11 505.938 1790.11 505.938 1796.99ZM499.063 1783.24 499.063 1776.36 505.938 1776.36 505.938 1783.24ZM499.063 1769.49 499.063 1762.61 505.938 1762.61 505.938 1769.49ZM499.063 1755.74 499.063 1748.86 505.938 1748.86 505.938 1755.74ZM499.063 1741.99 499.063 1735.11 505.938 1735.11 505.938 1741.99ZM499.063 1728.24 499.063 1721.36 505.938 1721.36 505.938 1728.24ZM499.063 1714.49 499.063 1707.61 505.938 1707.61 505.938 1714.49ZM499.063 1700.74 499.063 1693.86 505.938 1693.86 505.938 1700.74ZM499.063 1686.99 499.063 1680.11 505.938 1680.11 505.938 1686.99ZM499.063 1673.24 499.063 1666.36 505.938 1666.36 505.938 1673.24ZM499.063 1659.49 499.063 1652.61 505.938 1652.61 505.938 1659.49ZM499.063 1645.74 499.063 1638.86 505.938 1638.86 505.938 1645.74ZM499.063 1631.99 499.063 1625.11 505.938 1625.11 505.938 1631.99ZM499.063 1618.24 499.063 1611.36 505.938 1611.36 505.938 1618.24ZM499.063 1604.49 499.063 1597.61 505.938 1597.61 505.938 1604.49ZM499.063 1590.74 499.063 1583.86 505.938 1583.86 505.938 1590.74ZM499.063 1576.99 499.063 1570.11 505.938 1570.11 505.938 1576.99ZM499.063 1563.24 499.063 1556.36 505.938 1556.36 505.938 1563.24ZM499.063 1549.49 499.063 1542.61 505.938 1542.61 505.938 1549.49ZM499.063 1535.74 499.063 1528.86 505.938 1528.86 505.938 1535.74ZM499.063 1521.99 499.063 1515.11 505.938 1515.11 505.938 1521.99ZM499.063 1508.24 499.063 1501.36 505.938 1501.36 505.938 1508.24ZM499.063 1494.49 499.063 1487.61 505.938 1487.61 505.938 1494.49ZM499.063 1480.74 499.063 1473.86 505.938 1473.86 505.938 1480.74ZM499.063 1466.99 499.063 1460.11 505.938 1460.11 505.938 1466.99ZM499.063 1453.24 499.063 1446.36 505.938 1446.36 505.938 1453.24ZM499.063 1439.49 499.063 1432.61 505.938 1432.61 505.938 1439.49ZM499.063 1425.74 499.063 1418.86 505.938 1418.86 505.938 1425.74ZM499.063 1411.99 499.063 1405.11 505.938 1405.11 505.938 1411.99ZM499.063 1398.24 499.063 1391.36 505.938 1391.36 505.938 1398.24ZM499.063 1384.49 499.063 1377.61 505.938 1377.61 505.938 1384.49ZM499.063 1370.74 499.063 1363.86 505.938 1363.86 505.938 1370.74ZM499.063 1356.99 499.063 1350.11 505.938 1350.11 505.938 1356.99ZM499.063 1343.24 499.063 1336.36 505.938 1336.36 505.938 1343.24ZM499.063 1329.49 499.063 1322.61 505.938 1322.61 505.938 1329.49ZM499.063 1315.74 499.063 1308.86 505.938 1308.86 505.938 1315.74ZM499.063 1301.99 499.063 1295.11 505.938 1295.11 505.938 1301.99ZM499.063 1288.24 499.063 1281.36 505.938 1281.36 505.938 1288.24ZM499.063 1274.49 499.063 1267.61 505.938 1267.61 505.938 1274.49ZM499.063 1260.74 499.063 1253.86 505.938 1253.86 505.938 1260.74ZM499.063 1246.99 499.063 1240.11 505.938 1240.11 505.938 1246.99ZM499.063 1233.24 499.063 1226.36 505.938 1226.36 505.938 1233.24ZM499.063 1219.49 499.063 1212.61 505.938 1212.61 505.938 1219.49ZM499.063 1205.74 499.063 1198.86 505.938 1198.86 505.938 1205.74ZM499.063 1191.99 499.063 1185.11 505.938 1185.11 505.938 1191.99ZM499.063 1178.24 499.063 1171.36 505.938 1171.36 505.938 1178.24ZM499.063 1164.49 499.063 1157.61 505.938 1157.61 505.938 1164.49ZM499.063 1150.74 499.063 1143.86 505.938 1143.86 505.938 1150.74ZM499.063 1136.99 499.063 1130.11 505.938 1130.11 505.938 1136.99ZM499.063 1123.24 499.063 1116.36 505.938 1116.36 505.938 1123.24ZM499.063 1109.49 499.063 1102.61 505.938 1102.61 505.938 1109.49ZM499.063 1095.74 499.063 1088.86 505.938 1088.86 505.938 1095.74ZM499.063 1081.99 499.063 1075.11 505.938 1075.11 505.938 1081.99ZM499.063 1068.24 499.063 1061.36 505.938 1061.36 505.938 1068.24ZM499.063 1054.49 499.063 1047.61 505.938 1047.61 505.938 1054.49ZM499.063 1040.74 499.063 1033.86 505.938 1033.86 505.938 1040.74ZM499.063 1026.99 499.063 1020.11 505.938 1020.11 505.938 1026.99ZM499.063 1013.24 499.063 1006.36 505.938 1006.36 505.938 1013.24ZM499.063 999.49 499.063 992.615 505.938 992.615 505.938 999.49ZM499.063 985.74 499.063 978.865 505.938 978.865 505.938 985.74ZM499.063 971.99 499.063 965.115 505.938 965.115 505.938 971.99ZM499.063 958.24 499.063 951.365 505.938 951.365 505.938 958.24ZM499.063 944.49 499.063 937.615 505.938 937.615 505.938 944.49ZM499.063 930.74 499.063 923.865 505.938 923.865 505.938 930.74ZM499.063 916.99 499.063 910.115 505.938 910.115 505.938 916.99ZM499.063 903.24 499.063 896.365 505.938 896.365 505.938 903.24ZM499.063 889.49 499.063 882.615 505.938 882.615 505.938 889.49ZM499.063 875.74 499.063 868.865 505.938 868.865 505.938 875.74ZM499.063 861.99 499.063 855.115 505.938 855.115 505.938 861.99ZM499.063 848.24 499.063 841.365 505.938 841.365 505.938 848.24ZM499.063 834.49 499.063 827.615 505.938 827.615 505.938 834.49ZM499.063 820.74 499.063 813.865 505.938 813.865 505.938 820.74ZM499.063 806.99 499.063 800.115 505.938 800.115 505.938 806.99ZM499.063 793.24 499.063 786.365 505.938 786.365 505.938 793.24ZM499.063 779.49 499.063 772.615 505.938 772.615 505.938 779.49ZM499.063 765.74 499.063 758.865 505.938 758.865 505.938 765.74ZM499.063 751.99 499.063 745.115 505.938 745.115 505.938 751.99ZM499.063 738.24 499.063 731.365 505.938 731.365 505.938 738.24ZM499.063 724.49 499.063 717.615 505.938 717.615 505.938 724.49ZM499.063 710.74 499.063 703.865 505.938 703.865 505.938 710.74ZM499.063 696.99 499.063 690.115 505.938 690.115 505.938 696.99ZM499.063 683.24 499.063 676.365 505.938 676.365 505.938 683.24ZM499.063 669.49 499.063 662.615 505.938 662.615 505.938 669.49ZM499.063 655.74 499.063 648.865 505.938 648.865 505.938 655.74ZM499.063 641.99 499.063 635.115 505.938 635.115 505.938 641.99ZM499.063 628.24 499.063 621.365 505.938 621.365 505.938 628.24ZM499.063 614.49 499.063 607.615 505.938 607.615 505.938 614.49ZM499.063 600.74 499.063 593.865 505.938 593.865 505.938 600.74ZM499.063 586.99 499.063 580.115 505.938 580.115 505.938 586.99ZM499.063 573.24 499.063 566.365 505.938 566.365 505.938 573.24ZM499.063 559.49 499.063 552.615 505.938 552.615 505.938 559.49ZM499.063 545.74 499.063 538.865 505.938 538.865 505.938 545.74ZM499.063 531.99 499.063 525.115 505.938 525.115 505.938 531.99ZM499.063 518.24 499.063 511.365 505.938 511.365 505.938 518.24ZM499.063 504.49 499.063 497.615 505.938 497.615 505.938 504.49ZM499.063 490.74 499.063 488.928C499.063 487.03 500.601 485.491 502.499 485.491L507.562 485.489 507.564 492.364 502.501 492.366 505.938 488.928 505.938 490.74ZM514.438 485.488 521.312 485.486 521.314 492.361 514.439 492.363ZM528.188 485.484 535.062 485.482 535.064 492.357 528.189 492.359ZM541.938 485.48 548.812 485.479 548.814 492.354 541.939 492.355ZM555.688 485.477 562.562 485.475 562.564 492.35 555.689 492.352ZM569.438 485.473 576.312 485.471 576.314 492.346 569.439 492.348ZM583.188 485.469 590.062 485.468 590.064 492.343 583.189 492.344ZM596.938 485.466 603.812 485.464 603.814 492.339 596.939 492.341ZM610.688 485.462 617.562 485.46 617.564 492.335 610.689 492.337ZM624.438 485.459 631.312 485.457 631.314 492.332 624.439 492.334ZM638.188 485.455 645.062 485.453 645.064 492.328 638.189 492.33ZM651.938 485.452 658.812 485.45 658.814 492.325 651.939 492.327ZM665.688 485.448 672.562 485.446 672.564 492.321 665.689 492.323ZM679.438 485.444 686.312 485.443 686.314 492.318 679.439 492.319ZM693.187 485.441 700.062 485.439 700.064 492.314 693.189 492.316ZM706.937 485.437 713.812 485.435 713.814 492.31 706.939 492.312ZM720.687 485.433 727.562 485.432 727.564 492.307 720.689 492.308ZM734.437 485.43 741.312 485.428 741.314 492.303 734.439 492.305ZM748.187 485.426 755.062 485.424 755.064 492.299 748.189 492.301ZM761.938 485.422 768.812 485.42 768.814 492.295 761.939 492.297ZM775.688 485.418 782.562 485.417 782.564 492.292 775.689 492.293ZM789.438 485.414 796.312 485.413 796.314 492.288 789.439 492.289ZM803.188 485.411 810.062 485.409 810.064 492.284 803.189 492.286ZM816.938 485.407 823.812 485.405 823.814 492.28 816.939 492.282ZM830.688 485.403 837.562 485.401 837.564 492.276 830.689 492.278ZM844.438 485.399 851.312 485.398 851.314 492.273 844.439 492.274ZM858.188 485.396 865.062 485.394 865.064 492.269 858.189 492.271ZM871.938 485.392 878.812 485.39 878.814 492.265 871.939 492.267ZM885.687 485.388 892.562 485.386 892.564 492.261 885.689 492.263ZM899.437 485.384 906.312 485.382 906.314 492.257 899.439 492.259ZM913.187 485.38 920.062 485.379 920.064 492.254 913.189 492.255ZM926.937 485.377 933.812 485.375 933.814 492.25 926.939 492.252ZM940.687 485.373 947.562 485.371 947.564 492.246 940.689 492.248ZM954.437 485.369 961.312 485.367 961.314 492.242 954.439 492.244ZM968.187 485.365 975.062 485.363 975.064 492.238 968.189 492.24ZM981.937 485.361 988.812 485.36 988.814 492.235 981.939 492.236ZM995.687 485.358 1002.56 485.356 1002.56 492.231 995.689 492.233ZM1009.44 485.354 1016.31 485.352 1016.31 492.227 1009.44 492.229ZM1023.19 485.35 1030.06 485.348 1030.06 492.223 1023.19 492.225ZM1036.94 485.346 1043.81 485.344 1043.81 492.219 1036.94 492.221ZM1050.69 485.343 1057.56 485.341 1057.56 492.216 1050.69 492.218ZM1064.44 485.339 1071.31 485.337 1071.31 492.212 1064.44 492.214ZM1078.19 485.335 1085.06 485.333 1085.06 492.208 1078.19 492.21ZM1091.94 485.331 1098.81 485.329 1098.81 492.204 1091.94 492.206ZM1105.69 485.327 1112.56 485.326 1112.56 492.201 1105.69 492.202ZM1119.44 485.323 1126.31 485.322 1126.31 492.197 1119.44 492.198ZM1133.19 485.32 1140.06 485.318 1140.06 492.193 1133.19 492.195ZM1146.94 485.316 1153.81 485.314 1153.81 492.189 1146.94 492.191ZM1160.69 485.312 1167.56 485.31 1167.56 492.185 1160.69 492.187ZM1174.44 485.308 1181.31 485.307 1181.31 492.182 1174.44 492.183ZM1188.19 485.305 1195.06 485.303 1195.06 492.178 1188.19 492.18ZM1201.94 485.301 1208.81 485.299 1208.81 492.174 1201.94 492.176ZM1215.69 485.297 1222.56 485.295 1222.56 492.17 1215.69 492.172ZM1229.44 485.293 1236.31 485.291 1236.31 492.166 1229.44 492.168ZM1243.19 485.289 1250.06 485.288 1250.06 492.163 1243.19 492.164ZM1256.94 485.286 1263.81 485.284 1263.81 492.159 1256.94 492.161ZM1270.69 485.282 1277.56 485.28 1277.56 492.155 1270.69 492.157ZM1284.44 485.278 1291.31 485.276 1291.31 492.151 1284.44 492.153ZM1298.19 485.274 1305.06 485.272 1305.06 492.147 1298.19 492.149ZM1311.94 485.271 1318.81 485.269 1318.81 492.144 1311.94 492.146ZM1325.69 485.267 1332.56 485.265 1332.56 492.14 1325.69 492.142ZM1339.44 485.263 1346.31 485.261 1346.31 492.136 1339.44 492.138ZM1353.19 485.259 1360.06 485.257 1360.06 492.132 1353.19 492.134ZM1366.94 485.255 1373.81 485.254 1373.81 492.129 1366.94 492.13ZM1371.05 475.197 1399.22 487.5 1372.48 502.66Z"/><rect x="3375" y="2233" width="881" height="133" fill="#FFFFFF"/><text font-family="Arial,Arial_MSFontService,sans-serif" font-style="italic" font-weight="400" font-size="55" transform="matrix(1 0 0 1 3686.46 2286)">Case of file size &gt; 3KB:</text><text font-family="Arial,Arial_MSFontService,sans-serif" font-style="italic" font-weight="400" font-size="55" transform="matrix(1 0 0 1 3795.89 2352)">Encrypting new file</text><rect x="3450.5" y="1995.5" width="163" height="119" stroke="#000000" stroke-width="20.625" stroke-linejoin="round" stroke-miterlimit="10" fill="none"/><text font-family="Arial,Arial_MSFontService,sans-serif" font-weight="400" font-size="50" transform="matrix(1 0 0 1 3650.72 2037)">Rest of m</text><text font-family="Arial,Arial_MSFontService,sans-serif" font-weight="400" font-size="50" transform="matrix(1 0 0 1 3865.56 2037)">etadata </text><text font-family="Arial,Arial_MSFontService,sans-serif" font-weight="400" font-size="50" transform="matrix(1 0 0 1 4047.18 2037)">node </text><text font-family="Arial,Arial_MSFontService,sans-serif" font-weight="400" font-size="50" transform="matrix(1 0 0 1 4173.22 2037)">and </text><text font-family="Arial,Arial_MSFontService,sans-serif" font-weight="400" font-size="50" transform="matrix(1 0 0 1 3650.72 2098)">MHT/data nodes encrypted</text><text fill="#7F7F7F" font-family="Arial,Arial_MSFontService,sans-serif" font-weight="400" font-size="50" transform="matrix(1 0 0 1 3769.55 308)">Metadata MAC</text></g></svg>