<svg width="4535" height="2449" xmlns="http://www.w3.org/2000/svg" xmlns:xlink="http://www.w3.org/1999/xlink" xml:space="preserve" overflow="hidden"><g transform="translate(3 -16)"><rect x="2218.5" y="464.5" width="2030" height="777" stroke="#000000" stroke-width="9.16667" stroke-linejoin="round" stroke-miterlimit="10" fill="#FFDBCC"/><text font-family="Arial,Arial_MSFontService,sans-serif" font-weight="400" font-size="55" transform="matrix(1 0 0 1 2754.2 534)">#0: Metadata node (header in plaintext)</text><rect x="104.5" y="505.5" width="741" height="124" stroke="#000000" stroke-width="9.16667" stroke-linejoin="round" stroke-miterlimit="10" fill="none"/><text font-family="Consolas,Consolas_MSFontService,sans-serif" font-weight="400" font-size="55" transform="matrix(1 0 0 1 231.639 586)">host_file_handle</text><rect x="104.5" y="629.5" width="741" height="125" stroke="#000000" stroke-width="9.16667" stroke-linejoin="round" stroke-miterlimit="10" fill="none"/><text font-family="Consolas,Consolas_MSFontService,sans-serif" font-weight="400" font-size="55" transform="matrix(1 0 0 1 429.009 710)">kdk</text><rect x="104.5" y="754.5" width="741" height="125" stroke="#000000" stroke-width="9.16667" stroke-linejoin="round" stroke-miterlimit="10" fill="none"/><text font-family="Consolas,Consolas_MSFontService,sans-serif" font-weight="400" font-size="55" transform="matrix(1 0 0 1 216.457 835)">mode = READ|WRITE</text><rect x="104.5" y="877.5" width="741" height="125" stroke="#000000" stroke-width="9.16667" stroke-linejoin="round" stroke-miterlimit="10" fill="none"/><text font-family="Consolas,Consolas_MSFontService,sans-serif" font-weight="400" font-size="55" transform="matrix(1 0 0 1 277.186 959)">metadata_node</text><rect x="104.5" y="1002.5" width="741" height="124" stroke="#000000" stroke-width="9.16667" stroke-linejoin="round" stroke-miterlimit="10" fill="none"/><text font-family="Consolas,Consolas_MSFontService,sans-serif" font-weight="400" font-size="55" transform="matrix(1 0 0 1 201.274 1083)">metadata_decrypted</text><rect x="104.5" y="1126.5" width="741" height="125" stroke="#000000" stroke-width="9.16667" stroke-linejoin="round" stroke-miterlimit="10" fill="none"/><text font-family="Consolas,Consolas_MSFontService,sans-serif" font-weight="400" font-size="55" transform="matrix(1 0 0 1 277.186 1208)">root_mht_node</text><text font-family="Arial,Arial_MSFontService,sans-serif" font-weight="400" font-size="46" transform="matrix(1 0 0 1 3615.54 113)">Glossary:</text><text font-family="Arial,Arial_MSFontService,sans-serif" font-weight="400" font-size="46" transform="matrix(1 0 0 1 3615.54 168)">•</text><text font-family="Arial,Arial_MSFontService,sans-serif" font-weight="400" font-size="46" transform="matrix(1 0 0 1 3677.41 168)">KDK = Key Derivation Key</text><text font-family="Arial,Arial_MSFontService,sans-serif" font-weight="400" font-size="46" transform="matrix(1 0 0 1 3615.54 223)">•</text><text font-family="Arial,Arial_MSFontService,sans-serif" font-weight="400" font-size="46" transform="matrix(1 0 0 1 3677.41 223)">MHT = Merkle Hash Tree</text><text font-family="Arial,Arial_MSFontService,sans-serif" font-weight="400" font-size="46" transform="matrix(1 0 0 1 3615.54 278)">•</text><text font-family="Arial,Arial_MSFontService,sans-serif" font-weight="400" font-size="46" transform="matrix(1 0 0 1 3677.41 278)">KDF = Key Derivation Function</text><path d="M0-6.875 110-6.875 110 6.875 0 6.875ZM117.516 40.6087 117.516 150.609 103.766 150.609 103.766 40.6087ZM117.516 191.859 117.516 301.859 103.766 301.859 103.766 191.859ZM117.516 343.109 117.516 453.109 103.766 453.109 103.766 343.109ZM117.516 494.359 117.516 604.359 103.766 604.359 103.766 494.359ZM117.516 645.609 117.516 755.609 103.766 755.609 103.766 645.609ZM117.516 796.859 117.516 906.859 103.766 906.859 103.766 796.859ZM117.516 948.109 117.516 1058.11 103.766 1058.11 103.766 948.109ZM117.516 1099.36 117.516 1209.36 103.766 1209.36 103.766 1099.36ZM117.516 1250.61 117.516 1360.61 103.766 1360.61 103.766 1250.61ZM131.266 1391.9 110.641 1433.15 90.0163 1391.9Z" transform="matrix(-1.83697e-16 -1 -1 1.83697e-16 3232.15 464.642)"/><rect x="2258.5" y="658.5" width="444" height="124" stroke="#000000" stroke-width="9.16667" stroke-linejoin="round" stroke-miterlimit="10" fill="none"/><text font-family="Consolas,Consolas_MSFontService,sans-serif" font-weight="400" font-size="55" transform="matrix(1 0 0 1 2328.09 739)">“GRAFS_PF”</text><rect x="2702.5" y="659.5" width="217" height="124" stroke="#000000" stroke-width="9.16667" stroke-linejoin="round" stroke-miterlimit="10" fill="none"/><text font-family="Consolas,Consolas_MSFontService,sans-serif" font-weight="400" font-size="55" transform="matrix(1 0 0 1 2749.56 740)">0x01</text><rect x="2919.5" y="659.5" width="216" height="124" stroke="#000000" stroke-width="9.16667" stroke-linejoin="round" stroke-miterlimit="10" fill="none"/><text font-family="Consolas,Consolas_MSFontService,sans-serif" font-weight="400" font-size="55" transform="matrix(1 0 0 1 2966.12 740)">0x00</text><rect x="3136" y="659" width="383" height="124" stroke="#000000" stroke-width="13.75" stroke-linejoin="round" stroke-miterlimit="10" fill="none"/><text font-family="Consolas,Consolas_MSFontService,sans-serif" font-weight="400" font-size="55" transform="matrix(1 0 0 1 3190.95 740)">KDF nonce</text><rect x="3519" y="659" width="307" height="124" stroke="#000000" stroke-width="13.75" stroke-linejoin="round" stroke-miterlimit="10" fill="none"/><text font-family="Consolas,Consolas_MSFontService,sans-serif" font-weight="400" font-size="55" transform="matrix(1 0 0 1 3627.13 740)">MAC</text><text fill="#7F7F7F" font-family="Arial,Arial_MSFontService,sans-serif" font-weight="700" font-size="46" transform="matrix(1 0 0 1 2244.83 653)">0</text><text fill="#7F7F7F" font-family="Arial,Arial_MSFontService,sans-serif" font-weight="700" font-size="46" transform="matrix(1 0 0 1 2689.41 654)">7</text><text fill="#7F7F7F" font-family="Arial,Arial_MSFontService,sans-serif" font-weight="700" font-size="46" transform="matrix(1 0 0 1 2905.97 652)">8</text><text fill="#7F7F7F" font-family="Arial,Arial_MSFontService,sans-serif" font-weight="700" font-size="46" transform="matrix(1 0 0 1 3121.84 653)">9</text><text fill="#7F7F7F" font-family="Arial,Arial_MSFontService,sans-serif" font-weight="700" font-size="46" transform="matrix(1 0 0 1 3494.08 647)">41</text><text fill="#7F7F7F" font-family="Arial,Arial_MSFontService,sans-serif" font-weight="700" font-size="46" transform="matrix(1 0 0 1 3800.86 647)">57</text><rect x="2265.5" y="859.5" width="747" height="125" stroke="#000000" stroke-width="9.16667" stroke-linejoin="round" stroke-miterlimit="10" fill="none"/><text font-family="Consolas,Consolas_MSFontService,sans-serif" font-weight="400" font-size="55" transform="matrix(1 0 0 1 2365.4 941)">encrypted metadata</text><path d="M3883.64 922.646 3904.27 922.646 3904.27 929.521 3883.64 929.521ZM3911.14 922.646 3931.77 922.646 3931.77 929.521 3911.14 929.521ZM3938.64 922.646 3959.27 922.646 3959.27 929.521 3938.64 929.521ZM3966.14 922.646 3986.77 922.646 3986.77 929.521 3966.14 929.521ZM3993.64 922.646 4014.27 922.646 4014.27 929.521 3993.64 929.521ZM4021.14 922.646 4041.77 922.646 4041.77 929.521 4021.14 929.521ZM4048.64 922.646 4065.75 922.646 4062.31 926.083 4062.31 922.562 4069.18 922.562 4069.18 926.083C4069.18 927.982 4067.64 929.521 4065.75 929.521L4048.64 929.521ZM4062.31 915.687 4062.31 895.062 4069.18 895.062 4069.18 915.687ZM4062.31 888.187 4062.31 867.562 4069.18 867.562 4069.18 888.187ZM4062.31 860.687 4062.31 840.062 4069.18 840.062 4069.18 860.687ZM4062.31 833.187 4062.31 812.562 4069.18 812.562 4069.18 833.187ZM4062.31 805.687 4062.31 785.062 4069.18 785.062 4069.18 805.687ZM4062.31 778.187 4062.31 757.562 4069.18 757.562 4069.18 778.187ZM4062.31 750.687 4062.31 730.062 4069.18 730.062 4069.18 750.687ZM4062.31 723.187 4062.31 702.562 4069.18 702.562 4069.18 723.187ZM4062.31 695.687 4062.31 675.062 4069.18 675.062 4069.18 695.687ZM4062.31 668.187 4062.31 647.562 4069.18 647.562 4069.18 668.187ZM4062.31 640.687 4062.31 620.062 4069.18 620.062 4069.18 640.687ZM4062.31 613.187 4062.31 592.562 4069.18 592.562 4069.18 613.187ZM4062.31 585.687 4062.31 577.001 4065.75 580.438 4053.81 580.438 4053.81 573.563 4065.75 573.563C4067.64 573.563 4069.18 575.102 4069.18 577.001L4069.18 585.687ZM4046.93 580.438 4026.31 580.438 4026.31 573.563 4046.93 573.563ZM4019.43 580.438 3998.81 580.438 3998.81 573.563 4019.43 573.563ZM3991.93 580.438 3971.31 580.438 3971.31 573.563 3991.93 573.563ZM3964.43 580.438 3943.81 580.438 3943.81 573.563 3964.43 573.563ZM3936.93 580.438 3916.31 580.438 3916.31 573.563 3936.93 573.563ZM3909.43 580.438 3888.81 580.438 3888.81 573.563 3909.43 573.563ZM3881.93 580.438 3861.31 580.438 3861.31 573.563 3881.93 573.563ZM3854.43 580.438 3833.81 580.438 3833.81 573.563 3854.43 573.563ZM3826.93 580.438 3806.31 580.438 3806.31 573.563 3826.93 573.563ZM3799.43 580.438 3778.81 580.438 3778.81 573.563 3799.43 573.563ZM3771.93 580.438 3751.31 580.438 3751.31 573.563 3771.93 573.563ZM3744.43 580.438 3723.81 580.438 3723.81 573.563 3744.43 573.563ZM3716.93 580.438 3696.31 580.438 3696.31 573.563 3716.93 573.563ZM3689.43 580.438 3673.5 580.438 3676.94 577.001 3676.94 581.693 3670.06 581.693 3670.06 577.001C3670.06 575.102 3671.6 573.563 3673.5 573.563L3689.43 573.563ZM3676.94 588.568 3676.94 609.193 3670.06 609.193 3670.06 588.568ZM3676.94 616.068 3676.94 636.693 3670.06 636.693 3670.06 616.068ZM3676.94 643.568 3676.94 659.5 3670.06 659.5 3670.06 643.568ZM3888.23 939.833 3860.73 926.083 3888.23 912.333Z"/><text font-family="Arial,Arial_MSFontService,sans-serif" font-weight="400" font-size="50" transform="matrix(1 0 0 1 3953.02 617)">over</text><text fill="#7F7F7F" font-family="Arial,Arial_MSFontService,sans-serif" font-weight="700" font-size="46" transform="matrix(1 0 0 1 2240.01 846)">58</text><text fill="#7F7F7F" font-family="Arial,Arial_MSFontService,sans-serif" font-weight="700" font-size="46" transform="matrix(1 0 0 1 3738.24 850)">3941</text><rect x="2265.5" y="1062.5" width="1561" height="125" stroke="#000000" stroke-width="9.16667" stroke-linejoin="round" stroke-miterlimit="10" fill="none"/><text font-family="Consolas,Consolas_MSFontService,sans-serif" font-weight="400" font-size="55" transform="matrix(1 0 0 1 2802.57 1144)">Constant padding</text><text fill="#7F7F7F" font-family="Arial,Arial_MSFontService,sans-serif" font-weight="700" font-size="46" transform="matrix(1 0 0 1 2235.61 1049)">3942</text><text fill="#7F7F7F" font-family="Arial,Arial_MSFontService,sans-serif" font-weight="700" font-size="46" transform="matrix(1 0 0 1 3736.81 1053)">4095</text><path d="M1007.48 728 1007.48 1063.68 845 1063.68" stroke="#000000" stroke-width="13.75" stroke-linejoin="round" stroke-miterlimit="10" fill="none" fill-rule="evenodd"/><rect x="1112.5" y="532.5" width="741" height="124" stroke="#000000" stroke-width="9.16667" stroke-linejoin="round" stroke-miterlimit="10" fill="#FFFFFF"/><text font-family="Consolas,Consolas_MSFontService,sans-serif" font-weight="400" font-size="55" transform="matrix(1 0 0 1 1269.92 613)">file_path</text><text font-family="Consolas,Consolas_MSFontService,sans-serif" font-weight="400" font-size="55" transform="matrix(1 0 0 1 1543.2 613)">[772]</text><rect x="1112.5" y="654.5" width="741" height="124" stroke="#000000" stroke-width="9.16667" stroke-linejoin="round" stroke-miterlimit="10" fill="#FFFFFF"/><text font-family="Consolas,Consolas_MSFontService,sans-serif" font-weight="400" font-size="55" transform="matrix(1 0 0 1 1345.83 735)">file_size</text><rect x="1112" y="778" width="741" height="125" stroke="#000000" stroke-width="13.75" stroke-linejoin="round" stroke-miterlimit="10" fill="none"/><text font-family="Consolas,Consolas_MSFontService,sans-serif" font-weight="400" font-size="55" transform="matrix(1 0 0 1 1224.37 860)">root_mht_node_key</text><rect x="1112" y="901" width="741" height="124" stroke="#000000" stroke-width="13.75" stroke-linejoin="round" stroke-miterlimit="10" fill="none"/><text font-family="Consolas,Consolas_MSFontService,sans-serif" font-weight="400" font-size="55" transform="matrix(1 0 0 1 1224.37 982)">root_mht_node_mac</text><rect x="1112.5" y="1025.5" width="741" height="125" stroke="#000000" stroke-width="9.16667" stroke-linejoin="round" stroke-miterlimit="10" fill="#FFFFFF"/><text font-family="Consolas,Consolas_MSFontService,sans-serif" font-weight="400" font-size="55" transform="matrix(1 0 0 1 1254.73 1106)">file_data</text><text font-family="Consolas,Consolas_MSFontService,sans-serif" font-weight="400" font-size="55" transform="matrix(1 0 0 1 1528.02 1106)">[3072]</text><path d="M1872.5 528.5C1896.25 528.5 1915.5 530.104 1915.5 532.083L1915.5 1146.92C1915.5 1148.9 1896.25 1150.5 1872.5 1150.5" stroke="#000000" stroke-width="6.875" stroke-linecap="square" stroke-linejoin="round" stroke-miterlimit="10" stroke-dasharray="20.625 6.875" fill="none" fill-rule="evenodd"/><rect x="1112.5" y="1371.5" width="741" height="125" stroke="#000000" stroke-width="9.16667" stroke-linejoin="round" stroke-miterlimit="10" fill="#FFFFFF"/><text font-family="Consolas,Consolas_MSFontService,sans-serif" font-weight="400" font-size="55" transform="matrix(1 0 0 1 1255.18 1453)">type = MHT_NODE</text><rect x="1112.5" y="1496.5" width="741" height="124" stroke="#000000" stroke-width="9.16667" stroke-linejoin="round" stroke-miterlimit="10" fill="#FFFFFF"/><text font-family="Consolas,Consolas_MSFontService,sans-serif" font-weight="400" font-size="55" transform="matrix(1 0 0 1 1239.99 1577)">logical_node</text><text font-family="Consolas,Consolas_MSFontService,sans-serif" font-weight="400" font-size="55" transform="matrix(1 0 0 1 1634.73 1577)">= 0</text><rect x="1112.5" y="1618.5" width="741" height="125" stroke="#000000" stroke-width="9.16667" stroke-linejoin="round" stroke-miterlimit="10" fill="#FFFFFF"/><text font-family="Consolas,Consolas_MSFontService,sans-serif" font-weight="400" font-size="55" transform="matrix(1 0 0 1 1224.81 1699)">physical_node</text><text font-family="Consolas,Consolas_MSFontService,sans-serif" font-weight="400" font-size="55" transform="matrix(1 0 0 1 1649.92 1699)">= 1</text><rect x="1112.5" y="1867.5" width="741" height="125" stroke="#000000" stroke-width="9.16667" stroke-linejoin="round" stroke-miterlimit="10" fill="#FFFFFF"/><text font-family="Consolas,Consolas_MSFontService,sans-serif" font-weight="400" font-size="55" transform="matrix(1 0 0 1 1345.83 1949)">encrypted</text><rect x="1112.5" y="1743.5" width="741" height="125" stroke="#000000" stroke-width="9.16667" stroke-linejoin="round" stroke-miterlimit="10" fill="#FFFFFF"/><text font-family="Consolas,Consolas_MSFontService,sans-serif" font-weight="400" font-size="55" transform="matrix(1 0 0 1 1345.83 1824)">decrypted</text><rect x="2218.5" y="1448.5" width="2030" height="482" stroke="#000000" stroke-width="9.16667" stroke-linejoin="round" stroke-miterlimit="10" fill="#FAFFC4"/><text font-family="Arial,Arial_MSFontService,sans-serif" font-weight="400" font-size="55" transform="matrix(1 0 0 1 2740.65 1517)">#1: Root MHT node (all fields encrypted)</text><rect x="1009.5" y="2149.5" width="144" height="125" stroke="#000000" stroke-width="9.16667" stroke-linejoin="round" stroke-miterlimit="10" fill="#FFFFFF"/><text font-family="Consolas,Consolas_MSFontService,sans-serif" font-weight="400" font-size="55" transform="matrix(1 0 0 1 1065.59 2230)">…</text><rect x="2271" y="1597" width="452" height="124" stroke="#000000" stroke-width="13.75" stroke-linejoin="round" stroke-miterlimit="10" fill="none"/><text font-family="Consolas,Consolas_MSFontService,sans-serif" font-weight="400" font-size="55" transform="matrix(1 0 0 1 2365.79 1678)">data_key</text><text font-family="Consolas,Consolas_MSFontService,sans-serif" font-weight="400" font-size="37" transform="matrix(1 0 0 1 2608.71 1691)">1</text><rect x="2723" y="1596" width="452" height="125" stroke="#000000" stroke-width="13.75" stroke-linejoin="round" stroke-miterlimit="10" fill="none"/><text font-family="Consolas,Consolas_MSFontService,sans-serif" font-weight="400" font-size="55" transform="matrix(1 0 0 1 2817.11 1677)">data_mac</text><text font-family="Consolas,Consolas_MSFontService,sans-serif" font-weight="400" font-size="37" transform="matrix(1 0 0 1 3060.03 1690)">1</text><rect x="3320.5" y="1596.5" width="451" height="125" stroke="#000000" stroke-width="9.16667" stroke-linejoin="round" stroke-miterlimit="10" fill="none"/><text font-family="Consolas,Consolas_MSFontService,sans-serif" font-weight="400" font-size="55" transform="matrix(1 0 0 1 3404.12 1677)">data_key</text><text font-family="Consolas,Consolas_MSFontService,sans-serif" font-weight="400" font-size="37" transform="matrix(1 0 0 1 3647.04 1690)">96</text><rect x="3771.5" y="1596.5" width="451" height="125" stroke="#000000" stroke-width="9.16667" stroke-linejoin="round" stroke-miterlimit="10" fill="none"/><text font-family="Consolas,Consolas_MSFontService,sans-serif" font-weight="400" font-size="55" transform="matrix(1 0 0 1 3855.28 1677)">data_mac</text><text font-family="Consolas,Consolas_MSFontService,sans-serif" font-weight="400" font-size="37" transform="matrix(1 0 0 1 4098.2 1690)">96</text><rect x="3175.5" y="1596.5" width="144" height="125" stroke="#000000" stroke-width="9.16667" stroke-linejoin="round" stroke-miterlimit="10" fill="none"/><text font-family="Consolas,Consolas_MSFontService,sans-serif" font-weight="400" font-size="55" transform="matrix(1 0 0 1 3231.61 1677)">…</text><rect x="2270.5" y="1721.5" width="452" height="124" stroke="#000000" stroke-width="9.16667" stroke-linejoin="round" stroke-miterlimit="10" fill="none"/><text font-family="Consolas,Consolas_MSFontService,sans-serif" font-weight="400" font-size="55" transform="matrix(1 0 0 1 2379.86 1802)">mht_key</text><text font-family="Consolas,Consolas_MSFontService,sans-serif" font-weight="400" font-size="37" transform="matrix(1 0 0 1 2592.41 1815)">1</text><rect x="2721.5" y="1720.5" width="453" height="125" stroke="#000000" stroke-width="9.16667" stroke-linejoin="round" stroke-miterlimit="10" fill="none"/><text font-family="Consolas,Consolas_MSFontService,sans-serif" font-weight="400" font-size="55" transform="matrix(1 0 0 1 2831.18 1802)">mht_mac</text><text font-family="Consolas,Consolas_MSFontService,sans-serif" font-weight="400" font-size="37" transform="matrix(1 0 0 1 3043.73 1815)">1</text><rect x="3319.5" y="1720.5" width="452" height="125" stroke="#000000" stroke-width="9.16667" stroke-linejoin="round" stroke-miterlimit="10" fill="none"/><text font-family="Consolas,Consolas_MSFontService,sans-serif" font-weight="400" font-size="55" transform="matrix(1 0 0 1 3418.74 1802)">mht_key</text><text font-family="Consolas,Consolas_MSFontService,sans-serif" font-weight="400" font-size="37" transform="matrix(1 0 0 1 3631.29 1815)">32</text><rect x="3770.5" y="1720.5" width="452" height="125" stroke="#000000" stroke-width="9.16667" stroke-linejoin="round" stroke-miterlimit="10" fill="none"/><text font-family="Consolas,Consolas_MSFontService,sans-serif" font-weight="400" font-size="55" transform="matrix(1 0 0 1 3869.77 1802)">mht_mac</text><text font-family="Consolas,Consolas_MSFontService,sans-serif" font-weight="400" font-size="37" transform="matrix(1 0 0 1 4082.32 1815)">32</text><rect x="3174.5" y="1720.5" width="143" height="125" stroke="#000000" stroke-width="9.16667" stroke-linejoin="round" stroke-miterlimit="10" fill="none"/><text font-family="Consolas,Consolas_MSFontService,sans-serif" font-weight="400" font-size="55" transform="matrix(1 0 0 1 3230.49 1802)">…</text><text fill="#B1BABF" font-family="Arial,Arial_MSFontService,sans-serif" font-weight="700" font-size="46" transform="matrix(1 0 0 1 2257.85 1589)">0</text><text fill="#B1BABF" font-family="Arial,Arial_MSFontService,sans-serif" font-weight="700" font-size="46" transform="matrix(1 0 0 1 2695.8 1587)">15</text><text fill="#B1BABF" font-family="Arial,Arial_MSFontService,sans-serif" font-weight="700" font-size="46" transform="matrix(1 0 0 1 3144.17 1585)">31</text><text fill="#B1BABF" font-family="Arial,Arial_MSFontService,sans-serif" font-weight="700" font-size="46" transform="matrix(1 0 0 1 2263.2 1892)">3072</text><text fill="#B1BABF" font-family="Arial,Arial_MSFontService,sans-serif" font-weight="700" font-size="46" transform="matrix(1 0 0 1 4122.29 1890)">4095</text><path d="M1169.5 2149.5C1178.34 2149.5 1185.5 2150.1 1185.5 2150.83L1185.5 2272.17C1185.5 2272.9 1178.34 2273.5 1169.5 2273.5" stroke="#000000" stroke-width="6.875" stroke-linecap="square" stroke-linejoin="round" stroke-miterlimit="10" stroke-dasharray="20.625 6.875" fill="none" fill-rule="evenodd"/><path d="M1640.59 2143.5 1640.59 2146.61 1637.16 2143.17 1637.29 2143.17C1639.18 2143.17 1640.72 2144.71 1640.72 2146.61L1640.72 2163.99 1633.85 2163.99 1633.85 2146.61 1637.29 2150.05 1637.16 2150.05C1635.26 2150.05 1633.72 2148.51 1633.72 2146.61L1633.72 2143.5ZM1640.72 2170.87 1640.72 2191.49 1633.85 2191.49 1633.85 2170.87ZM1640.72 2198.37 1640.72 2211.95C1640.72 2213.85 1639.18 2215.39 1637.29 2215.39L1630.24 2215.39 1630.24 2208.51 1637.29 2208.51 1633.85 2211.95 1633.85 2198.37ZM1623.37 2215.39 1602.74 2215.39 1602.74 2208.51 1623.37 2208.51ZM1595.87 2215.39 1575.24 2215.39 1575.24 2208.51 1595.87 2208.51ZM1568.37 2215.39 1547.74 2215.39 1547.74 2208.51 1568.37 2208.51ZM1540.87 2215.39 1520.24 2215.39 1520.24 2208.51 1540.87 2208.51ZM1513.37 2215.39 1492.74 2215.39 1492.74 2208.51 1513.37 2208.51ZM1485.87 2215.39 1465.24 2215.39 1465.24 2208.51 1485.87 2208.51ZM1458.37 2215.39 1437.74 2215.39 1437.74 2208.51 1458.37 2208.51ZM1430.87 2215.39 1410.24 2215.39 1410.24 2208.51 1430.87 2208.51ZM1403.37 2215.39 1382.74 2215.39 1382.74 2208.51 1403.37 2208.51ZM1375.87 2215.39 1355.24 2215.39 1355.24 2208.51 1375.87 2208.51ZM1348.37 2215.39 1327.74 2215.39 1327.74 2208.51 1348.37 2208.51ZM1320.87 2215.39 1300.24 2215.39 1300.24 2208.51 1320.87 2208.51ZM1293.37 2215.39 1272.74 2215.39 1272.74 2208.51 1293.37 2208.51ZM1265.87 2215.39 1245.24 2215.39 1245.24 2208.51 1265.87 2208.51ZM1238.37 2215.39 1217.74 2215.39 1217.74 2208.51 1238.37 2208.51ZM1210.87 2215.39 1208.42 2215.39 1208.42 2208.51 1210.87 2208.51ZM1213 2225.7 1185.5 2211.95 1213 2198.2Z"/><path d="M3225.77 1448 3225.77 1403.21 3232.64 1410.09 3167.43 1410.09 3167.43 1396.34 3232.64 1396.34C3236.44 1396.34 3239.52 1399.42 3239.52 1403.21L3239.52 1448ZM3126.18 1410.09 3016.18 1410.09 3016.18 1396.34 3126.18 1396.34ZM2974.93 1410.09 2864.93 1410.09 2864.93 1396.34 2974.93 1396.34ZM2823.68 1410.09 2713.68 1410.09 2713.68 1396.34 2823.68 1396.34ZM2672.43 1410.09 2562.43 1410.09 2562.43 1396.34 2672.43 1396.34ZM2521.18 1410.09 2411.18 1410.09 2411.18 1396.34 2521.18 1396.34ZM2369.93 1410.09 2259.93 1410.09 2259.93 1396.34 2369.93 1396.34ZM2218.68 1410.09 2120.21 1410.09 2127.08 1403.21 2127.08 1414.74 2113.33 1414.74 2113.33 1403.21C2113.33 1399.42 2116.41 1396.34 2120.21 1396.34L2218.68 1396.34ZM2127.08 1455.99 2127.08 1565.99 2113.33 1565.99 2113.33 1455.99ZM2127.08 1607.24 2127.08 1717.24 2113.33 1717.24 2113.33 1607.24ZM2127.08 1758.49 2127.08 1868.49 2113.33 1868.49 2113.33 1758.49ZM2127.08 1909.74 2127.08 2019.74 2113.33 2019.74 2113.33 1909.74ZM2127.08 2060.99 2127.08 2109.74C2127.08 2113.54 2124.01 2116.61 2120.21 2116.61L2058.95 2116.61 2058.95 2102.86 2120.21 2102.86 2113.33 2109.74 2113.33 2060.99ZM2017.7 2116.61 1907.7 2116.61 1907.7 2102.86 2017.7 2102.86ZM1894.25 2130.36 1853 2109.74 1894.25 2089.11Z"/><text font-family="Arial,Arial_MSFontService,sans-serif" font-weight="700" font-size="55" transform="matrix(1 0 0 1 1390.01 372)">Bounce</text><text font-family="Arial,Arial_MSFontService,sans-serif" font-weight="700" font-size="55" transform="matrix(1 0 0 1 1604.28 372)">buffer</text><path d="M34.375-6.875 445.854-6.875C449.651-6.875 452.729-3.79696 452.729 0L452.729 585.982 445.854 579.107 505.67 579.107 505.67 592.857 445.854 592.857C442.057 592.857 438.979 589.779 438.979 585.982L438.979 0 445.854 6.875 34.375 6.875ZM41.25 20.625 0 0 41.25-20.625Z" transform="matrix(-1 1.22465e-16 1.22465e-16 1 1350.67 354)"/><text font-family="Arial,Arial_MSFontService,sans-serif" font-weight="700" font-size="55" transform="matrix(1 0 0 1 1450.51 2129)">Bounce buffer</text><path d="M1386.67 2116.73 1029.5 2116.73C1025.7 2116.73 1022.62 2113.65 1022.62 2109.85L1022.62 1930C1022.62 1926.2 1025.7 1923.13 1029.5 1923.13L1112 1923.13 1112 1936.88 1029.5 1936.88 1036.37 1930 1036.37 2109.85 1029.5 2102.98 1386.67 2102.98ZM1379.8 2089.23 1421.05 2109.85 1379.8 2130.48Z"/><path d="M2047 22 2047 2397.54" stroke="#7F7F7F" stroke-width="13.75" stroke-linecap="square" stroke-linejoin="round" stroke-miterlimit="10" stroke-dasharray="41.25 13.75" fill="none" fill-rule="evenodd"/><text font-family="Arial,Arial_MSFontService,sans-serif" font-weight="400" font-size="55" text-decoration="underline" transform="matrix(1 0 0 1 1445.11 86)">SGX enclave (trusted)</text><text font-family="Arial,Arial_MSFontService,sans-serif" font-weight="400" font-size="55" text-decoration="underline" transform="matrix(1 0 0 1 2095.12 88)">Host storage (untrusted)</text><text fill="#B1BABF" font-family="Arial,Arial_MSFontService,sans-serif" font-weight="700" font-size="46" transform="matrix(1 0 0 1 4126.34 1589)">3071</text><rect x="3012.5" y="859.5" width="814" height="125" stroke="#000000" stroke-width="9.16667" stroke-linejoin="round" stroke-miterlimit="10" fill="none"/><text font-family="Consolas,Consolas_MSFontService,sans-serif" font-weight="400" font-size="55" transform="matrix(1 0 0 1 3130.48 940)">encrypted file data</text><path d="M3842.5 867.5C3852.44 867.5 3860.5 868.172 3860.5 869L3860.5 982C3860.5 982.828 3852.44 983.5 3842.5 983.5" stroke="#000000" stroke-width="6.875" stroke-linecap="square" stroke-linejoin="round" stroke-miterlimit="10" stroke-dasharray="20.625 6.875" fill="none" fill-rule="evenodd"/><text font-family="Arial,Arial_MSFontService,sans-serif" font-weight="400" font-size="46" transform="matrix(1 0 0 1 2874.35 115)">Arrows legend:</text><text font-family="Arial,Arial_MSFontService,sans-serif" font-weight="400" font-size="46" transform="matrix(1 0 0 1 3063.41 170)">Decrypted from storage</text><text font-family="Arial,Arial_MSFontService,sans-serif" font-weight="400" font-size="46" transform="matrix(1 0 0 1 3063.41 225)">Copied into enclave</text><path d="M22.9167-3.43745 43.5417-3.4374 43.5417 3.4376 22.9167 3.43755ZM50.4167-3.43738 71.0417-3.43734 71.0417 3.43766 50.4167 3.43762ZM77.9167-3.43732 98.5417-3.43727 98.5417 3.43773 77.9167 3.43768ZM105.417-3.43726 126.042-3.43721 126.042 3.43779 105.417 3.43774ZM132.917-3.43719 153.542-3.43714 153.542 3.43786 132.917 3.43781ZM27.5 13.7501 0 0 27.5-13.7499Z" transform="matrix(-1 0 0 1 3046.37 153.5)"/><path d="M3023.45 212.073 2968.45 212.017 2968.45 205.142 3023.45 205.198ZM2947.82 211.996 2892.82 211.94 2892.83 205.065 2947.83 205.121ZM3018.88 194.881 3046.37 208.659 3018.85 222.381Z"/><path d="M1078.24 541.141 1008.04 541.594 1014.88 534.719 1014.88 754.158 1001.12 754.158 1001.12 534.719C1001.12 530.939 1004.18 527.869 1007.96 527.844L1078.15 527.391ZM1069.97 514.139 1112.49 532 1072.69 555.299Z"/><rect x="3375" y="2267" width="881" height="134" fill="#FFFFFF"/><text font-family="Arial,Arial_MSFontService,sans-serif" font-style="italic" font-weight="400" font-size="55" transform="matrix(1 0 0 1 3686.46 2320)">Case of file size &gt; 3KB:</text><text font-family="Arial,Arial_MSFontService,sans-serif" font-style="italic" font-weight="400" font-size="55" transform="matrix(1 0 0 1 3707.66 2386)">Decrypting existing file</text><path d="M1077.59 1378.61 978.484 1378.61C974.687 1378.61 971.609 1375.53 971.609 1371.74L971.609 1189 978.484 1195.88 845 1195.88 845 1182.12 978.484 1182.12C982.281 1182.12 985.359 1185.2 985.359 1189L985.359 1371.74 978.484 1364.86 1077.59 1364.86ZM1070.72 1351.11 1111.97 1371.74 1070.72 1392.36Z"/><path d="M0 0 73.8133 0 73.8133 346.364" stroke="#000000" stroke-width="6.875" stroke-linecap="square" stroke-linejoin="round" stroke-miterlimit="10" stroke-dasharray="20.625 6.875" fill="none" fill-rule="evenodd" transform="matrix(1.83697e-16 1 1 -1.83697e-16 1633.5 398.5)"/><text font-family="Cambria Math,Cambria Math_MSFontService,sans-serif" font-weight="400" font-size="55" transform="matrix(1 0 0 1 87.0727 128)">②</text><text font-family="Arial,Arial_MSFontService,sans-serif" font-weight="400" font-size="55" transform="matrix(1 0 0 1 168.427 128)">KDF nonce = loaded</text><text font-family="Cambria Math,Cambria Math_MSFontService,sans-serif" font-weight="400" font-size="55" transform="matrix(1 0 0 1 789.238 255)">③</text><text font-family="Arial,Arial_MSFontService,sans-serif" font-weight="400" font-size="55" transform="matrix(1 0 0 1 870.592 255)">derive key</text><path d="M713.449 219.869 692.824 219.869 692.824 212.994 713.449 212.994ZM685.949 219.869 665.324 219.869 665.324 212.994 685.949 212.994ZM658.449 219.869 637.824 219.869 637.824 212.994 658.449 212.994ZM630.949 219.869 610.324 219.869 610.324 212.994 630.949 212.994ZM603.449 219.869 582.824 219.869 582.824 212.994 603.449 212.994ZM575.949 219.869 555.324 219.869 555.324 212.994 575.949 212.994ZM548.449 219.869 527.824 219.869 527.824 212.994 548.449 212.994ZM520.949 219.869 500.324 219.869 500.324 212.994 520.949 212.994ZM493.449 219.869 472.824 219.869 472.824 212.994 493.449 212.994ZM465.949 219.869 445.324 219.869 445.324 212.994 465.949 212.994ZM438.449 219.869 417.824 219.869 417.824 212.994 438.449 212.994ZM410.949 219.869 390.324 219.869 390.324 212.994 410.949 212.994ZM383.449 219.869 378.5 219.869C376.601 219.869 375.062 218.33 375.062 216.431L375.062 200.755 381.937 200.755 381.937 216.431 378.5 212.994 383.449 212.994ZM375.062 193.88 375.062 173.255 381.937 173.255 381.937 193.88ZM375.062 166.38 375.062 145.755 381.937 145.755 381.937 166.38ZM708.865 202.681 736.365 216.431 708.865 230.181Z"/><path d="M22.9158-3.4375 43.5408-3.4375 43.5408 3.4375 22.9158 3.4375ZM50.4158-3.4375 71.0408-3.4375 71.0408 3.4375 50.4158 3.4375ZM77.9158-3.4375 98.5408-3.4375 98.5408 3.4375 77.9158 3.4375ZM105.416-3.4375 126.041-3.4375 126.041 3.4375 105.416 3.4375ZM132.916-3.4375 153.541-3.4375 153.541 3.4375 132.916 3.4375ZM160.416-3.4375 181.041-3.4375 181.041 3.4375 160.416 3.4375ZM187.916-3.4375 208.541-3.4375 208.541 3.4375 187.916 3.4375ZM215.416-3.4375 236.041-3.4375 236.041 3.4375 215.416 3.4375ZM242.916-3.4375 263.541-3.4375 263.541 3.4375 242.916 3.4375ZM270.416-3.4375 291.041-3.4375 291.041 3.4375 270.416 3.4375ZM297.916-3.4375 318.541-3.4375 318.541 3.4375 297.916 3.4375ZM325.416-3.4375 346.041-3.4375 346.041 3.4375 325.416 3.4375ZM352.916-3.4375 373.541-3.4375 373.541 3.4375 352.916 3.4375ZM380.416-3.4375 401.041-3.4375 401.041 3.4375 380.416 3.4375ZM407.916-3.4375 428.541-3.4375 428.541 3.4375 407.916 3.4375ZM435.416-3.4375 456.041-3.4375 456.041 3.4375 435.416 3.4375ZM462.916-3.4375 483.541-3.4375 483.541 3.4375 462.916 3.4375ZM490.416-3.4375 511.041-3.4375 511.041 3.4375 490.416 3.4375ZM517.916-3.4375 538.541-3.4375 538.541 3.4375 517.916 3.4375ZM545.416-3.4375 566.041-3.4375 566.041 3.4375 545.416 3.4375ZM572.916-3.4375 593.541-3.4375 593.541 3.4375 572.916 3.4375ZM600.416-3.4375 621.041-3.4375 621.041 3.4375 600.416 3.4375ZM627.916-3.4375 648.541-3.4375 648.541 3.4375 627.916 3.4375ZM655.416-3.4375 676.041-3.4375 676.041 3.4375 655.416 3.4375ZM682.916-3.4375 703.541-3.4375 703.541 3.4375 682.916 3.4375ZM710.416-3.4375 731.041-3.4375 731.041 3.4375 710.416 3.4375ZM737.916-3.4375 741.01-3.4375C742.908-3.4375 744.447-1.89848 744.447 0L744.447 17.5312 737.572 17.5312 737.572 0 741.01 3.4375 737.916 3.4375ZM744.447 24.4062 744.447 45.0312 737.572 45.0312 737.572 24.4062ZM744.447 51.9062 744.447 72.5312 737.572 72.5312 737.572 51.9062ZM744.447 79.4062 744.447 100.031 737.572 100.031 737.572 79.4062ZM744.447 106.906 744.447 127.531 737.572 127.531 737.572 106.906ZM744.447 134.406 744.447 155.031 737.572 155.031 737.572 134.406ZM744.447 161.906 744.447 182.531 737.572 182.531 737.572 161.906ZM744.447 189.406 744.447 210.031 737.572 210.031 737.572 189.406ZM744.447 216.906 744.447 237.531 737.572 237.531 737.572 216.906ZM744.447 244.406 744.447 265.031 737.572 265.031 737.572 244.406ZM744.447 271.906 744.447 292.531 737.572 292.531 737.572 271.906ZM744.447 299.406 744.447 320.031 737.572 320.031 737.572 299.406ZM744.447 326.906 744.447 347.531 737.572 347.531 737.572 326.906ZM744.447 354.406 744.447 375.031 737.572 375.031 737.572 354.406ZM744.447 381.906 744.447 402.531 737.572 402.531 737.572 381.906ZM744.447 409.406 744.447 426.564C744.447 428.462 742.908 430.001 741.01 430.001L737.542 430.001 737.542 423.126 741.01 423.126 737.572 426.564 737.572 409.406ZM730.667 430.001 710.042 430.001 710.042 423.126 730.667 423.126ZM703.167 430.001 682.542 430.001 682.542 423.126 703.167 423.126ZM675.667 430.001 658.511 430.001 658.511 423.126 675.667 423.126ZM27.5 13.75 0 0 27.5-13.75Z" transform="matrix(-1 1.22465e-16 1.22465e-16 1 763.011 265.5)"/><path d="M22.9167-3.4375 43.5417-3.4375 43.5417 3.4375 22.9167 3.4375ZM50.4167-3.4375 71.0417-3.4375 71.0417 3.4375 50.4167 3.4375ZM77.9167-3.4375 85.5142-3.4375C87.4127-3.4375 88.9517-1.89848 88.9517 0L88.9517 13.0275 82.0767 13.0275 82.0767 0 85.5142 3.4375 77.9167 3.4375ZM88.9517 19.9025 88.9517 40.5275 82.0767 40.5275 82.0767 19.9025ZM88.9517 47.4025 88.9517 68.0275 82.0767 68.0275 82.0767 47.4025ZM88.9517 74.9025 88.9517 95.5275 82.0767 95.5275 82.0767 74.9025ZM88.9517 102.402 88.9517 123.027 82.0767 123.027 82.0767 102.402ZM88.9517 129.902 88.9517 150.527 82.0767 150.527 82.0767 129.902ZM88.9517 157.402 88.9517 178.027 82.0767 178.027 82.0767 157.402ZM88.9517 184.902 88.9517 205.527 82.0767 205.527 82.0767 184.902ZM88.9517 212.402 88.9517 233.027 82.0767 233.027 82.0767 212.402ZM88.9517 239.902 88.9517 260.527 82.0767 260.527 82.0767 239.902ZM88.9517 267.402 88.9517 288.027 82.0767 288.027 82.0767 267.402ZM88.9517 294.902 88.9517 315.527 82.0767 315.527 82.0767 294.902ZM88.9517 322.402 88.9517 343.027 82.0767 343.027 82.0767 322.402ZM88.9517 349.902 88.9517 370.527 82.0767 370.527 82.0767 349.902ZM88.9517 377.402 88.9517 390.122 82.0767 390.122 82.0767 377.402ZM27.5 13.75 0 0 27.5-13.75Z" transform="matrix(-1.83697e-16 -1 -1 1.83697e-16 1575.62 321.014)"/><text font-family="Cambria Math,Cambria Math_MSFontService,sans-serif" font-weight="400" font-size="55" transform="matrix(1 0 0 1 1583.51 280)">④</text><text font-family="Arial,Arial_MSFontService,sans-serif" font-weight="400" font-size="55" transform="matrix(1 0 0 1 1664.86 280)">decrypt</text><path d="M1989.29 472.5 1989.29 493.125 1982.41 493.125 1982.41 472.5ZM1989.29 500 1989.29 500.342 1985.85 496.904 1986.49 496.904C1988.39 496.904 1989.93 498.443 1989.93 500.342L1989.93 519.984 1983.05 519.984 1983.05 500.342 1986.49 503.779 1985.85 503.779C1983.95 503.779 1982.41 502.24 1982.41 500.342L1982.41 500ZM1989.93 526.859 1989.93 547.484 1983.05 547.484 1983.05 526.859ZM1989.93 554.359 1989.93 574.984 1983.05 574.984 1983.05 554.359ZM1989.93 581.859 1989.93 602.484 1983.05 602.484 1983.05 581.859ZM1989.93 609.359 1989.93 629.984 1983.05 629.984 1983.05 609.359ZM1989.93 636.859 1989.93 657.484 1983.05 657.484 1983.05 636.859ZM1989.93 664.359 1989.93 684.984 1983.05 684.984 1983.05 664.359ZM1989.93 691.859 1989.93 712.484 1983.05 712.484 1983.05 691.859ZM1989.93 719.359 1989.93 739.984 1983.05 739.984 1983.05 719.359ZM1989.93 746.859 1989.93 767.484 1983.05 767.484 1983.05 746.859ZM1989.93 774.359 1989.93 794.984 1983.05 794.984 1983.05 774.359ZM1989.93 801.859 1989.93 822.484 1983.05 822.484 1983.05 801.859ZM1989.93 829.359 1989.93 839.225C1989.93 841.124 1988.39 842.663 1986.49 842.663L1975.73 842.663 1975.73 835.788 1986.49 835.788 1983.05 839.225 1983.05 829.359ZM1968.86 842.663 1948.23 842.663 1948.23 835.788 1968.86 835.788ZM1941.36 842.663 1938.42 842.663 1938.42 835.788 1941.36 835.788ZM1943 852.975 1915.5 839.225 1943 825.475Z"/><text fill="#7F7F7F" font-family="Arial,Arial_MSFontService,sans-serif" font-weight="700" font-size="46" transform="matrix(1 0 0 1 2972.09 849)">869</text><text font-family="Cambria Math,Cambria Math_MSFontService,sans-serif" font-weight="400" font-size="55" transform="matrix(1 0 0 1 3141.56 721)">②</text><text font-family="Cambria Math,Cambria Math_MSFontService,sans-serif" font-weight="400" font-size="55" transform="matrix(1 0 0 1 3530.78 722)">④</text><path d="M1001.12 2120.03 1001.12 1805C1001.12 1801.2 1004.2 1798.12 1008 1798.12L1112.49 1798.12 1112.49 1811.88 1008 1811.88 1014.87 1805 1014.87 2120.03ZM1028.62 2113.15 1008 2154.4 987.375 2113.15Z"/><rect x="106.5" y="1455.5" width="741" height="124" stroke="#000000" stroke-width="9.16667" stroke-linejoin="round" stroke-miterlimit="10" fill="#FFFFFF"/><text font-family="Consolas,Consolas_MSFontService,sans-serif" font-weight="400" font-size="55" transform="matrix(1 0 0 1 233.869 1536)">type = DATA_NODE</text><rect x="106.5" y="1579.5" width="741" height="125" stroke="#000000" stroke-width="9.16667" stroke-linejoin="round" stroke-miterlimit="10" fill="#FFFFFF"/><text font-family="Consolas,Consolas_MSFontService,sans-serif" font-weight="400" font-size="55" transform="matrix(1 0 0 1 233.869 1660)">logical_node</text><text font-family="Consolas,Consolas_MSFontService,sans-serif" font-weight="400" font-size="55" transform="matrix(1 0 0 1 628.609 1660)">= 0</text><rect x="106.5" y="1701.5" width="741" height="125" stroke="#000000" stroke-width="9.16667" stroke-linejoin="round" stroke-miterlimit="10" fill="#FFFFFF"/><text font-family="Consolas,Consolas_MSFontService,sans-serif" font-weight="400" font-size="55" transform="matrix(1 0 0 1 218.687 1783)">physical_node</text><text font-family="Consolas,Consolas_MSFontService,sans-serif" font-weight="400" font-size="55" transform="matrix(1 0 0 1 643.791 1783)">= 2</text><rect x="106.5" y="1950.5" width="741" height="125" stroke="#000000" stroke-width="9.16667" stroke-linejoin="round" stroke-miterlimit="10" fill="#FFFFFF"/><text font-family="Consolas,Consolas_MSFontService,sans-serif" font-weight="400" font-size="55" transform="matrix(1 0 0 1 339.704 2032)">encrypted</text><rect x="106.5" y="1826.5" width="741" height="125" stroke="#000000" stroke-width="9.16667" stroke-linejoin="round" stroke-miterlimit="10" fill="#FFFFFF"/><text font-family="Consolas,Consolas_MSFontService,sans-serif" font-weight="400" font-size="55" transform="matrix(1 0 0 1 339.704 1907)">decrypted</text><rect x="44.4998" y="2313.5" width="144" height="125" stroke="#000000" stroke-width="9.16667" stroke-linejoin="round" stroke-miterlimit="10" fill="#FFFFFF"/><text font-family="Consolas,Consolas_MSFontService,sans-serif" font-weight="400" font-size="64" transform="matrix(1 0 0 1 98.4125 2398)">…</text><text font-family="Arial,Arial_MSFontService,sans-serif" font-weight="700" font-size="55" transform="matrix(1 0 0 1 1458.2 2357)">Bounce</text><text font-family="Arial,Arial_MSFontService,sans-serif" font-weight="700" font-size="55" transform="matrix(1 0 0 1 1670.76 2357)">buffer</text><path d="M208.5 2312.5C217.889 2312.5 225.5 2313.13 225.5 2313.92L225.5 2436.08C225.5 2436.87 217.889 2437.5 208.5 2437.5" stroke="#000000" stroke-width="6.875" stroke-linecap="square" stroke-linejoin="round" stroke-miterlimit="10" stroke-dasharray="20.625 6.875" fill="none" fill-rule="evenodd"/><path d="M1646.82 2371.5 1646.82 2392.12 1639.94 2392.12 1639.94 2371.5ZM1646.82 2399 1646.82 2419.62 1639.94 2419.62 1639.94 2399ZM1642.28 2428.84 1621.66 2428.84 1621.66 2421.97 1642.28 2421.97ZM1614.78 2428.84 1594.16 2428.84 1594.16 2421.97 1614.78 2421.97ZM1587.28 2428.84 1566.66 2428.84 1566.66 2421.97 1587.28 2421.97ZM1559.78 2428.84 1539.16 2428.84 1539.16 2421.97 1559.78 2421.97ZM1532.28 2428.84 1511.66 2428.84 1511.66 2421.97 1532.28 2421.97ZM1504.78 2428.84 1484.16 2428.84 1484.16 2421.97 1504.78 2421.97ZM1477.28 2428.84 1456.66 2428.84 1456.66 2421.97 1477.28 2421.97ZM1449.78 2428.84 1429.16 2428.84 1429.16 2421.97 1449.78 2421.97ZM1422.28 2428.84 1401.66 2428.84 1401.66 2421.97 1422.28 2421.97ZM1394.78 2428.84 1374.16 2428.84 1374.16 2421.97 1394.78 2421.97ZM1367.28 2428.84 1346.66 2428.84 1346.66 2421.97 1367.28 2421.97ZM1339.78 2428.84 1319.16 2428.84 1319.16 2421.97 1339.78 2421.97ZM1312.28 2428.84 1291.66 2428.84 1291.66 2421.97 1312.28 2421.97ZM1284.78 2428.84 1264.16 2428.84 1264.16 2421.97 1284.78 2421.97ZM1257.28 2428.84 1236.66 2428.84 1236.66 2421.97 1257.28 2421.97ZM1229.78 2428.84 1209.16 2428.84 1209.16 2421.97 1229.78 2421.97ZM1202.28 2428.84 1181.66 2428.84 1181.66 2421.97 1202.28 2421.97ZM1174.78 2428.84 1154.16 2428.84 1154.16 2421.97 1174.78 2421.97ZM1147.28 2428.84 1126.66 2428.84 1126.66 2421.97 1147.28 2421.97ZM1119.78 2428.84 1099.16 2428.84 1099.16 2421.97 1119.78 2421.97ZM1092.28 2428.84 1071.66 2428.84 1071.66 2421.97 1092.28 2421.97ZM1064.78 2428.84 1044.16 2428.84 1044.16 2421.97 1064.78 2421.97ZM1037.28 2428.84 1016.66 2428.84 1016.66 2421.97 1037.28 2421.97ZM1009.78 2428.84 989.158 2428.84 989.158 2421.97 1009.78 2421.97ZM982.283 2428.84 961.658 2428.84 961.658 2421.97 982.283 2421.97ZM954.783 2428.84 934.158 2428.84 934.158 2421.97 954.783 2421.97ZM927.283 2428.84 906.658 2428.84 906.658 2421.97 927.283 2421.97ZM899.783 2428.84 879.158 2428.84 879.158 2421.97 899.783 2421.97ZM872.283 2428.84 851.658 2428.84 851.658 2421.97 872.283 2421.97ZM844.783 2428.84 824.158 2428.84 824.158 2421.97 844.783 2421.97ZM817.283 2428.84 796.658 2428.84 796.658 2421.97 817.283 2421.97ZM789.783 2428.84 769.158 2428.84 769.158 2421.97 789.783 2421.97ZM762.283 2428.84 741.658 2428.84 741.658 2421.97 762.283 2421.97ZM734.783 2428.84 714.158 2428.84 714.158 2421.97 734.783 2421.97ZM707.283 2428.84 686.658 2428.84 686.658 2421.97 707.283 2421.97ZM679.783 2428.84 659.158 2428.84 659.158 2421.97 679.783 2421.97ZM652.283 2428.84 631.658 2428.84 631.658 2421.97 652.283 2421.97ZM624.783 2428.84 604.158 2428.84 604.158 2421.97 624.783 2421.97ZM597.283 2428.84 576.658 2428.84 576.658 2421.97 597.283 2421.97ZM569.783 2428.84 549.158 2428.84 549.158 2421.97 569.783 2421.97ZM542.283 2428.84 521.658 2428.84 521.658 2421.97 542.283 2421.97ZM514.783 2428.84 494.158 2428.84 494.158 2421.97 514.783 2421.97ZM487.283 2428.84 466.658 2428.84 466.658 2421.97 487.283 2421.97ZM459.783 2428.84 439.158 2428.84 439.158 2421.97 459.783 2421.97ZM432.283 2428.84 411.658 2428.84 411.658 2421.97 432.283 2421.97ZM404.783 2428.84 384.158 2428.84 384.158 2421.97 404.783 2421.97ZM377.283 2428.84 356.658 2428.84 356.658 2421.97 377.283 2421.97ZM349.783 2428.84 329.158 2428.84 329.158 2421.97 349.783 2421.97ZM321.073 2423.18 321.073 2402.55 327.948 2402.55 327.948 2423.18ZM321.073 2395.68 321.073 2375.05 327.948 2375.05 327.948 2395.68ZM317.724 2378.4 297.099 2378.4 297.099 2371.53 317.724 2371.53ZM290.224 2378.4 269.599 2378.4 269.599 2371.53 290.224 2371.53ZM262.724 2378.4 248.417 2378.4 248.417 2371.53 262.724 2371.53ZM253 2388.71 225.5 2374.96 253 2361.21Z"/><path d="M33.1249 2277.49 33.1249 1888C33.1249 1884.2 36.2029 1881.12 39.9999 1881.12L105.981 1881.12 105.981 1894.87 39.9999 1894.87 46.8749 1888 46.8749 2277.49ZM60.6249 2270.61 39.9999 2311.86 19.3749 2270.61Z"/><rect x="2218.5" y="2007.5" width="2030" height="154" stroke="#000000" stroke-width="9.16667" stroke-linejoin="round" stroke-miterlimit="10" fill="#C9F0FF"/><text font-family="Arial,Arial_MSFontService,sans-serif" font-weight="400" font-size="55" transform="matrix(1 0 0 1 2879.09 2077)">#2: Data node (all encrypted)</text><path d="M3239.23 2161 3239.23 2271 3225.48 2271 3225.48 2161ZM3239.23 2312.25 3239.23 2337.42C3239.23 2341.22 3236.15 2344.3 3232.36 2344.3L3147.53 2344.3 3147.53 2330.55 3232.36 2330.55 3225.48 2337.42 3225.48 2312.25ZM3106.28 2344.3 2996.28 2344.3 2996.28 2330.55 3106.28 2330.55ZM2955.03 2344.3 2845.03 2344.3 2845.03 2330.55 2955.03 2330.55ZM2803.78 2344.3 2693.78 2344.3 2693.78 2330.55 2803.78 2330.55ZM2652.53 2344.3 2542.53 2344.3 2542.53 2330.55 2652.53 2330.55ZM2501.28 2344.3 2391.28 2344.3 2391.28 2330.55 2501.28 2330.55ZM2350.03 2344.3 2240.03 2344.3 2240.03 2330.55 2350.03 2330.55ZM2198.78 2344.3 2088.78 2344.3 2088.78 2330.55 2198.78 2330.55ZM2047.53 2344.3 1937.53 2344.3 1937.53 2330.55 2047.53 2330.55ZM1909.25 2358.05 1868 2337.42 1909.25 2316.8Z"/><text font-family="Cambria Math,Cambria Math_MSFontService,sans-serif" font-weight="400" font-size="55" transform="matrix(1 0 0 1 1659.38 2418)">⑧</text><text font-family="Arial,Arial_MSFontService,sans-serif" font-weight="400" font-size="55" transform="matrix(1 0 0 1 1740.73 2418)">decrypt</text><path d="M1394.38 2342.01 1373.76 2342.01 1373.76 2335.14 1394.38 2335.14ZM1366.88 2342.01 1346.26 2342.01 1346.26 2335.14 1366.88 2335.14ZM1339.38 2342.01 1318.76 2342.01 1318.76 2335.14 1339.38 2335.14ZM1311.88 2342.01 1291.26 2342.01 1291.26 2335.14 1311.88 2335.14ZM1284.38 2342.01 1263.76 2342.01 1263.76 2335.14 1284.38 2335.14ZM1256.88 2342.01 1236.26 2342.01 1236.26 2335.14 1256.88 2335.14ZM1229.38 2342.01 1208.76 2342.01 1208.76 2335.14 1229.38 2335.14ZM1201.88 2342.01 1181.26 2342.01 1181.26 2335.14 1201.88 2335.14ZM1174.38 2342.01 1153.76 2342.01 1153.76 2335.14 1174.38 2335.14ZM1146.88 2342.01 1126.26 2342.01 1126.26 2335.14 1146.88 2335.14ZM1119.38 2342.01 1098.76 2342.01 1098.76 2335.14 1119.38 2335.14ZM1091.88 2342.01 1081.5 2342.01C1079.6 2342.01 1078.06 2340.48 1078.06 2338.58L1078.06 2328.34 1084.94 2328.34 1084.94 2338.58 1081.5 2335.14 1091.88 2335.14ZM1078.06 2321.46 1078.06 2300.84 1084.94 2300.84 1084.94 2321.46ZM1078.06 2293.96 1078.06 2274.5 1084.94 2274.5 1084.94 2293.96ZM1389.8 2324.83 1417.3 2338.58 1389.8 2352.33Z"/><path d="M1634.06 2054.14 1634.06 2033.51 1640.94 2033.51 1640.94 2054.14ZM1638.7 2024.41 1659.33 2024.41 1659.33 2031.28 1638.7 2031.28ZM1666.2 2024.41 1686.83 2024.41 1686.83 2031.28 1666.2 2031.28ZM1693.7 2024.41 1714.33 2024.41 1714.33 2031.28 1693.7 2031.28ZM1721.2 2024.41 1741.83 2024.41 1741.83 2031.28 1721.2 2031.28ZM1748.7 2024.41 1769.33 2024.41 1769.33 2031.28 1748.7 2031.28ZM1776.2 2024.41 1796.83 2024.41 1796.83 2031.28 1776.2 2031.28ZM1803.7 2024.41 1824.33 2024.41 1824.33 2031.28 1803.7 2031.28ZM1831.2 2024.41 1851.83 2024.41 1851.83 2031.28 1831.2 2031.28ZM1858.7 2024.41 1879.33 2024.41 1879.33 2031.28 1858.7 2031.28ZM1879.08 2024.16 1879.08 2003.53 1885.96 2003.53 1885.96 2024.16ZM1879.08 1996.66 1879.08 1976.03 1885.96 1976.03 1885.96 1996.66ZM1879.08 1969.16 1879.08 1948.53 1885.96 1948.53 1885.96 1969.16ZM1879.08 1941.66 1879.08 1921.03 1885.96 1921.03 1885.96 1941.66ZM1879.08 1914.16 1879.08 1893.53 1885.96 1893.53 1885.96 1914.16ZM1879.08 1886.66 1879.08 1866.03 1885.96 1866.03 1885.96 1886.66ZM1879.08 1859.16 1879.08 1838.53 1885.96 1838.53 1885.96 1859.16ZM1879.08 1831.66 1879.08 1811.03 1885.96 1811.03 1885.96 1831.66ZM1879.08 1804.16 1879.08 1783.53 1885.96 1783.53 1885.96 1804.16ZM1879.08 1776.66 1879.08 1756.03 1885.96 1756.03 1885.96 1776.66ZM1879.08 1749.16 1879.08 1728.53 1885.96 1728.53 1885.96 1749.16ZM1879.08 1721.66 1879.08 1701.03 1885.96 1701.03 1885.96 1721.66ZM1879.08 1694.16 1879.08 1673.53 1885.96 1673.53 1885.96 1694.16ZM1879.08 1666.66 1879.08 1646.03 1885.96 1646.03 1885.96 1666.66ZM1879.08 1639.16 1879.08 1618.53 1885.96 1618.53 1885.96 1639.16ZM1879.08 1611.66 1879.08 1591.03 1885.96 1591.03 1885.96 1611.66ZM1879.08 1584.16 1879.08 1563.53 1885.96 1563.53 1885.96 1584.16ZM1879.08 1556.66 1879.08 1536.03 1885.96 1536.03 1885.96 1556.66ZM1879.08 1529.16 1879.08 1508.53 1885.96 1508.53 1885.96 1529.16ZM1879.08 1501.66 1879.08 1481.03 1885.96 1481.03 1885.96 1501.66ZM1879.08 1474.16 1879.08 1453.53 1885.96 1453.53 1885.96 1474.16ZM1879.08 1446.66 1879.08 1426.03 1885.96 1426.03 1885.96 1446.66ZM1879.08 1419.16 1879.08 1398.53 1885.96 1398.53 1885.96 1419.16ZM1879.08 1391.66 1879.08 1371.03 1885.96 1371.03 1885.96 1391.66ZM1879.08 1364.16 1879.08 1343.53 1885.96 1343.53 1885.96 1364.16ZM1879.08 1336.66 1879.08 1316.03 1885.96 1316.03 1885.96 1336.66ZM1879.08 1309.16 1879.08 1288.53 1885.96 1288.53 1885.96 1309.16ZM1879.08 1281.66 1879.08 1261.03 1885.96 1261.03 1885.96 1281.66ZM1879.08 1254.16 1879.08 1233.53 1885.96 1233.53 1885.96 1254.16ZM1879.08 1226.66 1879.08 1206.03 1885.96 1206.03 1885.96 1226.66ZM1879.08 1199.16 1879.08 1178.53 1885.96 1178.53 1885.96 1199.16ZM1879.08 1171.66 1879.08 1151.03 1885.96 1151.03 1885.96 1171.66ZM1879.08 1144.16 1879.08 1123.53 1885.96 1123.53 1885.96 1144.16ZM1879.08 1116.66 1879.08 1096.03 1885.96 1096.03 1885.96 1116.66ZM1879.08 1089.16 1879.08 1068.53 1885.96 1068.53 1885.96 1089.16ZM1879.08 1061.66 1879.08 1041.03 1885.96 1041.03 1885.96 1061.66ZM1879.08 1034.16 1879.08 1013.53 1885.96 1013.53 1885.96 1034.16ZM1879.08 1006.66 1879.08 986.035 1885.96 986.035 1885.96 1006.66ZM1879.08 979.16 1879.08 958.535 1885.96 958.535 1885.96 979.16ZM1879.08 951.66 1879.08 931.035 1885.96 931.035 1885.96 951.66ZM1879.08 924.16 1879.08 903.535 1885.96 903.535 1885.96 924.16ZM1879.08 896.66 1879.08 876.035 1885.96 876.035 1885.96 896.66ZM1879.08 869.16 1879.08 848.535 1885.96 848.535 1885.96 869.16ZM1879.08 841.66 1879.08 841.5 1882.52 844.937 1862.06 844.937 1862.06 838.062 1882.52 838.062C1884.42 838.062 1885.96 839.601 1885.96 841.5L1885.96 841.66ZM1855.18 844.937 1853.45 844.937 1853.45 838.062 1855.18 838.062ZM1651.25 2049.56 1637.5 2077.06 1623.75 2049.56Z"/><text font-family="Cambria Math,Cambria Math_MSFontService,sans-serif" font-weight="400" font-size="55" transform="matrix(1 0 0 1 1655.55 2199)">⑥</text><text font-family="Arial,Arial_MSFontService,sans-serif" font-weight="400" font-size="55" transform="matrix(1 0 0 1 1736.91 2199)">decrypt</text><text font-family="Cambria Math,Cambria Math_MSFontService,sans-serif" font-weight="400" font-size="55" transform="matrix(1 0 0 1 2165.99 1374)">⑤</text><text font-family="Arial,Arial_MSFontService,sans-serif" font-weight="400" font-size="55" transform="matrix(1 0 0 1 2247.35 1374)">copy in</text><text font-family="Cambria Math,Cambria Math_MSFontService,sans-serif" font-weight="400" font-size="55" transform="matrix(1 0 0 1 2084.33 2315)">⑦</text><text font-family="Arial,Arial_MSFontService,sans-serif" font-weight="400" font-size="55" transform="matrix(1 0 0 1 2165.68 2315)">copy in</text><text font-family="Cambria Math,Cambria Math_MSFontService,sans-serif" font-weight="400" font-size="55" transform="matrix(1 0 0 1 2161.07 331)">①</text><text font-family="Arial,Arial_MSFontService,sans-serif" font-weight="400" font-size="55" transform="matrix(1 0 0 1 2242.43 331)">copy in (on file open)</text><text font-family="Cambria Math,Cambria Math_MSFontService,sans-serif" font-weight="400" font-size="55" transform="matrix(1 0 0 1 1132.25 965)">⑥</text><text font-family="Cambria Math,Cambria Math_MSFontService,sans-serif" font-weight="400" font-size="55" transform="matrix(1 0 0 1 1131.08 841)">⑥</text><text font-family="Cambria Math,Cambria Math_MSFontService,sans-serif" font-weight="400" font-size="55" transform="matrix(1 0 0 1 2292.21 1659)">⑧</text><text font-family="Cambria Math,Cambria Math_MSFontService,sans-serif" font-weight="400" font-size="55" transform="matrix(1 0 0 1 2734.44 1662)">⑧</text><text font-family="Cambria Math,Cambria Math_MSFontService,sans-serif" font-weight="400" font-size="55" transform="matrix(1 0 0 1 42.3123 2227)">⑩</text><text font-family="Arial,Arial_MSFontService,sans-serif" font-weight="400" font-size="55" transform="matrix(1 0 0 1 123.666 2227)">… read(</text><text font-family="Arial,Arial_MSFontService,sans-serif" font-weight="400" font-size="55" transform="matrix(1 0 0 1 321.896 2227)">buf</text><text font-family="Arial,Arial_MSFontService,sans-serif" font-weight="400" font-size="55" transform="matrix(1 0 0 1 398.094 2227)">) ← </text><text font-family="Arial,Arial_MSFontService,sans-serif" font-weight="400" font-size="55" transform="matrix(1 0 0 1 75.8165 2293)">node.decrypted</text><text font-family="Cambria Math,Cambria Math_MSFontService,sans-serif" font-weight="400" font-size="55" transform="matrix(1 0 0 1 1172.01 1224)">⑨</text><text font-family="Arial,Arial_MSFontService,sans-serif" font-weight="400" font-size="55" transform="matrix(1 0 0 1 1253.36 1224)">read(</text><text font-family="Arial,Arial_MSFontService,sans-serif" font-weight="400" font-size="55" transform="matrix(1 0 0 1 1381.12 1224)">buf</text><text font-family="Arial,Arial_MSFontService,sans-serif" font-weight="400" font-size="55" transform="matrix(1 0 0 1 1457.32 1224)">) ← </text><text font-family="Arial,Arial_MSFontService,sans-serif" font-weight="400" font-size="55" transform="matrix(1 0 0 1 1561.59 1224)">file_data</text><text font-family="Arial,Arial_MSFontService,sans-serif" font-weight="400" font-size="55" transform="matrix(1 0 0 1 1783.89 1224)">…</text><path d="M1382.21 2381.72 578.12 2381.72C574.323 2381.72 571.245 2378.65 571.245 2374.85L571.245 2078 578.12 2084.88 574 2084.88 574 2071.12 578.12 2071.12C581.917 2071.12 584.995 2074.2 584.995 2078L584.995 2374.85 578.12 2367.97 1382.21 2367.97ZM1375.33 2354.22 1416.58 2374.85 1375.33 2395.47Z"/></g></svg>