<svg width="3973" height="2428" xmlns="http://www.w3.org/2000/svg" xmlns:xlink="http://www.w3.org/1999/xlink" xml:space="preserve" overflow="hidden"><g transform="translate(-316 9)"><rect x="1365.5" y="151.5" width="529" height="399" stroke="#000000" stroke-width="9.16667" stroke-linejoin="round" stroke-miterlimit="10" fill="#FFDBCC"/><text font-family="Arial,Arial_MSFontService,sans-serif" font-weight="400" font-size="55" transform="matrix(1 0 0 1 1469.24 220)">#0: Metadata</text><rect x="1365.5" y="674.5" width="529" height="310" stroke="#000000" stroke-width="9.16667" stroke-linejoin="round" stroke-miterlimit="10" fill="#FAFFC4"/><text font-family="Arial,Arial_MSFontService,sans-serif" font-weight="400" font-size="55" transform="matrix(1 0 0 1 1448.05 743)">#1: Root MHT</text><text font-family="Arial,Arial_MSFontService,sans-serif" font-weight="400" font-size="37" transform="matrix(1 0 0 1 1790.08 756)">0</text><path d="M3.4375-1.00054e-05 3.43779 101.074-3.43721 101.074-3.4375 1.00054e-05ZM13.7503 96.4903 0.000360892 123.99-13.7497 96.4904Z" fill="#B1BABF" transform="matrix(1 0 0 -1 1629.5 674.49)"/><rect x="825.5" y="1190.5" width="529" height="310" stroke="#000000" stroke-width="9.16667" stroke-linejoin="round" stroke-miterlimit="10" fill="#FAFFC4"/><text font-family="Arial,Arial_MSFontService,sans-serif" font-weight="400" font-size="55" transform="matrix(1 0 0 1 958.776 1259)">#98: MHT</text><text font-family="Arial,Arial_MSFontService,sans-serif" font-weight="400" font-size="37" transform="matrix(1 0 0 1 1199.97 1272)">1</text><path d="M1087.06 1190.17 1087.06 1087.33C1087.06 1085.43 1088.6 1083.9 1090.5 1083.9L1630.19 1083.9 1626.75 1087.33 1626.75 1007.42 1633.62 1007.42 1633.62 1087.33C1633.62 1089.23 1632.09 1090.77 1630.19 1090.77L1090.5 1090.77 1093.94 1087.33 1093.94 1190.17ZM1616.44 1012 1630.19 984.5 1643.94 1012Z" fill="#B1BABF"/><rect x="583.5" y="1739.5" width="529" height="311" stroke="#000000" stroke-width="9.16667" stroke-linejoin="round" stroke-miterlimit="10" fill="#FAFFC4"/><text font-family="Arial,Arial_MSFontService,sans-serif" font-weight="400" font-size="55" transform="matrix(1 0 0 1 675.727 1809)">#3203: MHT</text><text font-family="Arial,Arial_MSFontService,sans-serif" font-weight="400" font-size="37" transform="matrix(1 0 0 1 977.654 1822)">33</text><rect x="1207.5" y="2111.5" width="147" height="172" stroke="#000000" stroke-width="9.16667" stroke-linejoin="round" stroke-miterlimit="10" fill="#C9F0FF"/><text font-family="Arial,Arial_MSFontService,sans-serif" font-weight="400" font-size="55" transform="matrix(1 0 0 1 1252.94 2217)">…</text><path d="M844.062 1739.82 844.062 1620.16C844.062 1618.26 845.601 1616.72 847.5 1616.72L1089.87 1616.72 1086.43 1620.16 1086.43 1523.42 1093.31 1523.42 1093.31 1620.16C1093.31 1622.06 1091.77 1623.6 1089.87 1623.6L847.5 1623.6 850.937 1620.16 850.937 1739.82ZM1076.12 1528 1089.87 1500.5 1103.62 1528Z" fill="#B1BABF"/><path d="M0-3.4375 216.39-3.4375C218.289-3.4375 219.828-1.89848 219.828 0L219.828 145.577 212.953 145.577 212.953 0 216.39 3.4375 0 3.4375ZM230.14 140.994 216.39 168.494 202.64 140.994Z" fill="#B1BABF" transform="matrix(-1.83697e-16 -1 -1 1.83697e-16 1280.99 2110.89)"/><rect x="672.5" y="1864.5" width="168" height="63.9999" stroke="#000000" stroke-width="9.16667" stroke-linejoin="round" stroke-miterlimit="10" fill="none"/><rect x="840.5" y="1864.5" width="169" height="65" stroke="#000000" stroke-width="9.16667" stroke-linejoin="round" stroke-miterlimit="10" fill="none"/><rect x="672.5" y="1928.5" width="169" height="65" stroke="#000000" stroke-width="20.625" stroke-linejoin="round" stroke-miterlimit="10" fill="none"/><rect x="841.5" y="1929.5" width="168" height="63.9999" stroke="#000000" stroke-width="20.625" stroke-linejoin="round" stroke-miterlimit="10" fill="none"/><rect x="924.5" y="1313.5" width="169" height="63.9999" stroke="#000000" stroke-width="20.625" stroke-linejoin="round" stroke-miterlimit="10" fill="none"/><rect x="1093.5" y="1313.5" width="168" height="65" stroke="#000000" stroke-width="20.625" stroke-linejoin="round" stroke-miterlimit="10" fill="none"/><rect x="925.5" y="1377.5" width="168" height="65" stroke="#000000" stroke-width="9.16667" stroke-linejoin="round" stroke-miterlimit="10" fill="none"/><rect x="1093.5" y="1378.5" width="168" height="63.9999" stroke="#000000" stroke-width="9.16667" stroke-linejoin="round" stroke-miterlimit="10" fill="none"/><rect x="1461.5" y="797.5" width="168" height="63.9999" stroke="#000000" stroke-width="20.625" stroke-linejoin="round" stroke-miterlimit="10" fill="none"/><rect x="1629.5" y="797.5" width="169" height="63.9999" stroke="#000000" stroke-width="20.625" stroke-linejoin="round" stroke-miterlimit="10" fill="none"/><rect x="1461.5" y="861.5" width="168" height="63.9999" stroke="#000000" stroke-width="9.16667" stroke-linejoin="round" stroke-miterlimit="10" fill="none"/><rect x="1629.5" y="861.5" width="169" height="64.9999" stroke="#000000" stroke-width="9.16667" stroke-linejoin="round" stroke-miterlimit="10" fill="none"/><text font-family="Arial,Arial_MSFontService,sans-serif" font-weight="400" font-size="55" transform="matrix(1 0 0 1 589.785 61)">KDK</text><text font-family="Cambria Math,Cambria Math_MSFontService,sans-serif" font-weight="400" font-size="50" transform="matrix(1 0 0 1 522.801 463)">⑨</text><text font-family="Arial,Arial_MSFontService,sans-serif" font-weight="700" font-size="55" transform="matrix(1 0 0 1 382.553 2372)">read(</text><text font-family="Arial,Arial_MSFontService,sans-serif" font-weight="700" font-size="55" transform="matrix(1 0 0 1 516.615 2372)">buf</text><text font-family="Arial,Arial_MSFontService,sans-serif" font-weight="700" font-size="55" transform="matrix(1 0 0 1 602.553 2372)">)</text><path d="M22.9168-3.4375 29.7918-3.4375 29.7918 3.4375 22.9168 3.4375ZM36.6668-3.4375 43.5418-3.4375 43.5418 3.4375 36.6668 3.4375ZM50.4168-3.4375 57.2918-3.4375 57.2918 3.4375 50.4168 3.4375ZM64.1668-3.4375 71.0418-3.4375 71.0418 3.4375 64.1668 3.4375ZM77.9168-3.4375 84.7918-3.4375 84.7918 3.4375 77.9168 3.4375ZM91.6668-3.4375 98.5418-3.4375 98.5418 3.4375 91.6668 3.4375ZM105.417-3.4375 112.292-3.4375 112.292 3.4375 105.417 3.4375ZM119.167-3.4375 126.042-3.4375 126.042 3.4375 119.167 3.4375ZM132.917-3.4375 139.792-3.4375 139.792 3.4375 132.917 3.4375ZM146.667-3.4375 153.542-3.4375 153.542 3.4375 146.667 3.4375ZM160.417-3.4375 167.292-3.4375 167.292 3.4375 160.417 3.4375ZM174.167-3.4375 181.042-3.4375 181.042 3.4375 174.167 3.4375ZM187.917-3.4375 194.792-3.4375 194.792 3.4375 187.917 3.4375ZM201.667-3.4375 208.542-3.4375 208.542 3.4375 201.667 3.4375ZM215.417-3.4375 222.292-3.4375 222.292 3.4375 215.417 3.4375ZM229.167-3.4375 236.042-3.4375 236.042 3.4375 229.167 3.4375ZM242.917-3.4375 249.792-3.4375 249.792 3.4375 242.917 3.4375ZM256.667-3.4375 263.542-3.4375 263.542 3.4375 256.667 3.4375ZM270.417-3.4375 277.292-3.4375 277.292 3.4375 270.417 3.4375ZM284.167-3.4375 291.042-3.4375 291.042 3.4375 284.167 3.4375ZM297.917-3.4375 304.792-3.4375 304.792 3.4375 297.917 3.4375ZM311.667-3.4375 318.542-3.4375 318.542 3.4375 311.667 3.4375ZM325.417-3.4375 332.292-3.4375 332.292 3.4375 325.417 3.4375ZM339.167-3.4375 346.042-3.4375 346.042 3.4375 339.167 3.4375ZM352.917-3.4375 359.792-3.4375 359.792 3.4375 352.917 3.4375ZM366.667-3.4375 373.542-3.4375 373.542 3.4375 366.667 3.4375ZM380.417-3.4375 387.292-3.4375 387.292 3.4375 380.417 3.4375ZM394.167-3.4375 401.042-3.4375 401.042 3.4375 394.167 3.4375ZM407.917-3.4375 414.792-3.4375 414.792 3.4375 407.917 3.4375ZM421.667-3.4375 428.542-3.4375 428.542 3.4375 421.667 3.4375ZM435.417-3.4375 442.292-3.4375 442.292 3.4375 435.417 3.4375ZM449.167-3.4375 456.042-3.4375 456.042 3.4375 449.167 3.4375ZM462.917-3.4375 469.792-3.4375 469.792 3.4375 462.917 3.4375ZM476.667-3.4375 483.542-3.4375 483.542 3.4375 476.667 3.4375ZM490.417-3.4375 497.292-3.4375 497.292 3.4375 490.417 3.4375ZM504.167-3.4375 511.042-3.4375 511.042 3.4375 504.167 3.4375ZM517.917-3.4375 524.792-3.4375 524.792 3.4375 517.917 3.4375ZM531.667-3.4375 538.542-3.4375 538.542 3.4375 531.667 3.4375ZM545.417-3.4375 552.292-3.4375 552.292 3.4375 545.417 3.4375ZM559.167-3.4375 566.042-3.4375 566.042 3.4375 559.167 3.4375ZM572.917-3.4375 579.792-3.4375 579.792 3.4375 572.917 3.4375ZM586.667-3.4375 593.249-3.4375C595.148-3.4375 596.687-1.89848 596.687 0L596.687 0.292458 589.812 0.292458 589.812 0 593.249 3.4375 586.667 3.4375ZM596.687 7.16746 596.687 14.0425 589.812 14.0425 589.812 7.16746ZM596.687 20.9175 596.687 27.7925 589.812 27.7925 589.812 20.9175ZM596.687 34.6675 596.687 41.5425 589.812 41.5425 589.812 34.6675ZM596.687 48.4175 596.687 55.2925 589.812 55.2925 589.812 48.4175ZM596.687 62.1675 596.687 69.0425 589.812 69.0425 589.812 62.1675ZM27.5 13.75 0 0 27.5-13.75Z" transform="matrix(1 0 0 -1 687.5 2353.79)"/><text font-family="Cambria Math,Cambria Math_MSFontService,sans-serif" font-weight="400" font-size="50" transform="matrix(1 0 0 1 868.397 2331)">⑩</text><text font-family="Arial,Arial_MSFontService,sans-serif" font-weight="700" font-size="55" transform="matrix(1 0 0 1 1579.09 2215)">Bounce</text><text font-family="Arial,Arial_MSFontService,sans-serif" font-weight="700" font-size="55" transform="matrix(1 0 0 1 1791.64 2215)">buffer</text><path d="M22.9167-3.4375 43.5417-3.4375 43.5417 3.4375 22.9167 3.4375ZM50.4167-3.4375 71.0417-3.4375 71.0417 3.4375 50.4167 3.4375ZM77.9167-3.4375 82.0294-3.4375C83.9279-3.4375 85.4669-1.89848 85.4669 0L85.4669 1.61896 82.0294-1.81854 96.9227-1.81854 96.9227 5.05646 82.0294 5.05646C80.1309 5.05646 78.5919 3.51744 78.5919 1.61896L78.5919 0 82.0294 3.4375 77.9167 3.4375ZM103.798-1.81854 124.423-1.81854 124.423 5.05646 103.798 5.05646ZM131.298-1.81854 151.923-1.81854 151.923 5.05646 131.298 5.05646ZM158.798-1.81854 164.058-1.81854 164.058 5.05646 158.798 5.05646ZM27.5 13.75 0 0 27.5-13.75Z" transform="matrix(1 0 0 -1 1354.5 2197.12)"/><path d="M0-3.4375 20.625-3.4375 20.625 3.4375 0 3.4375ZM27.5-3.4375 48.125-3.4375 48.125 3.4375 27.5 3.4375ZM55-3.4375 75.625-3.4375 75.625 3.4375 55 3.4375ZM82.5-3.4375 84.4683-3.4375C86.3668-3.4375 87.9058-1.89848 87.9058 0L87.9058 18.6567 81.0308 18.6567 81.0308 0 84.4683 3.4375 82.5 3.4375ZM87.9058 25.5317 87.9058 46.1567 81.0308 46.1567 81.0308 25.5317ZM87.9058 53.0317 87.9058 73.6567 81.0308 73.6567 81.0308 53.0317ZM87.9058 80.5317 87.9058 101.157 81.0308 101.157 81.0308 80.5317ZM87.9058 108.032 87.9058 128.657 81.0308 128.657 81.0308 108.032ZM87.9058 135.532 87.9058 156.157 81.0308 156.157 81.0308 135.532ZM87.9058 163.032 87.9058 183.657 81.0308 183.657 81.0308 163.032ZM87.9058 190.532 87.9058 211.157 81.0308 211.157 81.0308 190.532ZM87.9058 218.032 87.9058 238.657 81.0308 238.657 81.0308 218.032ZM87.9058 245.532 87.9058 266.157 81.0308 266.157 81.0308 245.532ZM87.9058 273.032 87.9058 293.657 81.0308 293.657 81.0308 273.032ZM87.9058 300.532 87.9058 321.157 81.0308 321.157 81.0308 300.532ZM87.9058 328.032 87.9058 348.657 81.0308 348.657 81.0308 328.032ZM87.9058 355.532 87.9058 376.157 81.0308 376.157 81.0308 355.532ZM87.9058 383.032 87.9058 403.657 81.0308 403.657 81.0308 383.032ZM87.9058 410.532 87.9058 431.157 81.0308 431.157 81.0308 410.532ZM87.9058 438.032 87.9058 458.657 81.0308 458.657 81.0308 438.032ZM87.9058 465.532 87.9058 486.157 81.0308 486.157 81.0308 465.532ZM87.9058 493.032 87.9058 513.657 81.0308 513.657 81.0308 493.032ZM87.9058 520.532 87.9058 541.157 81.0308 541.157 81.0308 520.532ZM87.9058 548.032 87.9058 568.657 81.0308 568.657 81.0308 548.032ZM87.9058 575.532 87.9058 596.157 81.0308 596.157 81.0308 575.532ZM87.9058 603.032 87.9058 623.657 81.0308 623.657 81.0308 603.032ZM87.9058 630.532 87.9058 651.157 81.0308 651.157 81.0308 630.532ZM87.9058 658.032 87.9058 678.657 81.0308 678.657 81.0308 658.032ZM87.9058 685.532 87.9058 706.157 81.0308 706.157 81.0308 685.532ZM87.9058 713.032 87.9058 733.657 81.0308 733.657 81.0308 713.032ZM87.9058 740.532 87.9058 761.157 81.0308 761.157 81.0308 740.532ZM87.9058 768.032 87.9058 788.657 81.0308 788.657 81.0308 768.032ZM87.9058 795.532 87.9058 816.157 81.0308 816.157 81.0308 795.532ZM87.9058 823.032 87.9058 843.657 81.0308 843.657 81.0308 823.032ZM87.9058 850.532 87.9058 871.157 81.0308 871.157 81.0308 850.532ZM87.9058 878.032 87.9058 898.657 81.0308 898.657 81.0308 878.032ZM87.9058 905.532 87.9058 926.157 81.0308 926.157 81.0308 905.532ZM87.9058 933.032 87.9058 953.657 81.0308 953.657 81.0308 933.032ZM87.9058 960.532 87.9058 981.157 81.0308 981.157 81.0308 960.532ZM87.9058 988.032 87.9058 1006.94 84.4683 1003.51 86.1807 1003.51 86.1807 1010.38 84.4683 1010.38C82.5698 1010.38 81.0308 1008.84 81.0308 1006.94L81.0308 988.032ZM93.0557 1003.51 113.681 1003.51 113.681 1010.38 93.0557 1010.38ZM120.556 1003.51 141.181 1003.51 141.181 1010.38 120.556 1010.38ZM141.437 993.194 168.937 1006.94 141.437 1020.69Z" transform="matrix(1.83697e-16 1 1 -1.83697e-16 756.5 1993.5)"/><path d="M1009.5 1958.06 1030.13 1958.06 1030.13 1964.94 1009.5 1964.94ZM1037 1958.06 1057.63 1958.06 1057.63 1964.94 1037 1964.94ZM1064.5 1958.06 1085.13 1958.06 1085.13 1964.94 1064.5 1964.94ZM1092 1958.06 1112.63 1958.06 1112.63 1964.94 1092 1964.94ZM1119.5 1958.06 1140.13 1958.06 1140.13 1964.94 1119.5 1964.94ZM1147 1958.06 1167.63 1958.06 1167.63 1964.94 1147 1964.94ZM1174.5 1958.06 1195.13 1958.06 1195.13 1964.94 1174.5 1964.94ZM1202 1958.06 1222.63 1958.06 1222.63 1964.94 1202 1964.94ZM1229.5 1958.06 1250.13 1958.06 1250.13 1964.94 1229.5 1964.94ZM1257 1958.06 1277.63 1958.06 1277.63 1964.94 1257 1964.94ZM1284.5 1958.06 1305.13 1958.06 1305.13 1964.94 1284.5 1964.94ZM1312 1958.06 1332.63 1958.06 1332.63 1964.94 1312 1964.94ZM1339.5 1958.06 1360.13 1958.06 1360.13 1964.94 1339.5 1964.94ZM1367 1958.06 1387.63 1958.06 1387.63 1964.94 1367 1964.94ZM1394.5 1958.06 1415.13 1958.06 1415.13 1964.94 1394.5 1964.94ZM1422 1958.06 1442.63 1958.06 1442.63 1964.94 1422 1964.94ZM1449.5 1958.06 1470.13 1958.06 1470.13 1964.94 1449.5 1964.94ZM1477 1958.06 1497.63 1958.06 1497.63 1964.94 1477 1964.94ZM1504.5 1958.06 1525.13 1958.06 1525.13 1964.94 1504.5 1964.94ZM1532 1958.06 1552.63 1958.06 1552.63 1964.94 1532 1964.94ZM1559.5 1958.06 1580.13 1958.06 1580.13 1964.94 1559.5 1964.94ZM1587 1958.06 1607.63 1958.06 1607.63 1964.94 1587 1964.94ZM1614.5 1958.06 1635.13 1958.06 1635.13 1964.94 1614.5 1964.94ZM1642 1958.06 1662.63 1958.06 1662.63 1964.94 1642 1964.94ZM1669.5 1958.06 1690.13 1958.06 1690.13 1964.94 1669.5 1964.94ZM1697 1958.06 1717.63 1958.06 1717.63 1964.94 1697 1964.94ZM1724.5 1958.06 1745.13 1958.06 1745.13 1964.94 1724.5 1964.94ZM1752 1958.06 1772.63 1958.06 1772.63 1964.94 1752 1964.94ZM1779.5 1958.06 1800.13 1958.06 1800.13 1964.94 1779.5 1964.94ZM1807 1958.06 1827.63 1958.06 1827.63 1964.94 1807 1964.94ZM1834.5 1958.06 1855.13 1958.06 1855.13 1964.94 1834.5 1964.94ZM1862 1958.06 1882.63 1958.06 1882.63 1964.94 1862 1964.94ZM1889.5 1958.06 1910.13 1958.06 1910.13 1964.94 1889.5 1964.94ZM1917 1958.06 1937.63 1958.06 1937.63 1964.94 1917 1964.94ZM1944.5 1958.06 1965.13 1958.06 1965.13 1964.94 1944.5 1964.94ZM1972 1958.06 1992.63 1958.06 1992.63 1964.94 1972 1964.94ZM1999.5 1958.06 2020.13 1958.06 2020.13 1964.94 1999.5 1964.94ZM2027 1958.06 2047.63 1958.06 2047.63 1964.94 2027 1964.94ZM2054.5 1958.06 2075.12 1958.06 2075.12 1964.94 2054.5 1964.94ZM2082 1958.06 2091.2 1958.06C2093.1 1958.06 2094.64 1959.6 2094.64 1961.5L2094.64 1972.93 2087.76 1972.93 2087.76 1961.5 2091.2 1964.94 2082 1964.94ZM2094.64 1979.8 2094.64 2000.43 2087.76 2000.43 2087.76 1979.8ZM2094.64 2007.3 2094.64 2027.93 2087.76 2027.93 2087.76 2007.3ZM2094.64 2034.8 2094.64 2055.43 2087.76 2055.43 2087.76 2034.8ZM2094.64 2062.3 2094.64 2082.93 2087.76 2082.93 2087.76 2062.3ZM2094.64 2089.8 2094.64 2110.43 2087.76 2110.43 2087.76 2089.8ZM2094.64 2117.3 2094.64 2137.93 2087.76 2137.93 2087.76 2117.3ZM2094.64 2144.8 2094.64 2165.43 2087.76 2165.43 2087.76 2144.8ZM2094.64 2172.3 2094.64 2192.93 2087.76 2192.93 2087.76 2172.3ZM2087.07 2199.11 2066.44 2199.11 2066.44 2192.23 2087.07 2192.23ZM2059.57 2199.11 2038.94 2199.11 2038.94 2192.23 2059.57 2192.23ZM2032.07 2199.11 2031.61 2199.11 2031.61 2192.23 2032.07 2192.23ZM2036.2 2209.42 2008.7 2195.67 2036.2 2181.92Z"/><text fill="#7F7F7F" font-family="Arial,Arial_MSFontService,sans-serif" font-weight="400" font-size="50" transform="matrix(1 0 0 1 1635.37 2058)">key</text><text fill="#7F7F7F" font-family="Arial,Arial_MSFontService,sans-serif" font-weight="400" font-size="50" transform="matrix(1 0 0 1 1928.05 2004)">MAC</text><text font-family="Cambria Math,Cambria Math_MSFontService,sans-serif" font-weight="400" font-size="50" transform="matrix(1 0 0 1 1547.81 2146)">⑧</text><text font-family="Cambria Math,Cambria Math_MSFontService,sans-serif" font-weight="400" font-size="50" transform="matrix(1 0 0 1 3583.11 722)">⑤</text><text font-family="Arial,Arial_MSFontService,sans-serif" font-weight="700" font-size="55" transform="matrix(1 0 0 1 1985.52 1762)">Bounce</text><text font-family="Arial,Arial_MSFontService,sans-serif" font-weight="700" font-size="55" transform="matrix(1 0 0 1 2198.07 1762)">buffer</text><path d="M22.9168-3.4375 43.5418-3.4375 43.5418 3.4375 22.9168 3.4375ZM50.4168-3.4375 71.0418-3.4375 71.0418 3.4375 50.4168 3.4375ZM77.9168-3.4375 98.5418-3.4375 98.5418 3.4375 77.9168 3.4375ZM105.417-3.4375 126.042-3.4375 126.042 3.4375 105.417 3.4375ZM132.917-3.4375 153.542-3.4375 153.542 3.4375 132.917 3.4375ZM160.417-3.4375 181.042-3.4375 181.042 3.4375 160.417 3.4375ZM187.917-3.4375 208.542-3.4375 208.542 3.4375 187.917 3.4375ZM215.417-3.4375 236.042-3.4375 236.042 3.4375 215.417 3.4375ZM242.917-3.4375 263.542-3.4375 263.542 3.4375 242.917 3.4375ZM270.417-3.4375 291.042-3.4375 291.042 3.4375 270.417 3.4375ZM297.917-3.4375 318.542-3.4375 318.542 3.4375 297.917 3.4375ZM325.417-3.4375 346.042-3.4375 346.042 3.4375 325.417 3.4375ZM352.917-3.4375 373.542-3.4375 373.542 3.4375 352.917 3.4375ZM380.417-3.4375 401.042-3.4375 401.042 3.4375 380.417 3.4375ZM409.868 1.48611 409.868 22.1111 402.993 22.1111 402.993 1.48611ZM409.868 28.9861 409.868 49.6111 402.993 49.6111 402.993 28.9861ZM409.868 56.4861 409.868 77.1111 402.993 77.1111 402.993 56.4861ZM409.868 83.9861 409.868 93.0619 406.431 89.6244 417.98 89.6244 417.98 96.4994 406.431 96.4994C404.532 96.4994 402.993 94.9604 402.993 93.0619L402.993 83.9861ZM424.855 89.6244 445.48 89.6244 445.48 96.4994 424.855 96.4994ZM452.355 89.6244 472.98 89.6244 472.98 96.4994 452.355 96.4994ZM479.855 89.6244 500.48 89.6244 500.48 96.4994 479.855 96.4994ZM507.355 89.6244 527.98 89.6244 527.98 96.4994 507.355 96.4994ZM534.855 89.6244 555.48 89.6244 555.48 96.4994 534.855 96.4994ZM562.355 89.6244 582.98 89.6244 582.98 96.4994 562.355 96.4994ZM589.855 89.6244 610.48 89.6244 610.48 96.4994 589.855 96.4994ZM617.355 89.6244 637.98 89.6244 637.98 96.4994 617.355 96.4994ZM644.855 89.6244 665.48 89.6244 665.48 96.4994 644.855 96.4994ZM672.355 89.6244 692.98 89.6244 692.98 96.4994 672.355 96.4994ZM699.855 89.6244 720.48 89.6244 720.48 96.4994 699.855 96.4994ZM727.355 89.6244 747.98 89.6244 747.98 96.4994 727.355 96.4994ZM754.855 89.6244 775.48 89.6244 775.48 96.4994 754.855 96.4994ZM782.355 89.6244 802.98 89.6244 802.98 96.4994 782.355 96.4994ZM809.855 89.6244 812.861 89.6244 812.861 96.4994 809.855 96.4994ZM27.5 13.75 0 0 27.5-13.75Z" transform="matrix(1 0 0 -1 1112.5 1835.56)"/><path d="M0-3.4375 20.625-3.4375 20.625 3.4375 0 3.4375ZM27.5-3.4375 48.125-3.4375 48.125 3.4375 27.5 3.4375ZM55-3.4375 75.625-3.4375 75.625 3.4375 55 3.4375ZM82.5-3.4375 103.125-3.4375 103.125 3.4375 82.5 3.4375ZM110-3.4375 130.625-3.4375 130.625 3.4375 110 3.4375ZM137.5-3.4375 158.125-3.4375 158.125 3.4375 137.5 3.4375ZM165-3.4375 165.863-3.4375C167.762-3.4375 169.301-1.89848 169.301 0L169.301 19.7618 162.426 19.7618 162.426 0 165.863 3.4375 165 3.4375ZM169.301 26.6368 169.301 47.2618 162.426 47.2618 162.426 26.6368ZM169.301 54.1368 169.301 74.7618 162.426 74.7618 162.426 54.1368ZM169.301 81.6368 169.301 102.262 162.426 102.262 162.426 81.6368ZM169.301 109.137 169.301 129.762 162.426 129.762 162.426 109.137ZM169.301 136.637 169.301 157.262 162.426 157.262 162.426 136.637ZM169.301 164.137 169.301 184.762 162.426 184.762 162.426 164.137ZM169.301 191.637 169.301 212.262 162.426 212.262 162.426 191.637ZM169.301 219.137 169.301 239.762 162.426 239.762 162.426 219.137ZM169.301 246.637 169.301 267.262 162.426 267.262 162.426 246.637ZM169.301 274.137 169.301 294.762 162.426 294.762 162.426 274.137ZM169.301 301.637 169.301 322.262 162.426 322.262 162.426 301.637ZM169.301 329.137 169.301 349.762 162.426 349.762 162.426 329.137ZM169.301 356.637 169.301 377.262 162.426 377.262 162.426 356.637ZM169.301 384.137 169.301 404.762 162.426 404.762 162.426 384.137ZM169.301 411.637 169.301 432.262 162.426 432.262 162.426 411.637ZM169.301 439.137 169.301 459.762 162.426 459.762 162.426 439.137ZM169.301 466.637 169.301 487.262 162.426 487.262 162.426 466.637ZM169.301 494.137 169.301 514.762 162.426 514.762 162.426 494.137ZM169.301 521.637 169.301 542.262 162.426 542.262 162.426 521.637ZM169.301 549.137 169.301 569.762 162.426 569.762 162.426 549.137ZM169.301 576.637 169.301 597.262 162.426 597.262 162.426 576.637ZM169.301 604.137 169.301 624.762 162.426 624.762 162.426 604.137ZM169.301 631.637 169.301 652.262 162.426 652.262 162.426 631.637ZM169.301 659.137 169.301 679.762 162.426 679.762 162.426 659.137ZM169.301 686.637 169.301 707.262 162.426 707.262 162.426 686.637ZM169.301 714.137 169.301 734.762 162.426 734.762 162.426 714.137ZM169.301 741.637 169.301 762.262 162.426 762.262 162.426 741.637ZM169.301 769.137 169.301 789.762 162.426 789.762 162.426 769.137ZM169.301 796.637 169.301 817.262 162.426 817.262 162.426 796.637ZM169.301 824.137 169.301 844.762 162.426 844.762 162.426 824.137ZM169.301 851.637 169.301 872.262 162.426 872.262 162.426 851.637ZM169.301 879.137 169.301 899.762 162.426 899.762 162.426 879.137ZM169.301 906.637 169.301 927.262 162.426 927.262 162.426 906.637ZM169.301 934.137 169.301 954.762 162.426 954.762 162.426 934.137ZM169.301 961.637 169.301 982.262 162.426 982.262 162.426 961.637ZM169.301 989.137 169.301 1009.76 162.426 1009.76 162.426 989.137ZM169.301 1016.64 169.301 1037.26 162.426 1037.26 162.426 1016.64ZM169.301 1044.14 169.301 1064.76 162.426 1064.76 162.426 1044.14ZM169.301 1071.64 169.301 1092.26 162.426 1092.26 162.426 1071.64ZM169.301 1099.14 169.301 1119.76 162.426 1119.76 162.426 1099.14ZM169.301 1126.64 169.301 1147.26 162.426 1147.26 162.426 1126.64ZM169.301 1154.14 169.301 1161.03 165.863 1157.59 179.596 1157.59 179.596 1164.47 165.863 1164.47C163.965 1164.47 162.426 1162.93 162.426 1161.03L162.426 1154.14ZM186.471 1157.59 207.096 1157.59 207.096 1164.47 186.471 1164.47ZM213.971 1157.59 234.596 1157.59 234.596 1164.47 213.971 1164.47ZM241.471 1157.59 262.096 1157.59 262.096 1164.47 241.471 1164.47ZM268.971 1157.59 289.596 1157.59 289.596 1164.47 268.971 1164.47ZM296.471 1157.59 308.808 1157.59 308.808 1164.47 296.471 1164.47ZM304.225 1147.28 331.725 1161.03 304.225 1174.78Z" transform="matrix(1.83697e-16 1 1 -1.83697e-16 1009.5 1377.5)"/><path d="M1261.5 1342.06 1282.13 1342.06 1282.13 1348.94 1261.5 1348.94ZM1289 1342.06 1309.63 1342.06 1309.63 1348.94 1289 1348.94ZM1316.5 1342.06 1337.13 1342.06 1337.13 1348.94 1316.5 1348.94ZM1344 1342.06 1364.63 1342.06 1364.63 1348.94 1344 1348.94ZM1371.5 1342.06 1392.13 1342.06 1392.13 1348.94 1371.5 1348.94ZM1399 1342.06 1419.63 1342.06 1419.63 1348.94 1399 1348.94ZM1426.5 1342.06 1447.13 1342.06 1447.13 1348.94 1426.5 1348.94ZM1454 1342.06 1474.63 1342.06 1474.63 1348.94 1454 1348.94ZM1481.5 1342.06 1502.13 1342.06 1502.13 1348.94 1481.5 1348.94ZM1509 1342.06 1529.63 1342.06 1529.63 1348.94 1509 1348.94ZM1536.5 1342.06 1557.13 1342.06 1557.13 1348.94 1536.5 1348.94ZM1564 1342.06 1584.63 1342.06 1584.63 1348.94 1564 1348.94ZM1591.5 1342.06 1612.13 1342.06 1612.13 1348.94 1591.5 1348.94ZM1619 1342.06 1639.63 1342.06 1639.63 1348.94 1619 1348.94ZM1646.5 1342.06 1667.13 1342.06 1667.13 1348.94 1646.5 1348.94ZM1674 1342.06 1694.63 1342.06 1694.63 1348.94 1674 1348.94ZM1701.5 1342.06 1722.13 1342.06 1722.13 1348.94 1701.5 1348.94ZM1729 1342.06 1749.63 1342.06 1749.63 1348.94 1729 1348.94ZM1756.5 1342.06 1777.13 1342.06 1777.13 1348.94 1756.5 1348.94ZM1784 1342.06 1804.63 1342.06 1804.63 1348.94 1784 1348.94ZM1811.5 1342.06 1832.13 1342.06 1832.13 1348.94 1811.5 1348.94ZM1839 1342.06 1859.63 1342.06 1859.63 1348.94 1839 1348.94ZM1866.5 1342.06 1887.13 1342.06 1887.13 1348.94 1866.5 1348.94ZM1894 1342.06 1914.63 1342.06 1914.63 1348.94 1894 1348.94ZM1921.5 1342.06 1942.13 1342.06 1942.13 1348.94 1921.5 1348.94ZM1949 1342.06 1969.63 1342.06 1969.63 1348.94 1949 1348.94ZM1976.5 1342.06 1997.13 1342.06 1997.13 1348.94 1976.5 1348.94ZM2004 1342.06 2024.63 1342.06 2024.63 1348.94 2004 1348.94ZM2031.5 1342.06 2052.12 1342.06 2052.12 1348.94 2031.5 1348.94ZM2059 1342.06 2079.62 1342.06 2079.62 1348.94 2059 1348.94ZM2086.5 1342.06 2107.12 1342.06 2107.12 1348.94 2086.5 1348.94ZM2114 1342.06 2134.62 1342.06 2134.62 1348.94 2114 1348.94ZM2141.5 1342.06 2162.12 1342.06 2162.12 1348.94 2141.5 1348.94ZM2169 1342.06 2189.62 1342.06 2189.62 1348.94 2169 1348.94ZM2196.5 1342.06 2217.12 1342.06 2217.12 1348.94 2196.5 1348.94ZM2224 1342.06 2244.62 1342.06 2244.62 1348.94 2224 1348.94ZM2251.5 1342.06 2272.12 1342.06 2272.12 1348.94 2251.5 1348.94ZM2279 1342.06 2299.62 1342.06 2299.62 1348.94 2279 1348.94ZM2306.5 1342.06 2327.12 1342.06 2327.12 1348.94 2306.5 1348.94ZM2334 1342.06 2354.62 1342.06 2354.62 1348.94 2334 1348.94ZM2361.5 1342.06 2382.12 1342.06 2382.12 1348.94 2361.5 1348.94ZM2389 1342.06 2409.62 1342.06 2409.62 1348.94 2389 1348.94ZM2416.5 1342.06 2437.12 1342.06 2437.12 1348.94 2416.5 1348.94ZM2444 1342.06 2464.62 1342.06 2464.62 1348.94 2444 1348.94ZM2471.5 1342.06 2492.12 1342.06 2492.12 1348.94 2471.5 1348.94ZM2500.72 1347.21 2500.72 1367.84 2493.85 1367.84 2493.85 1347.21ZM2500.72 1374.71 2500.72 1395.34 2493.85 1395.34 2493.85 1374.71ZM2500.72 1402.21 2500.72 1422.84 2493.85 1422.84 2493.85 1402.21ZM2500.72 1429.71 2500.72 1450.34 2493.85 1450.34 2493.85 1429.71ZM2500.72 1457.21 2500.72 1477.84 2493.85 1477.84 2493.85 1457.21ZM2500.72 1484.71 2500.72 1505.34 2493.85 1505.34 2493.85 1484.71ZM2500.72 1512.21 2500.72 1532.84 2493.85 1532.84 2493.85 1512.21ZM2500.72 1539.71 2500.72 1560.34 2493.85 1560.34 2493.85 1539.71ZM2500.72 1567.21 2500.72 1587.84 2493.85 1587.84 2493.85 1567.21ZM2500.72 1594.71 2500.72 1615.34 2493.85 1615.34 2493.85 1594.71ZM2500.72 1622.21 2500.72 1642.84 2493.85 1642.84 2493.85 1622.21ZM2500.72 1649.71 2500.72 1670.34 2493.85 1670.34 2493.85 1649.71ZM2500.72 1677.21 2500.72 1697.84 2493.85 1697.84 2493.85 1677.21ZM2500.72 1704.71 2500.72 1725.34 2493.85 1725.34 2493.85 1704.71ZM2500.72 1732.21 2500.72 1742.46C2500.72 1744.35 2499.18 1745.89 2497.29 1745.89L2486.9 1745.89 2486.9 1739.02 2497.29 1739.02 2493.85 1742.46 2493.85 1732.21ZM2480.03 1745.89 2459.4 1745.89 2459.4 1739.02 2480.03 1739.02ZM2452.53 1745.89 2437.7 1745.89 2437.7 1739.02 2452.53 1739.02ZM2442.28 1756.21 2414.78 1742.46 2442.28 1728.71Z"/><text font-family="Cambria Math,Cambria Math_MSFontService,sans-serif" font-weight="400" font-size="50" transform="matrix(1 0 0 1 1990.05 1700)">⑥</text><text fill="#7F7F7F" font-family="Arial,Arial_MSFontService,sans-serif" font-weight="400" font-size="50" transform="matrix(1 0 0 1 2083.85 1519)">key</text><text fill="#7F7F7F" font-family="Arial,Arial_MSFontService,sans-serif" font-weight="400" font-size="50" transform="matrix(1 0 0 1 2330.72 1392)">MAC</text><text font-family="Arial,Arial_MSFontService,sans-serif" font-weight="700" font-size="55" transform="matrix(1 0 0 1 2676.46 1136)">Bounce</text><text font-family="Arial,Arial_MSFontService,sans-serif" font-weight="700" font-size="55" transform="matrix(1 0 0 1 2889.01 1136)">buffer</text><path d="M22.9168-3.4375 43.5418-3.4375 43.5418 3.4375 22.9168 3.4375ZM50.4168-3.4375 71.0418-3.4375 71.0418 3.4375 50.4168 3.4375ZM77.9168-3.4375 98.5418-3.4375 98.5418 3.4375 77.9168 3.4375ZM105.417-3.4375 126.042-3.4375 126.042 3.4375 105.417 3.4375ZM132.917-3.4375 153.542-3.4375 153.542 3.4375 132.917 3.4375ZM160.417-3.4375 181.042-3.4375 181.042 3.4375 160.417 3.4375ZM187.917-3.4375 208.542-3.4375 208.542 3.4375 187.917 3.4375ZM215.417-3.4375 236.042-3.4375 236.042 3.4375 215.417 3.4375ZM242.917-3.4375 263.542-3.4375 263.542 3.4375 242.917 3.4375ZM270.417-3.4375 291.042-3.4375 291.042 3.4375 270.417 3.4375ZM297.917-3.4375 318.542-3.4375 318.542 3.4375 297.917 3.4375ZM325.417-3.4375 346.042-3.4375 346.042 3.4375 325.417 3.4375ZM352.917-3.4375 373.542-3.4375 373.542 3.4375 352.917 3.4375ZM380.417-3.4375 401.042-3.4375 401.042 3.4375 380.417 3.4375ZM407.917-3.4375 428.542-3.4375 428.542 3.4375 407.917 3.4375ZM435.417-3.4375 456.042-3.4375 456.042 3.4375 435.417 3.4375ZM462.917-3.4375 483.542-3.4375 483.542 3.4375 462.917 3.4375ZM490.417-3.4375 511.042-3.4375 511.042 3.4375 490.417 3.4375ZM517.917-3.4375 538.542-3.4375 538.542 3.4375 517.917 3.4375ZM545.417-3.4375 566.042-3.4375 566.042 3.4375 545.417 3.4375ZM572.917-3.4375 593.542-3.4375 593.542 3.4375 572.917 3.4375ZM600.417-3.4375 621.042-3.4375 621.042 3.4375 600.417 3.4375ZM628.939 2.41577 628.939 23.0408 622.064 23.0408 622.064 2.41577ZM628.939 29.9158 628.939 50.5408 622.064 50.5408 622.064 29.9158ZM628.939 57.4158 628.939 78.0408 622.064 78.0408 622.064 57.4158ZM628.939 84.9158 628.939 105.541 622.064 105.541 622.064 84.9158ZM628.939 112.416 628.939 118.08 625.501 114.643 640.461 114.643 640.461 121.518 625.501 121.518C623.603 121.518 622.064 119.979 622.064 118.08L622.064 112.416ZM647.336 114.643 667.961 114.643 667.961 121.518 647.336 121.518ZM674.836 114.643 695.461 114.643 695.461 121.518 674.836 121.518ZM702.336 114.643 722.961 114.643 722.961 121.518 702.336 121.518ZM729.836 114.643 750.461 114.643 750.461 121.518 729.836 121.518ZM757.336 114.643 777.961 114.643 777.961 121.518 757.336 121.518ZM784.836 114.643 805.461 114.643 805.461 121.518 784.836 121.518ZM812.336 114.643 832.961 114.643 832.961 121.518 812.336 121.518ZM839.836 114.643 860.461 114.643 860.461 121.518 839.836 121.518ZM867.336 114.643 887.961 114.643 887.961 121.518 867.336 121.518ZM894.836 114.643 915.461 114.643 915.461 121.518 894.836 121.518ZM922.336 114.643 942.961 114.643 942.961 121.518 922.336 121.518ZM949.836 114.643 970.461 114.643 970.461 121.518 949.836 121.518ZM977.336 114.643 997.961 114.643 997.961 121.518 977.336 121.518ZM1004.84 114.643 1025.46 114.643 1025.46 121.518 1004.84 121.518ZM1032.34 114.643 1052.96 114.643 1052.96 121.518 1032.34 121.518ZM1059.84 114.643 1080.46 114.643 1080.46 121.518 1059.84 121.518ZM1087.34 114.643 1107.96 114.643 1107.96 121.518 1087.34 121.518ZM1114.84 114.643 1135.46 114.643 1135.46 121.518 1114.84 121.518ZM1142.34 114.643 1162.96 114.643 1162.96 121.518 1142.34 121.518ZM1169.84 114.643 1190.46 114.643 1190.46 121.518 1169.84 121.518ZM1197.34 114.643 1217.96 114.643 1217.96 121.518 1197.34 121.518ZM1224.84 114.643 1245.46 114.643 1245.46 121.518 1224.84 121.518ZM27.5 13.75 0 0 27.5-13.75Z" transform="matrix(1 0 0 -1 1365.5 1234.58)"/><path d="M0-3.4375 20.625-3.4375 20.625 3.4375 0 3.4375ZM27.5-3.4375 48.125-3.4375 48.125 3.4375 27.5 3.4375ZM55-3.4375 75.625-3.4375 75.625 3.4375 55 3.4375ZM82.5-3.4375 103.125-3.4375 103.125 3.4375 82.5 3.4375ZM110-3.4375 130.625-3.4375 130.625 3.4375 110 3.4375ZM137.5-3.4375 158.125-3.4375 158.125 3.4375 137.5 3.4375ZM165-3.4375 165.785-3.4375C167.684-3.4375 169.223-1.89848 169.223 0L169.223 19.8396 162.348 19.8396 162.348 0 165.785 3.4375 165 3.4375ZM169.223 26.7146 169.223 47.3396 162.348 47.3396 162.348 26.7146ZM169.223 54.2146 169.223 74.8396 162.348 74.8396 162.348 54.2146ZM169.223 81.7146 169.223 102.34 162.348 102.34 162.348 81.7146ZM169.223 109.215 169.223 129.84 162.348 129.84 162.348 109.215ZM169.223 136.715 169.223 157.34 162.348 157.34 162.348 136.715ZM169.223 164.215 169.223 184.84 162.348 184.84 162.348 164.215ZM169.223 191.715 169.223 212.34 162.348 212.34 162.348 191.715ZM169.223 219.215 169.223 239.84 162.348 239.84 162.348 219.215ZM169.223 246.715 169.223 267.34 162.348 267.34 162.348 246.715ZM169.223 274.215 169.223 294.84 162.348 294.84 162.348 274.215ZM169.223 301.715 169.223 322.34 162.348 322.34 162.348 301.715ZM169.223 329.215 169.223 349.84 162.348 349.84 162.348 329.215ZM169.223 356.715 169.223 377.34 162.348 377.34 162.348 356.715ZM169.223 384.215 169.223 404.84 162.348 404.84 162.348 384.215ZM169.223 411.715 169.223 432.34 162.348 432.34 162.348 411.715ZM169.223 439.215 169.223 459.84 162.348 459.84 162.348 439.215ZM169.223 466.715 169.223 487.34 162.348 487.34 162.348 466.715ZM169.223 494.215 169.223 514.84 162.348 514.84 162.348 494.215ZM169.223 521.715 169.223 542.34 162.348 542.34 162.348 521.715ZM169.223 549.215 169.223 569.84 162.348 569.84 162.348 549.215ZM169.223 576.715 169.223 597.34 162.348 597.34 162.348 576.715ZM169.223 604.215 169.223 624.84 162.348 624.84 162.348 604.215ZM169.223 631.715 169.223 652.34 162.348 652.34 162.348 631.715ZM169.223 659.215 169.223 679.84 162.348 679.84 162.348 659.215ZM169.223 686.715 169.223 707.34 162.348 707.34 162.348 686.715ZM169.223 714.215 169.223 734.84 162.348 734.84 162.348 714.215ZM169.223 741.715 169.223 762.34 162.348 762.34 162.348 741.715ZM169.223 769.215 169.223 789.84 162.348 789.84 162.348 769.215ZM169.223 796.715 169.223 817.34 162.348 817.34 162.348 796.715ZM169.223 824.215 169.223 844.84 162.348 844.84 162.348 824.215ZM169.223 851.715 169.223 872.34 162.348 872.34 162.348 851.715ZM169.223 879.215 169.223 899.84 162.348 899.84 162.348 879.215ZM169.223 906.715 169.223 927.34 162.348 927.34 162.348 906.715ZM169.223 934.215 169.223 954.84 162.348 954.84 162.348 934.215ZM169.223 961.715 169.223 982.34 162.348 982.34 162.348 961.715ZM169.223 989.215 169.223 1009.84 162.348 1009.84 162.348 989.215ZM169.223 1016.71 169.223 1037.34 162.348 1037.34 162.348 1016.71ZM169.223 1044.21 169.223 1064.84 162.348 1064.84 162.348 1044.21ZM169.223 1071.71 169.223 1092.34 162.348 1092.34 162.348 1071.71ZM169.223 1099.21 169.223 1119.84 162.348 1119.84 162.348 1099.21ZM169.223 1126.71 169.223 1147.34 162.348 1147.34 162.348 1126.71ZM169.223 1154.21 169.223 1174.84 162.348 1174.84 162.348 1154.21ZM169.223 1181.71 169.223 1202.34 162.348 1202.34 162.348 1181.71ZM169.223 1209.21 169.223 1229.84 162.348 1229.84 162.348 1209.21ZM169.223 1236.71 169.223 1257.34 162.348 1257.34 162.348 1236.71ZM169.223 1264.21 169.223 1284.84 162.348 1284.84 162.348 1264.21ZM169.223 1291.71 169.223 1312.34 162.348 1312.34 162.348 1291.71ZM169.502 1312.06 190.127 1312.06 190.127 1318.94 169.502 1318.94ZM197.002 1312.06 198.71 1312.06 198.71 1318.94 197.002 1318.94ZM194.127 1301.75 221.627 1315.5 194.127 1329.25Z" transform="matrix(1.83697e-16 1 1 -1.83697e-16 1545.5 861.5)"/><path d="M1798.5 826.062 1819.12 826.062 1819.12 832.937 1798.5 832.937ZM1826 826.062 1846.62 826.062 1846.62 832.937 1826 832.937ZM1853.5 826.062 1874.12 826.062 1874.12 832.937 1853.5 832.937ZM1881 826.062 1901.62 826.062 1901.62 832.937 1881 832.937ZM1908.5 826.062 1929.12 826.062 1929.12 832.937 1908.5 832.937ZM1936 826.062 1956.62 826.062 1956.62 832.937 1936 832.937ZM1963.5 826.062 1984.12 826.062 1984.12 832.937 1963.5 832.937ZM1991 826.062 2011.62 826.062 2011.62 832.937 1991 832.937ZM2018.5 826.062 2039.12 826.062 2039.12 832.937 2018.5 832.937ZM2046 826.062 2066.62 826.062 2066.62 832.937 2046 832.937ZM2073.5 826.062 2094.12 826.062 2094.12 832.937 2073.5 832.937ZM2101 826.062 2121.62 826.062 2121.62 832.937 2101 832.937ZM2128.5 826.062 2149.12 826.062 2149.12 832.937 2128.5 832.937ZM2156 826.062 2176.62 826.062 2176.62 832.937 2156 832.937ZM2183.5 826.062 2204.12 826.062 2204.12 832.937 2183.5 832.937ZM2211 826.062 2231.62 826.062 2231.62 832.937 2211 832.937ZM2238.5 826.062 2259.12 826.062 2259.12 832.937 2238.5 832.937ZM2266 826.062 2286.62 826.062 2286.62 832.937 2266 832.937ZM2293.5 826.062 2314.12 826.062 2314.12 832.937 2293.5 832.937ZM2321 826.062 2341.62 826.062 2341.62 832.937 2321 832.937ZM2348.5 826.062 2369.12 826.062 2369.12 832.937 2348.5 832.937ZM2376 826.062 2396.62 826.062 2396.62 832.937 2376 832.937ZM2403.5 826.062 2424.12 826.062 2424.12 832.937 2403.5 832.937ZM2431 826.062 2451.62 826.062 2451.62 832.937 2431 832.937ZM2458.5 826.062 2479.12 826.062 2479.12 832.937 2458.5 832.937ZM2486 826.062 2506.62 826.062 2506.62 832.937 2486 832.937ZM2513.5 826.062 2534.12 826.062 2534.12 832.937 2513.5 832.937ZM2541 826.062 2561.62 826.062 2561.62 832.937 2541 832.937ZM2568.5 826.062 2589.12 826.062 2589.12 832.937 2568.5 832.937ZM2596 826.062 2616.62 826.062 2616.62 832.937 2596 832.937ZM2623.5 826.062 2644.12 826.062 2644.12 832.937 2623.5 832.937ZM2651 826.062 2671.62 826.062 2671.62 832.937 2651 832.937ZM2678.5 826.062 2699.12 826.062 2699.12 832.937 2678.5 832.937ZM2706 826.062 2726.62 826.062 2726.62 832.937 2706 832.937ZM2733.5 826.062 2754.12 826.062 2754.12 832.937 2733.5 832.937ZM2761 826.062 2781.62 826.062 2781.62 832.937 2761 832.937ZM2788.5 826.062 2809.12 826.062 2809.12 832.937 2788.5 832.937ZM2816 826.062 2836.62 826.062 2836.62 832.937 2816 832.937ZM2843.5 826.062 2864.12 826.062 2864.12 832.937 2843.5 832.937ZM2871 826.062 2891.62 826.062 2891.62 832.937 2871 832.937ZM2898.5 826.062 2919.12 826.062 2919.12 832.937 2898.5 832.937ZM2926 826.062 2946.62 826.062 2946.62 832.937 2926 832.937ZM2953.5 826.062 2974.12 826.062 2974.12 832.937 2953.5 832.937ZM2981 826.062 3001.62 826.062 3001.62 832.937 2981 832.937ZM3008.5 826.062 3029.12 826.062 3029.12 832.937 3008.5 832.937ZM3036 826.062 3056.62 826.062 3056.62 832.937 3036 832.937ZM3063.5 826.062 3084.12 826.062 3084.12 832.937 3063.5 832.937ZM3091 826.062 3111.62 826.062 3111.62 832.937 3091 832.937ZM3118.5 826.062 3139.12 826.062 3139.12 832.937 3118.5 832.937ZM3146 826.062 3166.62 826.062 3166.62 832.937 3146 832.937ZM3173.5 826.062 3188.91 826.062C3190.8 826.062 3192.34 827.601 3192.34 829.5L3192.34 834.719 3185.47 834.719 3185.47 829.5 3188.91 832.937 3173.5 832.937ZM3192.34 841.594 3192.34 862.219 3185.47 862.219 3185.47 841.594ZM3192.34 869.094 3192.34 889.719 3185.47 889.719 3185.47 869.094ZM3192.34 896.594 3192.34 917.219 3185.47 917.219 3185.47 896.594ZM3192.34 924.094 3192.34 944.719 3185.47 944.719 3185.47 924.094ZM3192.34 951.594 3192.34 972.219 3185.47 972.219 3185.47 951.594ZM3192.34 979.094 3192.34 999.719 3185.47 999.719 3185.47 979.094ZM3192.34 1006.59 3192.34 1027.22 3185.47 1027.22 3185.47 1006.59ZM3192.34 1034.09 3192.34 1054.72 3185.47 1054.72 3185.47 1034.09ZM3192.34 1061.59 3192.34 1082.22 3185.47 1082.22 3185.47 1061.59ZM3192.34 1089.09 3192.34 1109.72 3185.47 1109.72 3185.47 1089.09ZM3188.67 1119.8 3168.04 1119.8 3168.04 1112.92 3188.67 1112.92ZM3161.17 1119.8 3140.54 1119.8 3140.54 1112.92 3161.17 1112.92ZM3133.67 1119.8 3129.32 1119.8 3129.32 1112.92 3133.67 1112.92ZM3133.9 1130.11 3106.4 1116.36 3133.9 1102.61Z"/><text font-family="Arial,Arial_MSFontService,sans-serif" font-weight="400" font-size="50" transform="matrix(1 0 0 1 1386.19 837)">…</text><text font-family="Arial,Arial_MSFontService,sans-serif" font-weight="400" font-size="50" transform="matrix(1 0 0 1 2709.63 1079)">…</text><text fill="#7F7F7F" font-family="Arial,Arial_MSFontService,sans-serif" font-weight="400" font-size="50" transform="matrix(1 0 0 1 2747.6 1006)">key</text><text fill="#7F7F7F" font-family="Arial,Arial_MSFontService,sans-serif" font-weight="400" font-size="50" transform="matrix(1 0 0 1 3032.18 876)">MAC</text><text font-family="Arial,Arial_MSFontService,sans-serif" font-weight="700" font-size="55" transform="matrix(1 0 0 1 3258.72 653)">Bounce</text><text font-family="Arial,Arial_MSFontService,sans-serif" font-weight="700" font-size="55" transform="matrix(1 0 0 1 3471.27 653)">buffer</text><path d="M22.9168-3.4375 43.5418-3.4375 43.5418 3.4375 22.9168 3.4375ZM50.4168-3.4375 71.0418-3.4375 71.0418 3.4375 50.4168 3.4375ZM77.9168-3.4375 98.5418-3.4375 98.5418 3.4375 77.9168 3.4375ZM105.417-3.4375 126.042-3.4375 126.042 3.4375 105.417 3.4375ZM132.917-3.4375 153.542-3.4375 153.542 3.4375 132.917 3.4375ZM160.417-3.4375 181.042-3.4375 181.042 3.4375 160.417 3.4375ZM187.917-3.4375 208.542-3.4375 208.542 3.4375 187.917 3.4375ZM215.417-3.4375 236.042-3.4375 236.042 3.4375 215.417 3.4375ZM242.917-3.4375 263.542-3.4375 263.542 3.4375 242.917 3.4375ZM270.417-3.4375 291.042-3.4375 291.042 3.4375 270.417 3.4375ZM297.917-3.4375 318.542-3.4375 318.542 3.4375 297.917 3.4375ZM325.417-3.4375 346.042-3.4375 346.042 3.4375 325.417 3.4375ZM352.917-3.4375 373.542-3.4375 373.542 3.4375 352.917 3.4375ZM380.417-3.4375 401.042-3.4375 401.042 3.4375 380.417 3.4375ZM407.917-3.4375 428.542-3.4375 428.542 3.4375 407.917 3.4375ZM435.417-3.4375 456.042-3.4375 456.042 3.4375 435.417 3.4375ZM462.917-3.4375 483.542-3.4375 483.542 3.4375 462.917 3.4375ZM490.417-3.4375 511.042-3.4375 511.042 3.4375 490.417 3.4375ZM517.917-3.4375 538.542-3.4375 538.542 3.4375 517.917 3.4375ZM545.417-3.4375 566.042-3.4375 566.042 3.4375 545.417 3.4375ZM572.917-3.4375 593.542-3.4375 593.542 3.4375 572.917 3.4375ZM600.417-3.4375 621.042-3.4375 621.042 3.4375 600.417 3.4375ZM627.917-3.4375 648.542-3.4375 648.542 3.4375 627.917 3.4375ZM652.609 6.24556 652.609 26.8706 645.734 26.8706 645.734 6.24556ZM652.609 33.7456 652.609 54.3706 645.734 54.3706 645.734 33.7456ZM652.609 61.2456 652.609 81.8706 645.734 81.8706 645.734 61.2456ZM652.609 88.7456 652.609 102.514 649.171 99.0765 656.028 99.0765 656.028 105.952 649.171 105.952C647.273 105.952 645.734 104.412 645.734 102.514L645.734 88.7456ZM662.903 99.0765 683.528 99.0765 683.528 105.952 662.903 105.952ZM690.403 99.0765 711.028 99.0765 711.028 105.952 690.403 105.952ZM717.903 99.0765 738.528 99.0765 738.528 105.952 717.903 105.952ZM745.403 99.0765 766.028 99.0765 766.028 105.952 745.403 105.952ZM772.903 99.0765 793.528 99.0765 793.528 105.952 772.903 105.952ZM800.403 99.0765 821.028 99.0765 821.028 105.952 800.403 105.952ZM827.903 99.0765 848.528 99.0765 848.528 105.952 827.903 105.952ZM855.403 99.0765 876.028 99.0765 876.028 105.952 855.403 105.952ZM882.903 99.0765 903.528 99.0765 903.528 105.952 882.903 105.952ZM910.403 99.0765 931.028 99.0765 931.028 105.952 910.403 105.952ZM937.903 99.0765 958.528 99.0765 958.528 105.952 937.903 105.952ZM965.403 99.0765 986.028 99.0765 986.028 105.952 965.403 105.952ZM992.903 99.0765 1013.53 99.0765 1013.53 105.952 992.903 105.952ZM1020.4 99.0765 1041.03 99.0765 1041.03 105.952 1020.4 105.952ZM1047.9 99.0765 1068.53 99.0765 1068.53 105.952 1047.9 105.952ZM1075.4 99.0765 1096.03 99.0765 1096.03 105.952 1075.4 105.952ZM1102.9 99.0765 1123.53 99.0765 1123.53 105.952 1102.9 105.952ZM1130.4 99.0765 1151.03 99.0765 1151.03 105.952 1130.4 105.952ZM1157.9 99.0765 1178.53 99.0765 1178.53 105.952 1157.9 105.952ZM1185.4 99.0765 1206.03 99.0765 1206.03 105.952 1185.4 105.952ZM1212.9 99.0765 1233.53 99.0765 1233.53 105.952 1212.9 105.952ZM1240.4 99.0765 1261.03 99.0765 1261.03 105.952 1240.4 105.952ZM1267.9 99.0765 1288.53 99.0765 1288.53 105.952 1267.9 105.952ZM1295.4 99.0765 1298.34 99.0765 1298.34 105.952 1295.4 105.952ZM27.5 13.75 0 0 27.5-13.75Z" transform="matrix(1 0 0 -1 1900.5 736.014)"/><rect x="1471.5" y="396.5" width="169" height="64.0003" stroke="#000000" stroke-width="20.625" stroke-linejoin="round" stroke-miterlimit="10" fill="none"/><rect x="1640.5" y="396.5" width="168" height="65.0003" stroke="#000000" stroke-width="20.625" stroke-linejoin="round" stroke-miterlimit="10" fill="none"/><text font-family="Cambria Math,Cambria Math_MSFontService,sans-serif" font-weight="400" font-size="50" transform="matrix(1 0 0 1 3271.6 596)">⑥</text><path d="M0-3.4375 20.625-3.4375 20.625 3.4375 0 3.4375ZM27.5-3.4375 48.125-3.4375 48.125 3.4375 27.5 3.4375ZM55-3.4375 69.665-3.4375C71.5635-3.4375 73.1025-1.89848 73.1025 0L73.1025 5.96001 66.2275 5.96001 66.2275 0 69.665 3.4375 55 3.4375ZM73.1025 12.835 73.1025 33.46 66.2275 33.46 66.2275 12.835ZM73.1025 40.335 73.1025 60.96 66.2275 60.96 66.2275 40.335ZM73.1025 67.835 73.1025 88.46 66.2275 88.46 66.2275 67.835ZM73.1025 95.335 73.1025 115.96 66.2275 115.96 66.2275 95.335ZM73.1025 122.835 73.1025 143.46 66.2275 143.46 66.2275 122.835ZM73.1025 150.335 73.1025 170.96 66.2275 170.96 66.2275 150.335ZM73.1025 177.835 73.1025 198.46 66.2275 198.46 66.2275 177.835ZM73.1025 205.335 73.1025 225.96 66.2275 225.96 66.2275 205.335ZM73.1025 232.835 73.1025 253.46 66.2275 253.46 66.2275 232.835ZM73.1025 260.335 73.1025 280.96 66.2275 280.96 66.2275 260.335ZM73.1025 287.835 73.1025 308.46 66.2275 308.46 66.2275 287.835ZM73.1025 315.335 73.1025 335.96 66.2275 335.96 66.2275 315.335ZM73.1025 342.835 73.1025 363.46 66.2275 363.46 66.2275 342.835ZM73.1025 370.335 73.1025 390.96 66.2275 390.96 66.2275 370.335ZM73.1025 397.835 73.1025 418.46 66.2275 418.46 66.2275 397.835ZM73.1025 425.335 73.1025 445.96 66.2275 445.96 66.2275 425.335ZM73.1025 452.835 73.1025 473.46 66.2275 473.46 66.2275 452.835ZM73.1025 480.335 73.1025 500.96 66.2275 500.96 66.2275 480.335ZM73.1025 507.835 73.1025 528.46 66.2275 528.46 66.2275 507.835ZM73.1025 535.335 73.1025 555.96 66.2275 555.96 66.2275 535.335ZM73.1025 562.835 73.1025 583.46 66.2275 583.46 66.2275 562.835ZM73.1025 590.335 73.1025 610.96 66.2275 610.96 66.2275 590.335ZM73.1025 617.835 73.1025 638.46 66.2275 638.46 66.2275 617.835ZM73.1025 645.335 73.1025 665.96 66.2275 665.96 66.2275 645.335ZM73.1025 672.835 73.1025 693.46 66.2275 693.46 66.2275 672.835ZM73.1025 700.335 73.1025 720.96 66.2275 720.96 66.2275 700.335ZM73.1025 727.835 73.1025 748.46 66.2275 748.46 66.2275 727.835ZM73.1025 755.335 73.1025 775.96 66.2275 775.96 66.2275 755.335ZM73.1025 782.835 73.1025 803.46 66.2275 803.46 66.2275 782.835ZM73.1025 810.335 73.1025 830.96 66.2275 830.96 66.2275 810.335ZM73.1025 837.835 73.1025 858.46 66.2275 858.46 66.2275 837.835ZM73.1025 865.335 73.1025 885.96 66.2275 885.96 66.2275 865.335ZM73.1025 892.835 73.1025 913.46 66.2275 913.46 66.2275 892.835ZM73.1025 920.335 73.1025 940.96 66.2275 940.96 66.2275 920.335ZM73.1025 947.835 73.1025 968.46 66.2275 968.46 66.2275 947.835ZM73.1025 975.335 73.1025 995.96 66.2275 995.96 66.2275 975.335ZM73.1025 1002.83 73.1025 1023.46 66.2275 1023.46 66.2275 1002.83ZM73.1025 1030.33 73.1025 1050.96 66.2275 1050.96 66.2275 1030.33ZM73.1025 1057.83 73.1025 1078.46 66.2275 1078.46 66.2275 1057.83ZM73.1025 1085.33 73.1025 1105.96 66.2275 1105.96 66.2275 1085.33ZM73.1025 1112.83 73.1025 1133.46 66.2275 1133.46 66.2275 1112.83ZM73.1025 1140.33 73.1025 1160.96 66.2275 1160.96 66.2275 1140.33ZM73.1025 1167.83 73.1025 1188.46 66.2275 1188.46 66.2275 1167.83ZM73.1025 1195.33 73.1025 1215.96 66.2275 1215.96 66.2275 1195.33ZM73.1025 1222.83 73.1025 1243.46 66.2275 1243.46 66.2275 1222.83ZM73.1025 1250.33 73.1025 1270.96 66.2275 1270.96 66.2275 1250.33ZM73.1025 1277.83 73.1025 1298.46 66.2275 1298.46 66.2275 1277.83ZM73.1025 1305.33 73.1025 1325.96 66.2275 1325.96 66.2275 1305.33ZM73.1025 1332.83 73.1025 1353.46 66.2275 1353.46 66.2275 1332.83ZM73.1025 1360.33 73.1025 1380.96 66.2275 1380.96 66.2275 1360.33ZM73.1025 1387.83 73.1025 1408.46 66.2275 1408.46 66.2275 1387.83ZM73.1025 1415.33 73.1025 1435.96 66.2275 1435.96 66.2275 1415.33ZM73.1025 1442.83 73.1025 1463.46 66.2275 1463.46 66.2275 1442.83ZM73.1025 1470.33 73.1025 1490.96 66.2275 1490.96 66.2275 1470.33ZM73.1025 1497.83 73.1025 1518.46 66.2275 1518.46 66.2275 1497.83ZM73.1025 1525.33 73.1025 1545.96 66.2275 1545.96 66.2275 1525.33ZM73.1025 1552.83 73.1025 1573.46 66.2275 1573.46 66.2275 1552.83ZM73.1025 1580.33 73.1025 1600.96 66.2275 1600.96 66.2275 1580.33ZM73.1025 1607.83 73.1025 1628.46 66.2275 1628.46 66.2275 1607.83ZM73.1025 1635.33 73.1025 1655.96 66.2275 1655.96 66.2275 1635.33ZM73.1025 1662.83 73.1025 1683.46 66.2275 1683.46 66.2275 1662.83ZM73.1025 1690.33 73.1025 1710.96 66.2275 1710.96 66.2275 1690.33ZM73.1025 1717.83 73.1025 1738.46 66.2275 1738.46 66.2275 1717.83ZM73.1025 1745.33 73.1025 1765.96 66.2275 1765.96 66.2275 1745.33ZM73.1025 1772.83 73.1025 1793.46 66.2275 1793.46 66.2275 1772.83ZM73.1025 1800.33 73.1025 1820.96 66.2275 1820.96 66.2275 1800.33ZM73.1025 1827.83 73.1025 1848.46 66.2275 1848.46 66.2275 1827.83ZM73.1025 1855.33 73.1025 1875.96 66.2275 1875.96 66.2275 1855.33ZM73.1025 1882.83 73.1025 1887.26 69.665 1883.82 85.8627 1883.82 85.8627 1890.7 69.665 1890.7C67.7665 1890.7 66.2275 1889.16 66.2275 1887.26L66.2275 1882.83ZM92.7377 1883.82 113.363 1883.82 113.363 1890.7 92.7377 1890.7ZM111.828 1873.51 139.328 1887.26 111.828 1901.01Z" transform="matrix(1.83697e-16 1 1 -1.83697e-16 1556.5 460.5)"/><path d="M1808.5 425.063 1829.12 425.063 1829.12 431.938 1808.5 431.938ZM1836 425.063 1856.62 425.063 1856.62 431.938 1836 431.938ZM1863.5 425.063 1884.12 425.063 1884.12 431.938 1863.5 431.938ZM1891 425.063 1911.62 425.063 1911.62 431.938 1891 431.938ZM1918.5 425.063 1939.12 425.063 1939.12 431.938 1918.5 431.938ZM1946 425.063 1966.62 425.063 1966.62 431.938 1946 431.938ZM1973.5 425.063 1994.12 425.063 1994.12 431.938 1973.5 431.938ZM2001 425.063 2021.62 425.063 2021.62 431.938 2001 431.938ZM2028.5 425.063 2049.12 425.063 2049.12 431.938 2028.5 431.938ZM2056 425.063 2076.62 425.063 2076.62 431.938 2056 431.938ZM2083.5 425.063 2104.12 425.063 2104.12 431.938 2083.5 431.938ZM2111 425.063 2131.62 425.063 2131.62 431.938 2111 431.938ZM2138.5 425.063 2159.12 425.063 2159.12 431.938 2138.5 431.938ZM2166 425.063 2186.62 425.063 2186.62 431.938 2166 431.938ZM2193.5 425.063 2214.12 425.063 2214.12 431.938 2193.5 431.938ZM2221 425.063 2241.62 425.063 2241.62 431.938 2221 431.938ZM2248.5 425.063 2269.12 425.063 2269.12 431.938 2248.5 431.938ZM2276 425.063 2296.62 425.063 2296.62 431.938 2276 431.938ZM2303.5 425.063 2324.12 425.063 2324.12 431.938 2303.5 431.938ZM2331 425.063 2351.62 425.063 2351.62 431.938 2331 431.938ZM2358.5 425.063 2379.12 425.063 2379.12 431.938 2358.5 431.938ZM2386 425.063 2406.62 425.063 2406.62 431.938 2386 431.938ZM2413.5 425.063 2434.12 425.063 2434.12 431.938 2413.5 431.938ZM2441 425.063 2461.62 425.063 2461.62 431.938 2441 431.938ZM2468.5 425.063 2489.12 425.063 2489.12 431.938 2468.5 431.938ZM2496 425.063 2516.62 425.063 2516.62 431.938 2496 431.938ZM2523.5 425.063 2544.12 425.063 2544.12 431.938 2523.5 431.938ZM2551 425.063 2571.62 425.063 2571.62 431.938 2551 431.938ZM2578.5 425.063 2599.12 425.063 2599.12 431.938 2578.5 431.938ZM2606 425.063 2626.62 425.063 2626.62 431.938 2606 431.938ZM2633.5 425.063 2654.12 425.063 2654.12 431.938 2633.5 431.938ZM2661 425.063 2681.62 425.063 2681.62 431.938 2661 431.938ZM2688.5 425.063 2709.12 425.063 2709.12 431.938 2688.5 431.938ZM2716 425.063 2736.62 425.063 2736.62 431.938 2716 431.938ZM2743.5 425.063 2764.12 425.063 2764.12 431.938 2743.5 431.938ZM2771 425.063 2791.62 425.063 2791.62 431.938 2771 431.938ZM2798.5 425.063 2819.12 425.063 2819.12 431.938 2798.5 431.938ZM2826 425.063 2846.62 425.063 2846.62 431.938 2826 431.938ZM2853.5 425.063 2874.12 425.063 2874.12 431.938 2853.5 431.938ZM2881 425.063 2901.62 425.063 2901.62 431.938 2881 431.938ZM2908.5 425.063 2929.12 425.063 2929.12 431.938 2908.5 431.938ZM2936 425.063 2956.62 425.063 2956.62 431.938 2936 431.938ZM2963.5 425.063 2984.12 425.063 2984.12 431.938 2963.5 431.938ZM2991 425.063 3011.62 425.063 3011.62 431.938 2991 431.938ZM3018.5 425.063 3039.12 425.063 3039.12 431.938 3018.5 431.938ZM3046 425.063 3066.62 425.063 3066.62 431.938 3046 431.938ZM3073.5 425.063 3094.12 425.063 3094.12 431.938 3073.5 431.938ZM3101 425.063 3121.62 425.063 3121.62 431.938 3101 431.938ZM3128.5 425.063 3149.12 425.063 3149.12 431.938 3128.5 431.938ZM3156 425.063 3176.62 425.063 3176.62 431.938 3156 431.938ZM3183.5 425.063 3204.12 425.063 3204.12 431.938 3183.5 431.938ZM3211 425.063 3231.62 425.063 3231.62 431.938 3211 431.938ZM3238.5 425.063 3259.12 425.063 3259.12 431.938 3238.5 431.938ZM3266 425.063 3286.62 425.063 3286.62 431.938 3266 431.938ZM3293.5 425.063 3314.12 425.063 3314.12 431.938 3293.5 431.938ZM3321 425.063 3341.62 425.063 3341.62 431.938 3321 431.938ZM3348.5 425.063 3369.12 425.063 3369.12 431.938 3348.5 431.938ZM3376 425.063 3396.62 425.063 3396.62 431.938 3376 431.938ZM3403.5 425.063 3424.12 425.063 3424.12 431.938 3403.5 431.938ZM3431 425.063 3451.62 425.063 3451.62 431.938 3431 431.938ZM3458.5 425.063 3479.12 425.063 3479.12 431.938 3458.5 431.938ZM3486 425.063 3506.62 425.063 3506.62 431.938 3486 431.938ZM3513.5 425.063 3534.12 425.063 3534.12 431.938 3513.5 431.938ZM3541 425.063 3561.62 425.063 3561.62 431.938 3541 431.938ZM3568.5 425.063 3589.12 425.063 3589.12 431.938 3568.5 431.938ZM3596 425.063 3616.62 425.063 3616.62 431.938 3596 431.938ZM3623.5 425.063 3644.12 425.063 3644.12 431.938 3623.5 431.938ZM3651 425.063 3671.62 425.063 3671.62 431.938 3651 431.938ZM3678.5 425.063 3699.12 425.063 3699.12 431.938 3678.5 431.938ZM3706 425.063 3726.62 425.063 3726.62 431.938 3706 431.938ZM3733.5 425.063 3754.12 425.063 3754.12 431.938 3733.5 431.938ZM3761 425.063 3770.5 425.063C3772.4 425.063 3773.94 426.602 3773.94 428.5L3773.94 439.62 3767.07 439.62 3767.07 428.5 3770.5 431.938 3761 431.938ZM3773.94 446.495 3773.94 467.12 3767.07 467.12 3767.07 446.495ZM3773.94 473.995 3773.94 494.62 3767.07 494.62 3767.07 473.995ZM3773.94 501.495 3773.94 522.12 3767.07 522.12 3767.07 501.495ZM3773.94 528.995 3773.94 549.62 3767.07 549.62 3767.07 528.995ZM3773.94 556.495 3773.94 577.12 3767.07 577.12 3767.07 556.495ZM3773.94 583.995 3773.94 604.62 3767.07 604.62 3767.07 583.995ZM3773.94 611.495 3773.94 632.12 3767.07 632.12 3767.07 611.495ZM3764.57 636.497 3743.94 636.497 3743.94 629.622 3764.57 629.622ZM3737.07 636.497 3716.44 636.497 3716.44 629.622 3737.07 629.622ZM3715.51 646.809 3688.01 633.059 3715.51 619.309Z"/><text fill="#7F7F7F" font-family="Arial,Arial_MSFontService,sans-serif" font-weight="400" font-size="50" transform="matrix(1 0 0 1 3074.94 500)">Root MHT key</text><text fill="#7F7F7F" font-family="Arial,Arial_MSFontService,sans-serif" font-weight="400" font-size="50" transform="matrix(1 0 0 1 3359.6 407)">Root MHT </text><text fill="#7F7F7F" font-family="Arial,Arial_MSFontService,sans-serif" font-weight="400" font-size="50" transform="matrix(1 0 0 1 3603.09 407)">MAC</text><rect x="1636.5" y="288.5" width="169" height="63.9999" stroke="#A6A6A6" stroke-width="20.625" stroke-linejoin="round" stroke-miterlimit="10" fill="none"/><text font-family="Arial,Arial_MSFontService,sans-serif" font-weight="400" font-size="55" transform="matrix(1 0 0 1 2134.91 100)">derived key</text><rect x="1461.5" y="287.5" width="168" height="64.0003" stroke="#A6A6A6" stroke-width="20.625" stroke-linejoin="round" stroke-miterlimit="10" fill="none"/><text font-family="Arial,Arial_MSFontService,sans-serif" font-weight="400" font-size="55" transform="matrix(1 0 0 1 768.443 333)">loaded salt</text><path d="M1113.42 311.063 1134.04 311.063 1134.04 317.938 1113.42 317.938ZM1140.92 311.063 1161.54 311.063 1161.54 317.938 1140.92 317.938ZM1168.42 311.063 1189.04 311.063 1189.04 317.938 1168.42 317.938ZM1195.92 311.063 1216.54 311.063 1216.54 317.938 1195.92 317.938ZM1223.42 311.063 1244.04 311.063 1244.04 317.938 1223.42 317.938ZM1250.92 311.063 1271.54 311.063 1271.54 317.938 1250.92 317.938ZM1279.48 316.869 1279.48 319.684 1276.05 316.246 1293.86 316.246 1293.86 323.121 1276.05 323.121C1274.15 323.121 1272.61 321.582 1272.61 319.684L1272.61 316.869ZM1300.73 316.246 1321.36 316.246 1321.36 323.121 1300.73 323.121ZM1328.23 316.246 1348.86 316.246 1348.86 323.121 1328.23 323.121ZM1355.73 316.246 1376.36 316.246 1376.36 323.121 1355.73 323.121ZM1383.23 316.246 1403.86 316.246 1403.86 323.121 1383.23 323.121ZM1410.73 316.246 1431.36 316.246 1431.36 323.121 1410.73 323.121ZM1438.23 316.246 1458.86 316.246 1458.86 323.121 1438.23 323.121ZM1118 328.25 1090.5 314.5 1118 300.75Z"/><text font-family="Cambria Math,Cambria Math_MSFontService,sans-serif" font-weight="400" font-size="50" transform="matrix(1 0 0 1 1219.1 293)">②</text><path d="M756.5 38.0626 777.125 38.0626 777.125 44.9376 756.5 44.9376ZM784 38.0626 804.625 38.0626 804.625 44.9376 784 44.9376ZM811.5 38.0626 832.125 38.0626 832.125 44.9376 811.5 44.9376ZM839 38.0626 859.625 38.0626 859.625 44.9376 839 44.9376ZM866.5 38.0626 887.125 38.0626 887.125 44.9376 866.5 44.9376ZM894 38.0626 914.625 38.0626 914.625 44.9376 894 44.9376ZM921.5 38.0626 942.125 38.0626 942.125 44.9376 921.5 44.9376ZM949 38.0626 969.625 38.0626 969.625 44.9376 949 44.9376ZM976.5 38.0626 997.125 38.0626 997.125 44.9376 976.5 44.9376ZM1004 38.0626 1024.63 38.0626 1024.63 44.9376 1004 44.9376ZM1031.5 38.0626 1052.13 38.0626 1052.13 44.9376 1031.5 44.9376ZM1059 38.0626 1079.63 38.0626 1079.63 44.9376 1059 44.9376ZM1086.5 38.0626 1107.13 38.0626 1107.13 44.9376 1086.5 44.9376ZM1114 38.0626 1134.63 38.0626 1134.63 44.9376 1114 44.9376ZM1141.5 38.0626 1162.13 38.0626 1162.13 44.9376 1141.5 44.9376ZM1169 38.0626 1189.63 38.0626 1189.63 44.9376 1169 44.9376ZM1196.5 38.0626 1217.13 38.0626 1217.13 44.9376 1196.5 44.9376ZM1224 38.0626 1244.63 38.0626 1244.63 44.9376 1224 44.9376ZM1251.5 38.0626 1272.13 38.0626 1272.13 44.9376 1251.5 44.9376ZM1279 38.0626 1299.63 38.0626 1299.63 44.9376 1279 44.9376ZM1306.5 38.0626 1327.13 38.0626 1327.13 44.9376 1306.5 44.9376ZM1334 38.0626 1354.63 38.0626 1354.63 44.9376 1334 44.9376ZM1361.5 38.0626 1382.13 38.0626 1382.13 44.9376 1361.5 44.9376ZM1389 38.0626 1409.63 38.0626 1409.63 44.9376 1389 44.9376ZM1416.21 45.2252 1416.21 65.8502 1409.34 65.8502 1409.34 45.2252ZM1416.21 72.7252 1416.21 80.501 1412.77 77.0635 1425.62 77.0635 1425.62 83.9385 1412.77 83.9385C1410.88 83.9385 1409.34 82.3995 1409.34 80.501L1409.34 72.7252ZM1432.5 77.0635 1453.12 77.0635 1453.12 83.9385 1432.5 83.9385ZM1460 77.0635 1480.62 77.0635 1480.62 83.9385 1460 83.9385ZM1487.5 77.0635 1508.12 77.0635 1508.12 83.9385 1487.5 83.9385ZM1515 77.0635 1535.62 77.0635 1535.62 83.9385 1515 83.9385ZM1542.5 77.0635 1563.12 77.0635 1563.12 83.9385 1542.5 83.9385ZM1570 77.0635 1590.62 77.0635 1590.62 83.9385 1570 83.9385ZM1597.5 77.0635 1618.12 77.0635 1618.12 83.9385 1597.5 83.9385ZM1625 77.0635 1645.62 77.0635 1645.62 83.9385 1625 83.9385ZM1652.5 77.0635 1673.12 77.0635 1673.12 83.9385 1652.5 83.9385ZM1680 77.0635 1700.62 77.0635 1700.62 83.9385 1680 83.9385ZM1707.5 77.0635 1728.12 77.0635 1728.12 83.9385 1707.5 83.9385ZM1735 77.0635 1755.62 77.0635 1755.62 83.9385 1735 83.9385ZM1762.5 77.0635 1783.12 77.0635 1783.12 83.9385 1762.5 83.9385ZM1790 77.0635 1810.62 77.0635 1810.62 83.9385 1790 83.9385ZM1817.5 77.0635 1838.12 77.0635 1838.12 83.9385 1817.5 83.9385ZM1845 77.0635 1865.62 77.0635 1865.62 83.9385 1845 83.9385ZM1872.5 77.0635 1893.12 77.0635 1893.12 83.9385 1872.5 83.9385ZM1900 77.0635 1920.62 77.0635 1920.62 83.9385 1900 83.9385ZM1927.5 77.0635 1948.12 77.0635 1948.12 83.9385 1927.5 83.9385ZM1955 77.0635 1975.62 77.0635 1975.62 83.9385 1955 83.9385ZM1982.5 77.0635 2003.12 77.0635 2003.12 83.9385 1982.5 83.9385ZM2010 77.0635 2030.62 77.0635 2030.62 83.9385 2010 83.9385ZM2037.5 77.0635 2046.13 77.0635 2046.13 83.9385 2037.5 83.9385ZM2041.55 66.751 2069.05 80.501 2041.55 94.251Z"/><path d="M898.063 280.529 898.063 259.904 904.938 259.904 904.938 280.529ZM898.063 253.029 898.063 232.404 904.938 232.404 904.938 253.029ZM898.063 225.529 898.063 204.904 904.938 204.904 904.938 225.529ZM898.063 198.029 898.063 177.404 904.938 177.404 904.938 198.029ZM898.063 170.529 898.063 149.904 904.938 149.904 904.938 170.529ZM898.063 143.029 898.063 122.404 904.938 122.404 904.938 143.029ZM906.471 117.063 927.096 117.063 927.096 123.938 906.471 123.938ZM933.971 117.063 954.596 117.063 954.596 123.938 933.971 123.938ZM961.471 117.063 982.096 117.063 982.096 123.938 961.471 123.938ZM988.971 117.063 1009.6 117.063 1009.6 123.938 988.971 123.938ZM1016.47 117.063 1037.1 117.063 1037.1 123.938 1016.47 123.938ZM1043.97 117.063 1064.6 117.063 1064.6 123.938 1043.97 123.938ZM1071.47 117.063 1092.1 117.063 1092.1 123.938 1071.47 123.938ZM1098.97 117.063 1119.6 117.063 1119.6 123.938 1098.97 123.938ZM1126.47 117.063 1147.1 117.063 1147.1 123.938 1126.47 123.938ZM1153.97 117.063 1174.6 117.063 1174.6 123.938 1153.97 123.938ZM1181.47 117.063 1202.1 117.063 1202.1 123.938 1181.47 123.938ZM1208.97 117.063 1229.6 117.063 1229.6 123.938 1208.97 123.938ZM1236.47 117.063 1257.1 117.063 1257.1 123.938 1236.47 123.938ZM1263.97 117.063 1284.6 117.063 1284.6 123.938 1263.97 123.938ZM1291.47 117.063 1312.1 117.063 1312.1 123.938 1291.47 123.938ZM1318.97 117.063 1339.6 117.063 1339.6 123.938 1318.97 123.938ZM1346.47 117.063 1367.1 117.063 1367.1 123.938 1346.47 123.938ZM1373.97 117.063 1394.6 117.063 1394.6 123.938 1373.97 123.938ZM1401.47 117.063 1422.1 117.063 1422.1 123.938 1401.47 123.938ZM1428.97 117.063 1449.6 117.063 1449.6 123.938 1428.97 123.938ZM1456.47 117.063 1477.1 117.063 1477.1 123.938 1456.47 123.938ZM1483.97 117.063 1504.6 117.063 1504.6 123.938 1483.97 123.938ZM1511.47 117.063 1532.1 117.063 1532.1 123.938 1511.47 123.938ZM1538.97 117.063 1559.6 117.063 1559.6 123.938 1538.97 123.938ZM1566.47 117.063 1587.1 117.063 1587.1 123.938 1566.47 123.938ZM1593.97 117.063 1614.6 117.063 1614.6 123.938 1593.97 123.938ZM1621.47 117.063 1642.1 117.063 1642.1 123.938 1621.47 123.938ZM1648.97 117.063 1669.6 117.063 1669.6 123.938 1648.97 123.938ZM1676.47 117.063 1697.1 117.063 1697.1 123.938 1676.47 123.938ZM1703.97 117.063 1724.6 117.063 1724.6 123.938 1703.97 123.938ZM1731.47 117.063 1752.1 117.063 1752.1 123.938 1731.47 123.938ZM1758.97 117.063 1779.6 117.063 1779.6 123.938 1758.97 123.938ZM1786.47 117.063 1807.1 117.063 1807.1 123.938 1786.47 123.938ZM1813.97 117.063 1834.6 117.063 1834.6 123.938 1813.97 123.938ZM1841.47 117.063 1862.1 117.063 1862.1 123.938 1841.47 123.938ZM1868.97 117.063 1889.6 117.063 1889.6 123.938 1868.97 123.938ZM1896.47 117.063 1917.1 117.063 1917.1 123.938 1896.47 123.938ZM1923.97 117.063 1944.6 117.063 1944.6 123.938 1923.97 123.938ZM1951.47 117.063 1972.1 117.063 1972.1 123.938 1951.47 123.938ZM1978.97 117.063 1999.6 117.063 1999.6 123.938 1978.97 123.938ZM2006.47 117.063 2027.1 117.063 2027.1 123.938 2006.47 123.938ZM2033.97 117.063 2046.53 117.063 2046.53 123.938 2033.97 123.938ZM2041.95 106.75 2069.45 120.5 2041.95 134.25Z"/><text font-family="Arial,Arial_MSFontService,sans-serif" font-weight="700" font-size="55" transform="matrix(1 0 0 1 3639.15 190)">Bounce</text><text font-family="Arial,Arial_MSFontService,sans-serif" font-weight="700" font-size="55" transform="matrix(1 0 0 1 3851.7 190)">buffer</text><path d="M22.9167-3.4375 43.5417-3.4375 43.5417 3.4375 22.9167 3.4375ZM50.4167-3.4375 71.0417-3.4375 71.0417 3.4375 50.4167 3.4375ZM77.9167-3.4375 98.5417-3.4375 98.5417 3.4375 77.9167 3.4375ZM105.417-3.4375 126.042-3.4375 126.042 3.4375 105.417 3.4375ZM132.917-3.4375 153.542-3.4375 153.542 3.4375 132.917 3.4375ZM160.417-3.4375 181.042-3.4375 181.042 3.4375 160.417 3.4375ZM187.917-3.4375 208.542-3.4375 208.542 3.4375 187.917 3.4375ZM215.417-3.4375 236.042-3.4375 236.042 3.4375 215.417 3.4375ZM242.917-3.4375 263.542-3.4375 263.542 3.4375 242.917 3.4375ZM270.417-3.4375 291.042-3.4375 291.042 3.4375 270.417 3.4375ZM297.917-3.4375 318.542-3.4375 318.542 3.4375 297.917 3.4375ZM325.417-3.4375 346.042-3.4375 346.042 3.4375 325.417 3.4375ZM352.917-3.4375 373.542-3.4375 373.542 3.4375 352.917 3.4375ZM380.417-3.4375 401.042-3.4375 401.042 3.4375 380.417 3.4375ZM407.917-3.4375 428.542-3.4375 428.542 3.4375 407.917 3.4375ZM435.417-3.4375 456.042-3.4375 456.042 3.4375 435.417 3.4375ZM462.917-3.4375 483.542-3.4375 483.542 3.4375 462.917 3.4375ZM490.417-3.4375 511.042-3.4375 511.042 3.4375 490.417 3.4375ZM517.917-3.4375 538.542-3.4375 538.542 3.4375 517.917 3.4375ZM545.417-3.4375 566.042-3.4375 566.042 3.4375 545.417 3.4375ZM572.917-3.4375 593.542-3.4375 593.542 3.4375 572.917 3.4375ZM600.417-3.4375 621.042-3.4375 621.042 3.4375 600.417 3.4375ZM627.917-3.4375 648.542-3.4375 648.542 3.4375 627.917 3.4375ZM655.417-3.4375 676.042-3.4375 676.042 3.4375 655.417 3.4375ZM682.917-3.4375 703.542-3.4375 703.542 3.4375 682.917 3.4375ZM710.417-3.4375 731.042-3.4375 731.042 3.4375 710.417 3.4375ZM737.917-3.4375 758.542-3.4375 758.542 3.4375 737.917 3.4375ZM765.417-3.4375 786.042-3.4375 786.042 3.4375 765.417 3.4375ZM792.917-3.4375 813.542-3.4375 813.542 3.4375 792.917 3.4375ZM820.417-3.4375 841.042-3.4375 841.042 3.4375 820.417 3.4375ZM845.652 5.70183 845.652 26.3268 838.777 26.3268 838.777 5.70183ZM845.652 33.2018 845.652 44.4298 842.215 40.9923 851.612 40.9923 851.612 47.8673 842.215 47.8673C840.316 47.8673 838.777 46.3283 838.777 44.4298L838.777 33.2018ZM858.487 40.9923 879.112 40.9923 879.112 47.8673 858.487 47.8673ZM885.987 40.9923 906.612 40.9923 906.612 47.8673 885.987 47.8673ZM913.487 40.9923 934.112 40.9923 934.112 47.8673 913.487 47.8673ZM940.987 40.9923 961.612 40.9923 961.612 47.8673 940.987 47.8673ZM968.487 40.9923 989.112 40.9923 989.112 47.8673 968.487 47.8673ZM995.987 40.9923 1016.61 40.9923 1016.61 47.8673 995.987 47.8673ZM1023.49 40.9923 1044.11 40.9923 1044.11 47.8673 1023.49 47.8673ZM1050.99 40.9923 1071.61 40.9923 1071.61 47.8673 1050.99 47.8673ZM1078.49 40.9923 1099.11 40.9923 1099.11 47.8673 1078.49 47.8673ZM1105.99 40.9923 1126.61 40.9923 1126.61 47.8673 1105.99 47.8673ZM1133.49 40.9923 1154.11 40.9923 1154.11 47.8673 1133.49 47.8673ZM1160.99 40.9923 1181.61 40.9923 1181.61 47.8673 1160.99 47.8673ZM1188.49 40.9923 1209.11 40.9923 1209.11 47.8673 1188.49 47.8673ZM1215.99 40.9923 1236.61 40.9923 1236.61 47.8673 1215.99 47.8673ZM1243.49 40.9923 1264.11 40.9923 1264.11 47.8673 1243.49 47.8673ZM1270.99 40.9923 1291.61 40.9923 1291.61 47.8673 1270.99 47.8673ZM1298.49 40.9923 1319.11 40.9923 1319.11 47.8673 1298.49 47.8673ZM1325.99 40.9923 1346.61 40.9923 1346.61 47.8673 1325.99 47.8673ZM1353.49 40.9923 1374.11 40.9923 1374.11 47.8673 1353.49 47.8673ZM1380.99 40.9923 1401.61 40.9923 1401.61 47.8673 1380.99 47.8673ZM1408.49 40.9923 1429.11 40.9923 1429.11 47.8673 1408.49 47.8673ZM1435.99 40.9923 1456.61 40.9923 1456.61 47.8673 1435.99 47.8673ZM1463.49 40.9923 1484.11 40.9923 1484.11 47.8673 1463.49 47.8673ZM1490.99 40.9923 1511.61 40.9923 1511.61 47.8673 1490.99 47.8673ZM1518.49 40.9923 1539.11 40.9923 1539.11 47.8673 1518.49 47.8673ZM1545.99 40.9923 1566.61 40.9923 1566.61 47.8673 1545.99 47.8673ZM1573.49 40.9923 1594.11 40.9923 1594.11 47.8673 1573.49 47.8673ZM1600.99 40.9923 1621.61 40.9923 1621.61 47.8673 1600.99 47.8673ZM1628.49 40.9923 1649.11 40.9923 1649.11 47.8673 1628.49 47.8673ZM1655.99 40.9923 1676.61 40.9923 1676.61 47.8673 1655.99 47.8673ZM1683.49 40.9923 1684.43 40.9923 1684.43 47.8673 1683.49 47.8673ZM27.5 13.75 0 0 27.5-13.75Z" transform="matrix(1 0 0 -1 1894.5 214.93)"/><path d="M2481.5 77.0624 2502.12 77.0624 2502.12 83.9374 2481.5 83.9374ZM2509 77.0624 2529.62 77.0624 2529.62 83.9374 2509 83.9374ZM2536.5 77.0624 2557.12 77.0624 2557.12 83.9374 2536.5 83.9374ZM2564 77.0624 2584.62 77.0624 2584.62 83.9374 2564 83.9374ZM2591.5 77.0624 2612.12 77.0624 2612.12 83.9374 2591.5 83.9374ZM2619 77.0624 2639.62 77.0624 2639.62 83.9374 2619 83.9374ZM2646.5 77.0624 2667.12 77.0624 2667.12 83.9374 2646.5 83.9374ZM2674 77.0624 2694.62 77.0624 2694.62 83.9374 2674 83.9374ZM2701.5 77.0624 2722.12 77.0624 2722.12 83.9374 2701.5 83.9374ZM2729 77.0624 2749.62 77.0624 2749.62 83.9374 2729 83.9374ZM2756.5 77.0624 2777.12 77.0624 2777.12 83.9374 2756.5 83.9374ZM2784 77.0624 2804.62 77.0624 2804.62 83.9374 2784 83.9374ZM2811.5 77.0624 2832.12 77.0624 2832.12 83.9374 2811.5 83.9374ZM2839 77.0624 2859.62 77.0624 2859.62 83.9374 2839 83.9374ZM2866.5 77.0624 2887.12 77.0624 2887.12 83.9374 2866.5 83.9374ZM2894 77.0624 2914.62 77.0624 2914.62 83.9374 2894 83.9374ZM2921.5 77.0624 2942.12 77.0624 2942.12 83.9374 2921.5 83.9374ZM2949 77.0624 2969.62 77.0624 2969.62 83.9374 2949 83.9374ZM2976.5 77.0624 2997.12 77.0624 2997.12 83.9374 2976.5 83.9374ZM3004 77.0624 3024.62 77.0624 3024.62 83.9374 3004 83.9374ZM3031.5 77.0624 3052.12 77.0624 3052.12 83.9374 3031.5 83.9374ZM3059 77.0624 3079.62 77.0624 3079.62 83.9374 3059 83.9374ZM3086.5 77.0624 3107.12 77.0624 3107.12 83.9374 3086.5 83.9374ZM3114 77.0624 3134.62 77.0624 3134.62 83.9374 3114 83.9374ZM3141.5 77.0624 3162.12 77.0624 3162.12 83.9374 3141.5 83.9374ZM3169 77.0624 3189.62 77.0624 3189.62 83.9374 3169 83.9374ZM3196.5 77.0624 3217.12 77.0624 3217.12 83.9374 3196.5 83.9374ZM3224 77.0624 3244.62 77.0624 3244.62 83.9374 3224 83.9374ZM3251.5 77.0624 3272.12 77.0624 3272.12 83.9374 3251.5 83.9374ZM3279 77.0624 3299.62 77.0624 3299.62 83.9374 3279 83.9374ZM3306.5 77.0624 3327.12 77.0624 3327.12 83.9374 3306.5 83.9374ZM3334 77.0624 3354.62 77.0624 3354.62 83.9374 3334 83.9374ZM3361.5 77.0624 3382.12 77.0624 3382.12 83.9374 3361.5 83.9374ZM3389 77.0624 3409.62 77.0624 3409.62 83.9374 3389 83.9374ZM3416.5 77.0624 3437.12 77.0624 3437.12 83.9374 3416.5 83.9374ZM3444 77.0624 3464.62 77.0624 3464.62 83.9374 3444 83.9374ZM3471.5 77.0624 3492.12 77.0624 3492.12 83.9374 3471.5 83.9374ZM3499 77.0624 3519.62 77.0624 3519.62 83.9374 3499 83.9374ZM3526.5 77.0624 3547.12 77.0624 3547.12 83.9374 3526.5 83.9374ZM3554 77.0624 3574.62 77.0624 3574.62 83.9374 3554 83.9374ZM3581.5 77.0624 3602.12 77.0624 3602.12 83.9374 3581.5 83.9374ZM3609 77.0624 3629.62 77.0624 3629.62 83.9374 3609 83.9374ZM3636.5 77.0624 3657.12 77.0624 3657.12 83.9374 3636.5 83.9374ZM3664 77.0624 3684.62 77.0624 3684.62 83.9374 3664 83.9374ZM3691.5 77.0624 3712.12 77.0624 3712.12 83.9374 3691.5 83.9374ZM3719 77.0624 3739.62 77.0624 3739.62 83.9374 3719 83.9374ZM3746.5 77.0624 3767.12 77.0624 3767.12 83.9374 3746.5 83.9374ZM3774 77.0624 3794.62 77.0624 3794.62 83.9374 3774 83.9374ZM3801.5 77.0624 3822.12 77.0624 3822.12 83.9374 3801.5 83.9374ZM3827.03 85.905 3827.03 106.53 3820.16 106.53 3820.16 85.905ZM3827.03 113.405 3827.03 114.181 3820.16 114.181 3820.16 113.405ZM3837.34 109.598 3823.59 137.098 3809.84 109.598Z"/><path d="M-22.9167 3.4375-43.5417 3.4375-43.5417-3.4375-22.9167-3.4375ZM-50.4167 3.4375-71.0417 3.4375-71.0417-3.4375-50.4167-3.4375ZM-77.9167 3.4375-82.4906 3.4375-79.0531 0-79.0531 16.0511-85.9281 16.0511-85.9281 0C-85.9281-1.89848-84.3891-3.4375-82.4906-3.4375L-77.9167-3.4375ZM-79.0531 22.9261-79.0531 43.5511-85.9281 43.5511-85.9281 22.9261ZM-79.0531 50.4261-79.0531 71.0511-85.9281 71.0511-85.9281 50.4261ZM-79.0531 77.9261-79.0531 98.5511-85.9281 98.5511-85.9281 77.9261ZM-79.0531 105.426-79.0531 126.051-85.9281 126.051-85.9281 105.426ZM-79.0531 132.926-79.0531 149.778-82.4906 146.34-78.717 146.34-78.717 153.215-82.4906 153.215C-84.3891 153.215-85.9281 151.676-85.9281 149.778L-85.9281 132.926ZM-71.842 146.34-51.217 146.34-51.217 153.215-71.842 153.215ZM-44.342 146.34-23.717 146.34-23.717 153.215-44.342 153.215ZM-16.842 146.34 3.78296 146.34 3.78296 153.215-16.842 153.215ZM10.658 146.34 31.283 146.34 31.283 153.215 10.658 153.215ZM38.158 146.34 58.783 146.34 58.783 153.215 38.158 153.215ZM65.658 146.34 86.283 146.34 86.283 153.215 65.658 153.215ZM93.158 146.34 113.783 146.34 113.783 153.215 93.158 153.215ZM120.658 146.34 141.283 146.34 141.283 153.215 120.658 153.215ZM148.158 146.34 168.783 146.34 168.783 153.215 148.158 153.215ZM175.658 146.34 196.283 146.34 196.283 153.215 175.658 153.215ZM203.158 146.34 223.783 146.34 223.783 153.215 203.158 153.215ZM230.658 146.34 251.283 146.34 251.283 153.215 230.658 153.215ZM258.158 146.34 278.783 146.34 278.783 153.215 258.158 153.215ZM285.658 146.34 306.283 146.34 306.283 153.215 285.658 153.215ZM313.158 146.34 333.783 146.34 333.783 153.215 313.158 153.215ZM340.658 146.34 361.283 146.34 361.283 153.215 340.658 153.215ZM368.158 146.34 388.783 146.34 388.783 153.215 368.158 153.215ZM395.658 146.34 416.283 146.34 416.283 153.215 395.658 153.215ZM423.158 146.34 443.783 146.34 443.783 153.215 423.158 153.215ZM450.658 146.34 471.283 146.34 471.283 153.215 450.658 153.215ZM478.158 146.34 498.783 146.34 498.783 153.215 478.158 153.215ZM505.658 146.34 526.283 146.34 526.283 153.215 505.658 153.215ZM533.158 146.34 553.783 146.34 553.783 153.215 533.158 153.215ZM560.658 146.34 581.283 146.34 581.283 153.215 560.658 153.215ZM588.158 146.34 608.783 146.34 608.783 153.215 588.158 153.215ZM615.658 146.34 636.283 146.34 636.283 153.215 615.658 153.215ZM643.158 146.34 663.783 146.34 663.783 153.215 643.158 153.215ZM670.658 146.34 691.283 146.34 691.283 153.215 670.658 153.215ZM698.158 146.34 718.783 146.34 718.783 153.215 698.158 153.215ZM725.658 146.34 746.283 146.34 746.283 153.215 725.658 153.215ZM753.158 146.34 773.783 146.34 773.783 153.215 753.158 153.215ZM780.658 146.34 801.283 146.34 801.283 153.215 780.658 153.215ZM808.158 146.34 828.783 146.34 828.783 153.215 808.158 153.215ZM835.658 146.34 856.283 146.34 856.283 153.215 835.658 153.215ZM863.158 146.34 883.783 146.34 883.783 153.215 863.158 153.215ZM890.658 146.34 911.283 146.34 911.283 153.215 890.658 153.215ZM918.158 146.34 938.783 146.34 938.783 153.215 918.158 153.215ZM945.658 146.34 966.283 146.34 966.283 153.215 945.658 153.215ZM973.158 146.34 993.783 146.34 993.783 153.215 973.158 153.215ZM1000.66 146.34 1021.28 146.34 1021.28 153.215 1000.66 153.215ZM1028.16 146.34 1048.78 146.34 1048.78 153.215 1028.16 153.215ZM1055.66 146.34 1076.28 146.34 1076.28 153.215 1055.66 153.215ZM1083.16 146.34 1103.78 146.34 1103.78 153.215 1083.16 153.215ZM1110.66 146.34 1131.28 146.34 1131.28 153.215 1110.66 153.215ZM1138.16 146.34 1158.78 146.34 1158.78 153.215 1138.16 153.215ZM1165.66 146.34 1186.28 146.34 1186.28 153.215 1165.66 153.215ZM1193.16 146.34 1213.78 146.34 1213.78 153.215 1193.16 153.215ZM1220.66 146.34 1241.28 146.34 1241.28 153.215 1220.66 153.215ZM1248.16 146.34 1268.78 146.34 1268.78 153.215 1248.16 153.215ZM1275.66 146.34 1296.28 146.34 1296.28 153.215 1275.66 153.215ZM1303.16 146.34 1323.78 146.34 1323.78 153.215 1303.16 153.215ZM1330.66 146.34 1351.28 146.34 1351.28 153.215 1330.66 153.215ZM1358.16 146.34 1378.78 146.34 1378.78 153.215 1358.16 153.215ZM1385.66 146.34 1406.28 146.34 1406.28 153.215 1385.66 153.215ZM1413.16 146.34 1433.78 146.34 1433.78 153.215 1413.16 153.215ZM1440.66 146.34 1461.28 146.34 1461.28 153.215 1440.66 153.215ZM1468.16 146.34 1488.78 146.34 1488.78 153.215 1468.16 153.215ZM1495.66 146.34 1516.28 146.34 1516.28 153.215 1495.66 153.215ZM1523.16 146.34 1543.78 146.34 1543.78 153.215 1523.16 153.215ZM1550.66 146.34 1571.28 146.34 1571.28 153.215 1550.66 153.215ZM1578.16 146.34 1598.78 146.34 1598.78 153.215 1578.16 153.215ZM1605.66 146.34 1626.28 146.34 1626.28 153.215 1605.66 153.215ZM1633.16 146.34 1653.78 146.34 1653.78 153.215 1633.16 153.215ZM1660.66 146.34 1681.28 146.34 1681.28 153.215 1660.66 153.215ZM1688.16 146.34 1708.78 146.34 1708.78 153.215 1688.16 153.215ZM1715.66 146.34 1736.28 146.34 1736.28 153.215 1715.66 153.215ZM1743.16 146.34 1763.78 146.34 1763.78 153.215 1743.16 153.215ZM1770.66 146.34 1791.28 146.34 1791.28 153.215 1770.66 153.215ZM1798.16 146.34 1818.78 146.34 1818.78 153.215 1798.16 153.215ZM1825.66 146.34 1846.28 146.34 1846.28 153.215 1825.66 153.215ZM1853.16 146.34 1873.78 146.34 1873.78 153.215 1853.16 153.215ZM1880.66 146.34 1901.28 146.34 1901.28 153.215 1880.66 153.215ZM1908.16 146.34 1928.78 146.34 1928.78 153.215 1908.16 153.215ZM1935.66 146.34 1956.28 146.34 1956.28 153.215 1935.66 153.215ZM1963.16 146.34 1983.78 146.34 1983.78 153.215 1963.16 153.215ZM1990.66 146.34 2011.28 146.34 2011.28 153.215 1990.66 153.215ZM2018.16 146.34 2038.78 146.34 2038.78 153.215 2018.16 153.215ZM2045.66 146.34 2066.28 146.34 2066.28 153.215 2045.66 153.215ZM2073.16 146.34 2093.78 146.34 2093.78 153.215 2073.16 153.215ZM2100.66 146.34 2121.28 146.34 2121.28 153.215 2100.66 153.215ZM2128.16 146.34 2148.78 146.34 2148.78 153.215 2128.16 153.215ZM2155.66 146.34 2176.28 146.34 2176.28 153.215 2155.66 153.215ZM2183.16 146.34 2203.78 146.34 2203.78 153.215 2183.16 153.215ZM2210.66 146.34 2231.28 146.34 2231.28 153.215 2210.66 153.215ZM2238.16 146.34 2258.78 146.34 2258.78 153.215 2238.16 153.215ZM-27.5-13.75 0 0-27.5 13.75Z" transform="matrix(-1 0 0 1 4069.22 170.5)"/><text font-family="Cambria Math,Cambria Math_MSFontService,sans-serif" font-weight="400" font-size="50" transform="matrix(1 0 0 1 1994.49 61)">③</text><text font-family="Cambria Math,Cambria Math_MSFontService,sans-serif" font-weight="400" font-size="50" transform="matrix(1 0 0 1 3656.35 137)">④</text><rect x="3450.5" y="1829.5" width="163" height="119" stroke="#A6A6A6" stroke-width="20.625" stroke-linejoin="round" stroke-miterlimit="10" fill="none"/><text font-family="Arial,Arial_MSFontService,sans-serif" font-weight="400" font-size="50" transform="matrix(1 0 0 1 3650.72 1871)">Metadata header is </text><text font-family="Arial,Arial_MSFontService,sans-serif" font-weight="400" font-size="50" transform="matrix(1 0 0 1 3650.72 1932)">stored in plaintext</text><path d="M499.063 2296.58 499.063 2289.71 505.938 2289.71 505.938 2296.58ZM499.063 2282.83 499.063 2275.96 505.938 2275.96 505.938 2282.83ZM499.063 2269.08 499.063 2262.21 505.938 2262.21 505.938 2269.08ZM499.063 2255.33 499.063 2248.46 505.938 2248.46 505.938 2255.33ZM499.063 2241.58 499.063 2234.71 505.938 2234.71 505.938 2241.58ZM499.063 2227.83 499.063 2220.96 505.938 2220.96 505.938 2227.83ZM499.063 2214.08 499.063 2207.21 505.938 2207.21 505.938 2214.08ZM499.063 2200.33 499.063 2193.46 505.938 2193.46 505.938 2200.33ZM499.063 2186.58 499.063 2179.71 505.938 2179.71 505.938 2186.58ZM499.063 2172.83 499.063 2165.96 505.938 2165.96 505.938 2172.83ZM499.063 2159.08 499.063 2152.21 505.938 2152.21 505.938 2159.08ZM499.063 2145.33 499.063 2138.46 505.938 2138.46 505.938 2145.33ZM499.063 2131.58 499.063 2124.71 505.938 2124.71 505.938 2131.58ZM499.063 2117.83 499.063 2110.96 505.938 2110.96 505.938 2117.83ZM499.063 2104.08 499.063 2097.21 505.938 2097.21 505.938 2104.08ZM499.063 2090.33 499.063 2083.46 505.938 2083.46 505.938 2090.33ZM499.063 2076.58 499.063 2069.71 505.938 2069.71 505.938 2076.58ZM499.063 2062.83 499.063 2055.96 505.938 2055.96 505.938 2062.83ZM499.063 2049.08 499.063 2042.21 505.938 2042.21 505.938 2049.08ZM499.063 2035.33 499.063 2028.46 505.938 2028.46 505.938 2035.33ZM499.063 2021.58 499.063 2014.71 505.938 2014.71 505.938 2021.58ZM499.063 2007.83 499.063 2000.96 505.938 2000.96 505.938 2007.83ZM499.063 1994.08 499.063 1987.21 505.938 1987.21 505.938 1994.08ZM499.063 1980.33 499.063 1973.46 505.938 1973.46 505.938 1980.33ZM499.063 1966.58 499.063 1959.71 505.938 1959.71 505.938 1966.58ZM499.063 1952.83 499.063 1945.96 505.938 1945.96 505.938 1952.83ZM499.063 1939.08 499.063 1932.21 505.938 1932.21 505.938 1939.08ZM499.063 1925.33 499.063 1918.46 505.938 1918.46 505.938 1925.33ZM499.063 1911.58 499.063 1904.71 505.938 1904.71 505.938 1911.58ZM499.063 1897.83 499.063 1890.96 505.938 1890.96 505.938 1897.83ZM499.063 1884.08 499.063 1877.21 505.938 1877.21 505.938 1884.08ZM499.063 1870.33 499.063 1863.46 505.938 1863.46 505.938 1870.33ZM499.063 1856.58 499.063 1849.71 505.938 1849.71 505.938 1856.58ZM499.063 1842.83 499.063 1835.96 505.938 1835.96 505.938 1842.83ZM499.063 1829.08 499.063 1822.21 505.938 1822.21 505.938 1829.08ZM499.063 1815.33 499.063 1808.46 505.938 1808.46 505.938 1815.33ZM499.063 1801.58 499.063 1794.71 505.938 1794.71 505.938 1801.58ZM499.063 1787.83 499.063 1780.96 505.938 1780.96 505.938 1787.83ZM499.063 1774.08 499.063 1767.21 505.938 1767.21 505.938 1774.08ZM499.063 1760.33 499.063 1753.46 505.938 1753.46 505.938 1760.33ZM499.063 1746.58 499.063 1739.71 505.938 1739.71 505.938 1746.58ZM499.063 1732.83 499.063 1725.96 505.938 1725.96 505.938 1732.83ZM499.063 1719.08 499.063 1712.21 505.938 1712.21 505.938 1719.08ZM499.063 1705.33 499.063 1698.46 505.938 1698.46 505.938 1705.33ZM499.063 1691.58 499.063 1684.71 505.938 1684.71 505.938 1691.58ZM499.063 1677.83 499.063 1670.96 505.938 1670.96 505.938 1677.83ZM499.063 1664.08 499.063 1657.21 505.938 1657.21 505.938 1664.08ZM499.063 1650.33 499.063 1643.46 505.938 1643.46 505.938 1650.33ZM499.063 1636.58 499.063 1629.71 505.938 1629.71 505.938 1636.58ZM499.063 1622.83 499.063 1615.96 505.938 1615.96 505.938 1622.83ZM499.063 1609.08 499.063 1602.21 505.938 1602.21 505.938 1609.08ZM499.063 1595.33 499.063 1588.46 505.938 1588.46 505.938 1595.33ZM499.063 1581.58 499.063 1574.71 505.938 1574.71 505.938 1581.58ZM499.063 1567.83 499.063 1560.96 505.938 1560.96 505.938 1567.83ZM499.063 1554.08 499.063 1547.21 505.938 1547.21 505.938 1554.08ZM499.063 1540.33 499.063 1533.46 505.938 1533.46 505.938 1540.33ZM499.063 1526.58 499.063 1519.71 505.938 1519.71 505.938 1526.58ZM499.063 1512.83 499.063 1505.96 505.938 1505.96 505.938 1512.83ZM499.063 1499.08 499.063 1492.21 505.938 1492.21 505.938 1499.08ZM499.063 1485.33 499.063 1478.46 505.938 1478.46 505.938 1485.33ZM499.063 1471.58 499.063 1464.71 505.938 1464.71 505.938 1471.58ZM499.063 1457.83 499.063 1450.96 505.938 1450.96 505.938 1457.83ZM499.063 1444.08 499.063 1437.21 505.938 1437.21 505.938 1444.08ZM499.063 1430.33 499.063 1423.46 505.938 1423.46 505.938 1430.33ZM499.063 1416.58 499.063 1409.71 505.938 1409.71 505.938 1416.58ZM499.063 1402.83 499.063 1395.96 505.938 1395.96 505.938 1402.83ZM499.063 1389.08 499.063 1382.21 505.938 1382.21 505.938 1389.08ZM499.063 1375.33 499.063 1368.46 505.938 1368.46 505.938 1375.33ZM499.063 1361.58 499.063 1354.71 505.938 1354.71 505.938 1361.58ZM499.063 1347.83 499.063 1340.96 505.938 1340.96 505.938 1347.83ZM499.063 1334.08 499.063 1327.21 505.938 1327.21 505.938 1334.08ZM499.063 1320.33 499.063 1313.46 505.938 1313.46 505.938 1320.33ZM499.063 1306.58 499.063 1299.71 505.938 1299.71 505.938 1306.58ZM499.063 1292.83 499.063 1285.96 505.938 1285.96 505.938 1292.83ZM499.063 1279.08 499.063 1272.21 505.938 1272.21 505.938 1279.08ZM499.063 1265.33 499.063 1258.46 505.938 1258.46 505.938 1265.33ZM499.063 1251.58 499.063 1244.71 505.938 1244.71 505.938 1251.58ZM499.063 1237.83 499.063 1230.96 505.938 1230.96 505.938 1237.83ZM499.063 1224.08 499.063 1217.21 505.938 1217.21 505.938 1224.08ZM499.063 1210.33 499.063 1203.46 505.938 1203.46 505.938 1210.33ZM499.063 1196.58 499.063 1189.71 505.938 1189.71 505.938 1196.58ZM499.063 1182.83 499.063 1175.96 505.938 1175.96 505.938 1182.83ZM499.063 1169.08 499.063 1162.21 505.938 1162.21 505.938 1169.08ZM499.063 1155.33 499.063 1148.46 505.938 1148.46 505.938 1155.33ZM499.063 1141.58 499.063 1134.71 505.938 1134.71 505.938 1141.58ZM499.063 1127.83 499.063 1120.96 505.938 1120.96 505.938 1127.83ZM499.063 1114.08 499.063 1107.21 505.938 1107.21 505.938 1114.08ZM499.063 1100.33 499.063 1093.46 505.938 1093.46 505.938 1100.33ZM499.063 1086.58 499.063 1079.71 505.938 1079.71 505.938 1086.58ZM499.063 1072.83 499.063 1065.96 505.938 1065.96 505.938 1072.83ZM499.063 1059.08 499.063 1052.21 505.938 1052.21 505.938 1059.08ZM499.063 1045.33 499.063 1038.46 505.938 1038.46 505.938 1045.33ZM499.063 1031.58 499.063 1024.71 505.938 1024.71 505.938 1031.58ZM499.063 1017.83 499.063 1010.96 505.938 1010.96 505.938 1017.83ZM499.063 1004.08 499.063 997.209 505.938 997.209 505.938 1004.08ZM499.063 990.334 499.063 983.459 505.938 983.459 505.938 990.334ZM499.063 976.584 499.063 969.709 505.938 969.709 505.938 976.584ZM499.063 962.834 499.063 955.959 505.938 955.959 505.938 962.834ZM499.063 949.084 499.063 942.209 505.938 942.209 505.938 949.084ZM499.063 935.334 499.063 928.459 505.938 928.459 505.938 935.334ZM499.063 921.584 499.063 914.709 505.938 914.709 505.938 921.584ZM499.063 907.834 499.063 900.959 505.938 900.959 505.938 907.834ZM499.063 894.084 499.063 887.209 505.938 887.209 505.938 894.084ZM499.063 880.334 499.063 873.459 505.938 873.459 505.938 880.334ZM499.063 866.584 499.063 859.709 505.938 859.709 505.938 866.584ZM499.063 852.834 499.063 845.959 505.938 845.959 505.938 852.834ZM499.063 839.084 499.063 832.209 505.938 832.209 505.938 839.084ZM499.063 825.334 499.063 818.459 505.938 818.459 505.938 825.334ZM499.063 811.584 499.063 804.709 505.938 804.709 505.938 811.584ZM499.063 797.834 499.063 790.959 505.938 790.959 505.938 797.834ZM499.063 784.084 499.063 777.209 505.938 777.209 505.938 784.084ZM499.063 770.334 499.063 763.459 505.938 763.459 505.938 770.334ZM499.063 756.584 499.063 749.709 505.938 749.709 505.938 756.584ZM499.063 742.834 499.063 735.959 505.938 735.959 505.938 742.834ZM499.063 729.084 499.063 722.209 505.938 722.209 505.938 729.084ZM499.063 715.334 499.063 708.459 505.938 708.459 505.938 715.334ZM499.063 701.584 499.063 694.709 505.938 694.709 505.938 701.584ZM499.063 687.834 499.063 680.959 505.938 680.959 505.938 687.834ZM499.063 674.084 499.063 667.209 505.938 667.209 505.938 674.084ZM499.063 660.334 499.063 653.459 505.938 653.459 505.938 660.334ZM499.063 646.584 499.063 639.709 505.938 639.709 505.938 646.584ZM499.063 632.834 499.063 625.959 505.938 625.959 505.938 632.834ZM499.063 619.084 499.063 612.209 505.938 612.209 505.938 619.084ZM499.063 605.334 499.063 598.459 505.938 598.459 505.938 605.334ZM499.063 591.584 499.063 584.709 505.938 584.709 505.938 591.584ZM499.063 577.834 499.063 570.959 505.938 570.959 505.938 577.834ZM499.063 564.084 499.063 557.209 505.938 557.209 505.938 564.084ZM499.063 550.334 499.063 543.459 505.938 543.459 505.938 550.334ZM499.063 536.584 499.063 529.709 505.938 529.709 505.938 536.584ZM499.063 522.834 499.063 515.959 505.938 515.959 505.938 522.834ZM499.063 509.084 499.063 502.209 505.938 502.209 505.938 509.084ZM499.063 495.334 499.063 488.928C499.063 487.03 500.602 485.491 502.5 485.491L502.969 485.491 502.969 492.366 502.5 492.366 505.938 488.928 505.938 495.334ZM509.844 485.491 516.719 485.491 516.719 492.366 509.844 492.366ZM523.594 485.491 530.469 485.491 530.469 492.366 523.594 492.366ZM537.344 485.491 544.219 485.491 544.219 492.366 537.344 492.366ZM551.094 485.491 557.969 485.491 557.969 492.366 551.094 492.366ZM564.844 485.491 571.719 485.491 571.719 492.366 564.844 492.366ZM578.594 485.491 585.469 485.491 585.469 492.366 578.594 492.366ZM592.344 485.491 599.219 485.491 599.219 492.366 592.344 492.366ZM606.094 485.491 612.969 485.491 612.969 492.366 606.094 492.366ZM619.844 485.491 626.719 485.491 626.719 492.366 619.844 492.366ZM633.594 485.491 640.469 485.491 640.469 492.366 633.594 492.366ZM647.344 485.491 654.219 485.491 654.219 492.366 647.344 492.366ZM661.094 485.491 667.969 485.491 667.969 492.366 661.094 492.366ZM674.844 485.491 681.719 485.491 681.719 492.366 674.844 492.366ZM688.594 485.491 695.469 485.491 695.469 492.366 688.594 492.366ZM702.344 485.491 709.219 485.491 709.219 492.366 702.344 492.366ZM716.094 485.491 722.969 485.491 722.969 492.366 716.094 492.366ZM729.844 485.491 736.719 485.491 736.719 492.366 729.844 492.366ZM743.594 485.491 750.469 485.491 750.469 492.366 743.594 492.366ZM757.344 485.491 764.219 485.491 764.219 492.366 757.344 492.366ZM771.094 485.491 777.969 485.491 777.969 492.366 771.094 492.366ZM784.844 485.491 791.719 485.491 791.719 492.366 784.844 492.366ZM798.594 485.491 805.469 485.491 805.469 492.366 798.594 492.366ZM812.344 485.491 819.219 485.491 819.219 492.366 812.344 492.366ZM826.094 485.491 832.969 485.491 832.969 492.366 826.094 492.366ZM839.844 485.491 846.719 485.491 846.719 492.366 839.844 492.366ZM853.594 485.491 860.469 485.491 860.469 492.366 853.594 492.366ZM867.344 485.491 874.219 485.491 874.219 492.366 867.344 492.366ZM881.094 485.491 887.969 485.491 887.969 492.366 881.094 492.366ZM894.844 485.491 901.719 485.491 901.719 492.366 894.844 492.366ZM908.594 485.491 915.469 485.491 915.469 492.366 908.594 492.366ZM922.344 485.491 929.219 485.491 929.219 492.366 922.344 492.366ZM936.094 485.491 942.969 485.491 942.969 492.366 936.094 492.366ZM949.844 485.491 956.719 485.491 956.719 492.366 949.844 492.366ZM963.594 485.491 970.469 485.491 970.469 492.366 963.594 492.366ZM977.344 485.491 984.219 485.491 984.219 492.366 977.344 492.366ZM991.094 485.491 997.969 485.491 997.969 492.366 991.094 492.366ZM1004.84 485.491 1011.72 485.491 1011.72 492.366 1004.84 492.366ZM1018.59 485.491 1025.47 485.491 1025.47 492.366 1018.59 492.366ZM1032.34 485.491 1039.22 485.491 1039.22 492.366 1032.34 492.366ZM1046.09 485.491 1052.97 485.491 1052.97 492.366 1046.09 492.366ZM1059.84 485.491 1066.72 485.491 1066.72 492.366 1059.84 492.366ZM1073.59 485.491 1080.47 485.491 1080.47 492.366 1073.59 492.366ZM1087.34 485.491 1094.22 485.491 1094.22 492.366 1087.34 492.366ZM1101.09 485.491 1107.97 485.491 1107.97 492.366 1101.09 492.366ZM1114.84 485.491 1121.72 485.491 1121.72 492.366 1114.84 492.366ZM1128.59 485.491 1135.47 485.491 1135.47 492.366 1128.59 492.366ZM1142.34 485.491 1149.22 485.491 1149.22 492.366 1142.34 492.366ZM1156.09 485.491 1162.97 485.491 1162.97 492.366 1156.09 492.366ZM1169.84 485.491 1176.72 485.491 1176.72 492.366 1169.84 492.366ZM1183.59 485.491 1190.47 485.491 1190.47 492.366 1183.59 492.366ZM1197.34 485.491 1204.22 485.491 1204.22 492.366 1197.34 492.366ZM1211.09 485.491 1217.97 485.491 1217.97 492.366 1211.09 492.366ZM1224.84 485.491 1231.72 485.491 1231.72 492.366 1224.84 492.366ZM1238.59 485.491 1245.47 485.491 1245.47 492.366 1238.59 492.366ZM1252.34 485.491 1259.22 485.491 1259.22 492.366 1252.34 492.366ZM1266.09 485.491 1272.97 485.491 1272.97 492.366 1266.09 492.366ZM1279.84 485.491 1286.72 485.491 1286.72 492.366 1279.84 492.366ZM1293.59 485.491 1300.47 485.491 1300.47 492.366 1293.59 492.366ZM1307.34 485.491 1314.22 485.491 1314.22 492.366 1307.34 492.366ZM1321.09 485.491 1327.97 485.491 1327.97 492.366 1321.09 492.366ZM1334.84 485.491 1341.72 485.491 1341.72 492.366 1334.84 492.366ZM1348.59 485.491 1355.47 485.491 1355.47 492.366 1348.59 492.366ZM1362.34 485.491 1369.22 485.491 1369.22 492.366 1362.34 492.366ZM1376.09 485.491 1382.97 485.491 1382.97 492.366 1376.09 492.366ZM1389.84 485.491 1396.72 485.491 1396.72 492.366 1389.84 492.366ZM516.25 2291.99 502.5 2319.49 488.75 2291.99Z"/><rect x="3375" y="2233" width="881" height="133" fill="#FFFFFF"/><text font-family="Arial,Arial_MSFontService,sans-serif" font-style="italic" font-weight="400" font-size="55" transform="matrix(1 0 0 1 3686.46 2286)">Case of file size &gt; 3KB:</text><text font-family="Arial,Arial_MSFontService,sans-serif" font-style="italic" font-weight="400" font-size="55" transform="matrix(1 0 0 1 3707.66 2352)">Decrypting existing file</text><rect x="3450.5" y="1995.5" width="163" height="119" stroke="#000000" stroke-width="20.625" stroke-linejoin="round" stroke-miterlimit="10" fill="none"/><text font-family="Arial,Arial_MSFontService,sans-serif" font-weight="400" font-size="50" transform="matrix(1 0 0 1 3650.72 2037)">Metadata payload and </text><text font-family="Arial,Arial_MSFontService,sans-serif" font-weight="400" font-size="50" transform="matrix(1 0 0 1 3650.72 2098)">MHT/data nodes encrypted</text><text fill="#7F7F7F" font-family="Arial,Arial_MSFontService,sans-serif" font-weight="400" font-size="50" transform="matrix(1 0 0 1 3769.55 308)">Metadata </text><text fill="#7F7F7F" font-family="Arial,Arial_MSFontService,sans-serif" font-weight="400" font-size="50" transform="matrix(1 0 0 1 3992.99 308)">MAC</text><text font-family="Cambria Math,Cambria Math_MSFontService,sans-serif" font-weight="400" font-size="50" transform="matrix(1 0 0 1 3979.4 110)">①</text><text font-family="Arial,Arial_MSFontService,sans-serif" font-weight="400" font-size="50" transform="matrix(1 0 0 1 2965.23 1216)">…</text><text font-family="Cambria Math,Cambria Math_MSFontService,sans-serif" font-weight="400" font-size="50" transform="matrix(1 0 0 1 2307.47 1829)">⑤</text><text font-family="Cambria Math,Cambria Math_MSFontService,sans-serif" font-weight="400" font-size="50" transform="matrix(1 0 0 1 1904.55 2277)">⑦</text></g></svg>